<?xml version="1.0" encoding="utf-8"?>
<!-- Generator: Adobe Illustrator 18.1.1, SVG Export Plug-In . SVG Version: 6.00 Build 0)  -->
<svg version="1.1" id="Layer_1" xmlns="http://www.w3.org/2000/svg" xmlns:xlink="http://www.w3.org/1999/xlink" x="0px" y="0px"
	 viewBox="0 0 300 150" enable-background="new 0 0 300 150" xml:space="preserve">
<g opacity="0.75">
	<rect fill="#B0201E" stroke="#AF201F" stroke-miterlimit="10" width="300" height="149.3"/>
</g>
<g>
	<g>
		<path fill="#B0201E" stroke="#AF201F" stroke-miterlimit="10" d="M42.6,144.6c-20.7,0-37.5-16.8-37.5-37.5s16.8-37.5,37.5-37.5
			s37.5,16.8,37.5,37.5S63.3,144.6,42.6,144.6z M42.6,70.3c-20.3,0-36.7,16.5-36.7,36.7s16.5,36.7,36.7,36.7s36.7-16.5,36.7-36.7
			S62.9,70.3,42.6,70.3z"/>
	</g>
	<g>
		<path fill="#B0201E" stroke="#AF201F" stroke-miterlimit="10" d="M43.1,139C25.4,139,11,124.6,11,106.9
			c0-17.7,14.4-32.1,32.1-32.1c17.7,0,32.1,14.4,32.1,32.1C75.1,124.6,60.8,139,43.1,139z M43.1,75.6c-17.3,0-31.3,14.1-31.3,31.3
			c0,17.3,14.1,31.3,31.3,31.3c17.3,0,31.3-14.1,31.3-31.3C74.4,89.7,60.3,75.6,43.1,75.6z"/>
	</g>
	<g>
		<path fill="#B0201E" stroke="#AF201F" stroke-miterlimit="10" d="M43.1,133.5c-14.6,0-26.5-11.9-26.5-26.5
			c0-14.6,11.9-26.5,26.5-26.5c14.6,0,26.5,11.9,26.5,26.5C69.6,121.6,57.7,133.5,43.1,133.5z M43.1,81.2
			c-14.2,0-25.8,11.6-25.8,25.8c0,14.2,11.6,25.8,25.8,25.8c14.2,0,25.8-11.6,25.8-25.8C68.8,92.7,57.3,81.2,43.1,81.2z"/>
	</g>
	<g>
		<path fill="#B0201E" stroke="#AF201F" stroke-miterlimit="10" d="M43.1,126.3c-10.7,0-19.4-8.7-19.4-19.4s8.7-19.4,19.4-19.4
			c10.7,0,19.4,8.7,19.4,19.4S53.8,126.3,43.1,126.3z M43.1,88.3c-10.3,0-18.6,8.4-18.6,18.6c0,10.3,8.4,18.6,18.6,18.6
			s18.6-8.4,18.6-18.6C61.7,96.7,53.4,88.3,43.1,88.3z"/>
	</g>
</g>
<g>
	<g>
		<path fill="#B0201E" stroke="#AF201F" stroke-miterlimit="10" d="M89.8,108.4c-26.2,0-47.5-21.3-47.5-47.5s21.3-47.5,47.5-47.5
			s47.5,21.3,47.5,47.5S116,108.4,89.8,108.4z M89.8,14C64,14,43,35,43,60.8s21,46.8,46.8,46.8s46.8-21,46.8-46.8S115.6,14,89.8,14z
			"/>
	</g>
	<g>
		<path fill="#B0201E" stroke="#AF201F" stroke-miterlimit="10" d="M90.4,101.3c-22.4,0-40.7-18.2-40.7-40.7
			C49.7,38.2,68,20,90.4,20S131,38.2,131,60.6C131,83.1,112.8,101.3,90.4,101.3z M90.4,20.7c-22,0-39.9,17.9-39.9,39.9
			c0,22,17.9,39.9,39.9,39.9c22,0,39.9-17.9,39.9-39.9C130.3,38.6,112.4,20.7,90.4,20.7z"/>
	</g>
	<g>
		<path fill="#B0201E" stroke="#AF201F" stroke-miterlimit="10" d="M90.4,94.3c-18.5,0-33.6-15.1-33.6-33.6
			C56.8,42.1,71.8,27,90.4,27S124,42.1,124,60.6C124,79.2,108.9,94.3,90.4,94.3z M90.4,27.8c-18.1,0-32.9,14.7-32.9,32.9
			c0,18.1,14.7,32.9,32.9,32.9s32.9-14.7,32.9-32.9C123.2,42.5,108.5,27.8,90.4,27.8z"/>
	</g>
	<g>
		<path fill="#B0201E" stroke="#AF201F" stroke-miterlimit="10" d="M90.4,85.2c-13.5,0-24.5-11-24.5-24.5s11-24.5,24.5-24.5
			s24.5,11,24.5,24.5S103.9,85.2,90.4,85.2z M90.4,36.9c-13.1,0-23.8,10.7-23.8,23.8s10.7,23.8,23.8,23.8s23.8-10.7,23.8-23.8
			S103.5,36.9,90.4,36.9z"/>
	</g>
</g>
<g>
	<g>
		<path fill="#B0201E" stroke="#AF201F" stroke-miterlimit="10" d="M167.3,147.5c-15.2,0-29.6-5.9-40.3-16.7
			c-10.8-10.8-16.7-25.1-16.7-40.3c0-15.2,5.9-29.6,16.7-40.3c10.8-10.8,25.1-16.7,40.3-16.7c15.2,0,29.6,5.9,40.3,16.7
			s16.7,25.1,16.7,40.3c0,15.2-5.9,29.6-16.7,40.3S182.6,147.5,167.3,147.5z M167.3,34.1c-15,0-29.2,5.9-39.8,16.5
			S111,75.4,111,90.4s5.9,29.2,16.5,39.8c10.6,10.6,24.8,16.5,39.8,16.5c15,0,29.2-5.9,39.8-16.5c10.6-10.6,16.5-24.8,16.5-39.8
			s-5.9-29.2-16.5-39.8C196.5,40,182.4,34.1,167.3,34.1z"/>
	</g>
	<g>
		<path fill="#B0201E" stroke="#AF201F" stroke-miterlimit="10" d="M168,139c-26.9,0-48.8-21.9-48.8-48.8s21.9-48.8,48.8-48.8
			s48.8,21.9,48.8,48.8S194.9,139,168,139z M168,42.1c-26.5,0-48,21.5-48,48s21.5,48,48,48c26.5,0,48-21.5,48-48
			S194.5,42.1,168,42.1z"/>
	</g>
	<g>
		<path fill="#B0201E" stroke="#AF201F" stroke-miterlimit="10" d="M168,130.5c-22.2,0-40.3-18.1-40.3-40.3s18.1-40.3,40.3-40.3
			s40.3,18.1,40.3,40.3S190.3,130.5,168,130.5z M168,50.6c-21.8,0-39.6,17.7-39.6,39.6s17.7,39.6,39.6,39.6s39.6-17.7,39.6-39.6
			S189.9,50.6,168,50.6z"/>
	</g>
	<g>
		<path fill="#B0201E" stroke="#AF201F" stroke-miterlimit="10" d="M168,119.6c-16.2,0-29.4-13.2-29.4-29.4
			c0-16.2,13.2-29.4,29.4-29.4s29.4,13.2,29.4,29.4C197.5,106.4,184.3,119.6,168,119.6z M168,61.5c-15.8,0-28.7,12.9-28.7,28.7
			c0,15.8,12.9,28.7,28.7,28.7s28.7-12.9,28.7-28.7C196.7,74.4,183.9,61.5,168,61.5z"/>
	</g>
</g>
<g>
	<g>
		<path fill="#B0201E" stroke="#AF201F" stroke-miterlimit="10" d="M251.2,118.3c-20.8,0-37.7-16.9-37.7-37.7s16.9-37.7,37.7-37.7
			c20.8,0,37.7,16.9,37.7,37.7S271.9,118.3,251.2,118.3z M251.2,43.7c-20.4,0-37,16.6-37,37s16.6,37,37,37c20.4,0,37-16.6,37-37
			S271.5,43.7,251.2,43.7z"/>
	</g>
	<g>
		<path fill="#B0201E" stroke="#AF201F" stroke-miterlimit="10" d="M251.6,112.7c-17.8,0-32.3-14.5-32.3-32.3
			c0-17.8,14.5-32.3,32.3-32.3s32.3,14.5,32.3,32.3C283.9,98.3,269.4,112.7,251.6,112.7z M251.6,49c-17.4,0-31.5,14.1-31.5,31.5
			c0,17.4,14.1,31.5,31.5,31.5s31.5-14.1,31.5-31.5C283.1,63.1,269,49,251.6,49z"/>
	</g>
	<g>
		<path fill="#B0201E" stroke="#AF201F" stroke-miterlimit="10" d="M251.6,107.1c-14.7,0-26.7-12-26.7-26.7s12-26.7,26.7-26.7
			c14.7,0,26.7,12,26.7,26.7S266.3,107.1,251.6,107.1z M251.6,54.5c-14.3,0-25.9,11.6-25.9,25.9s11.6,25.9,25.9,25.9
			s25.9-11.6,25.9-25.9S265.9,54.5,251.6,54.5z"/>
	</g>
	<g>
		<path fill="#B0201E" stroke="#AF201F" stroke-miterlimit="10" d="M251.6,100c-10.8,0-19.5-8.7-19.5-19.5
			c0-10.8,8.7-19.5,19.5-19.5c10.8,0,19.5,8.7,19.5,19.5C271.1,91.2,262.4,100,251.6,100z M251.6,61.7c-10.3,0-18.8,8.4-18.8,18.8
			s8.4,18.8,18.8,18.8s18.8-8.4,18.8-18.8S262,61.7,251.6,61.7z"/>
	</g>
</g>
<g>
	<g>
		<path fill="#B0201E" stroke="#AF201F" stroke-miterlimit="10" d="M271.1,53c-12.6,0-22.9-10.3-22.9-22.9
			c0-12.6,10.3-22.9,22.9-22.9c12.6,0,22.9,10.3,22.9,22.9C294.1,42.7,283.8,53,271.1,53z M271.1,7.9c-12.2,0-22.2,9.9-22.2,22.2
			c0,12.2,9.9,22.2,22.2,22.2c12.2,0,22.2-9.9,22.2-22.2C293.3,17.9,283.4,7.9,271.1,7.9z"/>
	</g>
	<g>
		<path fill="#B0201E" stroke="#AF201F" stroke-miterlimit="10" d="M271.4,49.6c-10.8,0-19.6-8.8-19.6-19.6
			c0-10.8,8.8-19.6,19.6-19.6s19.6,8.8,19.6,19.6C291.1,40.8,282.3,49.6,271.4,49.6z M271.4,11.1c-10.4,0-18.9,8.5-18.9,18.9
			s8.5,18.9,18.9,18.9s18.9-8.5,18.9-18.9S281.8,11.1,271.4,11.1z"/>
	</g>
	<g>
		<path fill="#B0201E" stroke="#AF201F" stroke-miterlimit="10" d="M271.4,46.3c-9,0-16.3-7.3-16.3-16.3c0-9,7.3-16.3,16.3-16.3
			S287.7,21,287.7,30C287.7,39,280.4,46.3,271.4,46.3z M271.4,14.5c-8.6,0-15.5,7-15.5,15.5c0,8.6,7,15.5,15.5,15.5
			s15.5-7,15.5-15.5C286.9,21.4,280,14.5,271.4,14.5z"/>
	</g>
	<g>
		<path fill="#B0201E" stroke="#AF201F" stroke-miterlimit="10" d="M271.4,41.9c-6.6,0-11.9-5.4-11.9-11.9c0-6.6,5.4-11.9,11.9-11.9
			s11.9,5.4,11.9,11.9C283.4,36.6,278,41.9,271.4,41.9z M271.4,18.8c-6.2,0-11.2,5-11.2,11.2s5,11.2,11.2,11.2s11.2-5,11.2-11.2
			S277.6,18.8,271.4,18.8z"/>
	</g>
</g>
</svg>
