<?xml version="1.0" encoding="utf-8"?>
<!-- Generator: Adobe Illustrator 18.1.1, SVG Export Plug-In . SVG Version: 6.00 Build 0)  -->
<svg version="1.1" id="Layer_1" xmlns="http://www.w3.org/2000/svg" xmlns:xlink="http://www.w3.org/1999/xlink" x="0px" y="0px"
	 viewBox="0 0 300 150" enable-background="new 0 0 300 150" xml:space="preserve">
<g>
	
		<rect y="-0.2" opacity="0.8" fill="#009A49" stroke="#009A48" stroke-linecap="round" stroke-linejoin="round" stroke-miterlimit="10" enable-background="new    " width="299.4" height="149.2"/>
	<g>
		<g>
			<path fill="#009A49" stroke="#009A48" stroke-linecap="round" stroke-linejoin="round" stroke-miterlimit="10" d="M51,0.5
				c0.1,0,0.2-0.1,0.2-0.2S51.1,0.1,51,0.1H9.2c0,0-0.1,0-0.1,0C6.7,0.4,4.5,1.4,2.9,3.2C1.3,5,0.4,7.3,0.4,9.7s0.9,4.7,2.5,6.5
				C4.5,17.9,6.7,19,9,19.2c0,0,0.1,0,0.1,0H51c0.1,0,0.2-0.1,0.2-0.2c0-0.1-0.1-0.2-0.2-0.2c-5.1,0-9.2-4.1-9.2-9.2
				S45.9,0.5,51,0.5z M41.3,9.7c0,4.3,2.8,7.9,6.7,9.2H9.3c0,0,0,0-0.1,0c-2.3-0.2-4.4-1.2-5.9-2.9S0.8,12,0.8,9.7
				c0-2.3,0.8-4.5,2.4-6.2c1.5-1.7,3.7-2.7,5.9-2.9c0,0,0.1,0,0.1-0.1h38.8C44.2,1.7,41.3,5.4,41.3,9.7z"/>
		</g>
		<g>
			<path fill="#009A49" stroke="#009A48" stroke-linecap="round" stroke-linejoin="round" stroke-miterlimit="10" d="M91.9,0.5
				c0.1,0,0.2-0.1,0.2-0.2S92,0.1,91.9,0.1H50.1c0,0-0.1,0-0.1,0c-2.3,0.2-4.5,1.3-6.1,3.1c-1.6,1.8-2.5,4.1-2.5,6.5
				s0.9,4.7,2.5,6.5c1.6,1.7,3.8,2.8,6.1,3.1c0,0,0.1,0,0.1,0h41.8c0.1,0,0.2-0.1,0.2-0.2c0-0.1-0.1-0.2-0.2-0.2
				c-5.1,0-9.2-4.1-9.2-9.2S86.8,0.5,91.9,0.5z M82.2,9.7c0,4.3,2.8,7.9,6.7,9.2H50.2c0,0,0,0-0.1,0c-2.3-0.2-4.4-1.2-5.9-2.9
				s-2.4-3.9-2.4-6.2c0-2.3,0.8-4.5,2.4-6.2c1.5-1.7,3.7-2.7,5.9-2.9c0,0,0.1,0,0.1-0.1H89C85.1,1.7,82.2,5.4,82.2,9.7z"/>
		</g>
	</g>
	<g>
		<g>
			<path fill="#009A49" stroke="#009A48" stroke-linecap="round" stroke-linejoin="round" stroke-miterlimit="10" d="M133.2,0.5
				c0.1,0,0.2-0.1,0.2-0.2s-0.1-0.2-0.2-0.2H91.3c0,0-0.1,0-0.1,0c-2.3,0.2-4.5,1.3-6.1,3.1c-1.6,1.8-2.5,4.1-2.5,6.5
				s0.9,4.7,2.5,6.5c1.6,1.7,3.8,2.8,6.1,3.1c0,0,0.1,0,0.1,0h41.8c0.1,0,0.2-0.1,0.2-0.2s-0.1-0.2-0.2-0.2c-5.1,0-9.2-4.1-9.2-9.2
				S128.1,0.5,133.2,0.5z M123.5,9.7c0,4.3,2.8,7.9,6.7,9.2H91.5c0,0,0,0-0.1,0c-2.3-0.2-4.4-1.2-5.9-2.9C83.9,14.2,83,12,83,9.7
				s0.8-4.5,2.4-6.2c1.5-1.7,3.7-2.7,5.9-2.9c0,0,0.1,0,0.1,0h38.8C126.3,1.7,123.5,5.4,123.5,9.7z"/>
		</g>
		<g>
			<path fill="#009A49" stroke="#009A48" stroke-linecap="round" stroke-linejoin="round" stroke-miterlimit="10" d="M174.1,0.5
				c0.1,0,0.2-0.1,0.2-0.2s-0.1-0.2-0.2-0.2h-41.8c0,0-0.1,0-0.1,0c-2.3,0.2-4.5,1.3-6.1,3.1c-1.6,1.8-2.5,4.1-2.5,6.5
				s0.9,4.7,2.5,6.5c1.6,1.7,3.8,2.8,6.1,3.1c0,0,0.1,0,0.1,0h41.8c0.1,0,0.2-0.1,0.2-0.2c0-0.1-0.1-0.2-0.2-0.2
				c-5.1,0-9.2-4.1-9.2-9.2C164.8,4.6,169,0.5,174.1,0.5z M164.4,9.7c0,4.3,2.8,7.9,6.7,9.2h-38.8c0,0,0,0-0.1,0
				c-2.3-0.2-4.4-1.2-5.9-2.9c-1.5-1.7-2.4-3.9-2.4-6.2s0.8-4.5,2.4-6.2c1.5-1.7,3.7-2.7,5.9-2.9c0,0,0.1,0,0.1-0.1h38.8
				C167.2,1.7,164.4,5.4,164.4,9.7z"/>
		</g>
	</g>
	<g>
		<g>
			<path fill="#009A49" stroke="#009A48" stroke-linecap="round" stroke-linejoin="round" stroke-miterlimit="10" d="M214.9,0.5
				c0.1,0,0.2-0.1,0.2-0.2s-0.1-0.2-0.2-0.2h-41.8c0,0-0.1,0-0.1,0c-2.3,0.2-4.5,1.3-6.1,3.1c-1.6,1.8-2.5,4.1-2.5,6.5
				s0.9,4.7,2.5,6.5c1.6,1.7,3.8,2.8,6.1,3.1c0,0,0.1,0,0.1,0h41.8c0.1,0,0.2-0.1,0.2-0.2s-0.1-0.2-0.2-0.2c-5.1,0-9.2-4.1-9.2-9.2
				C205.7,4.6,209.8,0.5,214.9,0.5z M205.2,9.7c0,4.3,2.8,7.9,6.7,9.2h-38.8c0,0,0,0-0.1,0c-2.3-0.2-4.4-1.2-5.9-2.9
				s-2.4-3.9-2.4-6.2c0-2.3,0.8-4.5,2.4-6.2c1.5-1.7,3.7-2.7,5.9-2.9c0,0,0.1,0,0.1,0H212C208,1.7,205.2,5.4,205.2,9.7z"/>
		</g>
		<g>
			<path fill="#009A49" stroke="#009A48" stroke-linecap="round" stroke-linejoin="round" stroke-miterlimit="10" d="M255.8,0.5
				c0.1,0,0.2-0.1,0.2-0.2s-0.1-0.2-0.2-0.2H214c0,0-0.1,0-0.1,0c-2.3,0.2-4.5,1.3-6.1,3.1c-1.6,1.8-2.5,4.1-2.5,6.5
				s0.9,4.7,2.5,6.5c1.6,1.7,3.8,2.8,6.1,3.1c0,0,0.1,0,0.1,0h41.8c0.1,0,0.2-0.1,0.2-0.2c0-0.1-0.1-0.2-0.2-0.2
				c-5.1,0-9.2-4.1-9.2-9.2S250.7,0.5,255.8,0.5z M246.1,9.7c0,4.3,2.8,7.9,6.7,9.2h-38.8c0,0-0.1,0-0.1,0c-2.3-0.2-4.4-1.2-5.9-2.9
				s-2.4-3.9-2.4-6.2c0-2.3,0.8-4.5,2.4-6.2c1.5-1.7,3.7-2.7,5.9-2.9c0,0,0.1,0,0.1-0.1h38.8C249,1.7,246.1,5.4,246.1,9.7z"/>
		</g>
	</g>
	<g>
		<path fill="#009A49" stroke="#009A48" stroke-linecap="round" stroke-linejoin="round" stroke-miterlimit="10" d="M297,0.5
			c0.1,0,0.2-0.1,0.2-0.2s-0.1-0.2-0.2-0.2h-41.8c0,0-0.1,0-0.1,0c-2.3,0.2-4.5,1.3-6.1,3.1c-1.6,1.8-2.5,4.1-2.5,6.5
			s0.9,4.7,2.5,6.5c1.6,1.7,3.8,2.8,6.1,3.1c0,0,0.1,0,0.1,0H297c0.1,0,0.2-0.1,0.2-0.2s-0.1-0.2-0.2-0.2c-5.1,0-9.2-4.1-9.2-9.2
			S292,0.5,297,0.5z M287.4,9.7c0,4.3,2.8,7.9,6.7,9.2h-38.8c0,0,0,0-0.1,0c-2.3-0.2-4.4-1.2-5.9-2.9s-2.4-3.9-2.4-6.2
			s0.8-4.5,2.4-6.2c1.5-1.7,3.7-2.7,5.9-2.9c0,0,0.1,0,0.1,0h38.8C290.2,1.8,287.4,5.4,287.4,9.7z"/>
	</g>
	<path fill="#009A49" stroke="#009A48" stroke-linecap="round" stroke-linejoin="round" stroke-miterlimit="10" d="M296.2,18.9
		C296.2,18.8,296.2,18.8,296.2,18.9c-2.4-0.2-4.5-1.3-6-3c-1.5-1.7-2.4-3.9-2.4-6.2s0.8-4.5,2.4-6.2c1.5-1.7,3.7-2.7,5.9-2.9
		c0,0,0.1,0,0.1,0h3.2V0.1h-3.3c0,0-0.1,0-0.1,0c-2.3,0.2-4.5,1.3-6.1,3.1c-1.6,1.8-2.5,4.1-2.5,6.5s0.9,4.7,2.5,6.5
		c1.6,1.7,3.8,2.8,6.1,3.1c0,0,0.1,0,0.1,0h3.3v-0.4H296.2z"/>
	<g>
		<path fill="#009A49" stroke="#009A48" stroke-linecap="round" stroke-linejoin="round" stroke-miterlimit="10" d="M93.5,18.9
			c0,0-0.1,0-0.1,0H51.5c-0.1,0-0.2,0.1-0.2,0.2c0,0.1,0.1,0.2,0.2,0.2c5.1,0,9.2,4.1,9.2,9.2s-4.1,9.2-9.2,9.2
			c-0.1,0-0.2,0.1-0.2,0.2s0.1,0.2,0.2,0.2h41.8c0,0,0.1,0,0.1,0c2.3-0.2,4.5-1.3,6.1-3.1c1.6-1.8,2.5-4.1,2.5-6.5s-0.9-4.7-2.5-6.5
			C98,20.2,95.9,19.1,93.5,18.9z M99.3,34.7c-1.5,1.7-3.7,2.7-5.9,2.9c0,0-0.1,0-0.1,0H54.5c3.9-1.2,6.7-4.9,6.7-9.2
			s-2.8-7.9-6.7-9.2h38.8c0,0,0,0,0.1,0c2.3,0.2,4.4,1.2,5.9,2.9c1.5,1.7,2.4,3.9,2.4,6.2C101.7,30.8,100.9,33,99.3,34.7z"/>
	</g>
	<g>
		<path fill="#009A49" stroke="#009A48" stroke-linecap="round" stroke-linejoin="round" stroke-miterlimit="10" d="M52.6,18.9
			c0,0-0.1,0-0.1,0H10.6c-0.1,0-0.2,0.1-0.2,0.2s0.1,0.2,0.2,0.2c5.1,0,9.2,4.1,9.2,9.1s-4.1,9.2-9.2,9.2c-0.1,0-0.2,0.1-0.2,0.2
			s0.1,0.2,0.2,0.2h41.8c0,0,0.1,0,0.1,0c2.3-0.2,4.5-1.3,6.1-3.1c1.6-1.8,2.5-4.1,2.5-6.5s-0.9-4.7-2.5-6.5
			C57.1,20.2,54.9,19.2,52.6,18.9z M58.4,34.7c-1.5,1.7-3.7,2.7-5.9,2.9c0,0-0.1,0-0.1,0H13.5c3.9-1.2,6.7-4.9,6.7-9.2
			s-2.8-7.9-6.7-9.2h38.8c0,0,0,0,0.1,0c2.3,0.2,4.4,1.2,5.9,2.9c1.5,1.7,2.4,3.9,2.4,6.2C60.8,30.8,59.9,33,58.4,34.7z"/>
	</g>
	<g>
		<g>
			<path fill="#009A49" stroke="#009A48" stroke-linecap="round" stroke-linejoin="round" stroke-miterlimit="10" d="M175.7,18.9
				c0,0-0.1,0-0.1,0h-41.8c-0.1,0-0.2,0.1-0.2,0.2c0,0.1,0.1,0.2,0.2,0.2c5.1,0,9.2,4.1,9.2,9.2s-4.1,9.2-9.2,9.2
				c-0.1,0-0.2,0.1-0.2,0.2s0.1,0.2,0.2,0.2h41.8c0,0,0.1,0,0.1,0c2.3-0.2,4.5-1.3,6.1-3.1c1.6-1.8,2.5-4.1,2.5-6.5
				s-0.9-4.7-2.5-6.5C180.2,20.2,178,19.1,175.7,18.9z M181.4,34.7c-1.5,1.7-3.7,2.7-5.9,2.9c0,0-0.1,0-0.1,0h-38.8
				c3.9-1.2,6.7-4.9,6.7-9.2s-2.8-7.9-6.7-9.2h38.8c0,0,0,0,0.1,0c2.3,0.2,4.4,1.2,5.9,2.9c1.5,1.7,2.4,3.9,2.4,6.2
				S183,33,181.4,34.7z"/>
		</g>
		<g>
			<path fill="#009A49" stroke="#009A48" stroke-linecap="round" stroke-linejoin="round" stroke-miterlimit="10" d="M134.7,18.9
				c0,0-0.1,0-0.1,0H92.8c-0.1,0-0.2,0.1-0.2,0.2c0,0.1,0.1,0.2,0.2,0.2c5.1,0,9.2,4.1,9.2,9.2s-4.1,9.2-9.2,9.2
				c-0.1,0-0.2,0.1-0.2,0.2s0.1,0.2,0.2,0.2h41.8c0,0,0.1,0,0.1,0c2.3-0.2,4.5-1.3,6.1-3.1c1.6-1.8,2.5-4.1,2.5-6.5
				s-0.9-4.7-2.5-6.5C139.3,20.2,137.1,19.1,134.7,18.9z M140.5,34.7c-1.5,1.7-3.7,2.7-5.9,2.9c0,0-0.1,0-0.1,0H95.7
				c3.9-1.2,6.7-4.9,6.7-9.2s-2.8-7.9-6.7-9.2h38.8c0,0,0,0,0.1,0c2.3,0.2,4.4,1.2,5.9,2.9c1.5,1.7,2.4,3.9,2.4,6.2
				S142.1,33,140.5,34.7z"/>
		</g>
	</g>
	<g>
		<path fill="#009A49" stroke="#009A48" stroke-linecap="round" stroke-linejoin="round" stroke-miterlimit="10" d="M257.4,18.9
			c0,0-0.1,0-0.1,0h-41.8c-0.1,0-0.2,0.1-0.2,0.2s0.1,0.2,0.2,0.2c5.1,0,9.2,4.1,9.2,9.1s-4.1,9.2-9.2,9.2c-0.1,0-0.2,0.1-0.2,0.2
			s0.1,0.2,0.2,0.2h41.8c0,0,0.1,0,0.1,0c2.3-0.2,4.5-1.3,6.1-3.1c1.6-1.8,2.5-4.1,2.5-6.5s-0.9-4.7-2.5-6.5
			C261.9,20.2,259.7,19.2,257.4,18.9z M263.2,34.7c-1.5,1.7-3.7,2.7-5.9,2.9c0,0-0.1,0-0.1,0h-38.8c3.9-1.2,6.7-4.9,6.7-9.2
			s-2.8-7.9-6.7-9.2h38.8c0,0,0,0,0.1,0c2.3,0.2,4.4,1.2,5.9,2.9c1.5,1.7,2.4,3.9,2.4,6.2C265.6,30.8,264.7,33,263.2,34.7z"/>
	</g>
	<g>
		<path fill="#009A49" stroke="#009A48" stroke-linecap="round" stroke-linejoin="round" stroke-miterlimit="10" d="M216.5,18.9
			c0,0-0.1,0-0.1,0h-41.8c-0.1,0-0.2,0.1-0.2,0.2c0,0.1,0.1,0.2,0.2,0.2c5.1,0,9.2,4.1,9.2,9.2s-4.1,9.2-9.2,9.2
			c-0.1,0-0.2,0.1-0.2,0.2s0.1,0.2,0.2,0.2h41.8c0,0,0.1,0,0.1,0c2.3-0.2,4.5-1.3,6.1-3.1c1.6-1.8,2.5-4.1,2.5-6.5s-0.9-4.7-2.5-6.5
			C221,20.2,218.8,19.1,216.5,18.9z M222.2,34.7c-1.5,1.7-3.7,2.7-5.9,2.9c0,0-0.1,0-0.1,0h-38.8c3.9-1.2,6.7-4.9,6.7-9.2
			s-2.8-7.9-6.7-9.2h38.8c0,0,0,0,0.1,0c2.3,0.2,4.4,1.2,5.9,2.9c1.5,1.7,2.4,3.9,2.4,6.2C224.6,30.8,223.8,33,222.2,34.7z"/>
	</g>
	<path fill="#009A49" stroke="#009A48" stroke-linecap="round" stroke-linejoin="round" stroke-miterlimit="10" d="M298.4,37.6
		C298.4,37.6,298.4,37.6,298.4,37.6l-38.9,0c3.9-1.2,6.7-4.9,6.7-9.2s-2.8-7.9-6.7-9.2h38.8c0,0,0,0,0.1,0c0.3,0,0.7,0.1,1,0.1V19
		c-0.3,0-0.5-0.1-0.8-0.1c0,0-0.1,0-0.1,0h-41.8c-0.1,0-0.2,0.1-0.2,0.2s0.1,0.2,0.2,0.2c5.1,0,9.2,4.1,9.2,9.2s-4.1,9.2-9.2,9.2
		c-0.1,0-0.2,0.1-0.2,0.2c0,0.1,0.1,0.2,0.2,0.2h41.8c0,0,0.1,0,0.1,0c0.3,0,0.5-0.1,0.8-0.1v-0.5C299.1,37.5,298.8,37.6,298.4,37.6
		z"/>
	<g>
		<g>
			<g>
				<path fill="#009A49" stroke="#009A48" stroke-linecap="round" stroke-linejoin="round" stroke-miterlimit="10" d="M8.7,56.8
					c0,0,0.1,0,0.1,0h41.8c0.1,0,0.2-0.1,0.2-0.2s-0.1-0.2-0.2-0.2c-5.1,0-9.2-4.1-9.2-9.2s4.1-9.2,9.2-9.2c0.1,0,0.2-0.1,0.2-0.2
					s-0.1-0.2-0.2-0.2H8.8c0,0-0.1,0-0.1,0c-2.3,0.2-4.5,1.3-6.1,3.1C0.9,42.5,0,44.9,0,47.3c0,2.4,0.9,4.7,2.5,6.5
					C4.1,55.5,6.3,56.6,8.7,56.8z M2.9,41c1.5-1.7,3.7-2.7,5.9-2.9c0,0,0.1,0,0.1,0h38.8c-3.9,1.2-6.7,4.9-6.7,9.2s2.8,7.9,6.7,9.2
					H8.9c0,0-0.1,0-0.1,0c-2.3-0.2-4.4-1.2-5.9-2.9s-2.4-3.9-2.4-6.2C0.5,45,1.3,42.7,2.9,41z"/>
			</g>
			<g>
				<path fill="#009A49" stroke="#009A48" stroke-linecap="round" stroke-linejoin="round" stroke-miterlimit="10" d="M91.5,38.1
					c0.1,0,0.2-0.1,0.2-0.2s-0.1-0.2-0.2-0.2H49.7c0,0-0.1,0-0.1,0c-2.3,0.2-4.5,1.3-6.1,3.1c-1.6,1.8-2.5,4.1-2.5,6.5
					c0,2.4,0.9,4.7,2.5,6.5c1.6,1.7,3.8,2.8,6.1,3.1c0,0,0.1,0,0.1,0h41.8c0.1,0,0.2-0.1,0.2-0.2s-0.1-0.2-0.2-0.2
					c-5.1,0-9.2-4.1-9.2-9.2S86.5,38.1,91.5,38.1z M81.9,47.2c0,4.3,2.8,7.9,6.7,9.2H49.8c0,0-0.1,0-0.1,0c-2.3-0.2-4.4-1.2-5.9-2.9
					s-2.4-3.9-2.4-6.2c0-2.3,0.8-4.5,2.4-6.2c1.5-1.7,3.7-2.7,5.9-2.9c0,0,0.1,0,0.1,0h38.8C84.7,39.3,81.9,42.9,81.9,47.2z"/>
			</g>
		</g>
		<g>
			<g>
				<path fill="#009A49" stroke="#009A48" stroke-linecap="round" stroke-linejoin="round" stroke-miterlimit="10" d="M132.8,38.1
					c0.1,0,0.2-0.1,0.2-0.2s-0.1-0.2-0.2-0.2H91c0,0-0.1,0-0.1,0c-2.3,0.2-4.5,1.3-6.1,3.1c-1.6,1.8-2.5,4.1-2.5,6.5
					c0,2.4,0.9,4.7,2.5,6.5c1.6,1.7,3.8,2.8,6.1,3.1c0,0,0.1,0,0.1,0h41.8c0.1,0,0.2-0.1,0.2-0.2s-0.1-0.2-0.2-0.2
					c-5.1,0-9.2-4.1-9.2-9.2S127.7,38.1,132.8,38.1z M123.1,47.3c0,4.3,2.8,7.9,6.7,9.2H91.1c0,0-0.1,0-0.1,0
					c-2.3-0.2-4.4-1.2-5.9-2.9c-1.5-1.7-2.4-3.9-2.4-6.2c0-2.3,0.8-4.5,2.4-6.2c1.5-1.7,3.7-2.7,5.9-2.9c0,0,0.1,0,0.1,0h38.8
					C125.9,39.3,123.1,43,123.1,47.3z"/>
			</g>
			<g>
				<path fill="#009A49" stroke="#009A48" stroke-linecap="round" stroke-linejoin="round" stroke-miterlimit="10" d="M173.7,38.1
					c0.1,0,0.2-0.1,0.2-0.2s-0.1-0.2-0.2-0.2h-41.8c0,0-0.1,0-0.1,0c-2.3,0.2-4.5,1.3-6.1,3.1c-1.6,1.8-2.5,4.1-2.5,6.5
					c0,2.4,0.9,4.7,2.5,6.5c1.6,1.7,3.8,2.8,6.1,3.1c0,0,0.1,0,0.1,0h41.8c0.1,0,0.2-0.1,0.2-0.2s-0.1-0.2-0.2-0.2
					c-5.1,0-9.2-4.1-9.2-9.2C164.5,42.2,168.6,38.1,173.7,38.1z M164,47.3c0,4.3,2.8,7.9,6.7,9.2H132c0,0-0.1,0-0.1,0
					c-2.3-0.2-4.4-1.2-5.9-2.9c-1.5-1.7-2.4-3.9-2.4-6.2c0-2.3,0.8-4.5,2.4-6.2c1.5-1.7,3.7-2.7,5.9-2.9c0,0,0.1,0,0.1,0h38.8
					C166.8,39.3,164,43,164,47.3z"/>
			</g>
		</g>
	</g>
	<g>
		<g>
			<path fill="#009A49" stroke="#009A48" stroke-linecap="round" stroke-linejoin="round" stroke-miterlimit="10" d="M214.5,38.1
				c0.1,0,0.2-0.1,0.2-0.2s-0.1-0.2-0.2-0.2h-41.8c0,0-0.1,0-0.1,0c-2.3,0.2-4.5,1.3-6.1,3.1c-1.6,1.8-2.5,4.1-2.5,6.5
				c0,2.4,0.9,4.7,2.5,6.5c1.6,1.7,3.8,2.8,6.1,3.1c0,0,0.1,0,0.1,0h41.8c0.1,0,0.2-0.1,0.2-0.2s-0.1-0.2-0.2-0.2
				c-5.1,0-9.2-4.1-9.2-9.2C205.3,42.2,209.4,38.1,214.5,38.1z M204.8,47.3c0,4.3,2.8,7.9,6.7,9.2h-38.8c0,0-0.1,0-0.1,0
				c-2.3-0.2-4.4-1.2-5.9-2.9c-1.5-1.7-2.4-3.9-2.4-6.2c0-2.3,0.8-4.5,2.4-6.2c1.5-1.7,3.7-2.7,5.9-2.9c0,0,0.1,0,0.1,0h38.8
				C207.7,39.3,204.8,43,204.8,47.3z"/>
		</g>
		<g>
			<path fill="#009A49" stroke="#009A48" stroke-linecap="round" stroke-linejoin="round" stroke-miterlimit="10" d="M255.4,38.1
				c0.1,0,0.2-0.1,0.2-0.2s-0.1-0.2-0.2-0.2h-41.8c0,0-0.1,0-0.1,0c-2.3,0.2-4.5,1.3-6.1,3.1c-1.6,1.8-2.5,4.1-2.5,6.5
				c0,2.4,0.9,4.7,2.5,6.5c1.6,1.7,3.8,2.8,6.1,3.1c0,0,0.1,0,0.1,0h41.8c0.1,0,0.2-0.1,0.2-0.2s-0.1-0.2-0.2-0.2
				c-5.1,0-9.2-4.1-9.2-9.2S250.3,38.1,255.4,38.1z M245.7,47.3c0,4.3,2.8,7.9,6.7,9.2h-38.8c0,0-0.1,0-0.1,0
				c-2.3-0.2-4.4-1.2-5.9-2.9s-2.4-3.9-2.4-6.2c0-2.3,0.8-4.5,2.4-6.2c1.5-1.7,3.7-2.7,5.9-2.9c0,0,0.1,0,0.1,0h38.8
				C248.6,39.3,245.7,43,245.7,47.3z"/>
		</g>
	</g>
	<g>
		<path fill="#009A49" stroke="#009A48" stroke-linecap="round" stroke-linejoin="round" stroke-miterlimit="10" d="M296.7,38.1
			c0.1,0,0.2-0.1,0.2-0.2s-0.1-0.2-0.2-0.2h-41.8c0,0-0.1,0-0.1,0c-2.3,0.2-4.5,1.3-6.1,3.1c-1.6,1.8-2.5,4.1-2.5,6.5
			c0,2.4,0.9,4.7,2.5,6.5c1.6,1.7,3.8,2.8,6.1,3.1c0,0,0.1,0,0.1,0h41.8c0.1,0,0.2-0.1,0.2-0.2s-0.1-0.2-0.2-0.2
			c-5.1,0-9.2-4.1-9.2-9.2S291.6,38.1,296.7,38.1z M287,47.3c0,4.3,2.8,7.9,6.7,9.2H255c0,0-0.1,0-0.1,0c-2.3-0.2-4.4-1.2-5.9-2.9
			s-2.4-3.9-2.4-6.2c0-2.3,0.8-4.5,2.4-6.2c1.5-1.7,3.7-2.7,5.9-2.9c0,0,0.1,0,0.1,0h38.8C289.8,39.3,287,43,287,47.3z"/>
	</g>
	<path fill="#009A49" stroke="#009A48" stroke-linecap="round" stroke-linejoin="round" stroke-miterlimit="10" d="M295.9,56.4
		C295.8,56.4,295.8,56.4,295.9,56.4c-2.4-0.2-4.5-1.3-6-3c-1.5-1.7-2.4-3.9-2.4-6.2c0-2.3,0.8-4.5,2.4-6.2c1.5-1.7,3.7-2.7,5.9-2.9
		c0,0,0.1,0,0.1,0h3.6v-0.4h-3.7c0,0-0.1,0-0.1,0c-2.3,0.2-4.5,1.3-6.1,3.1c-1.6,1.8-2.5,4.1-2.5,6.5c0,2.4,0.9,4.7,2.5,6.5
		c1.6,1.7,3.8,2.8,6.1,3.1c0,0,0.1,0,0.1,0h3.7v-0.4H295.9z"/>
	<g>
		<path fill="#009A49" stroke="#009A48" stroke-linecap="round" stroke-linejoin="round" stroke-miterlimit="10" d="M94,56.4
			c0,0-0.1,0-0.1,0H52c-0.1,0-0.2,0.1-0.2,0.2s0.1,0.2,0.2,0.2c5.1,0,9.2,4.1,9.2,9.2c0,5.1-4.1,9.2-9.2,9.2c-0.1,0-0.2,0.1-0.2,0.2
			c0,0.1,0.1,0.2,0.2,0.2h41.8c0,0,0.1,0,0.1,0c2.3-0.2,4.5-1.3,6.1-3.1c1.6-1.8,2.5-4.1,2.5-6.5c0-2.4-0.9-4.7-2.5-6.5
			C98.5,57.7,96.3,56.7,94,56.4z M99.7,72.2c-1.5,1.7-3.7,2.7-5.9,2.9c0,0-0.1,0-0.1,0H54.9c3.9-1.2,6.7-4.9,6.7-9.2
			s-2.8-7.9-6.7-9.2h38.8c0,0,0,0,0.1,0c2.3,0.2,4.4,1.2,5.9,2.9c1.5,1.7,2.4,3.9,2.4,6.2C102.1,68.3,101.3,70.5,99.7,72.2z"/>
	</g>
	<g>
		<path fill="#009A49" stroke="#009A48" stroke-linecap="round" stroke-linejoin="round" stroke-miterlimit="10" d="M53.1,56.4
			c0,0-0.1,0-0.1,0H11.1c-0.1,0-0.2,0.1-0.2,0.2s0.1,0.2,0.2,0.2c5.1,0,9.2,4.1,9.2,9.2c0,5.1-4.1,9.2-9.2,9.2
			c-0.1,0-0.2,0.1-0.2,0.2c0,0.1,0.1,0.2,0.2,0.2h41.8c0,0,0.1,0,0.1,0c2.3-0.2,4.5-1.3,6.1-3.1c1.6-1.8,2.5-4.1,2.5-6.5
			c0-2.4-0.9-4.7-2.5-6.5C57.6,57.7,55.4,56.7,53.1,56.4z M58.8,72.2c-1.5,1.7-3.7,2.7-5.9,2.9c0,0-0.1,0-0.1,0H14
			c3.9-1.2,6.7-4.9,6.7-9.2c0-4.3-2.8-7.9-6.7-9.2h38.8c0,0,0,0,0.1,0c2.3,0.2,4.4,1.2,5.9,2.9c1.5,1.7,2.4,3.9,2.4,6.2
			C61.2,68.3,60.4,70.5,58.8,72.2z"/>
	</g>
	<g>
		<g>
			<path fill="#009A49" stroke="#009A48" stroke-linecap="round" stroke-linejoin="round" stroke-miterlimit="10" d="M176.1,56.4
				c0,0-0.1,0-0.1,0h-41.8c-0.1,0-0.2,0.1-0.2,0.2s0.1,0.2,0.2,0.2c5.1,0,9.2,4.1,9.2,9.2c0,5.1-4.1,9.2-9.2,9.2
				c-0.1,0-0.2,0.1-0.2,0.2c0,0.1,0.1,0.2,0.2,0.2H176c0,0,0.1,0,0.1,0c2.3-0.2,4.5-1.3,6.1-3.1c1.6-1.8,2.5-4.1,2.5-6.5
				c0-2.4-0.9-4.7-2.5-6.5C180.6,57.8,178.5,56.7,176.1,56.4z M181.9,72.2c-1.5,1.7-3.7,2.7-5.9,2.9c0,0-0.1,0-0.1,0h-38.8
				c3.9-1.2,6.7-4.9,6.7-9.2s-2.8-7.9-6.7-9.2h38.8c0,0,0,0,0.1,0c2.3,0.2,4.4,1.2,5.9,2.9s2.4,3.9,2.4,6.2
				C184.3,68.3,183.4,70.5,181.9,72.2z"/>
		</g>
		<g>
			<path fill="#009A49" stroke="#009A48" stroke-linecap="round" stroke-linejoin="round" stroke-miterlimit="10" d="M135.2,56.4
				c0,0-0.1,0-0.1,0H93.2c-0.1,0-0.2,0.1-0.2,0.2s0.1,0.2,0.2,0.2c5.1,0,9.2,4.1,9.2,9.2c0,5.1-4.1,9.2-9.2,9.2
				c-0.1,0-0.2,0.1-0.2,0.2c0,0.1,0.1,0.2,0.2,0.2h41.8c0,0,0.1,0,0.1,0c2.3-0.2,4.5-1.3,6.1-3.1c1.6-1.8,2.5-4.1,2.5-6.5
				c0-2.4-0.9-4.7-2.5-6.5C139.7,57.8,137.6,56.7,135.2,56.4z M141,72.2c-1.5,1.7-3.7,2.7-5.9,2.9c0,0-0.1,0-0.1,0H96.2
				c3.9-1.2,6.7-4.9,6.7-9.2s-2.8-7.9-6.7-9.2h38.8c0,0,0,0,0.1,0c2.3,0.2,4.4,1.2,5.9,2.9c1.5,1.7,2.4,3.9,2.4,6.2
				C143.4,68.3,142.5,70.5,141,72.2z"/>
		</g>
	</g>
	<g>
		<path fill="#009A49" stroke="#009A48" stroke-linecap="round" stroke-linejoin="round" stroke-miterlimit="10" d="M257.8,56.4
			c0,0-0.1,0-0.1,0h-41.8c-0.1,0-0.2,0.1-0.2,0.2s0.1,0.2,0.2,0.2c5.1,0,9.2,4.1,9.2,9.2c0,5.1-4.1,9.2-9.2,9.2
			c-0.1,0-0.2,0.1-0.2,0.2c0,0.1,0.1,0.2,0.2,0.2h41.8c0,0,0.1,0,0.1,0c2.3-0.2,4.5-1.3,6.1-3.1c1.6-1.8,2.5-4.1,2.5-6.5
			c0-2.4-0.9-4.7-2.5-6.5C262.4,57.8,260.2,56.7,257.8,56.4z M263.6,72.2c-1.5,1.7-3.7,2.7-5.9,2.9c0,0-0.1,0-0.1,0h-38.8
			c3.9-1.2,6.7-4.9,6.7-9.2s-2.8-7.9-6.7-9.2h38.8c0,0,0,0,0.1,0c2.3,0.2,4.4,1.2,5.9,2.9c1.5,1.7,2.4,3.9,2.4,6.2
			C266,68.3,265.2,70.5,263.6,72.2z"/>
	</g>
	<g>
		<path fill="#009A49" stroke="#009A48" stroke-linecap="round" stroke-linejoin="round" stroke-miterlimit="10" d="M216.9,56.4
			c0,0-0.1,0-0.1,0H175c-0.1,0-0.2,0.1-0.2,0.2s0.1,0.2,0.2,0.2c5.1,0,9.2,4.1,9.2,9.2c0,5.1-4.1,9.2-9.2,9.2
			c-0.1,0-0.2,0.1-0.2,0.2c0,0.1,0.1,0.2,0.2,0.2h41.8c0,0,0.1,0,0.1,0c2.3-0.2,4.5-1.3,6.1-3.1c1.6-1.8,2.5-4.1,2.5-6.5
			c0-2.4-0.9-4.7-2.5-6.5C221.5,57.8,219.3,56.7,216.9,56.4z M222.7,72.2c-1.5,1.7-3.7,2.7-5.9,2.9c0,0-0.1,0-0.1,0h-38.8
			c3.9-1.2,6.7-4.9,6.7-9.2s-2.8-7.9-6.7-9.2h38.8c0,0,0,0,0.1,0c2.3,0.2,4.4,1.2,5.9,2.9c1.5,1.7,2.4,3.9,2.4,6.2
			C225.1,68.3,224.3,70.5,222.7,72.2z"/>
	</g>
	<path fill="#009A49" stroke="#009A48" stroke-linecap="round" stroke-linejoin="round" stroke-miterlimit="10" d="M298.9,75.1
		C298.9,75.2,298.8,75.2,298.9,75.1l-38.9,0c3.9-1.2,6.7-4.9,6.7-9.2s-2.8-7.9-6.7-9.2h38.8c0,0,0,0,0.1,0c0.2,0,0.3,0,0.5,0.1v-0.5
		c-0.1,0-0.2,0-0.3,0c0,0-0.1,0-0.1,0h-41.8c-0.1,0-0.2,0.1-0.2,0.2s0.1,0.2,0.2,0.2c5.1,0,9.2,4.1,9.2,9.2c0,5.1-4.1,9.2-9.2,9.2
		c-0.1,0-0.2,0.1-0.2,0.2c0,0.1,0.1,0.2,0.2,0.2h41.8c0,0,0.1,0,0.1,0c0.1,0,0.2,0,0.3,0v-0.5C299.3,75.1,299.1,75.1,298.9,75.1z"/>
	<g>
		<g>
			<g>
				<path fill="#009A49" stroke="#009A48" stroke-linecap="round" stroke-linejoin="round" stroke-miterlimit="10" d="M51.1,75.6
					c0.1,0,0.2-0.1,0.2-0.2c0-0.1-0.1-0.2-0.2-0.2H9.3c0,0-0.1,0-0.1,0c-2.3,0.2-4.5,1.3-6.1,3.1c-1.6,1.8-2.5,4.1-2.5,6.5
					c0,2.4,0.9,4.7,2.5,6.5c1.6,1.7,3.8,2.8,6.1,3.1c0,0,0.1,0,0.1,0h41.8c0.1,0,0.2-0.1,0.2-0.2c0-0.1-0.1-0.2-0.2-0.2
					c-5.1,0-9.2-4.1-9.2-9.2C41.9,79.7,46,75.6,51.1,75.6z M41.4,84.8c0,4.3,2.8,7.9,6.7,9.2H9.4c0,0-0.1,0-0.1,0
					C7,93.7,4.9,92.7,3.3,91c-1.5-1.7-2.4-3.9-2.4-6.2c0-2.3,0.8-4.5,2.4-6.2c1.5-1.7,3.7-2.7,5.9-2.9c0,0,0.1,0,0.1,0h38.8
					C44.2,76.9,41.4,80.5,41.4,84.8z"/>
			</g>
			<g>
				<path fill="#009A49" stroke="#009A48" stroke-linecap="round" stroke-linejoin="round" stroke-miterlimit="10" d="M92,75.6
					c0.1,0,0.2-0.1,0.2-0.2c0-0.1-0.1-0.2-0.2-0.2H50.2c0,0-0.1,0-0.1,0c-2.3,0.2-4.5,1.3-6.1,3.1c-1.6,1.8-2.5,4.1-2.5,6.5
					c0,2.4,0.9,4.7,2.5,6.5c1.6,1.7,3.8,2.8,6.1,3.1c0,0,0.1,0,0.1,0H92c0.1,0,0.2-0.1,0.2-0.2c0-0.1-0.1-0.2-0.2-0.2
					c-5.1,0-9.2-4.1-9.2-9.2C82.8,79.7,86.9,75.6,92,75.6z M82.3,84.8c0,4.3,2.8,7.9,6.7,9.2H50.3c0,0,0,0-0.1,0
					c-2.3-0.2-4.4-1.2-5.9-2.9c-1.5-1.7-2.4-3.9-2.4-6.2c0-2.3,0.8-4.5,2.4-6.2c1.5-1.7,3.7-2.7,5.9-2.9c0,0,0.1,0,0.1,0h38.8
					C85.1,76.9,82.3,80.5,82.3,84.8z"/>
			</g>
		</g>
		<g>
			<g>
				<path fill="#009A49" stroke="#009A48" stroke-linecap="round" stroke-linejoin="round" stroke-miterlimit="10" d="M133.2,75.6
					c0.1,0,0.2-0.1,0.2-0.2c0-0.1-0.1-0.2-0.2-0.2H91.4c0,0-0.1,0-0.1,0c-2.3,0.2-4.5,1.3-6.1,3.1c-1.6,1.8-2.5,4.1-2.5,6.5
					c0,2.4,0.9,4.7,2.5,6.5c1.6,1.7,3.8,2.8,6.1,3.1c0,0,0.1,0,0.1,0h41.8c0.1,0,0.2-0.1,0.2-0.2c0-0.1-0.1-0.2-0.2-0.2
					c-5.1,0-9.2-4.1-9.2-9.2C124,79.7,128.2,75.6,133.2,75.6z M123.6,84.8c0,4.3,2.8,7.9,6.7,9.2H91.5c0,0-0.1,0-0.1,0
					c-2.3-0.2-4.4-1.2-5.9-2.9c-1.5-1.7-2.4-3.9-2.4-6.2c0-2.3,0.8-4.5,2.4-6.2c1.5-1.7,3.7-2.7,5.9-2.9c0,0,0.1,0,0.1,0h38.8
					C126.4,76.9,123.6,80.5,123.6,84.8z"/>
			</g>
			<g>
				<path fill="#009A49" stroke="#009A48" stroke-linecap="round" stroke-linejoin="round" stroke-miterlimit="10" d="M174.1,75.6
					c0.1,0,0.2-0.1,0.2-0.2c0-0.1-0.1-0.2-0.2-0.2h-41.8c0,0-0.1,0-0.1,0c-2.3,0.2-4.5,1.3-6.1,3.1c-1.6,1.8-2.5,4.1-2.5,6.5
					c0,2.4,0.9,4.7,2.5,6.5c1.6,1.7,3.8,2.8,6.1,3.1c0,0,0.1,0,0.1,0h41.8c0.1,0,0.2-0.1,0.2-0.2c0-0.1-0.1-0.2-0.2-0.2
					c-5.1,0-9.2-4.1-9.2-9.2C164.9,79.7,169.1,75.6,174.1,75.6z M164.5,84.8c0,4.3,2.8,7.9,6.7,9.2h-38.8c0,0,0,0-0.1,0
					c-2.3-0.2-4.4-1.2-5.9-2.9c-1.5-1.7-2.4-3.9-2.4-6.2c0-2.3,0.8-4.5,2.4-6.2c1.5-1.7,3.7-2.7,5.9-2.9c0,0,0.1,0,0.1,0h38.8
					C167.3,76.9,164.5,80.5,164.5,84.8z"/>
			</g>
		</g>
	</g>
	<g>
		<g>
			<path fill="#009A49" stroke="#009A48" stroke-linecap="round" stroke-linejoin="round" stroke-miterlimit="10" d="M215,75.6
				c0.1,0,0.2-0.1,0.2-0.2c0-0.1-0.1-0.2-0.2-0.2h-41.8c0,0-0.1,0-0.1,0c-2.3,0.2-4.5,1.3-6.1,3.1c-1.6,1.8-2.5,4.1-2.5,6.5
				c0,2.4,0.9,4.7,2.5,6.5c1.6,1.7,3.8,2.8,6.1,3.1c0,0,0.1,0,0.1,0H215c0.1,0,0.2-0.1,0.2-0.2c0-0.1-0.1-0.2-0.2-0.2
				c-5.1,0-9.2-4.1-9.2-9.2C205.7,79.7,209.9,75.6,215,75.6z M205.3,84.8c0,4.3,2.8,7.9,6.7,9.2h-38.8c0,0-0.1,0-0.1,0
				c-2.3-0.2-4.4-1.2-5.9-2.9c-1.5-1.7-2.4-3.9-2.4-6.2c0-2.3,0.8-4.5,2.4-6.2c1.5-1.7,3.7-2.7,5.9-2.9c0,0,0.1,0,0.1,0H212
				C208.1,76.9,205.3,80.5,205.3,84.8z"/>
		</g>
		<g>
			<path fill="#009A49" stroke="#009A48" stroke-linecap="round" stroke-linejoin="round" stroke-miterlimit="10" d="M255.9,75.6
				c0.1,0,0.2-0.1,0.2-0.2c0-0.1-0.1-0.2-0.2-0.2H214c0,0-0.1,0-0.1,0c-2.3,0.2-4.5,1.3-6.1,3.1c-1.6,1.8-2.5,4.1-2.5,6.5
				c0,2.4,0.9,4.7,2.5,6.5c1.6,1.7,3.8,2.8,6.1,3.1c0,0,0.1,0,0.1,0h41.8c0.1,0,0.2-0.1,0.2-0.2c0-0.1-0.1-0.2-0.2-0.2
				c-5.1,0-9.2-4.1-9.2-9.2C246.6,79.7,250.8,75.6,255.9,75.6z M246.2,84.8c0,4.3,2.8,7.9,6.7,9.2h-38.8c0,0,0,0-0.1,0
				c-2.3-0.2-4.4-1.2-5.9-2.9c-1.5-1.7-2.4-3.9-2.4-6.2c0-2.3,0.8-4.5,2.4-6.2c1.5-1.7,3.7-2.7,5.9-2.9c0,0,0.1,0,0.1,0h38.8
				C249,76.9,246.2,80.5,246.2,84.8z"/>
		</g>
	</g>
	<g>
		<path fill="#009A49" stroke="#009A48" stroke-linecap="round" stroke-linejoin="round" stroke-miterlimit="10" d="M297.1,75.6
			c0.1,0,0.2-0.1,0.2-0.2c0-0.1-0.1-0.2-0.2-0.2h-41.8c0,0-0.1,0-0.1,0c-2.3,0.2-4.5,1.3-6.1,3.1c-1.6,1.8-2.5,4.1-2.5,6.5
			c0,2.4,0.9,4.7,2.5,6.5c1.6,1.7,3.8,2.8,6.1,3.1c0,0,0.1,0,0.1,0h41.8c0.1,0,0.2-0.1,0.2-0.2c0-0.1-0.1-0.2-0.2-0.2
			c-5.1,0-9.2-4.1-9.2-9.2C287.9,79.7,292,75.6,297.1,75.6z M287.4,84.8c0,4.3,2.8,7.9,6.7,9.2h-38.8c0,0-0.1,0-0.1,0
			c-2.3-0.2-4.4-1.2-5.9-2.9c-1.5-1.7-2.4-3.9-2.4-6.2c0-2.3,0.8-4.5,2.4-6.2c1.5-1.7,3.7-2.7,5.9-2.9c0,0,0.1,0,0.1,0h38.8
			C290.3,76.9,287.4,80.5,287.4,84.8z"/>
	</g>
	<path fill="#009A49" stroke="#009A48" stroke-linecap="round" stroke-linejoin="round" stroke-miterlimit="10" d="M296.3,94
		C296.3,93.9,296.3,93.9,296.3,94c-2.4-0.2-4.5-1.3-6-3c-1.5-1.7-2.4-3.9-2.4-6.2c0-2.3,0.8-4.5,2.4-6.2c1.5-1.7,3.7-2.7,5.9-2.9
		c0,0,0.1,0,0.1,0h3.1v-0.4h-3.2c0,0-0.1,0-0.1,0c-2.3,0.2-4.5,1.3-6.1,3.1c-1.6,1.8-2.5,4.1-2.5,6.5c0,2.4,0.9,4.7,2.5,6.5
		c1.6,1.7,3.8,2.8,6.1,3.1c0,0,0.1,0,0.1,0h3.2V94L296.3,94L296.3,94z"/>
	<g>
		<path fill="#009A49" stroke="#009A48" stroke-linecap="round" stroke-linejoin="round" stroke-miterlimit="10" d="M94,93.9
			c0,0-0.1,0-0.1,0H52c-0.1,0-0.2,0.1-0.2,0.2c0,0.1,0.1,0.2,0.2,0.2c5.1,0,9.2,4.1,9.2,9.2c0,5.1-4.1,9.2-9.2,9.2
			c-0.1,0-0.2,0.1-0.2,0.2c0,0.1,0.1,0.2,0.2,0.2h41.8c0,0,0.1,0,0.1,0c2.3-0.2,4.5-1.3,6.1-3.1c1.6-1.8,2.5-4.1,2.5-6.5
			s-0.9-4.7-2.5-6.5C98.5,95.2,96.4,94.2,94,93.9z M99.8,109.7c-1.5,1.7-3.7,2.7-5.9,2.9c0,0-0.1,0-0.1,0H55
			c3.9-1.2,6.7-4.9,6.7-9.2c0-4.3-2.8-7.9-6.7-9.2h38.8c0,0,0,0,0.1,0c2.3,0.2,4.4,1.2,5.9,2.9c1.5,1.7,2.4,3.9,2.4,6.2
			C102.2,105.8,101.3,108,99.8,109.7z"/>
	</g>
	<g>
		<path fill="#009A49" stroke="#009A48" stroke-linecap="round" stroke-linejoin="round" stroke-miterlimit="10" d="M53.1,93.9
			c0,0-0.1,0-0.1,0H11.1c-0.1,0-0.2,0.1-0.2,0.2c0,0.1,0.1,0.2,0.2,0.2c5.1,0,9.2,4.1,9.2,9.2c0,5.1-4.1,9.2-9.2,9.2
			c-0.1,0-0.2,0.1-0.2,0.2c0,0.1,0.1,0.2,0.2,0.2H53c0,0,0.1,0,0.1,0c2.3-0.2,4.5-1.3,6.1-3.1c1.6-1.8,2.5-4.1,2.5-6.5
			s-0.9-4.7-2.5-6.5C57.6,95.2,55.4,94.2,53.1,93.9z M58.9,109.7c-1.5,1.7-3.7,2.7-5.9,2.9c0,0-0.1,0-0.1,0H14
			c3.9-1.2,6.7-4.9,6.7-9.2c0-4.3-2.8-7.9-6.7-9.2h38.8c0,0,0,0,0.1,0c2.3,0.2,4.4,1.2,5.9,2.9c1.5,1.7,2.4,3.9,2.4,6.2
			C61.3,105.8,60.4,108,58.9,109.7z"/>
	</g>
	<g>
		<g>
			<path fill="#009A49" stroke="#009A48" stroke-linecap="round" stroke-linejoin="round" stroke-miterlimit="10" d="M176.2,93.9
				c0,0-0.1,0-0.1,0h-41.8c-0.1,0-0.2,0.1-0.2,0.2c0,0.1,0.1,0.2,0.2,0.2c5.1,0,9.2,4.1,9.2,9.2c0,5.1-4.1,9.2-9.2,9.2
				c-0.1,0-0.2,0.1-0.2,0.2c0,0.1,0.1,0.2,0.2,0.2H176c0,0,0.1,0,0.1,0c2.3-0.2,4.5-1.3,6.1-3.1c1.6-1.8,2.5-4.1,2.5-6.5
				s-0.9-4.7-2.5-6.5C180.7,95.2,178.5,94.2,176.2,93.9z M181.9,109.7c-1.5,1.7-3.7,2.7-5.9,2.9c0,0-0.1,0-0.1,0h-38.8
				c3.9-1.2,6.7-4.9,6.7-9.2c0-4.3-2.8-7.9-6.7-9.2h38.8c0,0,0,0,0.1,0c2.3,0.2,4.4,1.2,5.9,2.9c1.5,1.7,2.4,3.9,2.4,6.2
				S183.5,108,181.9,109.7z"/>
		</g>
		<g>
			<path fill="#009A49" stroke="#009A48" stroke-linecap="round" stroke-linejoin="round" stroke-miterlimit="10" d="M135.2,93.9
				c0,0-0.1,0-0.1,0H93.3c-0.1,0-0.2,0.1-0.2,0.2c0,0.1,0.1,0.2,0.2,0.2c5.1,0,9.2,4.1,9.2,9.2c0,5.1-4.1,9.2-9.2,9.2
				c-0.1,0-0.2,0.1-0.2,0.2c0,0.1,0.1,0.2,0.2,0.2h41.8c0,0,0.1,0,0.1,0c2.3-0.2,4.5-1.3,6.1-3.1c1.6-1.8,2.5-4.1,2.5-6.5
				s-0.9-4.7-2.5-6.5C139.8,95.2,137.6,94.2,135.2,93.9z M141,109.7c-1.5,1.7-3.7,2.7-5.9,2.9c0,0-0.1,0-0.1,0H96.2
				c3.9-1.2,6.7-4.9,6.7-9.2c0-4.3-2.8-7.9-6.7-9.2H135c0,0,0,0,0.1,0c2.3,0.2,4.4,1.2,5.9,2.9c1.5,1.7,2.4,3.9,2.4,6.2
				S142.6,108,141,109.7z"/>
		</g>
	</g>
	<g>
		<path fill="#009A49" stroke="#009A48" stroke-linecap="round" stroke-linejoin="round" stroke-miterlimit="10" d="M257.9,93.9
			c0,0-0.1,0-0.1,0h-41.8c-0.1,0-0.2,0.1-0.2,0.2c0,0.1,0.1,0.2,0.2,0.2c5.1,0,9.2,4.1,9.2,9.2c0,5.1-4.1,9.2-9.2,9.2
			c-0.1,0-0.2,0.1-0.2,0.2c0,0.1,0.1,0.2,0.2,0.2h41.8c0,0,0.1,0,0.1,0c2.3-0.2,4.5-1.3,6.1-3.1c1.6-1.8,2.5-4.1,2.5-6.5
			s-0.9-4.7-2.5-6.5C262.4,95.2,260.2,94.2,257.9,93.9z M263.6,109.7c-1.5,1.7-3.7,2.7-5.9,2.9c0,0-0.1,0-0.1,0h-38.8
			c3.9-1.2,6.7-4.9,6.7-9.2c0-4.3-2.8-7.9-6.7-9.2h38.8c0,0,0,0,0.1,0c2.3,0.2,4.4,1.2,5.9,2.9c1.5,1.7,2.4,3.9,2.4,6.2
			C266.1,105.8,265.2,108,263.6,109.7z"/>
	</g>
	<g>
		<path fill="#009A49" stroke="#009A48" stroke-linecap="round" stroke-linejoin="round" stroke-miterlimit="10" d="M217,93.9
			c0,0-0.1,0-0.1,0H175c-0.1,0-0.2,0.1-0.2,0.2c0,0.1,0.1,0.2,0.2,0.2c5.1,0,9.2,4.1,9.2,9.2c0,5.1-4.1,9.2-9.2,9.2
			c-0.1,0-0.2,0.1-0.2,0.2c0,0.1,0.1,0.2,0.2,0.2h41.8c0,0,0.1,0,0.1,0c2.3-0.2,4.5-1.3,6.1-3.1c1.6-1.8,2.5-4.1,2.5-6.5
			s-0.9-4.7-2.5-6.5C221.5,95.2,219.3,94.2,217,93.9z M222.7,109.7c-1.5,1.7-3.7,2.7-5.9,2.9c0,0-0.1,0-0.1,0h-38.8
			c3.9-1.2,6.7-4.9,6.7-9.2c0-4.3-2.8-7.9-6.7-9.2h38.8c0,0,0,0,0.1,0c2.3,0.2,4.4,1.2,5.9,2.9c1.5,1.7,2.4,3.9,2.4,6.2
			C225.1,105.8,224.3,108,222.7,109.7z"/>
	</g>
	<path fill="#009A49" stroke="#009A48" stroke-linecap="round" stroke-linejoin="round" stroke-miterlimit="10" d="M298.9,112.7
		C298.9,112.7,298.9,112.7,298.9,112.7l-38.9,0c3.9-1.2,6.7-4.9,6.7-9.2c0-4.3-2.8-7.9-6.7-9.2h38.8c0,0,0,0,0.1,0
		c0.2,0,0.3,0,0.5,0V94c-0.1,0-0.2,0-0.3,0c0,0-0.1,0-0.1,0h-41.8c-0.1,0-0.2,0.1-0.2,0.2c0,0.1,0.1,0.2,0.2,0.2
		c5.1,0,9.2,4.1,9.2,9.2c0,5.1-4.1,9.2-9.2,9.2c-0.1,0-0.2,0.1-0.2,0.2c0,0.1,0.1,0.2,0.2,0.2H299c0,0,0.1,0,0.1,0
		c0.1,0,0.2,0,0.3,0v-0.5C299.3,112.6,299.1,112.6,298.9,112.7z"/>
	<g>
		<g>
			<g>
				<path fill="#009A49" stroke="#009A48" stroke-linecap="round" stroke-linejoin="round" stroke-miterlimit="10" d="M51.1,113.1
					c0.1,0,0.2-0.1,0.2-0.2c0-0.1-0.1-0.2-0.2-0.2H9.3c0,0-0.1,0-0.1,0C6.8,113,4.6,114,3,115.8c-1.6,1.8-2.5,4.1-2.5,6.5
					s0.9,4.7,2.5,6.5c1.6,1.7,3.8,2.8,6.1,3.1c0,0,0.1,0,0.1,0h41.8c0.1,0,0.2-0.1,0.2-0.2c0-0.1-0.1-0.2-0.2-0.2
					c-5.1,0-9.2-4.1-9.2-9.2C41.9,117.2,46.1,113.1,51.1,113.1z M41.5,122.3c0,4.3,2.8,7.9,6.7,9.2H9.4c0,0-0.1,0-0.1,0
					c-2.3-0.2-4.4-1.2-5.9-2.9S1,124.6,1,122.3c0-2.3,0.8-4.5,2.4-6.2c1.5-1.7,3.7-2.7,5.9-2.9c0,0,0.1,0,0.1,0h38.8
					C44.3,114.4,41.5,118,41.5,122.3z"/>
			</g>
			<g>
				<path fill="#009A49" stroke="#009A48" stroke-linecap="round" stroke-linejoin="round" stroke-miterlimit="10" d="M92,113.1
					c0.1,0,0.2-0.1,0.2-0.2c0-0.1-0.1-0.2-0.2-0.2H50.2c0,0-0.1,0-0.1,0c-2.3,0.2-4.5,1.3-6.1,3.1c-1.6,1.8-2.5,4.1-2.5,6.5
					c0,2.4,0.9,4.7,2.5,6.5c1.6,1.7,3.8,2.8,6.1,3.1c0,0,0.1,0,0.1,0H92c0.1,0,0.2-0.1,0.2-0.2c0-0.1-0.1-0.2-0.2-0.2
					c-5.1,0-9.2-4.1-9.2-9.2C82.8,117.2,87,113.1,92,113.1z M82.4,122.3c0,4.3,2.8,7.9,6.7,9.2H50.3c0,0-0.1,0-0.1,0
					c-2.3-0.2-4.4-1.2-5.9-2.9c-1.5-1.7-2.4-3.9-2.4-6.2c0-2.3,0.8-4.5,2.4-6.2c1.5-1.7,3.7-2.7,5.9-2.9c0,0,0.1,0,0.1,0h38.8
					C85.2,114.4,82.4,118,82.4,122.3z"/>
			</g>
		</g>
		<g>
			<g>
				<path fill="#009A49" stroke="#009A48" stroke-linecap="round" stroke-linejoin="round" stroke-miterlimit="10" d="M133.3,113.1
					c0.1,0,0.2-0.1,0.2-0.2c0-0.1-0.1-0.2-0.2-0.2H91.5c0,0-0.1,0-0.1,0c-2.3,0.2-4.5,1.3-6.1,3.1c-1.6,1.8-2.5,4.1-2.5,6.5
					c0,2.4,0.9,4.7,2.5,6.5c1.6,1.7,3.8,2.8,6.1,3.1c0,0,0.1,0,0.1,0h41.8c0.1,0,0.2-0.1,0.2-0.2c0-0.1-0.1-0.2-0.2-0.2
					c-5.1,0-9.2-4.1-9.2-9.2C124.1,117.2,128.2,113.1,133.3,113.1z M123.6,122.3c0,4.3,2.8,7.9,6.7,9.2H91.6c0,0-0.1,0-0.1,0
					c-2.3-0.2-4.4-1.2-5.9-2.9c-1.5-1.7-2.4-3.9-2.4-6.2c0-2.3,0.8-4.5,2.4-6.2c1.5-1.7,3.7-2.7,5.9-2.9c0,0,0.1,0,0.1,0h38.8
					C126.4,114.4,123.6,118,123.6,122.3z"/>
			</g>
			<g>
				<path fill="#009A49" stroke="#009A48" stroke-linecap="round" stroke-linejoin="round" stroke-miterlimit="10" d="M174.2,113.1
					c0.1,0,0.2-0.1,0.2-0.2c0-0.1-0.1-0.2-0.2-0.2h-41.8c0,0-0.1,0-0.1,0c-2.3,0.2-4.5,1.3-6.1,3.1c-1.6,1.8-2.5,4.1-2.5,6.5
					c0,2.4,0.9,4.7,2.5,6.5c1.6,1.7,3.8,2.8,6.1,3.1c0,0,0.1,0,0.1,0h41.8c0.1,0,0.2-0.1,0.2-0.2c0-0.1-0.1-0.2-0.2-0.2
					c-5.1,0-9.2-4.1-9.2-9.2C165,117.2,169.1,113.1,174.2,113.1z M164.5,122.3c0,4.3,2.8,7.9,6.7,9.2h-38.8c0,0-0.1,0-0.1,0
					c-2.3-0.2-4.4-1.2-5.9-2.9c-1.5-1.7-2.4-3.9-2.4-6.2c0-2.3,0.8-4.5,2.4-6.2c1.5-1.7,3.7-2.7,5.9-2.9c0,0,0.1,0,0.1,0h38.8
					C167.3,114.4,164.5,118,164.5,122.3z"/>
			</g>
		</g>
	</g>
	<g>
		<g>
			<path fill="#009A49" stroke="#009A48" stroke-linecap="round" stroke-linejoin="round" stroke-miterlimit="10" d="M215,113.1
				c0.1,0,0.2-0.1,0.2-0.2c0-0.1-0.1-0.2-0.2-0.2h-41.8c0,0-0.1,0-0.1,0c-2.3,0.2-4.5,1.3-6.1,3.1c-1.6,1.8-2.5,4.1-2.5,6.5
				c0,2.4,0.9,4.7,2.5,6.5c1.6,1.7,3.8,2.8,6.1,3.1c0,0,0.1,0,0.1,0H215c0.1,0,0.2-0.1,0.2-0.2c0-0.1-0.1-0.2-0.2-0.2
				c-5.1,0-9.2-4.1-9.2-9.2C205.8,117.2,209.9,113.1,215,113.1z M205.3,122.3c0,4.3,2.8,7.9,6.7,9.2h-38.8c0,0-0.1,0-0.1,0
				c-2.3-0.2-4.4-1.2-5.9-2.9s-2.4-3.9-2.4-6.2c0-2.3,0.8-4.5,2.4-6.2c1.5-1.7,3.7-2.7,5.9-2.9c0,0,0.1,0,0.1,0h38.8
				C208.2,114.4,205.3,118,205.3,122.3z"/>
		</g>
		<g>
			<path fill="#009A49" stroke="#009A48" stroke-linecap="round" stroke-linejoin="round" stroke-miterlimit="10" d="M255.9,113.1
				c0.1,0,0.2-0.1,0.2-0.2c0-0.1-0.1-0.2-0.2-0.2h-41.8c0,0-0.1,0-0.1,0c-2.3,0.2-4.5,1.3-6.1,3.1c-1.6,1.8-2.5,4.1-2.5,6.5
				c0,2.4,0.9,4.7,2.5,6.5c1.6,1.7,3.8,2.8,6.1,3.1c0,0,0.1,0,0.1,0h41.8c0.1,0,0.2-0.1,0.2-0.2c0-0.1-0.1-0.2-0.2-0.2
				c-5.1,0-9.2-4.1-9.2-9.2S250.8,113.1,255.9,113.1z M246.2,122.3c0,4.3,2.8,7.9,6.7,9.2h-38.8c0,0-0.1,0-0.1,0
				c-2.3-0.2-4.4-1.2-5.9-2.9c-1.5-1.7-2.4-3.9-2.4-6.2c0-2.3,0.8-4.5,2.4-6.2c1.5-1.7,3.7-2.7,5.9-2.9c0,0,0.1,0,0.1,0H253
				C249.1,114.4,246.2,118,246.2,122.3z"/>
		</g>
	</g>
	<g>
		<path fill="#009A49" stroke="#009A48" stroke-linecap="round" stroke-linejoin="round" stroke-miterlimit="10" d="M297.2,113.1
			c0.1,0,0.2-0.1,0.2-0.2c0-0.1-0.1-0.2-0.2-0.2h-41.8c0,0-0.1,0-0.1,0c-2.3,0.2-4.5,1.3-6.1,3.1c-1.6,1.8-2.5,4.1-2.5,6.5
			c0,2.4,0.9,4.7,2.5,6.5c1.6,1.7,3.8,2.8,6.1,3.1c0,0,0.1,0,0.1,0h41.8c0.1,0,0.2-0.1,0.2-0.2c0-0.1-0.1-0.2-0.2-0.2
			c-5.1,0-9.2-4.1-9.2-9.2S292.1,113.1,297.2,113.1z M287.5,122.3c0,4.3,2.8,7.9,6.7,9.2h-38.8c0,0-0.1,0-0.1,0
			c-2.3-0.2-4.4-1.2-5.9-2.9s-2.4-3.9-2.4-6.2c0-2.3,0.8-4.5,2.4-6.2c1.5-1.7,3.7-2.7,5.9-2.9c0,0,0.1,0,0.1,0h38.8
			C290.3,114.4,287.5,118,287.5,122.3z"/>
	</g>
	<path fill="#009A49" stroke="#009A48" stroke-linecap="round" stroke-linejoin="round" stroke-miterlimit="10" d="M296.4,131.5
		C296.3,131.4,296.3,131.4,296.4,131.5c-2.4-0.2-4.5-1.3-6-3c-1.5-1.7-2.4-3.9-2.4-6.2c0-2.3,0.8-4.5,2.4-6.2
		c1.5-1.7,3.7-2.7,5.9-2.9c0,0,0.1,0,0.1,0h3.1v-0.4h-3.2c0,0-0.1,0-0.1,0c-2.3,0.2-4.5,1.3-6.1,3.1c-1.6,1.8-2.5,4.1-2.5,6.5
		c0,2.4,0.9,4.7,2.5,6.5c1.6,1.7,3.8,2.8,6.1,3.1c0,0,0.1,0,0.1,0h3.2v-0.4L296.4,131.5L296.4,131.5z"/>
	<path fill="#009A49" stroke="#009A48" stroke-linecap="round" stroke-linejoin="round" stroke-miterlimit="10" d="M97,147.3
		c1.6-1.8,2.5-4.1,2.5-6.5c0-2.4-0.9-4.7-2.5-6.5c-1.6-1.7-3.8-2.8-6.1-3.1c0,0-0.1,0-0.1,0H48.9c-0.1,0-0.2,0.1-0.2,0.2
		c0,0.1,0.1,0.2,0.2,0.2c5.1,0,9.2,4.1,9.2,9.2c0,3.6-2.1,6.7-5.1,8.2h0.9c2.8-1.7,4.6-4.7,4.6-8.2c0-4.3-2.8-7.9-6.7-9.2h38.8
		c0,0,0,0,0.1,0c2.3,0.2,4.4,1.2,5.9,2.9c1.5,1.7,2.4,3.9,2.4,6.2c0,2.3-0.8,4.5-2.4,6.2c-0.8,0.8-1.7,1.5-2.7,2h1
		C95.7,148.5,96.4,148,97,147.3z"/>
	<path fill="#009A49" stroke="#009A48" stroke-linecap="round" stroke-linejoin="round" stroke-miterlimit="10" d="M56.1,147.3
		c1.6-1.8,2.5-4.1,2.5-6.5c0-2.4-0.9-4.7-2.5-6.5c-1.6-1.7-3.8-2.8-6.1-3.1c0,0-0.1,0-0.1,0H8c-0.1,0-0.2,0.1-0.2,0.2
		c0,0.1,0.1,0.2,0.2,0.2c5.1,0,9.2,4.1,9.2,9.2c0,3.6-2.1,6.7-5.1,8.2H13c2.8-1.7,4.6-4.7,4.6-8.2c0-4.3-2.8-7.9-6.7-9.2h38.8
		c0,0,0,0,0.1,0c2.3,0.2,4.4,1.2,5.9,2.9s2.4,3.9,2.4,6.2c0,2.3-0.8,4.5-2.4,6.2c-0.8,0.8-1.7,1.5-2.7,2h1
		C54.8,148.5,55.5,148,56.1,147.3z"/>
	<path fill="#009A49" stroke="#009A48" stroke-linecap="round" stroke-linejoin="round" stroke-miterlimit="10" d="M179.2,147.3
		c1.6-1.8,2.5-4.1,2.5-6.5c0-2.4-0.9-4.7-2.5-6.5c-1.6-1.7-3.8-2.8-6.1-3.1c0,0-0.1,0-0.1,0h-41.8c-0.1,0-0.2,0.1-0.2,0.2
		s0.1,0.2,0.2,0.2c5.1,0,9.2,4.1,9.2,9.2c0,3.6-2.1,6.7-5.1,8.2h0.9c2.8-1.7,4.6-4.7,4.6-8.2c0-4.3-2.8-7.9-6.7-9.2h38.8
		c0,0,0,0,0.1,0c2.3,0.2,4.4,1.2,5.9,2.9s2.4,3.9,2.4,6.2c0,2.3-0.8,4.5-2.4,6.2c-0.8,0.8-1.7,1.5-2.7,2h1
		C177.9,148.5,178.6,148,179.2,147.3z"/>
	<path fill="#009A49" stroke="#009A48" stroke-linecap="round" stroke-linejoin="round" stroke-miterlimit="10" d="M138.2,147.3
		c1.6-1.8,2.5-4.1,2.5-6.5c0-2.4-0.9-4.7-2.5-6.5c-1.6-1.7-3.8-2.8-6.1-3.1c0,0-0.1,0-0.1,0H90.1c-0.1,0-0.2,0.1-0.2,0.2
		s0.1,0.2,0.2,0.2c5.1,0,9.2,4.1,9.2,9.2c0,3.6-2.1,6.7-5.1,8.2h0.9c2.8-1.7,4.6-4.7,4.6-8.2c0-4.3-2.8-7.9-6.7-9.2h38.8
		c0,0,0,0,0.1,0c2.3,0.2,4.4,1.2,5.9,2.9s2.4,3.9,2.4,6.2c0,2.3-0.8,4.5-2.4,6.2c-0.8,0.8-1.7,1.5-2.7,2h1
		C136.9,148.5,137.6,148,138.2,147.3z"/>
	<path fill="#009A49" stroke="#009A48" stroke-linecap="round" stroke-linejoin="round" stroke-miterlimit="10" d="M260.9,147.3
		c1.6-1.8,2.5-4.1,2.5-6.5c0-2.4-0.9-4.7-2.5-6.5c-1.6-1.7-3.8-2.8-6.1-3.1c0,0-0.1,0-0.1,0h-41.8c-0.1,0-0.2,0.1-0.2,0.2
		s0.1,0.2,0.2,0.2c5.1,0,9.2,4.1,9.2,9.2c0,3.6-2.1,6.7-5.1,8.2h0.9c2.8-1.7,4.6-4.7,4.6-8.2c0-4.3-2.8-7.9-6.7-9.2h38.8
		c0,0,0,0,0.1,0c2.3,0.2,4.4,1.2,5.9,2.9c1.5,1.7,2.4,3.9,2.4,6.2c0,2.3-0.8,4.5-2.4,6.2c-0.8,0.8-1.7,1.5-2.7,2h1
		C259.6,148.5,260.3,148,260.9,147.3z"/>
	<path fill="#009A49" stroke="#009A48" stroke-linecap="round" stroke-linejoin="round" stroke-miterlimit="10" d="M220,147.3
		c1.6-1.8,2.5-4.1,2.5-6.5c0-2.4-0.9-4.7-2.5-6.5c-1.6-1.7-3.8-2.8-6.1-3.1c0,0-0.1,0-0.1,0h-41.8c-0.1,0-0.2,0.1-0.2,0.2
		s0.1,0.2,0.2,0.2c5.1,0,9.2,4.1,9.2,9.2c0,3.6-2.1,6.7-5.1,8.2h0.9c2.8-1.7,4.6-4.7,4.6-8.2c0-4.3-2.8-7.9-6.7-9.2h38.8
		c0,0,0,0,0.1,0c2.3,0.2,4.4,1.2,5.9,2.9s2.4,3.9,2.4,6.2c0,2.3-0.8,4.5-2.4,6.2c-0.8,0.8-1.7,1.5-2.7,2h1
		C218.7,148.5,219.4,148,220,147.3z"/>
	<path fill="#009A49" stroke="#009A48" stroke-linecap="round" stroke-linejoin="round" stroke-miterlimit="10" d="M294.7,131.4
		c0,0.1,0.1,0.2,0.2,0.2c1.6,0,3.2,0.4,4.5,1.2v-0.5c-0.5-0.3-1-0.5-1.6-0.7h1.6v-0.4h-4.5C294.8,131.2,294.7,131.3,294.7,131.4z"/>
	<path fill="#009A49" stroke="#009A48" stroke-linecap="round" stroke-linejoin="round" stroke-miterlimit="10" d="M299.4,148.8
		c-0.1,0.1-0.2,0.1-0.4,0.2h0.4V148.8z"/>
	<path fill="#009A49" stroke="#009A48" stroke-linecap="round" stroke-linejoin="round" stroke-miterlimit="10" d="M299.4,149v-0.2
		c-0.1,0.1-0.2,0.1-0.3,0.2H299.4z"/>
	<path fill="#009A49" stroke="#009A48" stroke-linecap="round" stroke-linejoin="round" stroke-miterlimit="10" d="M263.7,140.8
		c0-4.3-2.8-7.9-6.7-9.2h38.8c0,0,0,0,0.1,0c1.3,0.1,2.5,0.5,3.6,1.1v-0.5c-1-0.5-2.2-0.9-3.4-1c0,0-0.1,0-0.1,0H254
		c-0.1,0-0.2,0.1-0.2,0.2c0,0.1,0.1,0.2,0.2,0.2c5.1,0,9.2,4.1,9.2,9.2c0,3.6-2.1,6.7-5.1,8.2h0.9
		C261.8,147.3,263.7,144.3,263.7,140.8z"/>
</g>
</svg>
