<?xml version="1.0" encoding="utf-8"?>
<!-- Generator: Adobe Illustrator 18.1.1, SVG Export Plug-In . SVG Version: 6.00 Build 0)  -->
<svg version="1.1" id="Layer_1" xmlns="http://www.w3.org/2000/svg" xmlns:xlink="http://www.w3.org/1999/xlink" x="0px" y="0px"
	 viewBox="0 0 300 150" enable-background="new 0 0 300 150" xml:space="preserve">
<rect opacity="0.8" fill="#37A3D7" width="300" height="150"/>
<g>
	<g>
		<path fill="#2497C5" stroke="#2698C6" stroke-miterlimit="10" d="M118.5,149.8c0.2,0,0.3-0.1,0.4-0.2h-0.8
			C118.2,149.7,118.4,149.8,118.5,149.8z"/>
		<path fill="#2497C5" stroke="#2698C6" stroke-miterlimit="10" d="M118.8,143c0.1-12.9,0.3-36.9-0.1-39.6c-0.2-1.9-1.4-8.1-9.1-8.1
			c-2,0-5.1,0.7-7.3,2.9c-1.7,1.7-2.5,4-2.5,6.7c0.2,6.4,2.3,8.7,8.8,9.5c-0.1,3.3-0.1,4.2-0.1,7.3l0,0.5
			c-7.3-0.8-15.8-4.6-16.7-17.4c-0.2-4.2,1.7-8.7,5.2-12.2c3.2-3.2,7.2-5.1,10.7-4.9c0,0,0,0,0,0c4.5-0.3,10.7,0.9,14.9,4.8
			c2.6,2.4,3.9,5.5,3.9,9.1c0,0.2,0,0.4,0,0.5c0,0.1,0,0.2,0,0.2l0,0c0,0.3,0.1,0.3,0.2,0.4c0.2,0.1,0.3,0.1,0.5,0
			c0.2-0.1,0.2-0.1,0.2-0.4l0,0c0,0,0-0.1,0-0.3c0-0.2,0-0.3,0-0.6l0-2.4c0-2,0-4.8,0-7.7c0-4.3,0-12.1,0-15.1
			c0.1-1.6-0.7-3.3-2.2-4.7c-1.9-1.9-4.7-3-7.6-2.9c-5.4,0.2-8.4,5-8.9,8.7c-4.4,0.1-5.9,0-7.7,0c-0.2,0-0.4,0-0.6,0
			c3.8-14.4,12-16.7,16.6-16.7c6.8-0.1,11.1,2.5,13.5,4.7c2.8,2.6,4.6,6.1,4.9,9.4c0,0.3,0.2,0.5,0.5,0.4c0.3,0,0.5-0.2,0.5-0.5
			c0-2.8,0.2-5.8,0.4-8.7c0.4-6.8,0.8-13.3-0.4-17.4c-1.9-6.2-6.2-7-8.4-7c0,0,0,0,0,0v-8c8.6,0.9,16.9,8.8,16.9,14.2
			c0,0.3,0.2,0.5,0.5,0.5s0.5-0.2,0.5-0.5V6.1h4.1c0.3,0,0.5-0.2,0.5-0.5s-0.2-0.5-0.5-0.5h-4.5c-0.3,0-0.5,0.2-0.5,0.5v38
			c-1-2-2.6-4-4.7-5.9c-3.7-3.2-8.3-5.2-12.6-5.6c-0.1,0-0.3,0-0.4,0.1s-0.2,0.2-0.2,0.4v9.1c0,0.1,0.1,0.3,0.2,0.4
			c0.1,0.1,0.2,0.1,0.4,0.1c2.2-0.1,6.2,0.5,7.9,6.3c1.2,4,0.8,10.3,0.4,17c-0.1,1.7-0.2,3.4-0.3,5c-0.9-2.3-2.4-4.6-4.3-6.4
			c-2.5-2.3-7-5.1-14.1-5c-8.5,0.1-14.8,6.5-17.7,18c0,0.1,0,0.3,0.1,0.4s0.2,0.2,0.4,0.2c0.4,0,0.8,0,1.2,0c1.8,0.1,3.4,0.1,8.2,0
			c0.2,0,0.5-0.2,0.5-0.4c0.2-2.6,2.5-8.1,8-8.2c2.6-0.1,5.1,0.9,6.9,2.6c1.2,1.2,1.9,2.7,1.9,4c0,3.4,0,13.7,0,20.3
			c-0.7-1.7-1.8-3.3-3.2-4.6c-4.4-4.1-10.9-5.3-15.6-5.1c-3.8-0.1-8,1.8-11.4,5.2c-3.6,3.7-5.7,8.5-5.5,13
			c0.4,6.5,2.9,11.4,7.2,14.6c2.9,2.1,6.6,3.4,10.9,3.8c0.1,0,0.3,0,0.4-0.1c0.1-0.1,0.2-0.2,0.2-0.4l0-1c0-3.2-0.1-4,0.1-7.7
			c0-0.3-0.2-0.5-0.4-0.5c-6.4-0.6-8.2-2.5-8.4-8.6c-0.1-2.5,0.7-4.5,2.2-6c2-2,4.8-2.6,6.6-2.6c6.9,0,7.9,5.5,8.1,7.2
			c0.4,2.7,0.2,27.5,0,39.5c0,3.3-0.1,5.6-0.1,6.5c0,0.1,0,0.2,0.1,0.2h0.8c0-0.1,0.1-0.2,0.1-0.2
			C118.8,148.7,118.8,146.3,118.8,143z"/>
	</g>
	<path fill="#2497C5" stroke="#2698C6" stroke-miterlimit="10" d="M182.1,143c-0.1-12-0.3-36.8,0-39.5c0.2-1.7,1.3-7.2,8.1-7.2
		c1.8,0,4.6,0.6,6.6,2.6c1.5,1.5,2.2,3.5,2.2,6c-0.2,6.1-2,7.9-8.4,8.6c-0.3,0-0.5,0.3-0.4,0.5c0.2,4.5,0.4,6.1,0.6,7.9l0.1,0.8
		c0,0.3,0.3,0.5,0.5,0.4c7.5-0.7,16.5-4.5,17.5-18.4c0.2-4.4-1.8-9.3-5.5-13c-3.3-3.4-7.6-5.3-11.4-5.2c-4.8-0.3-11.4,0.9-15.7,5
		c-1.4,1.3-2.4,2.8-3.1,4.5c0-0.6,0-1.3,0-2c0-6.9,0-15.6,0-18.1c0-1.3,0.7-2.8,1.9-4c1.7-1.8,4.3-2.7,6.9-2.6
		c5.6,0.2,7.8,5.6,8,8.2c0,0.3,0.2,0.4,0.5,0.4c3.6,0,5.4,0,6.9-0.1c0.9,0,1.6,0,2.5,0c0.1,0,0.3-0.1,0.4-0.2
		c0.1-0.1,0.1-0.3,0.1-0.4c-2.9-11.5-9.2-17.9-17.7-18c-0.1,0-0.2,0-0.4,0c-6.9,0-11.3,2.7-13.8,5c-2,1.8-3.5,4-4.3,6.4
		c-0.1-1.7-0.2-3.4-0.3-5c-0.4-6.7-0.8-13.1,0.4-17c1.8-5.8,5.7-6.4,7.9-6.3c0.1,0,0.3,0,0.4-0.1s0.2-0.2,0.2-0.4v-9.1
		c0-0.1-0.1-0.3-0.2-0.4c-0.1-0.1-0.2-0.1-0.4-0.1c-4.3,0.3-8.9,2.3-12.6,5.6c-2.1,1.9-3.8,3.9-4.7,5.9v-38c0-0.3-0.2-0.5-0.5-0.5
		h-4.5c-0.3,0-0.5,0.2-0.5,0.5s0.2,0.5,0.5,0.5h4.1v41.4c0,0.3,0.2,0.5,0.5,0.5s0.5-0.2,0.5-0.5c0-5.5,8.3-13.3,16.9-14.2v8
		c-2.2,0-6.5,0.8-8.4,7c-1.3,4.1-0.9,10.6-0.4,17.4c0.2,2.9,0.4,5.9,0.4,8.7c0,0.3,0.2,0.5,0.5,0.5c0.3,0,0.5-0.2,0.5-0.4
		c0.3-3.3,2.1-6.8,4.9-9.4c2.4-2.2,6.7-4.8,13.5-4.7c4.6,0.1,12.8,2.3,16.6,16.7c-0.6,0-1.2,0-1.9,0c-1.4,0-3.1,0.1-6.4,0.1
		c-0.5-3.7-3.5-8.5-8.9-8.7c-2.9-0.1-5.7,1-7.6,2.9c-1.4,1.4-2.2,3.1-2.2,4.7c0,2.5,0,11.1,0,18.1c0,2.6,0,5,0,6.5
		c0,0.3,0,0.6,0,0.9c0,0.3,0,0.6,0,0.7c0,0.1,0,0.1,0,0.2c0,0,0,0,0,0l0,0c0,0.2,0.1,0.5,0.5,0.5c0,0,0,0,0,0c0.3,0,0.4-0.2,0.5-0.5
		l0,0c0,0,0,0,0-0.1c0-0.1,0-0.3,0-0.5c0-0.3,0-0.7,0-1.1c0.2-3.3,1.4-6.1,3.8-8.3c4.1-3.9,10.5-5,15-4.8c0,0,0,0,0,0
		c3.5-0.1,7.5,1.7,10.7,4.9c3.5,3.5,5.4,8.1,5.2,12.2c-0.9,12.9-9.1,16.6-16.1,17.4l0-0.3c-0.2-1.8-0.4-3.3-0.6-7.4
		c6.5-0.7,8.6-3.1,8.8-9.5c0.1-2.7-0.8-5-2.5-6.7c-2.2-2.2-5.3-2.9-7.3-2.9c-7.7,0-8.9,6.2-9.1,8c-0.4,2.7-0.2,26.7-0.1,39.6
		c0,2.8,0,4.9,0,6h-62.5c-0.3,0-0.5,0.2-0.5,0.5c0,0.1,0,0.2,0.1,0.2h63.9c0-0.1,0.1-0.2,0.1-0.2C182.2,148.7,182.2,146.3,182.1,143
		z"/>
	<g>
		<path fill="#2497C5" stroke="#2698C6" stroke-miterlimit="10" d="M127.2,149.8c0.2,0,0.3-0.1,0.4-0.2h-0.8
			C126.9,149.7,127,149.8,127.2,149.8z"/>
		<path fill="#2497C5" stroke="#2698C6" stroke-miterlimit="10" d="M127.7,101.5c0-0.3-0.2-0.5-0.5-0.5s-0.5,0.2-0.5,0.5v48
			c0,0.1,0,0.2,0.1,0.2h0.8c0-0.1,0.1-0.2,0.1-0.2V101.5z"/>
	</g>
	<g>
		<path fill="#2497C5" stroke="#2698C6" stroke-miterlimit="10" d="M136.1,149.8c0.2,0,0.3-0.1,0.4-0.2h-0.8
			C135.8,149.7,136,149.8,136.1,149.8z"/>
		<path fill="#2497C5" stroke="#2698C6" stroke-miterlimit="10" d="M136.6,74.4c0-0.3-0.2-0.5-0.5-0.5s-0.5,0.2-0.5,0.5v75.1
			c0,0.1,0,0.2,0.1,0.2h0.8c0-0.1,0.1-0.2,0.1-0.2V74.4z"/>
	</g>
	<g>
		<path fill="#2497C5" stroke="#2698C6" stroke-miterlimit="10" d="M145.5,149.5c0.2,0,0.3-0.1,0.4-0.2h-0.8
			C145.2,149.4,145.4,149.5,145.5,149.5z"/>
		<path fill="#2497C5" stroke="#2698C6" stroke-miterlimit="10" d="M146,47.5c0-0.3-0.2-0.5-0.5-0.5s-0.5,0.2-0.5,0.5v102
			c0,0.1,0,0.2,0.1,0.2h0.8c0-0.1,0.1-0.2,0.1-0.2V47.5z"/>
	</g>
	<g>
		<path fill="#2497C5" stroke="#2698C6" stroke-miterlimit="10" d="M154.5,149.5c0.2,0,0.3-0.1,0.4-0.2H154
			C154.1,149.4,154.3,149.5,154.5,149.5z"/>
		<path fill="#2497C5" stroke="#2698C6" stroke-miterlimit="10" d="M154.9,47.5c0-0.3-0.2-0.5-0.5-0.5s-0.5,0.2-0.5,0.5v102
			c0,0.1,0,0.2,0.1,0.2h0.8c0-0.1,0.1-0.2,0.1-0.2V47.5z"/>
	</g>
	<g>
		<path fill="#2497C5" stroke="#2698C6" stroke-miterlimit="10" d="M163.9,149.5c0.2,0,0.3-0.1,0.4-0.2h-0.8
			C163.5,149.4,163.7,149.5,163.9,149.5z"/>
		<path fill="#2497C5" stroke="#2698C6" stroke-miterlimit="10" d="M164.3,74.4c0-0.3-0.2-0.5-0.5-0.5s-0.5,0.2-0.5,0.5v75.1
			c0,0.1,0,0.2,0.1,0.2h0.8c0-0.1,0.1-0.2,0.1-0.2V74.4z"/>
	</g>
	<g>
		<path fill="#2497C5" stroke="#2698C6" stroke-miterlimit="10" d="M172.7,149.6c0.1,0,0.2,0.2,0.3,0.2h-0.5
			C172.5,149.8,172.6,149.6,172.7,149.6z"/>
		<path fill="#2497C5" stroke="#2698C6" stroke-miterlimit="10" d="M173.2,149.4v-47.1c0-0.3-0.2-0.5-0.5-0.5s-0.5,0.2-0.5,0.5v47.1
			c0,0.2,0.1,0.1,0.2,0.2h0.5C173.1,149.4,173.2,149.5,173.2,149.4z"/>
	</g>
</g>
</svg>
