<?xml version="1.0" encoding="utf-8"?>
<!-- Generator: Adobe Illustrator 18.1.1, SVG Export Plug-In . SVG Version: 6.00 Build 0)  -->
<svg version="1.1" id="Layer_1" xmlns="http://www.w3.org/2000/svg" xmlns:xlink="http://www.w3.org/1999/xlink" x="0px" y="0px"
	 viewBox="0 0 300 150" enable-background="new 0 0 300 150" xml:space="preserve">
<path fill="#FBE25C" stroke="#FFFFFF" stroke-linecap="round" stroke-linejoin="round" stroke-miterlimit="10" d="M18,28.4
	c1.4,0,3.3,0,4.2,0s2.9,0,4.2,0h16.5c1.4,0,3.3,0,4.2,0s2.9,0,4.2,0h16.5c1.4,0,3.3,0,4.2,0s2.9,0,4.2,0h16.5c1.4,0,3.3,0,4.2,0
	s2.9,0,4.2,0h16.5c1.4,0,3.3,0,4.2,0s2.9,0,4.2,0h16.5c1.4,0,3.3,0,4.2,0s2.9,0,4.2,0h16.5c1.4,0,3.3,0,4.2,0s2.9,0,4.2,0h16.5
	c1.4,0,3.3,0,4.2,0s2.9,0,4.2,0h16.5c1.4,0,3.3,0,4.2,0s2.9,0,4.2,0h16.5c1.4,0,3.3,0,4.2,0s2.9,0,4.2,0h16.5c1.4,0,3.3,0,4.2,0
	s2.9,0,4.2,0h16.5c1.4,0,3.3,0,4.2,0s1.8-0.8,1.8-1.8V15.1c0-1-0.8-1.8-1.8-1.8s-1.8,0.8-1.8,1.8V8c0-1.4-1.1-2.5-2.5-2.5h-16.5
	c-1.4,0-2.5,1.1-2.5,2.5v7.1c0-1-0.8-1.8-1.8-1.8s-1.8,0.8-1.8,1.8V8c0-1.4-1.1-2.5-2.5-2.5h-16.5c-1.4,0-2.5,1.1-2.5,2.5v7.1
	c0-1-0.8-1.8-1.8-1.8s-1.8,0.8-1.8,1.8V8c0-1.4-1.1-2.5-2.5-2.5h-16.5c-1.4,0-2.5,1.1-2.5,2.5v7.1c0-1-0.8-1.8-1.8-1.8
	s-1.8,0.8-1.8,1.8V8c0-1.4-1.1-2.5-2.5-2.5h-16.5c-1.4,0-2.5,1.1-2.5,2.5v7.1c0-1-0.8-1.8-1.8-1.8s-1.8,0.8-1.8,1.8V8
	c0-1.4-1.1-2.5-2.5-2.5h-16.5c-1.4,0-2.5,1.1-2.5,2.5v7.1c0-1-0.8-1.8-1.8-1.8s-1.8,0.8-1.8,1.8V8c0-1.4-1.1-2.5-2.5-2.5h-16.5
	c-1.4,0-2.5,1.1-2.5,2.5v7.1c0-1-0.8-1.8-1.8-1.8s-1.8,0.8-1.8,1.8V8c0-1.4-1.1-2.5-2.5-2.5h-16.5c-1.4,0-2.5,1.1-2.5,2.5v7.1
	c0-1-0.8-1.8-1.8-1.8s-1.8,0.8-1.8,1.8V8c0-1.4-1.1-2.5-2.5-2.5h-16.5c-1.4,0-2.5,1.1-2.5,2.5v7.1c0-1-0.8-1.8-1.8-1.8
	s-1.8,0.8-1.8,1.8V8c0-1.4-1.1-2.5-2.5-2.5H76.4c-1.4,0-2.5,1.1-2.5,2.5v7.1c0-1-0.8-1.8-1.8-1.8s-1.8,0.8-1.8,1.8V8
	c0-1.4-1.1-2.5-2.5-2.5H51.4c-1.4,0-2.5,1.1-2.5,2.5v7.1c0-1-0.8-1.8-1.8-1.8s-1.8,0.8-1.8,1.8V8c0-1.4-1.1-2.5-2.5-2.5H26.5
	C25.1,5.5,24,6.6,24,8v7.1c0-1-0.8-1.8-1.8-1.8s-1.8,0.8-1.8,1.8V8c0-1.4-1.1-2.5-2.5-2.5H1.5c-0.3,0-0.5,0-0.8,0.1v22.6
	c0.2,0.1,0.5,0.1,0.8,0.1H18z"/>
<path fill="#FBE25C" stroke="#FFFFFF" stroke-linecap="round" stroke-linejoin="round" stroke-miterlimit="10" d="M18,41.9
	c1.4,0,3.3,0,4.2,0s2.9,0,4.2,0h16.5c1.4,0,3.3,0,4.2,0s2.9,0,4.2,0h16.5c1.4,0,3.3,0,4.2,0s2.9,0,4.2,0h16.5c1.4,0,3.3,0,4.2,0
	s2.9,0,4.2,0h16.5c1.4,0,3.3,0,4.2,0s2.9,0,4.2,0h16.5c1.4,0,3.3,0,4.2,0s2.9,0,4.2,0h16.5c1.4,0,3.3,0,4.2,0s2.9,0,4.2,0h16.5
	c1.4,0,3.3,0,4.2,0s2.9,0,4.2,0h16.5c1.4,0,3.3,0,4.2,0s2.9,0,4.2,0h16.5c1.4,0,3.3,0,4.2,0s2.9,0,4.2,0h16.5c1.4,0,3.3,0,4.2,0
	s2.9,0,4.2,0h16.5c1.4,0,3.3,0,4.2,0s1.8-0.8,1.8-1.8V28.6c0-1-0.8-1.8-1.8-1.8s-1.8,0.8-1.8,1.8v-7.1c0-1.4-1.1-2.5-2.5-2.5h-16.5
	c-1.4,0-2.5,1.1-2.5,2.5v7.1c0-1-0.8-1.8-1.8-1.8s-1.8,0.8-1.8,1.8v-7.1c0-1.4-1.1-2.5-2.5-2.5h-16.5c-1.4,0-2.5,1.1-2.5,2.5v7.1
	c0-1-0.8-1.8-1.8-1.8s-1.8,0.8-1.8,1.8v-7.1c0-1.4-1.1-2.5-2.5-2.5h-16.5c-1.4,0-2.5,1.1-2.5,2.5v7.1c0-1-0.8-1.8-1.8-1.8
	s-1.8,0.8-1.8,1.8v-7.1c0-1.4-1.1-2.5-2.5-2.5h-16.5c-1.4,0-2.5,1.1-2.5,2.5v7.1c0-1-0.8-1.8-1.8-1.8s-1.8,0.8-1.8,1.8v-7.1
	c0-1.4-1.1-2.5-2.5-2.5h-16.5c-1.4,0-2.5,1.1-2.5,2.5v7.1c0-1-0.8-1.8-1.8-1.8s-1.8,0.8-1.8,1.8v-7.1c0-1.4-1.1-2.5-2.5-2.5h-16.5
	c-1.4,0-2.5,1.1-2.5,2.5v7.1c0-1-0.8-1.8-1.8-1.8s-1.8,0.8-1.8,1.8v-7.1c0-1.4-1.1-2.5-2.5-2.5h-16.5c-1.4,0-2.5,1.1-2.5,2.5v7.1
	c0-1-0.8-1.8-1.8-1.8s-1.8,0.8-1.8,1.8v-7.1c0-1.4-1.1-2.5-2.5-2.5h-16.5c-1.4,0-2.5,1.1-2.5,2.5v7.1c0-1-0.8-1.8-1.8-1.8
	s-1.8,0.8-1.8,1.8v-7.1c0-1.4-1.1-2.5-2.5-2.5H76.4c-1.4,0-2.5,1.1-2.5,2.5v7.1c0-1-0.8-1.8-1.8-1.8s-1.8,0.8-1.8,1.8v-7.1
	c0-1.4-1.1-2.5-2.5-2.5H51.4c-1.4,0-2.5,1.1-2.5,2.5v7.1c0-1-0.8-1.8-1.8-1.8s-1.8,0.8-1.8,1.8v-7.1c0-1.4-1.1-2.5-2.5-2.5H26.5
	c-1.4,0-2.5,1.1-2.5,2.5v7.1c0-1-0.8-1.8-1.8-1.8s-1.8,0.8-1.8,1.8v-7.1c0-1.4-1.1-2.5-2.5-2.5H1.5c-0.3,0-0.5,0-0.8,0.1v22.6
	c0.2,0.1,0.5,0.1,0.8,0.1H18z"/>
<path fill="#FBE25C" stroke="#FFFFFF" stroke-linecap="round" stroke-linejoin="round" stroke-miterlimit="10" d="M18,55.4
	c1.4,0,3.3,0,4.2,0s2.9,0,4.2,0h16.5c1.4,0,3.3,0,4.2,0s2.9,0,4.2,0h16.5c1.4,0,3.3,0,4.2,0s2.9,0,4.2,0h16.5c1.4,0,3.3,0,4.2,0
	s2.9,0,4.2,0h16.5c1.4,0,3.3,0,4.2,0s2.9,0,4.2,0h16.5c1.4,0,3.3,0,4.2,0s2.9,0,4.2,0h16.5c1.4,0,3.3,0,4.2,0s2.9,0,4.2,0h16.5
	c1.4,0,3.3,0,4.2,0s2.9,0,4.2,0h16.5c1.4,0,3.3,0,4.2,0s2.9,0,4.2,0h16.5c1.4,0,3.3,0,4.2,0s2.9,0,4.2,0h16.5c1.4,0,3.3,0,4.2,0
	s2.9,0,4.2,0h16.5c1.4,0,3.3,0,4.2,0s1.8-0.8,1.8-1.8V42.2c0-1-0.8-1.8-1.8-1.8s-1.8,0.8-1.8,1.8V35c0-1.4-1.1-2.5-2.5-2.5h-16.5
	c-1.4,0-2.5,1.1-2.5,2.5v7.1c0-1-0.8-1.8-1.8-1.8s-1.8,0.8-1.8,1.8V35c0-1.4-1.1-2.5-2.5-2.5h-16.5c-1.4,0-2.5,1.1-2.5,2.5v7.1
	c0-1-0.8-1.8-1.8-1.8s-1.8,0.8-1.8,1.8V35c0-1.4-1.1-2.5-2.5-2.5h-16.5c-1.4,0-2.5,1.1-2.5,2.5v7.1c0-1-0.8-1.8-1.8-1.8
	s-1.8,0.8-1.8,1.8V35c0-1.4-1.1-2.5-2.5-2.5h-16.5c-1.4,0-2.5,1.1-2.5,2.5v7.1c0-1-0.8-1.8-1.8-1.8s-1.8,0.8-1.8,1.8V35
	c0-1.4-1.1-2.5-2.5-2.5h-16.5c-1.4,0-2.5,1.1-2.5,2.5v7.1c0-1-0.8-1.8-1.8-1.8s-1.8,0.8-1.8,1.8V35c0-1.4-1.1-2.5-2.5-2.5h-16.5
	c-1.4,0-2.5,1.1-2.5,2.5v7.1c0-1-0.8-1.8-1.8-1.8s-1.8,0.8-1.8,1.8V35c0-1.4-1.1-2.5-2.5-2.5h-16.5c-1.4,0-2.5,1.1-2.5,2.5v7.1
	c0-1-0.8-1.8-1.8-1.8s-1.8,0.8-1.8,1.8V35c0-1.4-1.1-2.5-2.5-2.5h-16.5c-1.4,0-2.5,1.1-2.5,2.5v7.1c0-1-0.8-1.8-1.8-1.8
	s-1.8,0.8-1.8,1.8V35c0-1.4-1.1-2.5-2.5-2.5H76.4c-1.4,0-2.5,1.1-2.5,2.5v7.1c0-1-0.8-1.8-1.8-1.8s-1.8,0.8-1.8,1.8V35
	c0-1.4-1.1-2.5-2.5-2.5H51.4c-1.4,0-2.5,1.1-2.5,2.5v7.1c0-1-0.8-1.8-1.8-1.8s-1.8,0.8-1.8,1.8V35c0-1.4-1.1-2.5-2.5-2.5H26.5
	c-1.4,0-2.5,1.1-2.5,2.5v7.1c0-1-0.8-1.8-1.8-1.8s-1.8,0.8-1.8,1.8V35c0-1.4-1.1-2.5-2.5-2.5H1.5c-0.3,0-0.5,0-0.8,0.1v22.6
	c0.2,0.1,0.5,0.1,0.8,0.1H18z"/>
<path fill="#FBE25C" stroke="#FFFFFF" stroke-linecap="round" stroke-linejoin="round" stroke-miterlimit="10" d="M18,68.9
	c1.4,0,3.3,0,4.2,0s2.9,0,4.2,0h16.5c1.4,0,3.3,0,4.2,0s2.9,0,4.2,0h16.5c1.4,0,3.3,0,4.2,0s2.9,0,4.2,0h16.5c1.4,0,3.3,0,4.2,0
	s2.9,0,4.2,0h16.5c1.4,0,3.3,0,4.2,0s2.9,0,4.2,0h16.5c1.4,0,3.3,0,4.2,0s2.9,0,4.2,0h16.5c1.4,0,3.3,0,4.2,0s2.9,0,4.2,0h16.5
	c1.4,0,3.3,0,4.2,0s2.9,0,4.2,0h16.5c1.4,0,3.3,0,4.2,0s2.9,0,4.2,0h16.5c1.4,0,3.3,0,4.2,0s2.9,0,4.2,0h16.5c1.4,0,3.3,0,4.2,0
	s2.9,0,4.2,0h16.5c1.4,0,3.3,0,4.2,0s1.8-0.8,1.8-1.8V55.7c0-1-0.8-1.8-1.8-1.8s-1.8,0.8-1.8,1.8v-7.1c0-1.4-1.1-2.5-2.5-2.5h-16.5
	c-1.4,0-2.5,1.1-2.5,2.5v7.1c0-1-0.8-1.8-1.8-1.8s-1.8,0.8-1.8,1.8v-7.1c0-1.4-1.1-2.5-2.5-2.5h-16.5c-1.4,0-2.5,1.1-2.5,2.5v7.1
	c0-1-0.8-1.8-1.8-1.8s-1.8,0.8-1.8,1.8v-7.1c0-1.4-1.1-2.5-2.5-2.5h-16.5c-1.4,0-2.5,1.1-2.5,2.5v7.1c0-1-0.8-1.8-1.8-1.8
	s-1.8,0.8-1.8,1.8v-7.1c0-1.4-1.1-2.5-2.5-2.5h-16.5c-1.4,0-2.5,1.1-2.5,2.5v7.1c0-1-0.8-1.8-1.8-1.8s-1.8,0.8-1.8,1.8v-7.1
	c0-1.4-1.1-2.5-2.5-2.5h-16.5c-1.4,0-2.5,1.1-2.5,2.5v7.1c0-1-0.8-1.8-1.8-1.8s-1.8,0.8-1.8,1.8v-7.1c0-1.4-1.1-2.5-2.5-2.5h-16.5
	c-1.4,0-2.5,1.1-2.5,2.5v7.1c0-1-0.8-1.8-1.8-1.8s-1.8,0.8-1.8,1.8v-7.1c0-1.4-1.1-2.5-2.5-2.5h-16.5c-1.4,0-2.5,1.1-2.5,2.5v7.1
	c0-1-0.8-1.8-1.8-1.8s-1.8,0.8-1.8,1.8v-7.1c0-1.4-1.1-2.5-2.5-2.5h-16.5c-1.4,0-2.5,1.1-2.5,2.5v7.1c0-1-0.8-1.8-1.8-1.8
	s-1.8,0.8-1.8,1.8v-7.1c0-1.4-1.1-2.5-2.5-2.5H76.4c-1.4,0-2.5,1.1-2.5,2.5v7.1c0-1-0.8-1.8-1.8-1.8s-1.8,0.8-1.8,1.8v-7.1
	c0-1.4-1.1-2.5-2.5-2.5H51.4c-1.4,0-2.5,1.1-2.5,2.5v7.1c0-1-0.8-1.8-1.8-1.8s-1.8,0.8-1.8,1.8v-7.1c0-1.4-1.1-2.5-2.5-2.5H26.5
	c-1.4,0-2.5,1.1-2.5,2.5v7.1c0-1-0.8-1.8-1.8-1.8s-1.8,0.8-1.8,1.8v-7.1c0-1.4-1.1-2.5-2.5-2.5H1.5c-0.3,0-0.5,0-0.8,0.1v22.6
	c0.2,0.1,0.5,0.1,0.8,0.1H18z"/>
<path fill="#FBE25C" stroke="#FFFFFF" stroke-linecap="round" stroke-linejoin="round" stroke-miterlimit="10" d="M18,82.4
	c1.4,0,3.3,0,4.2,0s2.9,0,4.2,0h16.5c1.4,0,3.3,0,4.2,0s2.9,0,4.2,0h16.5c1.4,0,3.3,0,4.2,0s2.9,0,4.2,0h16.5c1.4,0,3.3,0,4.2,0
	s2.9,0,4.2,0h16.5c1.4,0,3.3,0,4.2,0s2.9,0,4.2,0h16.5c1.4,0,3.3,0,4.2,0s2.9,0,4.2,0h16.5c1.4,0,3.3,0,4.2,0s2.9,0,4.2,0h16.5
	c1.4,0,3.3,0,4.2,0s2.9,0,4.2,0h16.5c1.4,0,3.3,0,4.2,0s2.9,0,4.2,0h16.5c1.4,0,3.3,0,4.2,0s2.9,0,4.2,0h16.5c1.4,0,3.3,0,4.2,0
	s2.9,0,4.2,0h16.5c1.4,0,3.3,0,4.2,0s1.8-0.8,1.8-1.8V69.2c0-1-0.8-1.8-1.8-1.8s-1.8,0.8-1.8,1.8v-7.1c0-1.4-1.1-2.5-2.5-2.5h-16.5
	c-1.4,0-2.5,1.1-2.5,2.5v7.1c0-1-0.8-1.8-1.8-1.8s-1.8,0.8-1.8,1.8v-7.1c0-1.4-1.1-2.5-2.5-2.5h-16.5c-1.4,0-2.5,1.1-2.5,2.5v7.1
	c0-1-0.8-1.8-1.8-1.8s-1.8,0.8-1.8,1.8v-7.1c0-1.4-1.1-2.5-2.5-2.5h-16.5c-1.4,0-2.5,1.1-2.5,2.5v7.1c0-1-0.8-1.8-1.8-1.8
	s-1.8,0.8-1.8,1.8v-7.1c0-1.4-1.1-2.5-2.5-2.5h-16.5c-1.4,0-2.5,1.1-2.5,2.5v7.1c0-1-0.8-1.8-1.8-1.8s-1.8,0.8-1.8,1.8v-7.1
	c0-1.4-1.1-2.5-2.5-2.5h-16.5c-1.4,0-2.5,1.1-2.5,2.5v7.1c0-1-0.8-1.8-1.8-1.8s-1.8,0.8-1.8,1.8v-7.1c0-1.4-1.1-2.5-2.5-2.5h-16.5
	c-1.4,0-2.5,1.1-2.5,2.5v7.1c0-1-0.8-1.8-1.8-1.8s-1.8,0.8-1.8,1.8v-7.1c0-1.4-1.1-2.5-2.5-2.5h-16.5c-1.4,0-2.5,1.1-2.5,2.5v7.1
	c0-1-0.8-1.8-1.8-1.8s-1.8,0.8-1.8,1.8v-7.1c0-1.4-1.1-2.5-2.5-2.5h-16.5c-1.4,0-2.5,1.1-2.5,2.5v7.1c0-1-0.8-1.8-1.8-1.8
	s-1.8,0.8-1.8,1.8v-7.1c0-1.4-1.1-2.5-2.5-2.5H76.4c-1.4,0-2.5,1.1-2.5,2.5v7.1c0-1-0.8-1.8-1.8-1.8s-1.8,0.8-1.8,1.8v-7.1
	c0-1.4-1.1-2.5-2.5-2.5H51.4c-1.4,0-2.5,1.1-2.5,2.5v7.1c0-1-0.8-1.8-1.8-1.8s-1.8,0.8-1.8,1.8v-7.1c0-1.4-1.1-2.5-2.5-2.5H26.5
	c-1.4,0-2.5,1.1-2.5,2.5v7.1c0-1-0.8-1.8-1.8-1.8s-1.8,0.8-1.8,1.8v-7.1c0-1.4-1.1-2.5-2.5-2.5H1.5c-0.3,0-0.5,0-0.8,0.1v22.6
	c0.2,0.1,0.5,0.1,0.8,0.1H18z"/>
<path fill="#FBE25C" stroke="#FFFFFF" stroke-linecap="round" stroke-linejoin="round" stroke-miterlimit="10" d="M18,95.9
	c1.4,0,3.3,0,4.2,0s2.9,0,4.2,0h16.5c1.4,0,3.3,0,4.2,0s2.9,0,4.2,0h16.5c1.4,0,3.3,0,4.2,0s2.9,0,4.2,0h16.5c1.4,0,3.3,0,4.2,0
	s2.9,0,4.2,0h16.5c1.4,0,3.3,0,4.2,0s2.9,0,4.2,0h16.5c1.4,0,3.3,0,4.2,0s2.9,0,4.2,0h16.5c1.4,0,3.3,0,4.2,0s2.9,0,4.2,0h16.5
	c1.4,0,3.3,0,4.2,0s2.9,0,4.2,0h16.5c1.4,0,3.3,0,4.2,0s2.9,0,4.2,0h16.5c1.4,0,3.3,0,4.2,0s2.9,0,4.2,0h16.5c1.4,0,3.3,0,4.2,0
	s2.9,0,4.2,0h16.5c1.4,0,3.3,0,4.2,0s1.8-0.8,1.8-1.8V82.7c0-1-0.8-1.8-1.8-1.8s-1.8,0.8-1.8,1.8v-7.1c0-1.4-1.1-2.5-2.5-2.5h-16.5
	c-1.4,0-2.5,1.1-2.5,2.5v7.1c0-1-0.8-1.8-1.8-1.8s-1.8,0.8-1.8,1.8v-7.1c0-1.4-1.1-2.5-2.5-2.5h-16.5c-1.4,0-2.5,1.1-2.5,2.5v7.1
	c0-1-0.8-1.8-1.8-1.8s-1.8,0.8-1.8,1.8v-7.1c0-1.4-1.1-2.5-2.5-2.5h-16.5c-1.4,0-2.5,1.1-2.5,2.5v7.1c0-1-0.8-1.8-1.8-1.8
	s-1.8,0.8-1.8,1.8v-7.1c0-1.4-1.1-2.5-2.5-2.5h-16.5c-1.4,0-2.5,1.1-2.5,2.5v7.1c0-1-0.8-1.8-1.8-1.8s-1.8,0.8-1.8,1.8v-7.1
	c0-1.4-1.1-2.5-2.5-2.5h-16.5c-1.4,0-2.5,1.1-2.5,2.5v7.1c0-1-0.8-1.8-1.8-1.8s-1.8,0.8-1.8,1.8v-7.1c0-1.4-1.1-2.5-2.5-2.5h-16.5
	c-1.4,0-2.5,1.1-2.5,2.5v7.1c0-1-0.8-1.8-1.8-1.8s-1.8,0.8-1.8,1.8v-7.1c0-1.4-1.1-2.5-2.5-2.5h-16.5c-1.4,0-2.5,1.1-2.5,2.5v7.1
	c0-1-0.8-1.8-1.8-1.8s-1.8,0.8-1.8,1.8v-7.1c0-1.4-1.1-2.5-2.5-2.5h-16.5c-1.4,0-2.5,1.1-2.5,2.5v7.1c0-1-0.8-1.8-1.8-1.8
	s-1.8,0.8-1.8,1.8v-7.1c0-1.4-1.1-2.5-2.5-2.5H76.4c-1.4,0-2.5,1.1-2.5,2.5v7.1c0-1-0.8-1.8-1.8-1.8s-1.8,0.8-1.8,1.8v-7.1
	c0-1.4-1.1-2.5-2.5-2.5H51.4c-1.4,0-2.5,1.1-2.5,2.5v7.1c0-1-0.8-1.8-1.8-1.8s-1.8,0.8-1.8,1.8v-7.1c0-1.4-1.1-2.5-2.5-2.5H26.5
	c-1.4,0-2.5,1.1-2.5,2.5v7.1c0-1-0.8-1.8-1.8-1.8s-1.8,0.8-1.8,1.8v-7.1c0-1.4-1.1-2.5-2.5-2.5H1.5c-0.3,0-0.5,0-0.8,0.1v22.6
	c0.2,0.1,0.5,0.1,0.8,0.1H18z"/>
<path fill="#FBE25C" stroke="#FFFFFF" stroke-linecap="round" stroke-linejoin="round" stroke-miterlimit="10" d="M18,109.5
	c1.4,0,3.3,0,4.2,0s2.9,0,4.2,0h16.5c1.4,0,3.3,0,4.2,0s2.9,0,4.2,0h16.5c1.4,0,3.3,0,4.2,0s2.9,0,4.2,0h16.5c1.4,0,3.3,0,4.2,0
	s2.9,0,4.2,0h16.5c1.4,0,3.3,0,4.2,0s2.9,0,4.2,0h16.5c1.4,0,3.3,0,4.2,0s2.9,0,4.2,0h16.5c1.4,0,3.3,0,4.2,0s2.9,0,4.2,0h16.5
	c1.4,0,3.3,0,4.2,0s2.9,0,4.2,0h16.5c1.4,0,3.3,0,4.2,0s2.9,0,4.2,0h16.5c1.4,0,3.3,0,4.2,0s2.9,0,4.2,0h16.5c1.4,0,3.3,0,4.2,0
	s2.9,0,4.2,0h16.5c1.4,0,3.3,0,4.2,0s1.8-0.8,1.8-1.8V96.2c0-1-0.8-1.8-1.8-1.8s-1.8,0.8-1.8,1.8v-7.1c0-1.4-1.1-2.5-2.5-2.5h-16.5
	c-1.4,0-2.5,1.1-2.5,2.5v7.1c0-1-0.8-1.8-1.8-1.8s-1.8,0.8-1.8,1.8v-7.1c0-1.4-1.1-2.5-2.5-2.5h-16.5c-1.4,0-2.5,1.1-2.5,2.5v7.1
	c0-1-0.8-1.8-1.8-1.8s-1.8,0.8-1.8,1.8v-7.1c0-1.4-1.1-2.5-2.5-2.5h-16.5c-1.4,0-2.5,1.1-2.5,2.5v7.1c0-1-0.8-1.8-1.8-1.8
	s-1.8,0.8-1.8,1.8v-7.1c0-1.4-1.1-2.5-2.5-2.5h-16.5c-1.4,0-2.5,1.1-2.5,2.5v7.1c0-1-0.8-1.8-1.8-1.8s-1.8,0.8-1.8,1.8v-7.1
	c0-1.4-1.1-2.5-2.5-2.5h-16.5c-1.4,0-2.5,1.1-2.5,2.5v7.1c0-1-0.8-1.8-1.8-1.8s-1.8,0.8-1.8,1.8v-7.1c0-1.4-1.1-2.5-2.5-2.5h-16.5
	c-1.4,0-2.5,1.1-2.5,2.5v7.1c0-1-0.8-1.8-1.8-1.8s-1.8,0.8-1.8,1.8v-7.1c0-1.4-1.1-2.5-2.5-2.5h-16.5c-1.4,0-2.5,1.1-2.5,2.5v7.1
	c0-1-0.8-1.8-1.8-1.8s-1.8,0.8-1.8,1.8v-7.1c0-1.4-1.1-2.5-2.5-2.5h-16.5c-1.4,0-2.5,1.1-2.5,2.5v7.1c0-1-0.8-1.8-1.8-1.8
	s-1.8,0.8-1.8,1.8v-7.1c0-1.4-1.1-2.5-2.5-2.5H76.4c-1.4,0-2.5,1.1-2.5,2.5v7.1c0-1-0.8-1.8-1.8-1.8s-1.8,0.8-1.8,1.8v-7.1
	c0-1.4-1.1-2.5-2.5-2.5H51.4c-1.4,0-2.5,1.1-2.5,2.5v7.1c0-1-0.8-1.8-1.8-1.8s-1.8,0.8-1.8,1.8v-7.1c0-1.4-1.1-2.5-2.5-2.5H26.5
	c-1.4,0-2.5,1.1-2.5,2.5v7.1c0-1-0.8-1.8-1.8-1.8s-1.8,0.8-1.8,1.8v-7.1c0-1.4-1.1-2.5-2.5-2.5H1.5c-0.3,0-0.5,0-0.8,0.1v22.6
	c0.2,0.1,0.5,0.1,0.8,0.1H18z"/>
<path fill="#FBE25C" stroke="#FFFFFF" stroke-linecap="round" stroke-linejoin="round" stroke-miterlimit="10" d="M18,123
	c1.4,0,3.3,0,4.2,0s2.9,0,4.2,0h16.5c1.4,0,3.3,0,4.2,0s2.9,0,4.2,0h16.5c1.4,0,3.3,0,4.2,0s2.9,0,4.2,0h16.5c1.4,0,3.3,0,4.2,0
	s2.9,0,4.2,0h16.5c1.4,0,3.3,0,4.2,0s2.9,0,4.2,0h16.5c1.4,0,3.3,0,4.2,0s2.9,0,4.2,0h16.5c1.4,0,3.3,0,4.2,0s2.9,0,4.2,0h16.5
	c1.4,0,3.3,0,4.2,0s2.9,0,4.2,0h16.5c1.4,0,3.3,0,4.2,0s2.9,0,4.2,0h16.5c1.4,0,3.3,0,4.2,0s2.9,0,4.2,0h16.5c1.4,0,3.3,0,4.2,0
	s2.9,0,4.2,0h16.5c1.4,0,3.3,0,4.2,0s1.8-0.8,1.8-1.8v-11.5c0-1-0.8-1.8-1.8-1.8s-1.8,0.8-1.8,1.8v-7.1c0-1.4-1.1-2.5-2.5-2.5h-16.5
	c-1.4,0-2.5,1.1-2.5,2.5v7.1c0-1-0.8-1.8-1.8-1.8s-1.8,0.8-1.8,1.8v-7.1c0-1.4-1.1-2.5-2.5-2.5h-16.5c-1.4,0-2.5,1.1-2.5,2.5v7.1
	c0-1-0.8-1.8-1.8-1.8s-1.8,0.8-1.8,1.8v-7.1c0-1.4-1.1-2.5-2.5-2.5h-16.5c-1.4,0-2.5,1.1-2.5,2.5v7.1c0-1-0.8-1.8-1.8-1.8
	s-1.8,0.8-1.8,1.8v-7.1c0-1.4-1.1-2.5-2.5-2.5h-16.5c-1.4,0-2.5,1.1-2.5,2.5v7.1c0-1-0.8-1.8-1.8-1.8s-1.8,0.8-1.8,1.8v-7.1
	c0-1.4-1.1-2.5-2.5-2.5h-16.5c-1.4,0-2.5,1.1-2.5,2.5v7.1c0-1-0.8-1.8-1.8-1.8s-1.8,0.8-1.8,1.8v-7.1c0-1.4-1.1-2.5-2.5-2.5h-16.5
	c-1.4,0-2.5,1.1-2.5,2.5v7.1c0-1-0.8-1.8-1.8-1.8s-1.8,0.8-1.8,1.8v-7.1c0-1.4-1.1-2.5-2.5-2.5h-16.5c-1.4,0-2.5,1.1-2.5,2.5v7.1
	c0-1-0.8-1.8-1.8-1.8s-1.8,0.8-1.8,1.8v-7.1c0-1.4-1.1-2.5-2.5-2.5h-16.5c-1.4,0-2.5,1.1-2.5,2.5v7.1c0-1-0.8-1.8-1.8-1.8
	s-1.8,0.8-1.8,1.8v-7.1c0-1.4-1.1-2.5-2.5-2.5H76.4c-1.4,0-2.5,1.1-2.5,2.5v7.1c0-1-0.8-1.8-1.8-1.8s-1.8,0.8-1.8,1.8v-7.1
	c0-1.4-1.1-2.5-2.5-2.5H51.4c-1.4,0-2.5,1.1-2.5,2.5v7.1c0-1-0.8-1.8-1.8-1.8s-1.8,0.8-1.8,1.8v-7.1c0-1.4-1.1-2.5-2.5-2.5H26.5
	c-1.4,0-2.5,1.1-2.5,2.5v7.1c0-1-0.8-1.8-1.8-1.8s-1.8,0.8-1.8,1.8v-7.1c0-1.4-1.1-2.5-2.5-2.5H1.5c-0.3,0-0.5,0-0.8,0.1v22.6
	c0.2,0.1,0.5,0.1,0.8,0.1H18z"/>
<path fill="#FBE25C" stroke="#FFFFFF" stroke-linecap="round" stroke-linejoin="round" stroke-miterlimit="10" d="M18,136.5
	c1.4,0,3.3,0,4.2,0s2.9,0,4.2,0h16.5c1.4,0,3.3,0,4.2,0s2.9,0,4.2,0h16.5c1.4,0,3.3,0,4.2,0s2.9,0,4.2,0h16.5c1.4,0,3.3,0,4.2,0
	s2.9,0,4.2,0h16.5c1.4,0,3.3,0,4.2,0s2.9,0,4.2,0h16.5c1.4,0,3.3,0,4.2,0s2.9,0,4.2,0h16.5c1.4,0,3.3,0,4.2,0s2.9,0,4.2,0h16.5
	c1.4,0,3.3,0,4.2,0s2.9,0,4.2,0h16.5c1.4,0,3.3,0,4.2,0s2.9,0,4.2,0h16.5c1.4,0,3.3,0,4.2,0s2.9,0,4.2,0h16.5c1.4,0,3.3,0,4.2,0
	s2.9,0,4.2,0h16.5c1.4,0,3.3,0,4.2,0s1.8-0.8,1.8-1.8v-11.5c0-1-0.8-1.8-1.8-1.8s-1.8,0.8-1.8,1.8v-7.1c0-1.4-1.1-2.5-2.5-2.5h-16.5
	c-1.4,0-2.5,1.1-2.5,2.5v7.1c0-1-0.8-1.8-1.8-1.8s-1.8,0.8-1.8,1.8v-7.1c0-1.4-1.1-2.5-2.5-2.5h-16.5c-1.4,0-2.5,1.1-2.5,2.5v7.1
	c0-1-0.8-1.8-1.8-1.8s-1.8,0.8-1.8,1.8v-7.1c0-1.4-1.1-2.5-2.5-2.5h-16.5c-1.4,0-2.5,1.1-2.5,2.5v7.1c0-1-0.8-1.8-1.8-1.8
	s-1.8,0.8-1.8,1.8v-7.1c0-1.4-1.1-2.5-2.5-2.5h-16.5c-1.4,0-2.5,1.1-2.5,2.5v7.1c0-1-0.8-1.8-1.8-1.8s-1.8,0.8-1.8,1.8v-7.1
	c0-1.4-1.1-2.5-2.5-2.5h-16.5c-1.4,0-2.5,1.1-2.5,2.5v7.1c0-1-0.8-1.8-1.8-1.8s-1.8,0.8-1.8,1.8v-7.1c0-1.4-1.1-2.5-2.5-2.5h-16.5
	c-1.4,0-2.5,1.1-2.5,2.5v7.1c0-1-0.8-1.8-1.8-1.8s-1.8,0.8-1.8,1.8v-7.1c0-1.4-1.1-2.5-2.5-2.5h-16.5c-1.4,0-2.5,1.1-2.5,2.5v7.1
	c0-1-0.8-1.8-1.8-1.8s-1.8,0.8-1.8,1.8v-7.1c0-1.4-1.1-2.5-2.5-2.5h-16.5c-1.4,0-2.5,1.1-2.5,2.5v7.1c0-1-0.8-1.8-1.8-1.8
	s-1.8,0.8-1.8,1.8v-7.1c0-1.4-1.1-2.5-2.5-2.5H76.4c-1.4,0-2.5,1.1-2.5,2.5v7.1c0-1-0.8-1.8-1.8-1.8s-1.8,0.8-1.8,1.8v-7.1
	c0-1.4-1.1-2.5-2.5-2.5H51.4c-1.4,0-2.5,1.1-2.5,2.5v7.1c0-1-0.8-1.8-1.8-1.8s-1.8,0.8-1.8,1.8v-7.1c0-1.4-1.1-2.5-2.5-2.5H26.5
	c-1.4,0-2.5,1.1-2.5,2.5v7.1c0-1-0.8-1.8-1.8-1.8s-1.8,0.8-1.8,1.8v-7.1c0-1.4-1.1-2.5-2.5-2.5H1.5c-0.3,0-0.5,0-0.8,0.1v22.6
	c0.2,0.1,0.5,0.1,0.8,0.1H18z"/>
<path fill="#FBE25C" stroke="#FFFFFF" stroke-linecap="round" stroke-linejoin="round" stroke-miterlimit="10" d="M298.5,136.8
	c0-1-0.8-1.8-1.8-1.8s-1.8,0.8-1.8,1.8v-7.1c0-1.4-1.1-2.5-2.5-2.5h-16.5c-1.4,0-2.5,1.1-2.5,2.5v7.1c0-1-0.8-1.8-1.8-1.8
	s-1.8,0.8-1.8,1.8v-7.1c0-1.4-1.1-2.5-2.5-2.5h-16.5c-1.4,0-2.5,1.1-2.5,2.5v7.1c0-1-0.8-1.8-1.8-1.8s-1.8,0.8-1.8,1.8v-7.1
	c0-1.4-1.1-2.5-2.5-2.5h-16.5c-1.4,0-2.5,1.1-2.5,2.5v7.1c0-1-0.8-1.8-1.8-1.8s-1.8,0.8-1.8,1.8v-7.1c0-1.4-1.1-2.5-2.5-2.5h-16.5
	c-1.4,0-2.5,1.1-2.5,2.5v7.1c0-1-0.8-1.8-1.8-1.8s-1.8,0.8-1.8,1.8v-7.1c0-1.4-1.1-2.5-2.5-2.5h-16.5c-1.4,0-2.5,1.1-2.5,2.5v7.1
	c0-1-0.8-1.8-1.8-1.8s-1.8,0.8-1.8,1.8v-7.1c0-1.4-1.1-2.5-2.5-2.5h-16.5c-1.4,0-2.5,1.1-2.5,2.5v7.1c0-1-0.8-1.8-1.8-1.8
	s-1.8,0.8-1.8,1.8v-7.1c0-1.4-1.1-2.5-2.5-2.5h-16.5c-1.4,0-2.5,1.1-2.5,2.5v7.1c0-1-0.8-1.8-1.8-1.8s-1.8,0.8-1.8,1.8v-7.1
	c0-1.4-1.1-2.5-2.5-2.5h-16.5c-1.4,0-2.5,1.1-2.5,2.5v7.1c0-1-0.8-1.8-1.8-1.8s-1.8,0.8-1.8,1.8v-7.1c0-1.4-1.1-2.5-2.5-2.5H76.4
	c-1.4,0-2.5,1.1-2.5,2.5v7.1c0-1-0.8-1.8-1.8-1.8s-1.8,0.8-1.8,1.8v-7.1c0-1.4-1.1-2.5-2.5-2.5H51.4c-1.4,0-2.5,1.1-2.5,2.5v7.1
	c0-1-0.8-1.8-1.8-1.8s-1.8,0.8-1.8,1.8v-7.1c0-1.4-1.1-2.5-2.5-2.5H26.5c-1.4,0-2.5,1.1-2.5,2.5v7.1c0-1-0.8-1.8-1.8-1.8
	s-1.8,0.8-1.8,1.8v-7.1c0-1.4-1.1-2.5-2.5-2.5H1.5c-0.3,0-0.5,0-0.8,0.1v22h297.4c0.2-0.3,0.3-0.6,0.3-1V136.8z"/>
<rect opacity="0.45" fill="#FBE25C" width="300" height="150"/>
</svg>
