<?xml version="1.0" encoding="utf-8"?>
<!-- Generator: Adobe Illustrator 18.1.1, SVG Export Plug-In . SVG Version: 6.00 Build 0)  -->
<svg version="1.1" id="Layer_1" xmlns="http://www.w3.org/2000/svg" xmlns:xlink="http://www.w3.org/1999/xlink" x="0px" y="0px"
	 viewBox="0 0 300 150" enable-background="new 0 0 300 150" xml:space="preserve">
<path fill="#020202" stroke="#1C1B1A" stroke-miterlimit="10" d="M0.4,31.6l74.8,71c0.1,0.1,0.2,0.1,0.3,0.1c0.1,0,0.1,0,0.2,0
	c0.2-0.1,0.3-0.2,0.3-0.4V75.8c0-0.1,0-0.2-0.1-0.3L1.6-0.9H0.3v32.2C0.3,31.4,0.4,31.5,0.4,31.6z M1.2-0.1l74,76.2v25.3l-74-70.2
	V-0.1z"/>
<path fill="#020202" stroke="#1C1B1A" stroke-miterlimit="10" d="M0.3,75.8v26.5c0,0.2,0.1,0.3,0.3,0.4c0.1,0,0.1,0,0.2,0
	c0.1,0,0.2,0,0.3-0.1l74.8-71c0.1-0.1,0.1-0.2,0.1-0.3V-0.9h-1.3L0.4,75.5C0.4,75.6,0.3,75.7,0.3,75.8z M1.2,76l74-76.2v31.3
	l-74,70.2V76z"/>
<path fill="#020202" stroke="#1C1B1A" stroke-miterlimit="10" d="M0.7,102.6h74.8c0.2,0,0.3-0.1,0.3-0.3V-0.9h-0.6V102H1.1V-0.9H0.4
	v103.2C0.4,102.5,0.6,102.6,0.7,102.6z"/>
<path fill="#020202" stroke="#1C1B1A" stroke-miterlimit="10" d="M0.6,101.9c-0.2,0.1-0.3,0.2-0.3,0.4v32.5c0,0.1,0,0.2,0.1,0.3
	l15.2,14.4h1.2L1.2,134.7v-31.3L46,149.6h1.2L1,102C0.9,101.9,0.7,101.9,0.6,101.9z"/>
<path fill="#020202" stroke="#1C1B1A" stroke-miterlimit="10" d="M76,134.8v-32.5c0-0.2-0.1-0.3-0.3-0.4c-0.2-0.1-0.3,0-0.5,0.1
	l-46.2,47.5h1.2l44.9-46.2v31.3l-15.7,14.9h1.2l15.2-14.4C75.9,135.1,76,135,76,134.8z"/>
<path fill="#020202" stroke="#1C1B1A" stroke-miterlimit="10" d="M75.6,102H0.7c-0.2,0-0.3,0.1-0.3,0.3v47.2h0.6v-46.9h74.2v46.9
	h0.6v-47.2C75.9,102.2,75.7,102,75.6,102z"/>
<path fill="#020202" stroke="#1C1B1A" stroke-miterlimit="10" d="M150.7,124.2l-74.8-77c-0.1-0.1-0.3-0.2-0.5-0.1
	c-0.2,0.1-0.3,0.2-0.3,0.4V80c0,0.1,0,0.2,0.1,0.3l73,69.3h1.2L76,79.8V48.5l74,76.2v24.9h0.8v-25.1
	C150.8,124.4,150.8,124.3,150.7,124.2z"/>
<path fill="#020202" stroke="#1C1B1A" stroke-miterlimit="10" d="M150.8,80V47.5c0-0.2-0.1-0.3-0.3-0.4c-0.2-0.1-0.3,0-0.5,0.1
	l-74.8,77c-0.1,0.1-0.1,0.2-0.1,0.3v25.1H76v-24.9l74-76.2v31.3l-73.5,69.8h1.2l73-69.3C150.7,80.2,150.8,80.1,150.8,80z"/>
<path fill="#020202" stroke="#1C1B1A" stroke-miterlimit="10" d="M150.4,47.1H75.6c-0.2,0-0.3,0.1-0.3,0.3v102.1h0.6V47.8h74.2
	v101.8h0.6V47.5C150.7,47.3,150.5,47.1,150.4,47.1z"/>
<path fill="#020202" stroke="#1C1B1A" stroke-miterlimit="10" d="M150.4,47.7c0.1,0,0.1,0,0.2,0c0.2-0.1,0.3-0.2,0.3-0.4V20.8
	c0-0.1,0-0.2-0.1-0.3L129.9-0.9h-1.2L149.9,21v25.3L100.2-0.9H99l51.1,48.5C150.2,47.7,150.3,47.7,150.4,47.7z"/>
<path fill="#020202" stroke="#1C1B1A" stroke-miterlimit="10" d="M75.1,20.8v26.5c0,0.2,0.1,0.3,0.3,0.4c0.1,0,0.1,0,0.2,0
	c0.1,0,0.2,0,0.3-0.1l51.1-48.5h-1.2L76,46.3V21L97.2-0.9H96L75.2,20.5C75.2,20.6,75.1,20.7,75.1,20.8z"/>
<path fill="#020202" stroke="#1C1B1A" stroke-miterlimit="10" d="M75.6,47.6h74.8c0.2,0,0.3-0.1,0.3-0.3V-0.9h-0.6V47H75.9V-0.9
	h-0.6v48.2C75.2,47.5,75.4,47.6,75.6,47.6z"/>
<g>
	<path fill="#020202" stroke="#1C1B1A" stroke-miterlimit="10" d="M150.7-1.4c-0.1-0.1-0.3-0.2-0.5-0.1c-0.2,0.1-0.3,0.2-0.3,0.4
		v0.2h1.2L150.7-1.4z"/>
	<path fill="#020202" stroke="#1C1B1A" stroke-miterlimit="10" d="M150.1,31.7l74.8,71c0.1,0.1,0.2,0.1,0.3,0.1c0.1,0,0.1,0,0.2,0
		c0.2-0.1,0.3-0.2,0.3-0.4V75.9c0-0.1,0-0.2-0.1-0.3L151.2-0.9h-1.2v32.3C149.9,31.5,150,31.6,150.1,31.7z M150.8-0.1l74,76.2v25.3
		l-74-70.2V-0.1z"/>
</g>
<g>
	<path fill="#020202" stroke="#1C1B1A" stroke-miterlimit="10" d="M225.6-1.1c0-0.2-0.1-0.3-0.3-0.4c-0.2-0.1-0.3,0-0.5,0.1
		l-0.5,0.5h1.2V-1.1z"/>
	<path fill="#020202" stroke="#1C1B1A" stroke-miterlimit="10" d="M149.9,75.9v26.5c0,0.2,0.1,0.3,0.3,0.4c0.1,0,0.1,0,0.2,0
		c0.1,0,0.2,0,0.3-0.1l74.8-71c0.1-0.1,0.1-0.2,0.1-0.3V-0.9h-1.2l-74.3,76.5C150,75.7,149.9,75.8,149.9,75.9z M150.8,76.1l74-76.2
		v31.3l-74,70.2V76.1z"/>
</g>
<path fill="#020202" stroke="#1C1B1A" stroke-miterlimit="10" d="M150.4,102.7h74.8c0.2,0,0.3-0.1,0.3-0.3V-0.9h-75.4v103.3
	C150.1,102.6,150.2,102.7,150.4,102.7z M150.7-0.8h74.2v102.9h-74.2V-0.8z"/>
<path fill="#020202" stroke="#1C1B1A" stroke-miterlimit="10" d="M150.2,102c-0.2,0.1-0.3,0.2-0.3,0.4v32.5c0,0.1,0,0.2,0.1,0.3
	l15.1,14.3h1.2l-15.6-14.8v-31.3l44.8,46.1h1.2l-46.1-47.5C150.6,102,150.4,101.9,150.2,102z"/>
<path fill="#020202" stroke="#1C1B1A" stroke-miterlimit="10" d="M225.6,134.9v-32.5c0-0.2-0.1-0.3-0.3-0.4c-0.2-0.1-0.3,0-0.5,0.1
	l-46.1,47.5h1.2l44.8-46.1v31.3l-15.6,14.8h1.2l15.1-14.3C225.6,135.1,225.6,135,225.6,134.9z"/>
<path fill="#020202" stroke="#1C1B1A" stroke-miterlimit="10" d="M225.2,102.1h-74.8c-0.2,0-0.3,0.1-0.3,0.3v47.2h0.6v-46.8h74.2
	v46.8h0.6v-47.2C225.5,102.2,225.4,102.1,225.2,102.1z"/>
<path fill="#020202" stroke="#1C1B1A" stroke-miterlimit="10" d="M225.6,79.9V48.6l74,76.2v24.8h0.4v-25.6l-74.5-76.7
	c-0.1-0.1-0.3-0.2-0.5-0.1c-0.2,0.1-0.3,0.2-0.3,0.4V80c0,0.1,0,0.2,0.1,0.3l72.9,69.2h1.2L225.6,79.9z"/>
<path fill="#020202" stroke="#1C1B1A" stroke-miterlimit="10" d="M299.7,47.2l-74.8,77c-0.1,0.1-0.1,0.2-0.1,0.3v25h0.8v-24.8
	l74-76.2v31.3l-73.4,69.7h1.2L300,80.6V47.1C299.9,47.1,299.8,47.2,299.7,47.2z"/>
<path fill="#020202" stroke="#1C1B1A" stroke-miterlimit="10" d="M225.5,47.8h74.2v101.7h0.3V47.2h-74.8c-0.2,0-0.3,0.1-0.3,0.3v102
	h0.6V47.8z"/>
<path fill="#020202" stroke="#1C1B1A" stroke-miterlimit="10" d="M279.5-0.9h-1.2l21.3,21.9v25.3L249.8-0.9h-1.2l51.2,48.6
	c0.1,0.1,0.2,0.1,0.3,0.1V20.3L279.5-0.9z"/>
<path fill="#020202" stroke="#1C1B1A" stroke-miterlimit="10" d="M225.6,46.4V21.1l21.3-21.9h-1.2l-20.8,21.5
	c-0.1,0.1-0.1,0.2-0.1,0.3v26.5c0,0.2,0.1,0.3,0.3,0.4c0.1,0,0.1,0,0.2,0c0.1,0,0.2,0,0.3-0.1l51.2-48.6h-1.2L225.6,46.4z"/>
<path fill="#020202" stroke="#1C1B1A" stroke-miterlimit="10" d="M299.7-0.9v47.9h-74.2V-0.9h-0.6v48.2c0,0.2,0.1,0.3,0.3,0.3H300
	V-0.9H299.7z"/>
<g opacity="0.8">
	<rect y="-0.4" fill="#020202" stroke="#1C1B1A" stroke-miterlimit="10" width="300" height="150"/>
</g>
</svg>
