<?xml version="1.0" encoding="utf-8"?>
<!-- Generator: Adobe Illustrator 18.1.1, SVG Export Plug-In . SVG Version: 6.00 Build 0)  -->
<svg version="1.1" id="Layer_2" xmlns="http://www.w3.org/2000/svg" xmlns:xlink="http://www.w3.org/1999/xlink" x="0px" y="0px"
	 viewBox="300 2220 600 300" enable-background="new 300 2220 600 300" xml:space="preserve">
<g>
	
		<rect x="301" y="2220" opacity="0.8" fill="#009B49" stroke="#009B48" stroke-width="3" stroke-linecap="round" stroke-linejoin="round" stroke-miterlimit="10" enable-background="new    " width="600" height="298.3"/>
	<g>
		<g>
			
				<path fill="#009B49" stroke="#009B48" stroke-width="3" stroke-linecap="round" stroke-linejoin="round" stroke-miterlimit="10" d="
				M403.2,2221.4c0.3,0,0.5-0.2,0.5-0.4s-0.2-0.4-0.5-0.4h-83.8c-0.1,0-0.2,0-0.3,0.1c-4.7,0.5-9.1,2.6-12.3,6.1
				c-3.3,3.6-5.1,8.2-5.1,13c0,4.8,1.8,9.4,5.1,13c3.2,3.5,7.6,5.6,12.3,6.1c0.1,0,0.2,0.1,0.3,0.1h83.8c0.3,0,0.5-0.2,0.5-0.4
				c0-0.2-0.2-0.4-0.5-0.4c-10.2,0-18.5-8.2-18.5-18.3C384.8,2229.6,393.1,2221.4,403.2,2221.4z M383.9,2239.7
				c0,8.6,5.7,15.9,13.5,18.3h-77.7c-0.1,0-0.1,0-0.2,0c-4.6-0.4-8.8-2.5-11.9-5.9c-3.1-3.4-4.9-7.8-4.9-12.4c0-4.6,1.7-9,4.9-12.4
				c3.1-3.4,7.4-5.5,11.9-5.9c0.1,0,0.2,0,0.2-0.1h77.7C389.5,2223.8,383.9,2231.1,383.9,2239.7z"/>
		</g>
		<g>
			
				<path fill="#009B49" stroke="#009B48" stroke-width="3" stroke-linecap="round" stroke-linejoin="round" stroke-miterlimit="10" d="
				M485.2,2221.3c0.3,0,0.5-0.2,0.5-0.4s-0.2-0.4-0.5-0.4h-83.8c-0.1,0-0.2,0-0.3,0.1c-4.7,0.5-9.1,2.6-12.3,6.1
				c-3.3,3.6-5.1,8.2-5.1,13s1.8,9.5,5.1,13c3.2,3.5,7.6,5.6,12.3,6.1c0.1,0,0.2,0.1,0.3,0.1h83.9c0.3,0,0.5-0.2,0.4-0.4
				c0-0.2-0.2-0.4-0.5-0.4c-10.2,0-18.5-8.2-18.5-18.3S475,2221.3,485.2,2221.3z M465.8,2239.7c0,8.6,5.7,15.9,13.5,18.3h-77.7
				c-0.1,0-0.1,0-0.2,0c-4.6-0.4-8.8-2.5-11.9-5.9c-3.1-3.4-4.9-7.8-4.9-12.4c0-4.6,1.7-9,4.9-12.4c3.1-3.4,7.4-5.5,11.9-5.9
				c0.1,0,0.2,0,0.2-0.1h77.7C471.5,2223.8,465.8,2231.1,465.8,2239.7z"/>
		</g>
	</g>
	<g>
		<g>
			
				<path fill="#009B49" stroke="#009B48" stroke-width="3" stroke-linecap="round" stroke-linejoin="round" stroke-miterlimit="10" d="
				M567.8,2221.4c0.3,0,0.5-0.2,0.5-0.4s-0.2-0.4-0.5-0.4H484c-0.1,0-0.2,0-0.3,0.1c-4.7,0.5-9.1,2.6-12.3,6.1
				c-3.3,3.6-5.1,8.2-5.1,13c0,4.9,1.8,9.5,5.1,13c3.2,3.5,7.6,5.6,12.3,6.1c0.1,0,0.2,0.1,0.3,0.1h83.8c0.3,0,0.5-0.2,0.5-0.4
				s-0.2-0.4-0.5-0.4c-10.2,0-18.5-8.2-18.5-18.3C549.4,2229.6,557.7,2221.4,567.8,2221.4z M548.5,2239.7c0,8.6,5.7,15.9,13.5,18.3
				h-77.7c-0.1,0-0.1,0-0.2-0.1c-4.6-0.4-8.8-2.5-11.9-5.9s-4.9-7.8-4.9-12.4s1.7-9,4.9-12.4c3.1-3.4,7.4-5.5,11.9-5.9
				c0.1,0,0.2,0,0.2-0.1H562C554.1,2223.8,548.5,2231.1,548.5,2239.7z"/>
		</g>
		<g>
			
				<path fill="#009B49" stroke="#009B48" stroke-width="3" stroke-linecap="round" stroke-linejoin="round" stroke-miterlimit="10" d="
				M649.8,2221.4c0.3,0,0.5-0.2,0.5-0.4s-0.2-0.4-0.5-0.4H566c-0.1,0-0.2,0-0.3,0.1c-4.7,0.5-9.1,2.6-12.3,6.1
				c-3.3,3.6-5.1,8.2-5.1,13c0,4.9,1.8,9.5,5.1,13c3.2,3.5,7.6,5.6,12.3,6.1c0.1,0,0.2,0.1,0.3,0.1h83.9c0.3,0,0.5-0.2,0.4-0.4
				c0-0.2-0.2-0.4-0.5-0.4c-10.2,0-18.5-8.2-18.5-18.3C631.3,2229.6,639.6,2221.4,649.8,2221.4z M630.4,2239.7
				c0,8.6,5.7,15.9,13.5,18.3h-77.7c-0.1,0-0.1,0-0.2,0c-4.6-0.4-8.8-2.5-11.9-5.9c-3.1-3.4-4.9-7.8-4.9-12.4c0-4.6,1.7-9,4.9-12.4
				c3.1-3.4,7.4-5.5,11.9-5.9c0.1,0,0.2,0,0.2-0.1h77.7C636.1,2223.8,630.4,2231.1,630.4,2239.7z"/>
		</g>
	</g>
	<g>
		<g>
			
				<path fill="#009B49" stroke="#009B48" stroke-width="3" stroke-linecap="round" stroke-linejoin="round" stroke-miterlimit="10" d="
				M731.6,2221.4c0.3,0,0.5-0.2,0.5-0.4s-0.2-0.4-0.5-0.4h-83.8c-0.1,0-0.2,0-0.3,0.1c-4.7,0.5-9.1,2.6-12.3,6.1
				c-3.3,3.6-5.1,8.2-5.1,13c0,4.9,1.8,9.5,5.1,13c3.2,3.5,7.6,5.6,12.3,6.1c0.1,0,0.2,0.1,0.3,0.1h83.8c0.3,0,0.5-0.2,0.5-0.4
				s-0.2-0.4-0.5-0.4c-10.2,0-18.5-8.2-18.5-18.3C713.1,2229.6,721.4,2221.4,731.6,2221.4z M712.2,2239.7c0,8.6,5.7,15.9,13.5,18.3
				H648c0,0-0.1,0-0.2-0.1c-4.6-0.4-8.8-2.5-11.9-5.9c-3.1-3.4-4.9-7.8-4.9-12.4c0-4.6,1.7-9,4.9-12.4c3.1-3.4,7.4-5.5,11.9-5.9
				c0,0,0.2,0,0.2-0.1h77.7C717.9,2223.8,712.2,2231.1,712.2,2239.7z"/>
		</g>
		<g>
			
				<path fill="#009B49" stroke="#009B48" stroke-width="3" stroke-linecap="round" stroke-linejoin="round" stroke-miterlimit="10" d="
				M813.5,2221.4c0.3,0,0.5-0.2,0.5-0.4s-0.2-0.4-0.5-0.4h-83.8c-0.1,0-0.2,0-0.3,0.1c-4.7,0.5-9.1,2.6-12.3,6.1
				c-3.3,3.6-5.1,8.2-5.1,13c0,4.9,1.8,9.5,5.1,13c3.2,3.5,7.6,5.6,12.3,6.1c0.1,0,0.2,0.1,0.3,0.1h83.9c0.3,0,0.5-0.2,0.4-0.4
				c0-0.2-0.2-0.4-0.5-0.4c-10.2,0-18.5-8.2-18.5-18.3C795.1,2229.6,803.4,2221.4,813.5,2221.4z M794.2,2239.7
				c0,8.6,5.7,15.9,13.5,18.3H730c-0.1,0-0.2,0-0.3,0c-4.6-0.4-8.8-2.5-11.9-5.9c-3.1-3.4-4.9-7.8-4.9-12.4c0-4.6,1.7-9,4.9-12.4
				c3.1-3.4,7.4-5.5,11.9-5.9c0.1,0,0.2,0,0.2-0.1h77.8C799.9,2223.8,794.2,2231.1,794.2,2239.7z"/>
		</g>
	</g>
	<g>
		
			<path fill="#009B49" stroke="#009B48" stroke-width="3" stroke-linecap="round" stroke-linejoin="round" stroke-miterlimit="10" d="
			M896.2,2221.4c0.3,0,0.5-0.2,0.5-0.4s-0.2-0.4-0.5-0.4h-83.8c-0.1,0-0.2,0-0.3,0.1c-4.7,0.5-9.1,2.6-12.3,6.1
			c-3.3,3.6-5.1,8.2-5.1,13c0,4.9,1.8,9.5,5.1,13c3.2,3.5,7.6,5.6,12.3,6.1c0.1,0,0.2,0.1,0.3,0.1h83.8c0.3,0,0.5-0.2,0.5-0.4
			s-0.2-0.4-0.5-0.4c-10.2,0-18.5-8.2-18.5-18.3C877.7,2229.6,886,2221.4,896.2,2221.4z M876.8,2239.7c0,8.6,5.7,15.9,13.5,18.3
			h-77.7c0,0-0.1-0.1-0.2-0.1c-4.6-0.4-8.8-2.5-11.9-5.9c-3.1-3.4-4.9-7.8-4.9-12.4c0-4.6,1.7-9,4.9-12.4c3.1-3.4,7.4-5.5,11.9-5.9
			c0.1,0,0.2,0,0.2-0.1h77.7C882.5,2223.9,876.8,2231.1,876.8,2239.7z"/>
	</g>
	
		<path fill="#009B49" stroke="#009B48" stroke-width="3" stroke-linecap="round" stroke-linejoin="round" stroke-miterlimit="10" d="
		M894.6,2258.1c-0.1,0-0.1-0.1-0.2-0.1c-4.6-0.4-8.8-2.5-11.9-5.9c-3.1-3.4-4.9-7.8-4.9-12.4c0-4.6,1.7-9,4.9-12.4
		c3.1-3.4,7.4-5.5,11.9-5.9c0,0,0.2,0,0.2-0.1h6.4v-0.9h-6.6c-0.1,0-0.2,0-0.3,0.1c-4.7,0.5-9.1,2.6-12.3,6.1
		c-3.3,3.6-5.1,8.2-5.1,13c0,4.9,1.8,9.5,5.1,13c3.2,3.5,7.6,5.6,12.3,6.1c0.1,0,0.2,0.1,0.3,0.1h6.6v-0.9H894.6z"/>
	<g>
		
			<path fill="#009B49" stroke="#009B48" stroke-width="3" stroke-linecap="round" stroke-linejoin="round" stroke-miterlimit="10" d="
			M488.4,2258.1c-0.1,0-0.2-0.1-0.3-0.1h-83.8c-0.3,0-0.5,0.2-0.5,0.4c0,0.2,0.2,0.4,0.5,0.4c10.2,0,18.5,8.2,18.5,18.3
			s-8.3,18.3-18.5,18.3c-0.3,0-0.5,0.2-0.5,0.4c0,0.2,0.2,0.4,0.5,0.4h83.8c0.1,0,0.2,0,0.3-0.1c4.7-0.5,9.1-2.6,12.3-6.1
			c3.3-3.6,5.1-8.2,5.1-13s-1.8-9.5-5.1-13C497.4,2260.8,493.1,2258.6,488.4,2258.1z M499.9,2289.7c-3.1,3.4-7.4,5.5-11.9,5.9
			c-0.1,0-0.2,0-0.2,0.1h-77.7c7.8-2.5,13.5-9.7,13.5-18.3s-5.7-15.9-13.5-18.3h77.7c0.1,0,0.1,0.1,0.2,0.1
			c4.6,0.4,8.8,2.5,11.9,5.9c3.1,3.4,4.9,7.8,4.9,12.4C504.8,2281.8,503.1,2286.3,499.9,2289.7z"/>
	</g>
	<g>
		
			<path fill="#009B49" stroke="#009B48" stroke-width="3" stroke-linecap="round" stroke-linejoin="round" stroke-miterlimit="10" d="
			M406.4,2258.2c-0.1,0-0.2-0.1-0.3-0.1h-83.8c-0.3,0-0.5,0.2-0.5,0.4s0.2,0.4,0.5,0.4c10.2,0,18.5,8.2,18.5,18.3
			s-8.3,18.3-18.5,18.3c-0.3,0-0.5,0.2-0.5,0.4c0,0.2,0.2,0.4,0.5,0.4h83.9c0.1,0,0.2,0,0.3,0c4.7-0.5,9.1-2.6,12.3-6.1
			c3.3-3.6,5.1-8.2,5.1-13c0-4.9-1.8-9.5-5.1-13C415.4,2260.8,411.1,2258.7,406.4,2258.2z M417.9,2289.7c-3.1,3.4-7.4,5.5-11.9,5.9
			c-0.1,0-0.2,0-0.2,0.1h-77.7c7.9-2.5,13.5-9.7,13.5-18.3s-5.7-15.9-13.5-18.3h77.7c0.1,0,0.1,0.1,0.2,0.1
			c4.6,0.4,8.8,2.5,11.9,5.9c3.1,3.4,4.9,7.8,4.9,12.4C422.8,2281.8,421.1,2286.3,417.9,2289.7z"/>
	</g>
	<g>
		<g>
			
				<path fill="#009B49" stroke="#009B48" stroke-width="3" stroke-linecap="round" stroke-linejoin="round" stroke-miterlimit="10" d="
				M653,2258.1c-0.1,0-0.2-0.1-0.3-0.1h-83.8c-0.3,0-0.5,0.2-0.5,0.4c0,0.2,0.2,0.4,0.5,0.4c10.2,0,18.5,8.2,18.5,18.3
				s-8.3,18.3-18.5,18.3c-0.3,0-0.5,0.2-0.5,0.4c0,0.2,0.2,0.4,0.5,0.4h83.8c0.1,0,0.2,0,0.3-0.1c4.7-0.5,9.1-2.6,12.3-6.1
				c3.3-3.6,5.1-8.2,5.1-13s-1.8-9.5-5.1-13C662,2260.8,657.7,2258.6,653,2258.1z M664.5,2289.7c-3.1,3.4-7.4,5.5-11.9,5.9
				c-0.1,0-0.2,0-0.2,0.1h-77.7c7.8-2.4,13.5-9.7,13.5-18.3s-5.7-15.9-13.5-18.3h77.7c0,0,0.1,0.1,0.2,0.1c4.6,0.4,8.8,2.5,11.9,5.9
				c3.1,3.4,4.9,7.8,4.9,12.4S667.7,2286.3,664.5,2289.7z"/>
		</g>
		<g>
			
				<path fill="#009B49" stroke="#009B48" stroke-width="3" stroke-linecap="round" stroke-linejoin="round" stroke-miterlimit="10" d="
				M571,2258.1c-0.1,0-0.2-0.1-0.3-0.1h-83.8c-0.3,0-0.5,0.2-0.5,0.4c0,0.2,0.2,0.4,0.5,0.4c10.2,0,18.5,8.2,18.5,18.3
				s-8.3,18.3-18.5,18.3c-0.3,0-0.5,0.2-0.5,0.4c0,0.2,0.2,0.4,0.5,0.4h83.9c0.1,0,0.2,0,0.3-0.1c4.7-0.5,9.1-2.6,12.3-6.1
				c3.3-3.6,5.1-8.2,5.1-13s-1.8-9.5-5.1-13C580,2260.8,575.7,2258.6,571,2258.1z M582.5,2289.7c-3.1,3.4-7.4,5.5-11.9,5.9
				c-0.1,0-0.2,0-0.2,0.1h-77.7c7.9-2.4,13.5-9.7,13.5-18.3s-5.7-15.9-13.5-18.3h77.7c0,0,0.1,0.1,0.2,0.1c4.6,0.4,8.8,2.5,11.9,5.9
				c3.1,3.4,4.9,7.8,4.9,12.4S585.7,2286.3,582.5,2289.7z"/>
		</g>
	</g>
	<g>
		
			<path fill="#009B49" stroke="#009B48" stroke-width="3" stroke-linecap="round" stroke-linejoin="round" stroke-miterlimit="10" d="
			M816.7,2258.2c-0.1,0-0.2-0.1-0.3-0.1h-83.8c-0.3,0-0.5,0.2-0.5,0.4s0.2,0.4,0.5,0.4c10.2,0,18.5,8.2,18.5,18.3
			s-8.3,18.3-18.5,18.3c-0.3,0-0.5,0.2-0.5,0.4c0,0.2,0.2,0.4,0.5,0.4h83.8c0.1,0,0.2,0,0.3,0c4.7-0.5,9.1-2.6,12.3-6.1
			c3.3-3.6,5.1-8.2,5.1-13c0-4.9-1.8-9.5-5.1-13C825.8,2260.8,821.4,2258.7,816.7,2258.2z M828.3,2289.7c-3.1,3.4-7.4,5.5-11.9,5.9
			c-0.1,0-0.2,0-0.2,0.1h-77.7c7.8-2.4,13.5-9.7,13.5-18.3s-5.7-15.9-13.5-18.3h77.7c0,0,0.1,0.1,0.2,0.1c4.6,0.4,8.8,2.5,11.9,5.9
			s4.9,7.8,4.9,12.4C833.2,2281.8,831.5,2286.3,828.3,2289.7z"/>
	</g>
	<g>
		
			<path fill="#009B49" stroke="#009B48" stroke-width="3" stroke-linecap="round" stroke-linejoin="round" stroke-miterlimit="10" d="
			M734.7,2258.1c-0.1,0-0.2-0.1-0.3-0.1h-83.8c-0.3,0-0.5,0.2-0.5,0.4c0,0.2,0.2,0.4,0.5,0.4c10.2,0,18.5,8.2,18.5,18.3
			s-8.3,18.3-18.5,18.3c-0.3,0-0.5,0.2-0.5,0.4c0,0.2,0.2,0.4,0.5,0.4h83.9c0.1,0,0.2,0,0.3-0.1c4.7-0.5,9.1-2.6,12.3-6.1
			c3.3-3.6,5.1-8.2,5.1-13s-1.8-9.5-5.1-13C743.8,2260.8,739.4,2258.6,734.7,2258.1z M746.3,2289.7c-3.1,3.4-7.4,5.5-11.9,5.9
			c-0.1,0-0.2,0-0.2,0.1h-77.7c7.9-2.4,13.5-9.7,13.5-18.3s-5.7-15.9-13.5-18.3h77.7c0,0,0.1,0.1,0.2,0.1c4.6,0.4,8.8,2.5,11.9,5.9
			c3.1,3.4,4.9,7.8,4.9,12.4C751.2,2281.8,749.4,2286.3,746.3,2289.7z"/>
	</g>
	
		<path fill="#009B49" stroke="#009B48" stroke-width="3" stroke-linecap="round" stroke-linejoin="round" stroke-miterlimit="10" d="
		M899,2295.5c0,0-0.2,0-0.2,0.1h-77.7c7.9-2.4,13.5-9.7,13.5-18.3s-5.7-15.9-13.5-18.3h77.7c0,0,0.1,0.1,0.2,0.1
		c0.7,0,1.4,0.1,2,0.3v-0.9c-0.6-0.1-1.1-0.2-1.6-0.2c-0.1,0-0.2-0.1-0.3-0.1h-83.8c-0.3,0-0.5,0.2-0.5,0.4s0.2,0.4,0.5,0.4
		c10.2,0,18.5,8.2,18.5,18.3c0,10.1-8.3,18.3-18.5,18.3c-0.3,0-0.5,0.2-0.5,0.4s0.2,0.4,0.5,0.4h83.8c0.1,0,0.2,0,0.3-0.1
		c0.6,0,1.1-0.1,1.6-0.2v-1C900.4,2295.4,899.6,2295.5,899,2295.5z"/>
	<g>
		<g>
			<g>
				
					<path fill="#009B49" stroke="#009B48" stroke-width="3" stroke-linecap="round" stroke-linejoin="round" stroke-miterlimit="10" d="
					M318.4,2334c0.1,0,0.2,0.1,0.3,0.1h83.8c0.3,0,0.5-0.2,0.5-0.4c0-0.2-0.2-0.4-0.5-0.4c-10.2,0-18.5-8.2-18.5-18.3
					s8.3-18.3,18.5-18.3c0.3,0,0.5-0.2,0.5-0.4c0-0.2-0.2-0.4-0.5-0.4h-83.8c-0.1,0-0.2,0-0.3,0.1c-4.7,0.5-9.1,2.6-12.3,6.1
					c-3.3,3.6-5.1,8.2-5.1,13s1.8,9.4,5.1,13C309.3,2331.4,313.7,2333.5,318.4,2334z M306.8,2302.4c3.1-3.4,7.4-5.5,11.9-5.9
					c0.1,0,0.2,0,0.2-0.1h77.7c-7.9,2.5-13.5,9.7-13.5,18.3c0,8.6,5.7,15.9,13.5,18.3h-77.7c-0.1,0-0.2,0-0.2-0.1
					c-4.6-0.4-8.8-2.5-11.9-5.9c-3.1-3.4-4.9-7.8-4.9-12.4C302,2310.2,303.7,2305.8,306.8,2302.4z"/>
			</g>
			<g>
				
					<path fill="#009B49" stroke="#009B48" stroke-width="3" stroke-linecap="round" stroke-linejoin="round" stroke-miterlimit="10" d="
					M484.4,2296.5c0.3,0,0.5-0.2,0.5-0.4c0-0.2-0.2-0.4-0.5-0.4h-83.8c-0.1,0-0.2,0-0.3,0.1c-4.7,0.5-9.1,2.6-12.3,6.1
					c-3.3,3.6-5.1,8.2-5.1,13c0,4.9,1.8,9.5,5.1,13c3.2,3.5,7.6,5.6,12.3,6.1c0.1,0,0.2,0.1,0.3,0.1h83.8c0.3,0,0.5-0.2,0.5-0.4
					c0-0.2-0.2-0.4-0.5-0.4c-10.2,0-18.5-8.2-18.5-18.3S474.3,2296.5,484.4,2296.5z M465.1,2314.8c0,8.6,5.7,15.9,13.5,18.3h-77.7
					c-0.1,0-0.2,0-0.2-0.1c-4.6-0.4-8.8-2.5-11.9-5.9c-3.1-3.4-4.9-7.8-4.9-12.4c0-4.6,1.7-9,4.9-12.4c3.1-3.4,7.4-5.5,11.9-5.9
					c0.1,0,0.2,0,0.2-0.1h77.7C470.7,2298.9,465.1,2306.2,465.1,2314.8z"/>
			</g>
		</g>
		<g>
			<g>
				
					<path fill="#009B49" stroke="#009B48" stroke-width="3" stroke-linecap="round" stroke-linejoin="round" stroke-miterlimit="10" d="
					M567.1,2296.5c0.3,0,0.5-0.2,0.5-0.4c0-0.2-0.2-0.4-0.5-0.4h-83.8c-0.1,0-0.2,0-0.3,0.1c-4.7,0.5-9.1,2.6-12.3,6.1
					c-3.3,3.6-5.1,8.2-5.1,13c0,4.9,1.8,9.5,5.1,13c3.2,3.5,7.6,5.6,12.3,6.1c0.1,0,0.2,0.1,0.3,0.1h83.8c0.3,0,0.5-0.2,0.5-0.4
					c0-0.2-0.2-0.4-0.5-0.4c-10.2,0-18.5-8.2-18.5-18.3S556.9,2296.5,567.1,2296.5z M547.7,2314.9c0,8.6,5.7,15.9,13.5,18.3h-77.7
					c-0.1,0-0.2-0.1-0.2-0.1c-4.6-0.4-8.8-2.5-11.9-5.9c-3.1-3.4-4.9-7.8-4.9-12.4c0-4.6,1.7-9,4.9-12.4c3.1-3.4,7.4-5.5,11.9-5.9
					c0.1,0,0.2,0,0.2-0.1h77.7C553.4,2299,547.7,2306.3,547.7,2314.9z"/>
			</g>
			<g>
				
					<path fill="#009B49" stroke="#009B48" stroke-width="3" stroke-linecap="round" stroke-linejoin="round" stroke-miterlimit="10" d="
					M649,2296.5c0.3,0,0.5-0.2,0.5-0.4c0-0.2-0.2-0.4-0.5-0.4h-83.8c-0.1,0-0.2,0-0.3,0.1c-4.7,0.5-9.1,2.6-12.3,6.1
					c-3.3,3.6-5.1,8.2-5.1,13c0,4.9,1.8,9.5,5.1,13c3.2,3.5,7.6,5.6,12.3,6.1c0.1,0,0.2,0.1,0.3,0.1H649c0.3,0,0.5-0.2,0.5-0.4
					c0-0.2-0.2-0.4-0.5-0.4c-10.2,0-18.5-8.2-18.5-18.3C630.6,2304.7,638.9,2296.5,649,2296.5z M629.7,2314.9
					c0,8.6,5.7,15.9,13.5,18.3h-77.7c0,0-0.2-0.1-0.2-0.1c-4.6-0.4-8.8-2.5-11.9-5.9c-3.1-3.4-4.9-7.8-4.9-12.4
					c0-4.6,1.7-9,4.9-12.4c3.1-3.4,7.4-5.5,11.9-5.9c0.1,0,0.2,0,0.2-0.1h77.7C635.3,2299,629.7,2306.3,629.7,2314.9z"/>
			</g>
		</g>
	</g>
	<g>
		<g>
			
				<path fill="#009B49" stroke="#009B48" stroke-width="3" stroke-linecap="round" stroke-linejoin="round" stroke-miterlimit="10" d="
				M730.8,2296.5c0.3,0,0.5-0.2,0.5-0.4c0-0.2-0.2-0.4-0.5-0.4H647c-0.1,0-0.2,0-0.3,0.1c-4.7,0.5-9.1,2.6-12.3,6.1
				c-3.3,3.6-5.1,8.2-5.1,13c0,4.9,1.8,9.5,5.1,13c3.2,3.5,7.6,5.6,12.3,6.1c0.1,0,0.2,0.1,0.3,0.1h83.8c0.3,0,0.5-0.2,0.5-0.4
				c0-0.2-0.2-0.4-0.5-0.4c-10.2,0-18.5-8.2-18.5-18.3S720.7,2296.5,730.8,2296.5z M711.5,2314.9c0,8.6,5.7,15.9,13.5,18.3h-77.7
				c-0.1,0-0.2-0.1-0.2-0.1c-4.6-0.4-8.8-2.5-11.9-5.9c-3.1-3.4-4.9-7.8-4.9-12.4c0-4.6,1.7-9,4.9-12.4c3.1-3.4,7.4-5.5,11.9-5.9
				c0,0,0.2,0,0.2-0.1H725C717.1,2299,711.5,2306.3,711.5,2314.9z"/>
		</g>
		<g>
			
				<path fill="#009B49" stroke="#009B48" stroke-width="3" stroke-linecap="round" stroke-linejoin="round" stroke-miterlimit="10" d="
				M812.8,2296.5c0.3,0,0.5-0.2,0.5-0.4c0-0.2-0.2-0.4-0.5-0.4H729c-0.1,0-0.2,0-0.3,0.1c-4.7,0.5-9.1,2.6-12.3,6.1
				c-3.3,3.6-5.1,8.2-5.1,13c0,4.9,1.8,9.5,5.1,13c3.2,3.5,7.6,5.6,12.3,6.1c0.1,0,0.2,0.1,0.3,0.1h83.8c0.3,0,0.5-0.2,0.5-0.4
				c0-0.2-0.2-0.4-0.5-0.4c-10.2,0-18.5-8.2-18.5-18.3S802.6,2296.5,812.8,2296.5z M793.4,2314.9c0,8.6,5.7,15.9,13.5,18.3h-77.7
				c-0.1,0-0.2-0.1-0.2-0.1c-4.6-0.4-8.8-2.5-11.9-5.9c-3.1-3.4-4.9-7.8-4.9-12.4c0-4.6,1.7-9,4.9-12.4c3.1-3.4,7.4-5.5,11.9-5.9
				c0,0,0.2,0,0.2-0.1h77.7C799.1,2299,793.4,2306.3,793.4,2314.9z"/>
		</g>
	</g>
	<g>
		
			<path fill="#009B49" stroke="#009B48" stroke-width="3" stroke-linecap="round" stroke-linejoin="round" stroke-miterlimit="10" d="
			M895.4,2296.5c0.3,0,0.5-0.2,0.5-0.4c0-0.2-0.2-0.4-0.5-0.4h-83.8c-0.1,0-0.2,0-0.3,0.1c-4.7,0.5-9.1,2.6-12.3,6.1
			c-3.3,3.6-5.1,8.2-5.1,13c0,4.9,1.8,9.5,5.1,13c3.2,3.5,7.6,5.6,12.3,6.1c0.1,0,0.2,0.1,0.3,0.1h83.8c0.3,0,0.5-0.2,0.5-0.4
			c0-0.2-0.2-0.4-0.5-0.4c-10.2,0-18.5-8.2-18.5-18.3S885.3,2296.5,895.4,2296.5z M876.1,2314.9c0,8.6,5.7,15.9,13.5,18.3h-77.7
			c-0.1,0-0.2,0-0.2-0.1c-4.6-0.4-8.8-2.5-11.9-5.9c-3.1-3.4-4.9-7.8-4.9-12.4c0-4.6,1.7-9,4.9-12.4c3.1-3.4,7.4-5.5,11.9-5.9
			c0.1,0,0.2,0,0.2-0.1h77.7C881.7,2299,876.1,2306.3,876.1,2314.9z"/>
	</g>
	
		<path fill="#009B49" stroke="#009B48" stroke-width="3" stroke-linecap="round" stroke-linejoin="round" stroke-miterlimit="10" d="
		M893.8,2333.2c-0.1,0-0.2,0-0.2-0.1c-4.6-0.4-8.8-2.5-11.9-5.9s-4.9-7.8-4.9-12.4c0-4.6,1.7-9,4.9-12.4c3.1-3.4,7.4-5.5,11.9-5.9
		c0,0,0.2,0,0.2-0.1h7.2v-0.9h-7.4c-0.1,0-0.2,0-0.3,0.1c-4.7,0.5-9.1,2.6-12.3,6.1c-3.3,3.6-5.1,8.2-5.1,13c0,4.9,1.8,9.5,5.1,13
		c3.2,3.5,7.6,5.6,12.3,6.1c0.1,0,0.2,0.1,0.3,0.1h7.4v-0.9H893.8z"/>
	<g>
		
			<path fill="#009B49" stroke="#009B48" stroke-width="3" stroke-linecap="round" stroke-linejoin="round" stroke-miterlimit="10" d="
			M489.3,2333.2c-0.1,0-0.2-0.1-0.3-0.1h-83.8c-0.3,0-0.5,0.2-0.5,0.4c0,0.2,0.2,0.4,0.5,0.4c10.2,0,18.5,8.3,18.5,18.3
			c0,10.1-8.3,18.3-18.5,18.3c-0.3,0-0.5,0.2-0.5,0.4c0,0.2,0.2,0.4,0.5,0.4H489c0.1,0,0.2,0,0.3-0.1c4.7-0.5,9.1-2.6,12.3-6.1
			c3.3-3.6,5.1-8.2,5.1-13c0-4.9-1.8-9.5-5.1-13C498.3,2335.8,494,2333.6,489.3,2333.2z M500.8,2364.7c-3.1,3.4-7.4,5.5-11.9,5.9
			c-0.1,0-0.2,0-0.2,0.1H411c7.8-2.4,13.5-9.7,13.5-18.3s-5.7-15.9-13.5-18.3h77.7c0.1,0,0.1,0.1,0.2,0.1c4.6,0.4,8.8,2.5,11.9,5.9
			c3.1,3.4,4.9,7.8,4.9,12.4C505.7,2356.9,504,2361.3,500.8,2364.7z"/>
	</g>
	<g>
		
			<path fill="#009B49" stroke="#009B48" stroke-width="3" stroke-linecap="round" stroke-linejoin="round" stroke-miterlimit="10" d="
			M407.3,2333.2c-0.1,0-0.2-0.1-0.3-0.1h-83.8c-0.3,0-0.5,0.2-0.5,0.4c0,0.2,0.2,0.4,0.5,0.4c10.2,0,18.5,8.3,18.5,18.3
			c0,10.1-8.3,18.3-18.5,18.3c-0.3,0-0.5,0.2-0.5,0.4c0,0.2,0.2,0.4,0.5,0.4H407c0.1,0,0.2,0,0.3-0.1c4.7-0.5,9.1-2.6,12.3-6.1
			c3.3-3.6,5.1-8.2,5.1-13c0-4.9-1.8-9.5-5.1-13C416.4,2335.8,412,2333.6,407.3,2333.2z M418.9,2364.7c-3.1,3.4-7.4,5.5-11.9,5.9
			c-0.1,0-0.2,0-0.2,0.1h-77.7c7.8-2.4,13.5-9.7,13.5-18.3c0-8.6-5.7-15.9-13.5-18.3h77.7c0.1,0,0.1,0.1,0.2,0.1
			c4.6,0.4,8.8,2.5,11.9,5.9c3.1,3.4,4.9,7.8,4.9,12.4C423.7,2356.9,422,2361.3,418.9,2364.7z"/>
	</g>
	<g>
		<g>
			
				<path fill="#009B49" stroke="#009B48" stroke-width="3" stroke-linecap="round" stroke-linejoin="round" stroke-miterlimit="10" d="
				M653.9,2333.2c-0.1,0-0.2-0.1-0.3-0.1h-83.8c-0.3,0-0.5,0.2-0.5,0.4s0.2,0.4,0.5,0.4c10.2,0,18.5,8.3,18.5,18.3
				c0,10.1-8.3,18.3-18.5,18.3c-0.3,0-0.5,0.2-0.5,0.4s0.2,0.4,0.5,0.4h83.8c0.1,0,0.2,0,0.3-0.1c4.7-0.5,9.1-2.6,12.3-6.1
				c3.3-3.6,5.1-8.2,5.1-13c0-4.9-1.8-9.5-5.1-13C662.9,2335.8,658.6,2333.7,653.9,2333.2z M665.4,2364.7c-3.1,3.4-7.4,5.5-11.9,5.9
				c-0.1,0-0.2,0-0.2,0.1h-77.7c7.8-2.5,13.5-9.7,13.5-18.3s-5.7-15.9-13.5-18.3h77.7c0,0,0.1,0.1,0.2,0.1c4.6,0.4,8.8,2.5,11.9,5.9
				c3.1,3.4,4.9,7.8,4.9,12.4C670.3,2356.9,668.6,2361.3,665.4,2364.7z"/>
		</g>
		<g>
			
				<path fill="#009B49" stroke="#009B48" stroke-width="3" stroke-linecap="round" stroke-linejoin="round" stroke-miterlimit="10" d="
				M571.9,2333.2c-0.1,0-0.2-0.1-0.3-0.1h-83.8c-0.3,0-0.5,0.2-0.5,0.4s0.2,0.4,0.5,0.4c10.2,0,18.5,8.3,18.5,18.3
				c0,10.1-8.3,18.3-18.5,18.3c-0.3,0-0.5,0.2-0.5,0.4s0.2,0.4,0.5,0.4h83.8c0.1,0,0.2,0,0.3-0.1c4.7-0.5,9.1-2.6,12.3-6.1
				c3.3-3.6,5.1-8.2,5.1-13c0-4.9-1.8-9.5-5.1-13C581,2335.8,576.6,2333.7,571.9,2333.2z M583.5,2364.7c-3.1,3.4-7.4,5.5-11.9,5.9
				c-0.1,0-0.2,0-0.2,0.1h-77.7c7.8-2.5,13.5-9.7,13.5-18.3s-5.7-15.9-13.5-18.3h77.7c0,0,0.1,0.1,0.2,0.1c4.6,0.4,8.8,2.5,11.9,5.9
				c3.1,3.4,4.9,7.8,4.9,12.4C588.3,2356.9,586.6,2361.3,583.5,2364.7z"/>
		</g>
	</g>
	<g>
		
			<path fill="#009B49" stroke="#009B48" stroke-width="3" stroke-linecap="round" stroke-linejoin="round" stroke-miterlimit="10" d="
			M817.6,2333.2c-0.1,0-0.2-0.1-0.3-0.1h-83.8c-0.3,0-0.5,0.2-0.5,0.4s0.2,0.4,0.5,0.4c10.2,0,18.5,8.3,18.5,18.3
			c0,10.1-8.3,18.3-18.5,18.3c-0.3,0-0.5,0.2-0.5,0.4s0.2,0.4,0.5,0.4h83.8c0.1,0,0.2,0,0.3-0.1c4.7-0.5,9.1-2.6,12.3-6.1
			c3.3-3.6,5.1-8.2,5.1-13c0-4.9-1.8-9.5-5.1-13C826.7,2335.8,822.3,2333.7,817.6,2333.2z M829.2,2364.7c-3.1,3.4-7.4,5.5-11.9,5.9
			c-0.1,0-0.2,0-0.2,0.1h-77.7c7.8-2.5,13.5-9.7,13.5-18.3s-5.7-15.9-13.5-18.3h77.7c0,0,0.1,0.1,0.2,0.1c4.6,0.4,8.8,2.5,11.9,5.9
			s4.9,7.8,4.9,12.4C834.1,2356.9,832.4,2361.3,829.2,2364.7z"/>
	</g>
	<g>
		
			<path fill="#009B49" stroke="#009B48" stroke-width="3" stroke-linecap="round" stroke-linejoin="round" stroke-miterlimit="10" d="
			M735.7,2333.2c-0.1,0-0.2-0.1-0.3-0.1h-83.8c-0.3,0-0.5,0.2-0.5,0.4s0.2,0.4,0.5,0.4c10.2,0,18.5,8.3,18.5,18.3
			c0,10.1-8.3,18.3-18.5,18.3c-0.3,0-0.5,0.2-0.5,0.4s0.2,0.4,0.5,0.4h83.8c0.1,0,0.2,0,0.3-0.1c4.7-0.5,9.1-2.6,12.3-6.1
			c3.3-3.6,5.1-8.2,5.1-13c0-4.9-1.8-9.5-5.1-13C744.7,2335.8,740.4,2333.7,735.7,2333.2z M747.2,2364.7c-3.1,3.4-7.4,5.5-11.9,5.9
			c0,0-0.2,0-0.2,0.1h-77.7c7.8-2.5,13.5-9.7,13.5-18.3s-5.7-15.9-13.5-18.3h77.7c0.1,0,0.1,0.1,0.2,0.1c4.6,0.4,8.8,2.5,11.9,5.9
			c3.1,3.4,4.9,7.8,4.9,12.4C752.1,2356.9,750.4,2361.3,747.2,2364.7z"/>
	</g>
	
		<path fill="#009B49" stroke="#009B48" stroke-width="3" stroke-linecap="round" stroke-linejoin="round" stroke-miterlimit="10" d="
		M899.9,2370.6c0,0-0.2,0-0.2,0.1H822c7.8-2.5,13.5-9.7,13.5-18.3s-5.7-15.9-13.5-18.3h77.7c0.1,0,0.1,0.1,0.2,0.1
		c0.4,0,0.7,0.1,1.1,0.1v-0.9c-0.3,0-0.5,0-0.7-0.1c-0.1,0-0.2-0.1-0.3-0.1h-83.8c-0.3,0-0.5,0.2-0.5,0.4s0.2,0.4,0.5,0.4
		c10.2,0,18.5,8.3,18.5,18.3c0,10.1-8.3,18.3-18.5,18.3c-0.3,0-0.5,0.2-0.5,0.4s0.2,0.4,0.5,0.4H900c0.1,0,0.2,0,0.3-0.1
		c0.3,0,0.5,0,0.7-0.1v-0.9C900.7,2370.5,900.3,2370.5,899.9,2370.6z"/>
	<g>
		<g>
			<g>
				
					<path fill="#009B49" stroke="#009B48" stroke-width="3" stroke-linecap="round" stroke-linejoin="round" stroke-miterlimit="10" d="
					M403.4,2371.5c0.3,0,0.5-0.2,0.5-0.4c0-0.2-0.2-0.4-0.5-0.4h-83.8c-0.1,0-0.2,0-0.3,0.1c-4.7,0.5-9.1,2.6-12.3,6.1
					c-3.3,3.6-5.1,8.2-5.1,13c0,4.9,1.8,9.5,5.1,13c3.2,3.5,7.6,5.6,12.3,6.1c0.1,0,0.2,0.1,0.3,0.1h83.8c0.3,0,0.5-0.2,0.5-0.4
					s-0.2-0.4-0.5-0.4c-10.2,0-18.5-8.3-18.5-18.3C384.9,2379.7,393.2,2371.5,403.4,2371.5z M384,2389.9c0,8.6,5.7,15.9,13.5,18.3
					h-77.7c-0.1,0-0.2-0.1-0.2-0.1c-4.6-0.4-8.8-2.5-11.9-5.9c-3.1-3.4-4.9-7.8-4.9-12.4c0-4.6,1.7-9,4.9-12.4
					c3.1-3.4,7.4-5.5,11.9-5.9c0.1,0,0.2,0,0.2-0.1h77.7C389.7,2374,384,2381.3,384,2389.9z"/>
			</g>
			<g>
				
					<path fill="#009B49" stroke="#009B48" stroke-width="3" stroke-linecap="round" stroke-linejoin="round" stroke-miterlimit="10" d="
					M485.3,2371.5c0.3,0,0.5-0.2,0.5-0.4c0-0.2-0.2-0.4-0.5-0.4h-83.8c-0.1,0-0.2,0-0.3,0.1c-4.7,0.5-9.1,2.6-12.3,6.1
					c-3.3,3.6-5.1,8.2-5.1,13c0,4.9,1.8,9.5,5.1,13c3.2,3.5,7.6,5.6,12.3,6.1c0.1,0,0.2,0.1,0.3,0.1h83.8c0.3,0,0.5-0.2,0.5-0.4
					s-0.2-0.4-0.5-0.4c-10.2,0-18.5-8.3-18.5-18.3C466.9,2379.7,475.2,2371.5,485.3,2371.5z M466,2389.9c0,8.6,5.7,15.9,13.5,18.3
					h-77.7c-0.1,0-0.1-0.1-0.2-0.1c-4.6-0.4-8.8-2.5-11.9-5.9c-3.1-3.4-4.9-7.8-4.9-12.4c0-4.6,1.7-9,4.9-12.4
					c3.1-3.4,7.4-5.5,11.9-5.9c0.1,0,0.2,0,0.2-0.1h77.7C471.6,2374,466,2381.3,466,2389.9z"/>
			</g>
		</g>
		<g>
			<g>
				
					<path fill="#009B49" stroke="#009B48" stroke-width="3" stroke-linecap="round" stroke-linejoin="round" stroke-miterlimit="10" d="
					M568,2371.5c0.3,0,0.5-0.2,0.5-0.4c0-0.2-0.2-0.4-0.5-0.4h-83.8c-0.1,0-0.2,0-0.3,0.1c-4.7,0.5-9.1,2.6-12.3,6.1
					c-3.3,3.6-5.1,8.2-5.1,13c0,4.9,1.8,9.5,5.1,13c3.2,3.5,7.6,5.6,12.3,6.1c0.1,0,0.2,0.1,0.3,0.1H568c0.3,0,0.5-0.2,0.5-0.4
					s-0.2-0.4-0.5-0.4c-10.2,0-18.5-8.3-18.5-18.3C549.5,2379.7,557.8,2371.5,568,2371.5z M548.6,2389.9c0,8.6,5.7,15.9,13.5,18.3
					h-77.7c-0.1,0-0.2,0-0.2-0.1c-4.6-0.4-8.8-2.5-11.9-5.9s-4.9-7.8-4.9-12.4s1.7-9,4.9-12.4c3.1-3.4,7.4-5.5,11.9-5.9
					c0.1,0,0.2,0,0.2-0.1h77.7C554.3,2374,548.6,2381.3,548.6,2389.9z"/>
			</g>
			<g>
				
					<path fill="#009B49" stroke="#009B48" stroke-width="3" stroke-linecap="round" stroke-linejoin="round" stroke-miterlimit="10" d="
					M649.9,2371.5c0.3,0,0.5-0.2,0.5-0.4c0-0.2-0.2-0.4-0.5-0.4h-83.8c-0.1,0-0.2,0-0.3,0.1c-4.7,0.5-9.1,2.6-12.3,6.1
					c-3.3,3.6-5.1,8.2-5.1,13c0,4.9,1.8,9.5,5.1,13c3.2,3.5,7.6,5.6,12.3,6.1c0.1,0,0.2,0.1,0.3,0.1h83.8c0.3,0,0.5-0.2,0.5-0.4
					s-0.2-0.4-0.5-0.4c-10.2,0-18.5-8.3-18.5-18.3C631.5,2379.7,639.8,2371.5,649.9,2371.5z M630.6,2389.9c0,8.6,5.7,15.9,13.5,18.3
					h-77.7c0,0-0.1,0-0.2-0.1c-4.6-0.4-8.8-2.5-11.9-5.9c-3.1-3.4-4.9-7.8-4.9-12.4s1.7-9,4.9-12.4c3.1-3.4,7.4-5.5,11.9-5.9
					c0.1,0,0.2,0,0.2-0.1h77.7C636.2,2374,630.6,2381.3,630.6,2389.9z"/>
			</g>
		</g>
	</g>
	<g>
		<g>
			
				<path fill="#009B49" stroke="#009B48" stroke-width="3" stroke-linecap="round" stroke-linejoin="round" stroke-miterlimit="10" d="
				M731.7,2371.5c0.3,0,0.5-0.2,0.5-0.4c0-0.2-0.2-0.4-0.5-0.4h-83.8c-0.1,0-0.2,0-0.3,0.1c-4.7,0.5-9.1,2.6-12.3,6.1
				c-3.3,3.6-5.1,8.2-5.1,13c0,4.9,1.8,9.5,5.1,13c3.2,3.5,7.6,5.6,12.3,6.1c0.1,0,0.2,0.1,0.3,0.1h83.8c0.3,0,0.5-0.2,0.5-0.4
				s-0.2-0.4-0.5-0.4c-10.2,0-18.5-8.3-18.5-18.3C713.3,2379.7,721.6,2371.5,731.7,2371.5z M712.4,2389.9c0,8.6,5.7,15.9,13.5,18.3
				h-77.7c-0.1,0-0.2,0-0.2-0.1c-4.6-0.4-8.8-2.5-11.9-5.9s-4.9-7.8-4.9-12.4c0-4.6,1.7-9,4.9-12.4c3.1-3.4,7.4-5.5,11.9-5.9
				c0,0,0.2,0,0.2-0.1h77.7C718,2374,712.4,2381.3,712.4,2389.9z"/>
		</g>
		<g>
			
				<path fill="#009B49" stroke="#009B48" stroke-width="3" stroke-linecap="round" stroke-linejoin="round" stroke-miterlimit="10" d="
				M813.7,2371.5c0.3,0,0.5-0.2,0.5-0.4c0-0.2-0.2-0.4-0.5-0.4h-83.8c-0.1,0-0.2,0-0.3,0.1c-4.7,0.5-9.1,2.6-12.3,6.1
				c-3.3,3.6-5.1,8.2-5.1,13c0,4.9,1.8,9.5,5.1,13c3.2,3.5,7.6,5.6,12.3,6.1c0.1,0,0.2,0.1,0.3,0.1h83.8c0.3,0,0.5-0.2,0.5-0.4
				s-0.2-0.4-0.5-0.4c-10.2,0-18.5-8.3-18.5-18.3C795.2,2379.7,803.5,2371.5,813.7,2371.5z M794.3,2389.9c0,8.6,5.7,15.9,13.5,18.3
				h-77.7c0,0-0.1,0-0.2-0.1c-4.6-0.4-8.8-2.5-11.9-5.9c-3.1-3.4-4.9-7.8-4.9-12.4c0-4.6,1.7-9,4.9-12.4c3.1-3.4,7.4-5.5,11.9-5.9
				c0.1,0,0.2,0,0.2-0.1h77.7C800,2374,794.3,2381.3,794.3,2389.9z"/>
		</g>
	</g>
	<g>
		
			<path fill="#009B49" stroke="#009B48" stroke-width="3" stroke-linecap="round" stroke-linejoin="round" stroke-miterlimit="10" d="
			M896.3,2371.5c0.3,0,0.5-0.2,0.5-0.4c0-0.2-0.2-0.4-0.5-0.4h-83.8c-0.1,0-0.2,0-0.3,0.1c-4.7,0.5-9.1,2.6-12.3,6.1
			c-3.3,3.6-5.1,8.2-5.1,13c0,4.9,1.8,9.5,5.1,13c3.2,3.5,7.6,5.6,12.3,6.1c0.1,0,0.2,0.1,0.3,0.1h83.8c0.3,0,0.5-0.2,0.5-0.4
			s-0.2-0.4-0.5-0.4c-10.2,0-18.5-8.3-18.5-18.3C877.9,2379.7,886.2,2371.5,896.3,2371.5z M877,2389.9c0,8.6,5.7,15.9,13.5,18.3
			h-77.7c-0.1,0-0.2,0-0.2-0.1c-4.6-0.4-8.8-2.5-11.9-5.9c-3.1-3.4-4.9-7.8-4.9-12.4s1.7-9,4.9-12.4c3.1-3.4,7.4-5.5,11.9-5.9
			c0,0,0.2,0,0.2-0.1h77.7C882.6,2374,877,2381.3,877,2389.9z"/>
	</g>
	
		<path fill="#009B49" stroke="#009B48" stroke-width="3" stroke-linecap="round" stroke-linejoin="round" stroke-miterlimit="10" d="
		M894.7,2408.2c-0.1,0-0.1,0-0.2-0.1c-4.6-0.4-8.8-2.5-11.9-5.9c-3.1-3.4-4.9-7.8-4.9-12.4s1.7-9,4.9-12.4c3.1-3.4,7.4-5.5,11.9-5.9
		c0.1,0,0.2,0,0.2-0.1h6.3v-0.9h-6.5c-0.1,0-0.2,0-0.3,0.1c-4.7,0.5-9.1,2.6-12.3,6.1c-3.3,3.6-5.1,8.2-5.1,13c0,4.9,1.8,9.5,5.1,13
		c3.2,3.5,7.6,5.6,12.3,6.1c0.1,0,0.2,0.1,0.3,0.1h6.5v-0.9H894.7L894.7,2408.2z"/>
	<g>
		
			<path fill="#009B49" stroke="#009B48" stroke-width="3" stroke-linecap="round" stroke-linejoin="round" stroke-miterlimit="10" d="
			M489.4,2408.2c-0.1,0-0.2-0.1-0.3-0.1h-83.8c-0.3,0-0.5,0.2-0.5,0.4s0.2,0.4,0.5,0.4c10.2,0,18.5,8.2,18.5,18.3
			c0,10.1-8.3,18.3-18.5,18.3c-0.3,0-0.5,0.2-0.5,0.4s0.2,0.4,0.5,0.4h83.8c0.1,0,0.2,0,0.3-0.1c4.7-0.5,9.1-2.6,12.3-6.1
			c3.3-3.6,5.1-8.2,5.1-13s-1.8-9.5-5.1-13C498.4,2410.8,494.1,2408.7,489.4,2408.2z M500.9,2439.7c-3.1,3.4-7.4,5.5-11.9,5.9
			c-0.1,0-0.2,0-0.2,0.1h-77.7c7.8-2.5,13.5-9.7,13.5-18.3s-5.7-15.9-13.5-18.3h77.7c0.1,0,0.1,0.1,0.2,0.1
			c4.6,0.4,8.8,2.5,11.9,5.9c3.1,3.4,4.9,7.8,4.9,12.4C505.8,2431.9,504.1,2436.3,500.9,2439.7z"/>
	</g>
	<g>
		
			<path fill="#009B49" stroke="#009B48" stroke-width="3" stroke-linecap="round" stroke-linejoin="round" stroke-miterlimit="10" d="
			M407.4,2408.2c-0.1,0-0.2-0.1-0.3-0.1h-83.8c-0.3,0-0.5,0.2-0.5,0.4s0.2,0.4,0.5,0.4c10.2,0,18.5,8.2,18.5,18.3
			c0,10.1-8.3,18.3-18.5,18.3c-0.3,0-0.5,0.2-0.5,0.4s0.2,0.4,0.5,0.4h83.9c0.1,0,0.2,0,0.3-0.1c4.7-0.5,9.1-2.6,12.3-6.1
			c3.3-3.6,5.1-8.2,5.1-13s-1.8-9.5-5.1-13C416.4,2410.8,412.1,2408.7,407.4,2408.2z M418.9,2439.7c-3.1,3.4-7.4,5.5-11.9,5.9
			c-0.1,0-0.2,0-0.2,0.1h-77.7c7.9-2.5,13.5-9.7,13.5-18.3s-5.7-15.9-13.5-18.3h77.7c0.1,0,0.1,0.1,0.2,0.1
			c4.6,0.4,8.8,2.5,11.9,5.9c3.1,3.4,4.9,7.8,4.9,12.4C423.8,2431.9,422.1,2436.3,418.9,2439.7z"/>
	</g>
	<g>
		<g>
			
				<path fill="#009B49" stroke="#009B48" stroke-width="3" stroke-linecap="round" stroke-linejoin="round" stroke-miterlimit="10" d="
				M654,2408.2c-0.1,0-0.2-0.1-0.3-0.1h-83.8c-0.3,0-0.5,0.2-0.5,0.4s0.2,0.4,0.5,0.4c10.2,0,18.5,8.2,18.5,18.3
				c0,10.1-8.3,18.3-18.5,18.3c-0.3,0-0.5,0.2-0.5,0.4s0.2,0.4,0.5,0.4h83.8c0.1,0,0.2,0,0.3-0.1c4.7-0.5,9.1-2.6,12.3-6.1
				c3.3-3.6,5.1-8.2,5.1-13s-1.8-9.5-5.1-13C663,2410.8,658.7,2408.7,654,2408.2z M665.5,2439.7c-3.1,3.4-7.4,5.5-11.9,5.9
				c-0.1,0-0.2,0-0.2,0.1h-77.7c7.8-2.4,13.5-9.7,13.5-18.3s-5.7-15.9-13.5-18.3h77.7c0,0,0.1,0.1,0.2,0.1c4.6,0.4,8.8,2.5,11.9,5.9
				c3.1,3.4,4.9,7.8,4.9,12.4S668.7,2436.3,665.5,2439.7z"/>
		</g>
		<g>
			
				<path fill="#009B49" stroke="#009B48" stroke-width="3" stroke-linecap="round" stroke-linejoin="round" stroke-miterlimit="10" d="
				M572,2408.2c-0.1,0-0.2-0.1-0.3-0.1h-83.8c-0.3,0-0.5,0.2-0.5,0.4s0.2,0.4,0.5,0.4c10.2,0,18.5,8.2,18.5,18.3
				c0,10.1-8.3,18.3-18.5,18.3c-0.3,0-0.5,0.2-0.5,0.4s0.2,0.4,0.5,0.4h83.9c0.1,0,0.2,0,0.3-0.1c4.7-0.5,9.1-2.6,12.3-6.1
				c3.3-3.6,5.1-8.2,5.1-13s-1.8-9.5-5.1-13C581,2410.8,576.7,2408.7,572,2408.2z M583.5,2439.7c-3.1,3.4-7.4,5.5-11.9,5.9
				c-0.1,0-0.2,0-0.2,0.1h-77.7c7.9-2.4,13.5-9.7,13.5-18.3s-5.7-15.9-13.5-18.3h77.7c0.1,0,0.1,0.1,0.2,0.1
				c4.6,0.4,8.8,2.5,11.9,5.9c3.1,3.4,4.9,7.8,4.9,12.4S586.7,2436.3,583.5,2439.7z"/>
		</g>
	</g>
	<g>
		
			<path fill="#009B49" stroke="#009B48" stroke-width="3" stroke-linecap="round" stroke-linejoin="round" stroke-miterlimit="10" d="
			M817.7,2408.2c-0.1,0-0.2-0.1-0.3-0.1h-83.8c-0.3,0-0.5,0.2-0.5,0.4s0.2,0.4,0.5,0.4c10.2,0,18.5,8.2,18.5,18.3
			c0,10.1-8.3,18.3-18.5,18.3c-0.3,0-0.5,0.2-0.5,0.4s0.2,0.4,0.5,0.4h83.8c0.1,0,0.2,0,0.3-0.1c4.7-0.5,9.1-2.6,12.3-6.1
			c3.3-3.6,5.1-8.2,5.1-13s-1.8-9.5-5.1-13C826.8,2410.8,822.4,2408.7,817.7,2408.2z M829.3,2439.7c-3.1,3.4-7.4,5.5-11.9,5.9
			c-0.1,0-0.2,0-0.2,0.1h-77.7c7.8-2.4,13.5-9.7,13.5-18.3s-5.7-15.9-13.5-18.3h77.7c0,0,0.1,0.1,0.2,0.1c4.6,0.4,8.8,2.5,11.9,5.9
			s4.9,7.8,4.9,12.4C834.2,2431.9,832.5,2436.3,829.3,2439.7z"/>
	</g>
	<g>
		
			<path fill="#009B49" stroke="#009B48" stroke-width="3" stroke-linecap="round" stroke-linejoin="round" stroke-miterlimit="10" d="
			M735.7,2408.2c-0.1,0-0.2-0.1-0.3-0.1h-83.8c-0.3,0-0.5,0.2-0.5,0.4s0.2,0.4,0.5,0.4c10.2,0,18.5,8.2,18.5,18.3
			c0,10.1-8.3,18.3-18.5,18.3c-0.3,0-0.5,0.2-0.5,0.4s0.2,0.4,0.5,0.4h83.9c0.1,0,0.2,0,0.3-0.1c4.7-0.5,9.1-2.6,12.3-6.1
			c3.3-3.6,5.1-8.2,5.1-13s-1.8-9.5-5.1-13C744.8,2410.8,740.4,2408.7,735.7,2408.2z M747.3,2439.7c-3.1,3.4-7.4,5.5-11.9,5.9
			c-0.1,0-0.2,0-0.2,0.1h-77.7c7.9-2.4,13.5-9.7,13.5-18.3s-5.7-15.9-13.5-18.3h77.7c0,0,0.1,0.1,0.2,0.1c4.6,0.4,8.8,2.5,11.9,5.9
			c3.1,3.4,4.9,7.8,4.9,12.4C752.2,2431.9,750.5,2436.3,747.3,2439.7z"/>
	</g>
	
		<path fill="#009B49" stroke="#009B48" stroke-width="3" stroke-linecap="round" stroke-linejoin="round" stroke-miterlimit="10" d="
		M900,2445.6c-0.1,0-0.2,0-0.2,0.1h-77.7c7.9-2.5,13.5-9.7,13.5-18.3s-5.7-15.9-13.5-18.3h77.7c0,0,0.1,0.1,0.2,0.1
		c0.4,0,0.7,0,1,0.1v-0.9c-0.2,0-0.4,0-0.6-0.1c-0.1,0-0.2-0.1-0.3-0.1h-83.8c-0.3,0-0.5,0.2-0.5,0.4s0.2,0.4,0.5,0.4
		c10.2,0,18.5,8.3,18.5,18.3c0,10.1-8.3,18.3-18.5,18.3c-0.3,0-0.5,0.2-0.5,0.4s0.2,0.4,0.5,0.4h83.8c0.1,0,0.2,0,0.3-0.1
		c0.2,0,0.4,0,0.6-0.1v-0.9C900.7,2445.6,900.4,2445.6,900,2445.6z"/>
	<g>
		<g>
			<g>
				
					<path fill="#009B49" stroke="#009B48" stroke-width="3" stroke-linecap="round" stroke-linejoin="round" stroke-miterlimit="10" d="
					M403.5,2446.5c0.3,0,0.5-0.2,0.5-0.4s-0.2-0.4-0.5-0.4h-83.8c-0.1,0-0.2,0-0.3,0.1c-4.7,0.5-9.1,2.6-12.3,6.1
					c-3.3,3.6-5.1,8.2-5.1,13c0,4.8,1.8,9.4,5.1,13c3.2,3.5,7.6,5.6,12.3,6.1c0.1,0,0.2,0.1,0.3,0.1h83.8c0.3,0,0.5-0.2,0.5-0.4
					s-0.2-0.4-0.5-0.4c-10.2,0-18.5-8.3-18.5-18.3C385,2454.8,393.3,2446.5,403.5,2446.5z M384.1,2464.9c0,8.6,5.7,15.9,13.5,18.3
					h-77.7c-0.1,0-0.2-0.1-0.2-0.1c-4.6-0.4-8.8-2.5-11.9-5.9c-3.1-3.4-4.9-7.8-4.9-12.4c0-4.6,1.7-9,4.9-12.4
					c3.1-3.4,7.4-5.5,11.9-5.9c0.1,0,0.2,0,0.2-0.1h77.7C389.8,2449,384.1,2456.3,384.1,2464.9z"/>
			</g>
			<g>
				
					<path fill="#009B49" stroke="#009B48" stroke-width="3" stroke-linecap="round" stroke-linejoin="round" stroke-miterlimit="10" d="
					M485.4,2446.5c0.3,0,0.5-0.2,0.5-0.4s-0.2-0.4-0.5-0.4h-83.8c-0.1,0-0.2,0-0.3,0.1c-4.7,0.5-9.1,2.6-12.3,6.1
					c-3.3,3.6-5.1,8.2-5.1,13c0,4.9,1.8,9.5,5.1,13c3.2,3.5,7.6,5.6,12.3,6.1c0.1,0,0.2,0.1,0.3,0.1h83.8c0.3,0,0.5-0.2,0.5-0.4
					s-0.2-0.4-0.5-0.4c-10.2,0-18.5-8.3-18.5-18.3C467,2454.8,475.3,2446.5,485.4,2446.5z M466.1,2464.9c0,8.6,5.7,15.9,13.5,18.3
					h-77.7c-0.1,0-0.2-0.1-0.2-0.1c-4.6-0.4-8.8-2.5-11.9-5.9c-3.1-3.4-4.9-7.8-4.9-12.4c0-4.6,1.7-9,4.9-12.4
					c3.1-3.4,7.4-5.5,11.9-5.9c0.1,0,0.2,0,0.2-0.1h77.7C471.7,2449,466.1,2456.3,466.1,2464.9z"/>
			</g>
		</g>
		<g>
			<g>
				
					<path fill="#009B49" stroke="#009B48" stroke-width="3" stroke-linecap="round" stroke-linejoin="round" stroke-miterlimit="10" d="
					M568.1,2446.5c0.3,0,0.5-0.2,0.5-0.4s-0.2-0.4-0.5-0.4h-83.8c-0.1,0-0.2,0-0.3,0.1c-4.7,0.5-9.1,2.6-12.3,6.1
					c-3.3,3.6-5.1,8.2-5.1,13c0,4.9,1.8,9.5,5.1,13c3.2,3.5,7.6,5.6,12.3,6.1c0.1,0,0.2,0.1,0.3,0.1h83.8c0.3,0,0.5-0.2,0.5-0.4
					s-0.2-0.4-0.5-0.4c-10.2,0-18.5-8.3-18.5-18.3C549.6,2454.8,557.9,2446.5,568.1,2446.5z M548.7,2464.9c0,8.6,5.7,15.9,13.5,18.3
					h-77.7c-0.1,0-0.2-0.1-0.2-0.1c-4.6-0.4-8.8-2.5-11.9-5.9c-3.1-3.4-4.9-7.8-4.9-12.4s1.7-9,4.9-12.4c3.1-3.4,7.4-5.5,11.9-5.9
					c0.1,0,0.2,0,0.2-0.1h77.7C554.4,2449,548.7,2456.3,548.7,2464.9z"/>
			</g>
			<g>
				
					<path fill="#009B49" stroke="#009B48" stroke-width="3" stroke-linecap="round" stroke-linejoin="round" stroke-miterlimit="10" d="
					M650,2446.5c0.3,0,0.5-0.2,0.5-0.4s-0.2-0.4-0.5-0.4h-83.8c-0.1,0-0.2,0-0.3,0.1c-4.7,0.5-9.1,2.6-12.3,6.1
					c-3.3,3.6-5.1,8.2-5.1,13c0,4.9,1.8,9.5,5.1,13c3.2,3.5,7.6,5.6,12.3,6.1c0.1,0,0.2,0.1,0.3,0.1H650c0.3,0,0.5-0.2,0.5-0.4
					s-0.2-0.4-0.5-0.4c-10.2,0-18.5-8.3-18.5-18.3C631.6,2454.8,639.9,2446.5,650,2446.5z M630.7,2464.9c0,8.6,5.7,15.9,13.5,18.3
					h-77.7c0,0-0.2-0.1-0.2-0.1c-4.6-0.4-8.8-2.5-11.9-5.9c-3.1-3.4-4.9-7.8-4.9-12.4s1.7-9,4.9-12.4c3.1-3.4,7.4-5.5,11.9-5.9
					c0.1,0,0.2,0,0.2-0.1h77.7C636.3,2449,630.7,2456.3,630.7,2464.9z"/>
			</g>
		</g>
	</g>
	<g>
		<g>
			
				<path fill="#009B49" stroke="#009B48" stroke-width="3" stroke-linecap="round" stroke-linejoin="round" stroke-miterlimit="10" d="
				M731.8,2446.5c0.3,0,0.5-0.2,0.5-0.4s-0.2-0.4-0.5-0.4H648c-0.1,0-0.2,0-0.3,0.1c-4.7,0.5-9.1,2.6-12.3,6.1
				c-3.3,3.6-5.1,8.2-5.1,13c0,4.9,1.8,9.5,5.1,13c3.2,3.5,7.6,5.6,12.3,6.1c0.1,0,0.2,0.1,0.3,0.1h83.8c0.3,0,0.5-0.2,0.5-0.4
				s-0.2-0.4-0.5-0.4c-10.2,0-18.5-8.2-18.5-18.3C713.4,2454.8,721.7,2446.5,731.8,2446.5z M712.5,2464.9c0,8.6,5.7,15.9,13.5,18.3
				h-77.7c-0.1,0-0.2-0.1-0.2-0.1c-4.6-0.4-8.8-2.5-11.9-5.9c-3.1-3.4-4.9-7.8-4.9-12.4c0-4.6,1.7-9,4.9-12.4
				c3.1-3.4,7.4-5.5,11.9-5.9c0,0,0.2,0,0.2-0.1H726C718.1,2449,712.5,2456.3,712.5,2464.9z"/>
		</g>
		<g>
			
				<path fill="#009B49" stroke="#009B48" stroke-width="3" stroke-linecap="round" stroke-linejoin="round" stroke-miterlimit="10" d="
				M813.8,2446.5c0.3,0,0.5-0.2,0.5-0.4s-0.2-0.4-0.5-0.4H730c-0.1,0-0.2,0-0.3,0.1c-4.7,0.5-9.1,2.6-12.3,6.1
				c-3.3,3.6-5.1,8.2-5.1,13c0,4.9,1.8,9.5,5.1,13c3.2,3.5,7.6,5.6,12.3,6.1c0.1,0,0.2,0.1,0.3,0.1h83.8c0.3,0,0.5-0.2,0.5-0.4
				s-0.2-0.4-0.5-0.4c-10.2,0-18.5-8.2-18.5-18.3C795.3,2454.8,803.6,2446.5,813.8,2446.5z M794.4,2464.9c0,8.6,5.7,15.9,13.5,18.3
				h-77.7c-0.1,0-0.2-0.1-0.2-0.1c-4.6-0.4-8.8-2.5-11.9-5.9c-3.1-3.4-4.9-7.8-4.9-12.4c0-4.6,1.7-9,4.9-12.4
				c3.1-3.4,7.4-5.5,11.9-5.9c0,0,0.2,0,0.2-0.1h77.7C800.1,2449,794.4,2456.3,794.4,2464.9z"/>
		</g>
	</g>
	<g>
		
			<path fill="#009B49" stroke="#009B48" stroke-width="3" stroke-linecap="round" stroke-linejoin="round" stroke-miterlimit="10" d="
			M896.4,2446.5c0.3,0,0.5-0.2,0.5-0.4s-0.2-0.4-0.5-0.4h-83.8c-0.1,0-0.2,0-0.3,0.1c-4.7,0.5-9.1,2.6-12.3,6.1
			c-3.3,3.6-5.1,8.2-5.1,13c0,4.9,1.8,9.5,5.1,13c3.2,3.5,7.6,5.6,12.3,6.1c0.1,0,0.2,0.1,0.3,0.1h83.8c0.3,0,0.5-0.2,0.5-0.4
			s-0.2-0.4-0.5-0.4c-10.2,0-18.5-8.2-18.5-18.3C878,2454.8,886.3,2446.5,896.4,2446.5z M877.1,2464.9c0,8.6,5.7,15.9,13.5,18.3
			h-77.7c-0.1,0-0.2,0-0.2-0.1c-4.6-0.4-8.8-2.5-11.9-5.9c-3.1-3.4-4.9-7.8-4.9-12.4s1.7-9,4.9-12.4c3.1-3.4,7.4-5.5,11.9-5.9
			c0,0,0.2,0,0.2-0.1h77.7C882.7,2449,877.1,2456.3,877.1,2464.9z"/>
	</g>
	
		<path fill="#009B49" stroke="#009B48" stroke-width="3" stroke-linecap="round" stroke-linejoin="round" stroke-miterlimit="10" d="
		M894.8,2483.2c-0.1,0-0.2,0-0.2-0.1c-4.6-0.4-8.8-2.5-11.9-5.9c-3.1-3.4-4.9-7.8-4.9-12.4s1.7-9,4.9-12.4c3.1-3.4,7.4-5.5,11.9-5.9
		c0,0,0.2,0,0.2-0.1h6.2v-0.9h-6.4c-0.1,0-0.2,0-0.3,0.1c-4.7,0.5-9.1,2.6-12.3,6.1c-3.3,3.6-5.1,8.2-5.1,13c0,4.9,1.8,9.5,5.1,13
		c3.2,3.5,7.6,5.6,12.3,6.1c0.1,0,0.2,0.1,0.3,0.1h6.4v-0.9H894.8L894.8,2483.2z"/>
	
		<path fill="#009B49" stroke="#009B48" stroke-width="3" stroke-linecap="round" stroke-linejoin="round" stroke-miterlimit="10" d="
		M495.4,2514.9c3.3-3.6,5.1-8.2,5.1-13c0-4.9-1.8-9.5-5.1-13c-3.2-3.5-7.6-5.6-12.3-6.1c-0.1,0-0.2-0.1-0.3-0.1H399
		c-0.3,0-0.5,0.2-0.5,0.4s0.2,0.4,0.5,0.4c10.2,0,18.5,8.3,18.5,18.3c0,7.2-4.2,13.5-10.3,16.5h1.9c5.6-3.4,9.3-9.5,9.3-16.5
		c0-8.6-5.7-15.9-13.5-18.3h77.7c0.1,0,0.1,0.1,0.2,0.1c4.6,0.4,8.8,2.5,11.9,5.9c3.1,3.4,4.9,7.8,4.9,12.4c0,4.6-1.7,9-4.9,12.4
		c-1.6,1.7-3.4,3.1-5.5,4.1h2C492.7,2517.3,494.1,2516.2,495.4,2514.9z"/>
	
		<path fill="#009B49" stroke="#009B48" stroke-width="3" stroke-linecap="round" stroke-linejoin="round" stroke-miterlimit="10" d="
		M413.4,2514.9c3.3-3.6,5.1-8.2,5.1-13c0-4.9-1.8-9.5-5.1-13c-3.2-3.5-7.6-5.6-12.3-6.1c-0.1,0-0.2-0.1-0.3-0.1H317
		c-0.3,0-0.5,0.2-0.5,0.4s0.2,0.4,0.5,0.4c10.2,0,18.5,8.3,18.5,18.3c0,7.2-4.2,13.5-10.3,16.5h1.9c5.6-3.4,9.3-9.5,9.3-16.5
		c0-8.6-5.7-15.9-13.5-18.3h77.7c0.1,0,0.1,0.1,0.2,0.1c4.6,0.4,8.8,2.5,11.9,5.9c3.1,3.4,4.9,7.8,4.9,12.4c0,4.6-1.7,9-4.9,12.4
		c-1.6,1.7-3.4,3.1-5.5,4.1h2C410.7,2517.3,412.1,2516.2,413.4,2514.9z"/>
	
		<path fill="#009B49" stroke="#009B48" stroke-width="3" stroke-linecap="round" stroke-linejoin="round" stroke-miterlimit="10" d="
		M660,2514.9c3.3-3.6,5.1-8.2,5.1-13s-1.8-9.5-5.1-13c-3.2-3.5-7.6-5.6-12.3-6.1c-0.1,0-0.2-0.1-0.3-0.1h-83.8
		c-0.3,0-0.5,0.2-0.5,0.4c0,0.2,0.2,0.4,0.5,0.4c10.2,0,18.5,8.2,18.5,18.3c0,7.2-4.2,13.4-10.2,16.4h1.9c5.6-3.4,9.3-9.4,9.3-16.4
		c0-8.6-5.7-15.9-13.5-18.3h77.7c0,0,0.1,0.1,0.2,0.1c4.6,0.4,8.8,2.5,11.9,5.9c3.1,3.4,4.9,7.8,4.9,12.4s-1.7,9-4.9,12.4
		c-1.6,1.7-3.4,3-5.4,4h2C657.4,2517.3,658.8,2516.2,660,2514.9z"/>
	
		<path fill="#009B49" stroke="#009B48" stroke-width="3" stroke-linecap="round" stroke-linejoin="round" stroke-miterlimit="10" d="
		M578,2514.9c3.3-3.6,5.1-8.2,5.1-13s-1.8-9.5-5.1-13c-3.2-3.5-7.6-5.6-12.3-6.1c-0.1,0-0.2-0.1-0.3-0.1h-83.8
		c-0.3,0-0.5,0.2-0.5,0.4c0,0.2,0.2,0.4,0.5,0.4c10.2,0,18.5,8.2,18.5,18.3c0,7.2-4.2,13.4-10.2,16.4h1.9c5.6-3.4,9.3-9.4,9.3-16.4
		c0-8.6-5.7-15.9-13.5-18.3h77.7c0.1,0,0.1,0.1,0.2,0.1c4.6,0.4,8.8,2.5,11.9,5.9s4.9,7.8,4.9,12.4s-1.7,9-4.9,12.4
		c-1.6,1.7-3.4,3-5.4,4h2C575.4,2517.3,576.8,2516.2,578,2514.9z"/>
	
		<path fill="#009B49" stroke="#009B48" stroke-width="3" stroke-linecap="round" stroke-linejoin="round" stroke-miterlimit="10" d="
		M823.7,2514.9c3.3-3.6,5.1-8.2,5.1-13s-1.8-9.5-5.1-13c-3.2-3.5-7.6-5.6-12.3-6.1c-0.1,0-0.2-0.1-0.3-0.1h-83.8
		c-0.3,0-0.5,0.2-0.5,0.4c0,0.2,0.2,0.4,0.5,0.4c10.2,0,18.5,8.2,18.5,18.3c0,7.2-4.2,13.4-10.2,16.4h1.9c5.6-3.4,9.3-9.4,9.3-16.4
		c0-8.6-5.7-15.9-13.5-18.3h77.7c0,0,0.1,0.1,0.2,0.1c4.6,0.4,8.8,2.5,11.9,5.9c3.1,3.4,4.9,7.8,4.9,12.4c0,4.6-1.7,9-4.9,12.4
		c-1.6,1.7-3.4,3-5.4,4h2C821.1,2517.3,822.5,2516.2,823.7,2514.9z"/>
	
		<path fill="#009B49" stroke="#009B48" stroke-width="3" stroke-linecap="round" stroke-linejoin="round" stroke-miterlimit="10" d="
		M741.7,2514.9c3.3-3.6,5.1-8.2,5.1-13s-1.8-9.5-5.1-13c-3.2-3.5-7.6-5.6-12.3-6.1c-0.1,0-0.2-0.1-0.3-0.1h-83.8
		c-0.3,0-0.5,0.2-0.5,0.4c0,0.2,0.2,0.4,0.5,0.4c10.2,0,18.5,8.2,18.5,18.3c0,7.2-4.2,13.4-10.2,16.4h1.9c5.6-3.4,9.3-9.4,9.3-16.4
		c0-8.6-5.7-15.9-13.5-18.3h77.7c0.1,0,0.1,0.1,0.2,0.1c4.6,0.4,8.8,2.5,11.9,5.9s4.9,7.8,4.9,12.4c0,4.6-1.7,9-4.9,12.4
		c-1.6,1.7-3.4,3-5.4,4h2C739.1,2517.3,740.5,2516.2,741.7,2514.9z"/>
	
		<path fill="#009B49" stroke="#009B48" stroke-width="3" stroke-linecap="round" stroke-linejoin="round" stroke-miterlimit="10" d="
		M891.5,2483.1c0,0.2,0.2,0.4,0.5,0.4c3.3,0,6.4,0.8,9,2.3v-1c-1-0.5-2.1-1-3.2-1.3h3.2v-0.9h-9
		C891.7,2482.6,891.5,2482.8,891.5,2483.1z"/>
	
		<path fill="#009B49" stroke="#009B48" stroke-width="3" stroke-linecap="round" stroke-linejoin="round" stroke-miterlimit="10" d="
		M901,2517.9c-0.3,0.1-0.5,0.2-0.8,0.4h0.8V2517.9z"/>
	
		<path fill="#009B49" stroke="#009B48" stroke-width="3" stroke-linecap="round" stroke-linejoin="round" stroke-miterlimit="10" d="
		M901,2518.3v-0.3c-0.3,0.1-0.5,0.2-0.7,0.3H901z"/>
	
		<path fill="#009B49" stroke="#009B48" stroke-width="3" stroke-linecap="round" stroke-linejoin="round" stroke-miterlimit="10" d="
		M829.4,2501.9c0-8.6-5.7-15.9-13.5-18.3h77.7c0,0,0.1,0.1,0.2,0.1c2.6,0.2,5.1,1,7.3,2.2v-1.1c-2.1-1.1-4.5-1.8-6.9-2
		c-0.1,0-0.2-0.1-0.3-0.1H810c-0.3,0-0.5,0.2-0.5,0.4s0.2,0.4,0.5,0.4c10.2,0,18.5,8.3,18.5,18.3c0,7.2-4.2,13.4-10.2,16.4h1.8
		C825.7,2514.9,829.4,2508.8,829.4,2501.9z"/>
</g>
</svg>
