<?xml version="1.0" encoding="utf-8"?>
<!-- Generator: Adobe Illustrator 18.1.1, SVG Export Plug-In . SVG Version: 6.00 Build 0)  -->
<svg version="1.1" id="Layer_2" xmlns="http://www.w3.org/2000/svg" xmlns:xlink="http://www.w3.org/1999/xlink" x="0px" y="0px"
	 viewBox="0 0 1200 600" enable-background="new 0 0 1200 600" xml:space="preserve">
<g opacity="0.75">
	<rect x="1" fill="#B1201E" stroke="#B0201F" stroke-width="3" stroke-miterlimit="10" width="1200" height="600"/>
</g>
<g>
	<g>
		<path fill="#B1201E" stroke="#B0201F" stroke-width="3" stroke-miterlimit="10" d="M172.2,581c-83.1,0-150.7-67.6-150.7-150.7
			s67.6-150.7,150.7-150.7s150.7,67.6,150.7,150.7S255.2,581,172.2,581z M172.2,282.7c-81.4,0-147.7,66.2-147.7,147.7
			S90.7,578,172.2,578s147.7-66.2,147.7-147.7S253.6,282.7,172.2,282.7z"/>
	</g>
	<g>
		<path fill="#B1201E" stroke="#B0201F" stroke-width="3" stroke-miterlimit="10" d="M174.1,558.6c-71.1,0-128.9-57.8-128.9-128.9
			c0-71.1,57.8-128.9,128.9-128.9c71.1,0,128.9,57.8,128.9,128.9C302.9,500.8,245.1,558.6,174.1,558.6z M174.1,303.8
			c-69.4,0-125.9,56.5-125.9,125.9c0,69.4,56.5,125.9,125.9,125.9c69.4,0,125.9-56.5,125.9-125.9
			C299.9,360.3,243.5,303.8,174.1,303.8z"/>
	</g>
	<g>
		<path fill="#B1201E" stroke="#B0201F" stroke-width="3" stroke-miterlimit="10" d="M174.1,536.3c-58.8,0-106.6-47.8-106.6-106.6
			c0-58.8,47.8-106.6,106.6-106.6c58.8,0,106.6,47.8,106.6,106.6C280.6,488.5,232.8,536.3,174.1,536.3z M174.1,326.1
			c-57.1,0-103.6,46.5-103.6,103.6c0,57.1,46.5,103.6,103.6,103.6c57.1,0,103.6-46.5,103.6-103.6
			C277.6,372.6,231.2,326.1,174.1,326.1z"/>
	</g>
	<g>
		<path fill="#B1201E" stroke="#B0201F" stroke-width="3" stroke-miterlimit="10" d="M174.1,507.6c-43,0-77.9-35-77.9-77.9
			s35-77.9,77.9-77.9c43,0,77.9,35,77.9,77.9S217,507.6,174.1,507.6z M174.1,354.8c-41.3,0-74.9,33.6-74.9,74.9
			c0,41.3,33.6,74.9,74.9,74.9S249,471,249,429.7C249,388.4,215.4,354.8,174.1,354.8z"/>
	</g>
</g>
<g>
	<g>
		<path fill="#B1201E" stroke="#B0201F" stroke-width="3" stroke-miterlimit="10" d="M361.7,435.5c-105.3,0-191-85.7-191-191
			s85.7-191,191-191s191,85.7,191,191S467,435.5,361.7,435.5z M361.7,56.5c-103.7,0-188,84.4-188,188s84.4,188,188,188
			s188-84.4,188-188S465.4,56.5,361.7,56.5z"/>
	</g>
	<g>
		<path fill="#B1201E" stroke="#B0201F" stroke-width="3" stroke-miterlimit="10" d="M364.1,407c-90.1,0-163.3-73.3-163.3-163.3
			c0-90.1,73.3-163.3,163.3-163.3s163.3,73.3,163.3,163.3C527.5,333.8,454.2,407,364.1,407z M364.1,83.3
			c-88.4,0-160.3,71.9-160.3,160.3c0,88.4,71.9,160.3,160.3,160.3c88.4,0,160.3-71.9,160.3-160.3C524.5,155.3,452.5,83.3,364.1,83.3
			z"/>
	</g>
	<g>
		<path fill="#B1201E" stroke="#B0201F" stroke-width="3" stroke-miterlimit="10" d="M364.1,378.7c-74.5,0-135-60.6-135-135
			c0-74.5,60.6-135,135-135s135,60.6,135,135C499.1,318.1,438.6,378.7,364.1,378.7z M364.1,111.7c-72.8,0-132,59.2-132,132
			c0,72.8,59.2,132,132,132s132-59.2,132-132C496.1,170.9,436.9,111.7,364.1,111.7z"/>
	</g>
	<g>
		<path fill="#B1201E" stroke="#B0201F" stroke-width="3" stroke-miterlimit="10" d="M364.1,342.3c-54.4,0-98.6-44.2-98.6-98.6
			s44.2-98.6,98.6-98.6s98.6,44.2,98.6,98.6S418.5,342.3,364.1,342.3z M364.1,148.1c-52.7,0-95.6,42.9-95.6,95.6
			s42.9,95.6,95.6,95.6s95.6-42.9,95.6-95.6S416.8,148.1,364.1,148.1z"/>
	</g>
</g>
<g>
	<g>
		<path fill="#B1201E" stroke="#B0201F" stroke-width="3" stroke-miterlimit="10" d="M673.3,592.6c-61.2,0-118.8-23.8-162.1-67.2
			c-43.3-43.3-67.2-100.9-67.2-162.1c0-61.2,23.9-118.8,67.2-162.1c43.3-43.3,100.9-67.2,162.1-67.2c61.2,0,118.8,23.9,162.1,67.2
			s67.2,100.9,67.2,162.1c0,61.2-23.9,118.8-67.2,162.1S734.6,592.6,673.3,592.6z M673.3,137c-60.4,0-117.3,23.5-160,66.3
			s-66.3,99.6-66.3,160s23.5,117.3,66.3,160c42.7,42.7,99.6,66.3,160,66.3s117.3-23.5,160-66.3c42.7-42.7,66.3-99.6,66.3-160
			s-23.5-117.3-66.3-160C790.6,160.5,733.8,137,673.3,137z"/>
	</g>
	<g>
		<path fill="#B1201E" stroke="#B0201F" stroke-width="3" stroke-miterlimit="10" d="M676.2,558.3c-108.1,0-196-87.9-196-196
			s87.9-196,196-196s196,87.9,196,196S784.3,558.3,676.2,558.3z M676.2,169.3c-106.4,0-193,86.6-193,193s86.6,193,193,193
			c106.4,0,193-86.6,193-193S782.7,169.3,676.2,169.3z"/>
	</g>
	<g>
		<path fill="#B1201E" stroke="#B0201F" stroke-width="3" stroke-miterlimit="10" d="M676.2,524.3c-89.3,0-162-72.7-162-162
			s72.7-162,162-162s162,72.7,162,162S765.5,524.3,676.2,524.3z M676.2,203.4c-87.7,0-159,71.3-159,159s71.3,159,159,159
			s159-71.3,159-159S763.9,203.4,676.2,203.4z"/>
	</g>
	<g>
		<path fill="#B1201E" stroke="#B0201F" stroke-width="3" stroke-miterlimit="10" d="M676.2,480.5c-65.2,0-118.2-53-118.2-118.2
			c0-65.2,53-118.2,118.2-118.2s118.2,53,118.2,118.2C794.4,427.5,741.4,480.5,676.2,480.5z M676.2,247.1
			c-63.5,0-115.2,51.7-115.2,115.2c0,63.5,51.7,115.2,115.2,115.2s115.2-51.7,115.2-115.2C791.4,298.8,739.8,247.1,676.2,247.1z"/>
	</g>
</g>
<g>
	<g>
		<path fill="#B1201E" stroke="#B0201F" stroke-width="3" stroke-miterlimit="10" d="M1010.2,475.5c-83.6,0-151.5-68-151.5-151.5
			s68-151.5,151.5-151.5c83.6,0,151.5,68,151.5,151.5S1093.7,475.5,1010.2,475.5z M1010.2,175.4c-81.9,0-148.5,66.6-148.5,148.5
			s66.6,148.5,148.5,148.5c81.9,0,148.5-66.6,148.5-148.5S1092.1,175.4,1010.2,175.4z"/>
	</g>
	<g>
		<path fill="#B1201E" stroke="#B0201F" stroke-width="3" stroke-miterlimit="10" d="M1012.1,453c-71.5,0-129.6-58.1-129.6-129.6
			c0-71.5,58.1-129.6,129.6-129.6s129.6,58.1,129.6,129.6C1141.7,394.8,1083.5,453,1012.1,453z M1012.1,196.7
			c-69.8,0-126.6,56.8-126.6,126.6c0,69.8,56.8,126.6,126.6,126.6s126.6-56.8,126.6-126.6C1138.7,253.5,1081.9,196.7,1012.1,196.7z"
			/>
	</g>
	<g>
		<path fill="#B1201E" stroke="#B0201F" stroke-width="3" stroke-miterlimit="10" d="M1012.1,430.5c-59.1,0-107.2-48.1-107.2-107.2
			s48.1-107.2,107.2-107.2s107.2,48.1,107.2,107.2S1071.2,430.5,1012.1,430.5z M1012.1,219.1c-57.5,0-104.2,46.7-104.2,104.2
			s46.7,104.2,104.2,104.2s104.2-46.7,104.2-104.2S1069.5,219.1,1012.1,219.1z"/>
	</g>
	<g>
		<path fill="#B1201E" stroke="#B0201F" stroke-width="3" stroke-miterlimit="10" d="M1012.1,401.7c-43.2,0-78.4-35.2-78.4-78.4
			c0-43.2,35.2-78.4,78.4-78.4s78.4,35.2,78.4,78.4C1090.4,366.6,1055.3,401.7,1012.1,401.7z M1012.1,248
			c-41.6,0-75.4,33.8-75.4,75.4s33.8,75.4,75.4,75.4s75.4-33.8,75.4-75.4S1053.6,248,1012.1,248z"/>
	</g>
</g>
<g>
	<g>
		<path fill="#B1201E" stroke="#B0201F" stroke-width="3" stroke-miterlimit="10" d="M1090.5,213c-50.8,0-92.1-41.3-92.1-92.1
			c0-50.8,41.3-92.1,92.1-92.1s92.1,41.3,92.1,92.1C1182.6,171.7,1141.3,213,1090.5,213z M1090.5,31.8c-49.1,0-89.1,40-89.1,89.1
			c0,49.1,40,89.1,89.1,89.1s89.1-40,89.1-89.1C1179.6,71.8,1139.6,31.8,1090.5,31.8z"/>
	</g>
	<g>
		<path fill="#B1201E" stroke="#B0201F" stroke-width="3" stroke-miterlimit="10" d="M1091.6,199.4c-43.5,0-78.9-35.4-78.9-78.9
			c0-43.5,35.4-78.9,78.9-78.9s78.9,35.4,78.9,78.9C1170.5,164,1135.1,199.4,1091.6,199.4z M1091.6,44.6c-41.8,0-75.9,34-75.9,75.9
			s34,75.9,75.9,75.9s75.9-34,75.9-75.9S1133.5,44.6,1091.6,44.6z"/>
	</g>
	<g>
		<path fill="#B1201E" stroke="#B0201F" stroke-width="3" stroke-miterlimit="10" d="M1091.6,185.9c-36,0-65.3-29.3-65.3-65.3
			c0-36,29.3-65.3,65.3-65.3s65.3,29.3,65.3,65.3C1157,156.5,1127.7,185.9,1091.6,185.9z M1091.6,58.2c-34.4,0-62.3,28-62.3,62.3
			c0,34.4,28,62.3,62.3,62.3s62.3-28,62.3-62.3C1154,86.2,1126,58.2,1091.6,58.2z"/>
	</g>
	<g>
		<path fill="#B1201E" stroke="#B0201F" stroke-width="3" stroke-miterlimit="10" d="M1091.6,168.4c-26.4,0-47.9-21.5-47.9-47.9
			c0-26.4,21.5-47.9,47.9-47.9s47.9,21.5,47.9,47.9C1139.6,146.9,1118.1,168.4,1091.6,168.4z M1091.6,75.6
			c-24.8,0-44.9,20.2-44.9,44.9s20.2,44.9,44.9,44.9s44.9-20.2,44.9-44.9S1116.4,75.6,1091.6,75.6z"/>
	</g>
</g>
</svg>
