<?xml version="1.0" encoding="utf-8"?>
<!-- Generator: Adobe Illustrator 18.1.1, SVG Export Plug-In . SVG Version: 6.00 Build 0)  -->
<svg version="1.1" id="Layer_2" xmlns="http://www.w3.org/2000/svg" xmlns:xlink="http://www.w3.org/1999/xlink" x="0px" y="0px"
	 viewBox="0 0 1200 600" enable-background="new 0 0 1200 600" xml:space="preserve">
<g opacity="0.8">
	<rect fill="#030304" width="1200" height="600"/>
</g>
<g>
	<g>
		<path fill="#030304" stroke="#030304" stroke-width="3" stroke-miterlimit="10" d="M301.8,493.9l0-174.3l89.7,83.6L301.8,493.9z
			 M304.8,407.4l0,79.2l82.4-83.2l-82.4-76.7L304.8,407.4z"/>
	</g>
	<g>
		<path fill="#030304" stroke="#030304" stroke-width="3" stroke-miterlimit="10" d="M451.5,342.6l-150-151.5h299.9L451.5,342.6z
			 M308.8,194.1l142.7,144.2l142.7-144.2H308.8z"/>
	</g>
	<g>
		<path fill="#030304" stroke="#030304" stroke-width="3" stroke-miterlimit="10" d="M1051.3,342.9l-150-151.5h299.9L1051.3,342.9z
			 M908.6,194.4l142.7,144.2L1194,194.4H908.6z"/>
	</g>
	<g>
		<path fill="#030304" stroke="#030304" stroke-width="3" stroke-miterlimit="10" d="M391.8,403l-90-83.8V191.8l149.5,151.1
			L391.8,403z M304.8,317.9l86.9,80.9l55.4-55.9L304.8,199.1V317.9z"/>
	</g>
	<g>
		<path fill="#030304" stroke="#030304" stroke-width="3" stroke-miterlimit="10" d="M901.5,494.2l0-174.3l89.7,83.6L901.5,494.2z
			 M904.6,407.7v79.2l82.4-83.2l-82.4-76.7L904.6,407.7z"/>
	</g>
	<g>
		<path fill="#030304" stroke="#030304" stroke-width="3" stroke-miterlimit="10" d="M601.5,191H301.5l150-139.7L601.5,191z
			 M309.2,188h284.6L451.5,55.4L309.2,188z"/>
	</g>
	<g>
		<path fill="#030304" stroke="#030304" stroke-width="3" stroke-miterlimit="10" d="M601.3,598.1L451.8,458.9l59.5-55.4l90,90.9
			V598.1z M456.2,458.9l142,132.3v-95.5l-87.1-88L456.2,458.9z"/>
	</g>
	<g>
		<path fill="#030304" stroke="#030304" stroke-width="3" stroke-miterlimit="10" d="M791.8,600.1H711l40.4-40.8L791.8,600.1z
			 M718.3,597.1h66.3l-33.1-33.5L718.3,597.1z"/>
	</g>
	<g>
		<path fill="#030304" stroke="#030304" stroke-width="3" stroke-miterlimit="10" d="M601.3,493.9l-89.7-90.7l89.7-83.6L601.3,493.9
			z M515.9,403.3l82.4,83.2l0-160L515.9,403.3z"/>
	</g>
	<g>
		<path fill="#030304" stroke="#030304" stroke-width="3" stroke-miterlimit="10" d="M451.5,458.7L392,403.2l59.5-60.1l59.5,60.1
			L451.5,458.7z M396.4,403.1l55.2,51.4l55.2-51.4l-55.2-55.7L396.4,403.1z"/>
	</g>
	<g>
		<path fill="#030304" stroke="#030304" stroke-width="3" stroke-miterlimit="10" d="M831.7,600.1h-39.4l-40.6-41L901.1,408v127.4
			L831.7,600.1z M793.5,597.1h36.9l67.7-63V415.3L755.9,559L793.5,597.1z"/>
	</g>
	<g>
		<path fill="#030304" stroke="#030304" stroke-width="3" stroke-miterlimit="10" d="M301.8,598.1V494.4l90-90.9l59.5,55.4
			L301.8,598.1z M304.8,495.7v95.5l142-132.3l-55-51.2L304.8,495.7z"/>
	</g>
	<g>
		<path fill="#030304" stroke="#030304" stroke-width="3" stroke-miterlimit="10" d="M301.4,600.1h-69.3l69.3-64.6V600.1z
			 M239.8,597.1h58.6v-54.6L239.8,597.1z"/>
	</g>
	<g>
		<path fill="#030304" stroke="#030304" stroke-width="3" stroke-miterlimit="10" d="M670.6,600.1h-69v-64.2L670.6,600.1z
			 M604.7,597.1H663l-58.3-54.3V597.1z"/>
	</g>
	<g>
		<path fill="#030304" stroke="#030304" stroke-width="3" stroke-miterlimit="10" d="M110.5,600.1H71.7L1.9,535V407.7l149.5,151.1
			L110.5,600.1z M72.9,597.1h36.3l37.9-38.3L4.9,415v118.7L72.9,597.1z"/>
	</g>
	<g>
		<path fill="#030304" stroke="#030304" stroke-width="3" stroke-miterlimit="10" d="M710.5,600.1h-39.4l-0.4-0.4l-69.1-64.3V408
			L751.2,559L710.5,600.1z M672.3,597.1h36.9l37.6-38L604.7,415.3V534L672.3,597.1z"/>
	</g>
	<g>
		<path fill="#030304" stroke="#030304" stroke-width="3" stroke-miterlimit="10" d="M511.3,403l-59.5-60.1l149.5-151.1v127.4
			l-0.5,0.4L511.3,403z M456,342.9l55.4,55.9l86.9-80.9V199.1L456,342.9z"/>
	</g>
	<g>
		<path fill="#030304" stroke="#030304" stroke-width="3" stroke-miterlimit="10" d="M71.2,600.1H1.5v-65L71.2,600.1z M4.5,597.1h59
			l-59-55V597.1z"/>
	</g>
	<g>
		<path fill="#030304" stroke="#030304" stroke-width="3" stroke-miterlimit="10" d="M301.4,406.8L151.9,267.6l59.5-55.4l90,90.9
			V406.8z M156.3,267.6l142,132.3v-95.5l-87.1-88L156.3,267.6z"/>
	</g>
	<g>
		<path fill="#030304" stroke="#030304" stroke-width="3" stroke-miterlimit="10" d="M1201.5,494.7l-90.2-91.1l90.2-84V494.7z
			 M1115.6,403.6l82.8,83.7V326.5L1115.6,403.6z"/>
	</g>
	<g>
		<path fill="#030304" stroke="#030304" stroke-width="3" stroke-miterlimit="10" d="M601.3,86.1L514.6-1.5h87.1l-0.3,1.8l-1.5-0.1
			v0l1.5,0.3c0,0,0-0.1,0-0.1V86.1z M521.8,1.5l76.4,77.2V1.5H521.8z"/>
	</g>
	<g>
		<path fill="#030304" stroke="#030304" stroke-width="3" stroke-miterlimit="10" d="M1.9,406.8V303.1l90-90.9l59.5,55.4L1.9,406.8z
			 M4.9,304.3v95.5l142-132.3l-55-51.2L4.9,304.3z"/>
	</g>
	<g>
		<path fill="#030304" stroke="#030304" stroke-width="3" stroke-miterlimit="10" d="M301.4,302.6l-89.7-90.7l89.7-83.6v62.4
			l0.1,0.3l-0.1,0.4V302.6z M216,212l82.4,83.2V191.3c0-0.1,0-0.2,0-0.3c0-0.1,0-0.2,0-0.3v-55.5L216,212z"/>
	</g>
	<g>
		<path fill="#030304" stroke="#030304" stroke-width="3" stroke-miterlimit="10" d="M751.4,558.8l-150-151.5h299.9L751.4,558.8z
			 M608.7,410.3l142.7,144.2l142.7-144.2H608.7z"/>
	</g>
	<g>
		<path fill="#030304" stroke="#030304" stroke-width="3" stroke-miterlimit="10" d="M301.6,407.5H1.7l150-139.7L301.6,407.5z
			 M9.3,404.5h284.6L151.6,271.9L9.3,404.5z"/>
	</g>
	<g>
		<path fill="#030304" stroke="#030304" stroke-width="3" stroke-miterlimit="10" d="M151.6,558.5L1.7,406.9h299.9L151.6,558.5z
			 M8.9,410l142.7,144.2L294.4,410H8.9z"/>
	</g>
	<g>
		<path fill="#030304" stroke="#030304" stroke-width="3" stroke-miterlimit="10" d="M1201,598.5l-149.5-139.2l59.5-55.4l1,1
			l89,89.9V598.5z M1056,459.2l142,132.3V496l-87.1-88L1056,459.2z"/>
	</g>
	<g>
		<path fill="#030304" stroke="#030304" stroke-width="3" stroke-miterlimit="10" d="M1.5,303V127.9l90.2,84L1.5,303z M4.5,134.8
			v160.8L87.3,212L4.5,134.8z"/>
	</g>
	<g>
		<path fill="#030304" stroke="#030304" stroke-width="3" stroke-miterlimit="10" d="M451.5,50.8L395.3-1.5h112.4L451.5,50.8z
			 M403,1.5l48.5,45.2L500,1.5H403z"/>
	</g>
	<g>
		<path fill="#030304" stroke="#030304" stroke-width="3" stroke-miterlimit="10" d="M151.6,267.3l-59.5-55.4l59.5-60.1l59.5,60.1
			L151.6,267.3z M96.5,211.8l55.2,51.4l55.2-51.4L151.6,156L96.5,211.8z"/>
	</g>
	<g>
		<path fill="#030304" stroke="#030304" stroke-width="3" stroke-miterlimit="10" d="M91.9,211.6l-90-83.8V0.4l149.5,151.1
			L91.9,211.6z M4.9,126.5l86.9,80.9l55.4-55.9L4.9,7.8V126.5z"/>
	</g>
	<g>
		<path fill="#030304" stroke="#030304" stroke-width="3" stroke-miterlimit="10" d="M901.2,600.1h-69l69-64.3V600.1z M839.8,597.1
			h58.3v-54.3L839.8,597.1z"/>
	</g>
	<g>
		<path fill="#030304" stroke="#030304" stroke-width="3" stroke-miterlimit="10" d="M601.3,190.3L451.8,51.1l56.4-52.6h5.9
			l87.2,88.1V190.3z M456.2,51.1l142,132.3V87.8L512.8,1.5h-3.4L456.2,51.1z"/>
	</g>
	<g>
		<path fill="#030304" stroke="#030304" stroke-width="3" stroke-miterlimit="10" d="M151.6,151.3L1.7-0.3h299.9L151.6,151.3z
			 M8.9,2.8L151.6,147L294.4,2.8H8.9z"/>
	</g>
	<g>
		<path fill="#030304" stroke="#030304" stroke-width="3" stroke-miterlimit="10" d="M211.4,211.6l-59.5-60.1L301.4,0.4l0,127.4
			l-0.5,0.4L211.4,211.6z M156.1,151.5l55.4,55.9l86.9-80.9l0-118.7L156.1,151.5z"/>
	</g>
	<g>
		<path fill="#030304" stroke="#030304" stroke-width="3" stroke-miterlimit="10" d="M601.5,598.8H301.6l150-139.7L601.5,598.8z
			 M309.2,595.8h284.6L451.5,463.3L309.2,595.8z"/>
	</g>
	<g>
		<path fill="#030304" stroke="#030304" stroke-width="3" stroke-miterlimit="10" d="M901.5,190.6l0-103.7l0.4-0.4l87-88h5.2
			l56.8,52.9L901.5,190.6z M904.6,128.3v55.4l142-132.3L993.1,1.5h-2.8l-85.7,86.6L904.6,128.3z"/>
	</g>
	<g>
		<path fill="#030304" stroke="#030304" stroke-width="3" stroke-miterlimit="10" d="M901.4,407.8H601.4l150-139.7L901.4,407.8z
			 M609.1,404.8h284.6L751.4,272.2L609.1,404.8z"/>
	</g>
	<g>
		<path fill="#030304" stroke="#030304" stroke-width="3" stroke-miterlimit="10" d="M901.5,86.4v-86l-0.3-1.8l1.8-0.1h85.5
			L901.5,86.4z M904.6,1.5V79l76.7-77.5H904.6z"/>
	</g>
	<g>
		<path fill="#030304" stroke="#030304" stroke-width="3" stroke-miterlimit="10" d="M192.3,600.1H111l40.7-41.1L192.3,600.1z
			 M118.2,597.1h66.9l-33.4-33.8L118.2,597.1z"/>
	</g>
	<g>
		<path fill="#030304" stroke="#030304" stroke-width="3" stroke-miterlimit="10" d="M231.6,600.1h-38.8l-40.9-41.4l149.5-151.1V535
			l-0.5,0.4L231.6,600.1z M194.1,597.1h36.3l68-63.3V415L156.1,558.7L194.1,597.1z"/>
	</g>
	<g>
		<path fill="#030304" stroke="#030304" stroke-width="3" stroke-miterlimit="10" d="M301.8,86.1V-1.5h86.7L301.8,86.1z M304.8,1.5
			v77.2l76.4-77.2H304.8z"/>
	</g>
	<g>
		<path fill="#030304" stroke="#030304" stroke-width="3" stroke-miterlimit="10" d="M1201.5,86.8L1114-1.5h87.4V86.8z M1121.3,1.5
			l77.2,78v-78H1121.3z"/>
	</g>
	<g>
		<path fill="#030304" stroke="#030304" stroke-width="3" stroke-miterlimit="10" d="M1051.3,51.1L994.8-1.5h113L1051.3,51.1z
			 M1002.4,1.5l48.8,45.5l48.8-45.5H1002.4z"/>
	</g>
	<g>
		<path fill="#030304" stroke="#030304" stroke-width="3" stroke-miterlimit="10" d="M1201.2,191.3H901.3l150-139.7L1201.2,191.3z
			 M909,188.3h284.6L1051.3,55.7L909,188.3z"/>
	</g>
	<g>
		<path fill="#030304" stroke="#030304" stroke-width="3" stroke-miterlimit="10" d="M1201.3,599.1H901.3l150-139.7L1201.3,599.1z
			 M909,596.1h284.6l-142.3-132.5L909,596.1z"/>
	</g>
	<g>
		<path fill="#030304" stroke="#030304" stroke-width="3" stroke-miterlimit="10" d="M301.8,190.3l0-103.7L389-1.5h5.9l56.4,52.6
			L301.8,190.3z M304.8,128l0,55.3l142-132.3L393.6,1.5h-3.4l-85.4,86.3L304.8,128z"/>
	</g>
	<g>
		<path fill="#030304" stroke="#030304" stroke-width="3" stroke-miterlimit="10" d="M751.4,151.6L601.4,0h299.9L751.4,151.6z
			 M608.7,3.1l142.7,144.2L894.1,3.1H608.7z"/>
	</g>
	<g>
		<path fill="#030304" stroke="#030304" stroke-width="3" stroke-miterlimit="10" d="M601.7,407.1V303.4l0.4-0.4l89.6-90.5
			l59.5,55.4L601.7,407.1z M604.7,304.6v95.5l142-132.3l-55-51.2L604.7,304.6z"/>
	</g>
	<g>
		<path fill="#030304" stroke="#030304" stroke-width="3" stroke-miterlimit="10" d="M1051.3,459l-59.5-55.4l59.5-60.1l59.5,60.1
			L1051.3,459z M996.1,403.5l55.2,51.4l55.2-51.4l-55.2-55.7L996.1,403.5z"/>
	</g>
	<g>
		<path fill="#030304" stroke="#030304" stroke-width="3" stroke-miterlimit="10" d="M991.5,403.3l-90-83.8V192.1L1051,343.2
			L991.5,403.3z M904.6,318.2l86.9,80.9l55.4-55.9L904.6,199.4V318.2z"/>
	</g>
	<g>
		<path fill="#030304" stroke="#030304" stroke-width="3" stroke-miterlimit="10" d="M751.4,267.6l-59.5-55.4l59.5-60.1l59.5,60.1
			L751.4,267.6z M696.2,212.1l55.2,51.4l55.2-51.4l-55.2-55.7L696.2,212.1z"/>
	</g>
	<g>
		<path fill="#030304" stroke="#030304" stroke-width="3" stroke-miterlimit="10" d="M691.6,211.9l-90-83.8V0.8l149.5,151.1
			L691.6,211.9z M604.7,126.8l86.9,80.9l55.4-55.9L604.7,8.1V126.8z"/>
	</g>
	<g>
		<path fill="#030304" stroke="#030304" stroke-width="3" stroke-miterlimit="10" d="M901.2,302.9l-89.7-90.7l89.7-83.6l0,62.5
			l0.1,0.3l-0.1,0.4V302.9z M815.8,212.3l82.4,83.2V191.7c0-0.1,0-0.2,0-0.3c0-0.1,0-0.2,0-0.3v-55.5L815.8,212.3z"/>
	</g>
	<g>
		<path fill="#030304" stroke="#030304" stroke-width="3" stroke-miterlimit="10" d="M811.2,211.9l-59.5-60.1L901.2,0.8l0,127.4
			L811.2,211.9z M755.9,151.8l55.4,55.9l86.9-80.9l0-118.7L755.9,151.8z"/>
	</g>
	<g>
		<path fill="#030304" stroke="#030304" stroke-width="3" stroke-miterlimit="10" d="M1201,190.6L1051.5,51.4l56.8-52.9h5.2
			l87.5,88.4V190.6z M1056,51.4l142,132.3V88.1l-85.7-86.6h-2.8L1056,51.4z"/>
	</g>
	<g>
		<path fill="#030304" stroke="#030304" stroke-width="3" stroke-miterlimit="10" d="M601.7,302.9l0-111.5l-0.1-0.3l0.1-0.3l1.5,0.2
			l-1.5-0.4c0,0,0,0.1,0,0.1v-62.1l89.7,83.6L601.7,302.9z M604.7,191c0,0.1,0,0.2,0,0.3v104.2l82.4-83.2l-82.4-76.7v55.2
			C604.7,190.8,604.7,190.9,604.7,191z"/>
	</g>
	<g>
		<path fill="#030304" stroke="#030304" stroke-width="3" stroke-miterlimit="10" d="M1111,403.3l-59.5-60.1L1201,192.1v127.4
			L1111,403.3z M1055.8,343.2l55.4,55.9l86.9-80.9V199.4L1055.8,343.2z"/>
	</g>
	<g>
		<path fill="#030304" stroke="#030304" stroke-width="3" stroke-miterlimit="10" d="M901.5,598.5V494.7l0.4-0.4l89.6-90.5
			l59.5,55.4L901.5,598.5z M904.6,496v95.5l142-132.3l-55-51.2L904.6,496z"/>
	</g>
	<g>
		<path fill="#030304" stroke="#030304" stroke-width="3" stroke-miterlimit="10" d="M901.2,407.1L751.7,267.9l59.5-55.4l90,90.9
			V407.1z M756.1,267.9l142,132.3v-95.5l-87.1-88L756.1,267.9z"/>
	</g>
	<g>
		<path fill="#FFFFFF" stroke="#030304" stroke-width="3" stroke-miterlimit="10" d="M0.4,129V0H0v127.9C0,128.3,0.2,128.7,0.4,129z
			"/>
		<path fill="#030304" stroke="#030304" stroke-width="3" stroke-miterlimit="10" d="M2,132.9l-2.6-2.9c-0.5-0.6-0.8-1.3-0.8-2.1
			V-1.5H2V132.9z"/>
	</g>
	<g>
		<polygon fill="#FFFFFF" stroke="#030304" stroke-width="3" stroke-miterlimit="10" points="91.9,214.2 149.2,267.6 151.6,265.2 
			94.3,211.8 		"/>
		<path fill="#030304" stroke="#030304" stroke-width="3" stroke-miterlimit="10" d="M149.2,269.6l-59.4-55.3l4.5-4.5l59.6,55.5
			L149.2,269.6z M94.1,214.2l55.1,51.3l0.3-0.2l-55.1-51.3L94.1,214.2z"/>
	</g>
	<g>
		<path fill="#FFFFFF" stroke="#030304" stroke-width="3" stroke-miterlimit="10" d="M299.9,319.2v84.1L154.1,267.6l-2.5,2.3
			L297.8,406h2.5v-85.6C300,320,299.9,319.6,299.9,319.2z"/>
		<path fill="#030304" stroke="#030304" stroke-width="3" stroke-miterlimit="10" d="M301.8,407.5h-4.6L149.4,269.9l4.7-4.4
			l144.3,134.4v-80.6h3c0,0,0,0.1,0,0.1l0.4,0.4V407.5z M298.4,404.5h0.4v-0.1L154.1,269.6l-0.3,0.2L298.4,404.5z"/>
	</g>
	<g>
		<polygon fill="#FFFFFF" stroke="#030304" stroke-width="3" stroke-miterlimit="10" points="151.6,153.9 209,211.8 211.5,209.5 
			154,151.5 		"/>
		<path fill="#030304" stroke="#030304" stroke-width="3" stroke-miterlimit="10" d="M208.9,213.9l-59.4-60l4.5-4.5l59.6,60.2
			L208.9,213.9z M153.8,153.9l55.3,55.8l0.3-0.2L154,153.7L153.8,153.9z"/>
	</g>
	<g>
		<path fill="#FFFFFF" stroke="#030304" stroke-width="3" stroke-miterlimit="10" d="M303.3,407.3
			C303.3,407.2,303.3,407.2,303.3,407.3l0-84.1l-0.4-0.4v83.4C303.1,406.4,303.3,406.8,303.3,407.3L303.3,407.3z"/>
		<path fill="#030304" stroke="#030304" stroke-width="3" stroke-miterlimit="10" d="M304.8,407.6l-1.2-0.3l-1.8-0.1
			c0,0,0,0-0.1-0.1l-0.4-0.4v-87.5l3.5,3.2L304.8,407.6z"/>
	</g>
	<g>
		<polygon fill="#FFFFFF" stroke="#030304" stroke-width="3" stroke-miterlimit="10" points="91.8,209.5 3.4,127.2 3.4,4.1 
			149.3,151.5 151.6,149.1 5.3,1.2 3,1.2 3,131.4 89.5,211.9 		"/>
		<path fill="#030304" stroke="#030304" stroke-width="3" stroke-miterlimit="10" d="M89.5,214l-88-82V-0.3h4.5l0.4,0.4l147.4,148.9
			l-4.5,4.5L4.9,7.8v118.7l89.1,83L89.5,214z M4.5,130.7l84.9,79.1l0.2-0.2L4.5,130.2V130.7z M4.5,3.1L4.5,3.1l144.8,146.3l0.2-0.3
			L4.7,2.8H4.5V3.1z"/>
	</g>
	<g>
		<polygon fill="#FFFFFF" stroke="#030304" stroke-width="3" stroke-miterlimit="10" points="211.4,214.2 299.9,303.7 299.9,298.9 
			213.8,211.9 		"/>
		<path fill="#030304" stroke="#030304" stroke-width="3" stroke-miterlimit="10" d="M301.4,307.4l-92.2-93.2l4.7-4.4l87.5,88.4
			V307.4z M213.5,214.3l84.8,85.7v-0.5L213.8,214L213.5,214.3z"/>
	</g>
	<g>
		<path fill="#FFFFFF" stroke="#030304" stroke-width="3" stroke-miterlimit="10" d="M303.3,87.2L303.3,87.2l0,40.7c0,0,0,0,0,0
			V87.2z"/>
		<polygon fill="#030304" stroke="#030304" stroke-width="3" stroke-miterlimit="10" points="304.8,128.1 303.6,128 301.8,127.9 
			301.8,86.6 304.8,83.3 304.8,87.2 		"/>
	</g>
	<g>
		<path fill="#FFFFFF" stroke="#030304" stroke-width="3" stroke-miterlimit="10" d="M0.4,301.9C0.2,302.2,0,302.6,0,303v104.2
			c0-0.4,0.2-0.8,0.4-1.1V301.9z"/>
		<path fill="#030304" stroke="#030304" stroke-width="3" stroke-miterlimit="10" d="M1.5,407.2h-3V303c0-0.8,0.3-1.5,0.8-2.1L2,298
			v108.7L1.5,407.2z"/>
	</g>
	<g>
		<polygon fill="#FFFFFF" stroke="#030304" stroke-width="3" stroke-miterlimit="10" points="303.3,82.4 303.3,0 302.8,0 
			302.8,82.8 		"/>
		<polygon fill="#030304" stroke="#030304" stroke-width="3" stroke-miterlimit="10" points="301.3,86.5 301.3,-1.5 304.8,-1.5 
			304.8,83 		"/>
	</g>
	<g>
		<path fill="#FFFFFF" stroke="#030304" stroke-width="3" stroke-miterlimit="10" d="M154.1,267.6l57.2-53.3l2.5-2.3l86.1-80.2v-4.6
			l-88.4,82.4l-2.5,2.3l-57.3,53.4l-2.5,2.3L3.4,403.3v-99.6l88.5-89.5l2.4-2.4l57.3-57.9l2.4-2.4L299.9,4.1v82.4
			c0-0.4,0.2-0.8,0.4-1.1V1.2H298L151.6,149.1l-2.4,2.4l-57.4,58l-2.4,2.4L3,299.3V406h2.5l146.1-136.1L154.1,267.6z"/>
		<path fill="#030304" stroke="#030304" stroke-width="3" stroke-miterlimit="10" d="M6.1,407.5H1.5V298.7L150.6,148L297.4-0.3h4.5
			V86l-0.4,0.5h-3V7.8L4.9,304.3v95.5l296.5-276.2v8.7l-0.5,0.4L6.1,407.5z M4.5,404.5h0.4l293.4-273.3v-0.5L4.5,404.5L4.5,404.5z
			 M4.5,300v0.5L298.8,3.1l0-0.3h-0.2L4.5,300z"/>
	</g>
	<g>
		<path fill="#FFFFFF" stroke="#030304" stroke-width="3" stroke-miterlimit="10" d="M0.4,301.9v104.2c0.2-0.2,0.4-0.4,0.6-0.4
			c0.6-0.2,1.3-0.1,1.8,0.3H3V299.3v-168V1.2h2.3H298h2.3V0H0.4v129V301.9z"/>
		<path fill="#030304" stroke="#030304" stroke-width="3" stroke-miterlimit="10" d="M-0.9,410l-0.1-3.9V-1.5h302.9v4.3H4.5v404.7
			H2.3l-0.4-0.4c0,0-0.1-0.1-0.1-0.1L-0.9,410z"/>
	</g>
	<g>
		<rect x="300.3" y="320.3" fill="#FFFFFF" stroke="#030304" stroke-width="3" stroke-miterlimit="10" width="0" height="85.6"/>
		<rect x="298.8" y="320.3" fill="#030304" stroke="#030304" stroke-width="3" stroke-miterlimit="10" width="3" height="85.6"/>
	</g>
	<g>
		<rect x="302.8" fill="#FFFFFF" stroke="#030304" stroke-width="3" stroke-miterlimit="10" width="0" height="82.8"/>
		<polygon fill="#030304" stroke="#030304" stroke-width="3" stroke-miterlimit="10" points="301.3,86.5 301.3,82.9 301.3,-1.5 
			304.4,-1.5 304.4,0 304.4,83.5 		"/>
	</g>
	<g>
		<polygon fill="#FFFFFF" stroke="#030304" stroke-width="3" stroke-miterlimit="10" points="151.6,561.1 188.7,598.6 193.4,598.6 
			154,558.7 		"/>
		<path fill="#030304" stroke="#030304" stroke-width="3" stroke-miterlimit="10" d="M197.1,600.1h-9l-38.6-39l4.5-4.5L197.1,600.1z
			 M189.3,597.1h0.5L154,560.9l-0.2,0.3L189.3,597.1z"/>
	</g>
	<g>
		<polygon fill="#FFFFFF" stroke="#030304" stroke-width="3" stroke-miterlimit="10" points="3.4,411.3 149.3,558.7 151.6,556.3 
			5.3,408.5 3,408.5 3,538.6 67.4,598.6 72.3,598.6 3.4,534.4 		"/>
		<path fill="#030304" stroke="#030304" stroke-width="3" stroke-miterlimit="10" d="M76.1,600.1h-9.4l-0.4-0.4L1.5,539.2V406.9h4.5
			l0.4,0.4l147.4,148.9l-4.5,4.5L4.9,415v118.7L76.1,600.1z M68,597.1h0.5l-64-59.6v0.5L68,597.1z M4.5,410.3L4.5,410.3l144.8,146.3
			l0.2-0.3L4.7,410H4.5V410.3z"/>
	</g>
	<g>
		<path fill="#FFFFFF" stroke="#030304" stroke-width="3" stroke-miterlimit="10" d="M1.1,405.7c-0.2,0.1-0.4,0.3-0.6,0.4
			c-0.3,0.3-0.4,0.7-0.4,1.1c0,0,0,0,0,0v127.9c0,0.4,0.2,0.8,0.4,1.1v-129c0-0.7,0.6-1.2,1.3-1.2h1.1
			C2.3,405.6,1.7,405.4,1.1,405.7z"/>
		<path fill="#030304" stroke="#030304" stroke-width="3" stroke-miterlimit="10" d="M1.9,540.1l-2.6-2.9c-0.5-0.6-0.8-1.3-0.8-2.1
			V407l0-0.1c0.1-0.7,0.3-1.3,0.8-1.9c0.3-0.4,0.7-0.7,1.2-0.8c1.1-0.4,2.4-0.2,3.3,0.6l3.1,2.7H1.9V540.1z"/>
	</g>
	<g>
		<path fill="#FFFFFF" stroke="#030304" stroke-width="3" stroke-miterlimit="10" d="M303.3,407.3L303.3,407.3
			c0-0.4-0.2-0.8-0.4-1.1v84.6l0.4-0.4V407.3z"/>
		<path fill="#030304" stroke="#030304" stroke-width="3" stroke-miterlimit="10" d="M301.3,494.4v-92.2l2.6,3
			c0.5,0.6,0.8,1.3,0.8,2.1v83.6L301.3,494.4z"/>
	</g>
	<g>
		<path fill="#FFFFFF" stroke="#030304" stroke-width="3" stroke-miterlimit="10" d="M299.9,494.4c0-0.4,0.2-0.8,0.4-1.1v-84.8H298
			L151.6,556.3l-2.4,2.4l-39.4,39.8h4.7l37.1-37.4l2.4-2.4l145.9-147.4v123.1L231,598.6h4.9l64-59.6V494.4z"/>
		<path fill="#030304" stroke="#030304" stroke-width="3" stroke-miterlimit="10" d="M236.5,600.1h-9.4l71.2-66.3V415L115.2,600.1
			h-9l191.1-193.1h4.5v86.9l-0.4,0.4c0,0,0,0.1,0,0.1v45.3l-0.5,0.4L236.5,600.1z M234.8,597.1h0.5l63-58.7v-0.5L234.8,597.1z
			 M113.5,597.1h0.5l184.9-186.8V410h-0.2L113.5,597.1z"/>
	</g>
	<g>
		<path fill="#FFFFFF" stroke="#030304" stroke-width="3" stroke-miterlimit="10" d="M3,408.5h2.3H298h2.3v84.8c0,0,0,0,0,0V406h0
			h-2.5H5.5H3H2.8H1.7c-0.7,0-1.3,0.6-1.3,1.2v129v62.4H3v-60V408.5z"/>
		<path fill="#030304" stroke="#030304" stroke-width="3" stroke-miterlimit="10" d="M4.5,600.1h-5.5V407.2c0-1.5,1.2-2.8,2.8-2.8
			h300.1l0,89.2l-0.4,0.6l-2.6,2.6V410H4.5V600.1z"/>
	</g>
	<g>
		<polygon fill="#FFFFFF" stroke="#030304" stroke-width="3" stroke-miterlimit="10" points="451.5,456.6 394.2,403.2 391.8,405.6 
			449,458.9 		"/>
		<path fill="#030304" stroke="#030304" stroke-width="3" stroke-miterlimit="10" d="M449,461l-59.4-55.3l4.5-4.5l59.6,55.5L449,461
			z M394,405.5l55.1,51.3l0.3-0.2l-55.1-51.3L394,405.5z"/>
	</g>
	<g>
		<path fill="#FFFFFF" stroke="#030304" stroke-width="3" stroke-miterlimit="10" d="M299.9,191.1c0,0.1,0,0.2,0,0.3v107.5v4.8v15.5
			c0,0.4,0.2,0.8,0.4,1.1c0,0,0,0,0,0V191.8C300.1,191.6,300,191.4,299.9,191.1z"/>
		<path fill="#030304" stroke="#030304" stroke-width="3" stroke-miterlimit="10" d="M301.8,324.3l-2.6-2.9
			c-0.5-0.6-0.8-1.3-0.8-2.1V191.3c0-0.2,0-0.4,0.1-0.5l1.5-7.1l1.5,7.1l0.4,0.4l0,0.6V324.3z"/>
	</g>
	<g>
		<polygon fill="#FFFFFF" stroke="#030304" stroke-width="3" stroke-miterlimit="10" points="511.3,400.9 453.9,342.9 451.5,345.3 
			508.9,403.2 		"/>
		<path fill="#030304" stroke="#030304" stroke-width="3" stroke-miterlimit="10" d="M508.8,405.3l-59.4-60l4.5-4.5l59.6,60.2
			L508.8,405.3z M453.6,345.3l55.3,55.8l0.3-0.2L453.9,345L453.6,345.3z"/>
	</g>
	<g>
		<polygon fill="#FFFFFF" stroke="#030304" stroke-width="3" stroke-miterlimit="10" points="511.2,405.6 599.8,495 599.8,490.2 
			513.7,403.3 		"/>
		<path fill="#030304" stroke="#030304" stroke-width="3" stroke-miterlimit="10" d="M601.3,498.7l-92.2-93.2l4.7-4.4l87.5,88.4
			V498.7z M513.4,405.6l84.8,85.7v-0.5l-84.6-85.5L513.4,405.6z"/>
	</g>
	<g>
		<polygon fill="#FFFFFF" stroke="#030304" stroke-width="3" stroke-miterlimit="10" points="389.3,403.3 391.7,400.9 303.3,318.5 
			303.3,303 303.3,195.5 449.1,342.9 451.5,340.5 305.2,192.6 302.8,192.6 302.8,322.7 303.3,323.1 		"/>
		<path fill="#030304" stroke="#030304" stroke-width="3" stroke-miterlimit="10" d="M389.4,405.4l-88-82V191.1h4.5l0.4,0.4
			l147.4,148.9l-4.5,4.5L304.8,199.1v118.7l89.1,83L389.4,405.4z M304.4,322.1l84.9,79.1l0.2-0.2l-85.2-79.4V322.1z M304.4,194.4
			L304.4,194.4l144.8,146.3l0.2-0.3L304.6,194.1h-0.2V194.4z"/>
	</g>
	<g>
		<polygon fill="#FFFFFF" stroke="#030304" stroke-width="3" stroke-miterlimit="10" points="602.7,538.9 602.7,598.6 603.2,598.6 
			603.2,539.3 		"/>
		<polygon fill="#030304" stroke="#030304" stroke-width="3" stroke-miterlimit="10" points="604.7,600.1 601.2,600.1 601.2,535.4 
			604.7,538.6 		"/>
	</g>
	<g>
		<path fill="#FFFFFF" stroke="#030304" stroke-width="3" stroke-miterlimit="10" d="M599.8,594.7L454,458.9l-2.5,2.3l146.1,136.1
			h2.5v-60.8c-0.3-0.3-0.4-0.7-0.4-1.1V594.7z"/>
		<path fill="#030304" stroke="#030304" stroke-width="3" stroke-miterlimit="10" d="M601.7,598.8h-4.6L449.3,461.2l4.7-4.4
			l144.3,134.4v-55.8h3c0,0,0,0.1,0,0.1l0.4,0.4V598.8z M598.3,595.8h0.4v-0.1L454,461l-0.3,0.2L598.3,595.8z"/>
	</g>
	<g>
		<path fill="#FFFFFF" stroke="#030304" stroke-width="3" stroke-miterlimit="10" d="M603.2,191.3c0-0.1,0-0.2,0-0.3
			c-0.1,0.3-0.2,0.6-0.4,0.8v107.8l0.4-0.4V191.3z"/>
		<path fill="#030304" stroke="#030304" stroke-width="3" stroke-miterlimit="10" d="M601.2,303.3V191.2l0.4-0.4l1.4-7.7l1.6,7.6
			c0,0.2,0.1,0.4,0.1,0.6v108.5L601.2,303.3z"/>
	</g>
	<g>
		<path fill="#FFFFFF" stroke="#030304" stroke-width="3" stroke-miterlimit="10" d="M300.3,493.2
			C300.3,493.2,300.3,493.2,300.3,493.2c-0.3,0.3-0.4,0.7-0.4,1.1V539v59.6h0.4V493.2z"/>
		<path fill="#030304" stroke="#030304" stroke-width="3" stroke-miterlimit="10" d="M301.8,600.1h-3.5V494.4c0-0.7,0.3-1.5,0.7-2
			l2.7-4.1V600.1z"/>
	</g>
	<g>
		<path fill="#FFFFFF" stroke="#030304" stroke-width="3" stroke-miterlimit="10" d="M454,458.9l57.2-53.3l2.5-2.3l86.1-80.2v-19.8
			c0-0.4,0.2-0.8,0.4-1.1V192.6h-2.3L451.5,340.5l-2.4,2.4l-57.4,58l-2.4,2.4l-86.1,87l-0.4,0.4v106.6h2.5l146.1-136.1L454,458.9z
			 M303.3,495l88.5-89.5l2.4-2.4l57.3-57.9l2.4-2.4l145.9-147.4v123l-88.4,82.4l-2.5,2.3l-57.3,53.4l-2.5,2.3L303.3,594.7V495z"/>
		<path fill="#030304" stroke="#030304" stroke-width="3" stroke-miterlimit="10" d="M306,598.8h-4.6V490.1l295.9-299h4.5v111.7
			l-0.4,0.4c0,0,0,0.1,0,0.1v20.5L452.6,462.3L306,598.8z M304.4,595.8h0.4l293.5-273.4V322L304.4,595.8L304.4,595.8z M304.8,495.7
			v95.5l293.5-273.3V199.1L304.8,495.7z M304.4,491.3v0.5l294.3-297.4v-0.3h-0.2L304.4,491.3z"/>
	</g>
	<g>
		<path fill="#FFFFFF" stroke="#030304" stroke-width="3" stroke-miterlimit="10" d="M597.7,597.3H305.4h-2.5V490.7v-84.6v-83.4
			V192.6h2.3h292.7h2.3v109.6c0,0,0,0,0,0V192H302.7c-0.3,0.3-0.7,0.4-1.1,0.4c-0.2,0-0.5,0-0.7-0.1c-0.2-0.1-0.4-0.3-0.6-0.4v128.5
			V406v87.3v105.3h299.9v-1.2H597.7z"/>
		<path fill="#030304" stroke="#030304" stroke-width="3" stroke-miterlimit="10" d="M601.7,600.1H298.8V187.9l2.6,2.9l0.1,0.1
			c0,0,0.1,0,0.1-0.1l0.4-0.4h299.6v112.3l-3,3.9l0-4.4V194.1H304.4v401.7h297.3V600.1z"/>
	</g>
	<g>
		<polygon fill="#FFFFFF" stroke="#030304" stroke-width="3" stroke-miterlimit="10" points="451.5,48.8 399.2,0 394.2,0 449,51.1 
					"/>
		<path fill="#030304" stroke="#030304" stroke-width="3" stroke-miterlimit="10" d="M449,53.1L390.4-1.5h9.4l54,50.3L449,53.1z
			 M398.1,1.5L449,49l0.3-0.2L398.6,1.5H398.1z"/>
	</g>
	<g>
		<path fill="#FFFFFF" stroke="#030304" stroke-width="3" stroke-miterlimit="10" d="M599.8,186.8L454,51.1l-2.5,2.3l146.1,136.1
			h2.5v-60.2c-0.3-0.3-0.4-0.7-0.4-1.1V82.4L518.2,0h-4.7l86.3,87.2V186.8z"/>
		<path fill="#030304" stroke="#030304" stroke-width="3" stroke-miterlimit="10" d="M601.7,191h-4.6l-0.4-0.4L449.3,53.4L454,49
			l1,1l143.2,133.4V87.8L509.8-1.5h9l82.4,83.3v46.4c0,0,0,0.1,0,0.1l0.4,0.4V191z M598.2,188h0.4v-0.1L454,53.1l-0.3,0.2L598.2,188
			z M517.1,1.5l81.2,82V83L517.6,1.5H517.1z"/>
	</g>
	<g>
		<path fill="#FFFFFF" stroke="#030304" stroke-width="3" stroke-miterlimit="10" d="M603.2,190.7v-58.7l-0.4-0.4v60.1
			c0.2-0.2,0.3-0.5,0.4-0.8C603.1,190.9,603.2,190.8,603.2,190.7z"/>
		<path fill="#030304" stroke="#030304" stroke-width="3" stroke-miterlimit="10" d="M601.2,195.8v-67.6l3.5,3.2v59.3
			c0,0.2,0,0.4-0.1,0.5c-0.1,0.6-0.4,1.1-0.7,1.5L601.2,195.8z"/>
	</g>
	<g>
		<polygon fill="#FFFFFF" stroke="#030304" stroke-width="3" stroke-miterlimit="10" points="302.8,82.8 302.8,82.9 302.8,189.5 
			305.4,189.5 451.5,53.4 454,51.1 508.8,0 503.9,0 451.5,48.8 449,51.1 303.3,186.8 303.3,127.9 303.3,87.2 303.3,87.2 389.6,0 
			384.8,0 303.3,82.4 		"/>
		<path fill="#030304" stroke="#030304" stroke-width="3" stroke-miterlimit="10" d="M306,191h-4.6V82.2l0.9-0.9l82-82.9h9
			l-88.4,89.3v95.5L503.3-1.5h9.4L306,191z M304.4,188h0.4L505,1.5h-0.5L304.4,188L304.4,188z M304.4,83.5V84L386,1.5h-0.5
			L304.4,83.5z"/>
	</g>
	<g>
		<path fill="#FFFFFF" stroke="#030304" stroke-width="3" stroke-miterlimit="10" d="M300.3,190.7V85.4c-0.3,0.3-0.4,0.7-0.4,1.1
			c0,0,0,0,0,0.1v40.6v4.6v59c0,0.1,0,0.2,0,0.3c0.1,0.3,0.2,0.6,0.4,0.8c0.2,0.2,0.4,0.3,0.6,0.4c0.2,0.1,0.4,0.1,0.7,0.1
			c0.4,0,0.8-0.2,1.1-0.4h-1.1C300.9,192,300.3,191.4,300.3,190.7z"/>
		<path fill="#030304" stroke="#030304" stroke-width="3" stroke-miterlimit="10" d="M301.6,193.9c-0.4,0-0.9-0.1-1.3-0.3
			c-0.4-0.2-0.8-0.4-1.1-0.8c-0.4-0.4-0.6-0.9-0.8-1.5c0-0.2-0.1-0.4-0.1-0.6l0-104.4c0-0.7,0.3-1.4,0.8-2l2.6-2.9v109h4.9l-3,2.6
			C303.1,193.6,302.4,193.9,301.6,193.9z"/>
	</g>
	<g>
		<path fill="#FFFFFF" stroke="#030304" stroke-width="3" stroke-miterlimit="10" d="M300.3,85.4v105.3c0,0.7,0.6,1.2,1.3,1.2h1.1
			h297.5v-62.7c0,0,0,0,0,0v60.2h-2.5H305.4h-2.5V82.9V0h-2.5v1.2V85.4z"/>
		<path fill="#030304" stroke="#030304" stroke-width="3" stroke-miterlimit="10" d="M601.7,193.5H301.6c-1.5,0-2.8-1.2-2.8-2.8
			V-1.5h5.5V188h294.3v-62.8l3,3.6V193.5z"/>
	</g>
	<g>
		<polygon fill="#FFFFFF" stroke="#030304" stroke-width="3" stroke-miterlimit="10" points="691.7,214.5 748.9,267.9 751.4,265.6 
			694.1,212.1 		"/>
		<path fill="#030304" stroke="#030304" stroke-width="3" stroke-miterlimit="10" d="M748.9,269.9l-59.4-55.3l4.5-4.5l59.6,55.5
			L748.9,269.9z M693.9,214.5l55.1,51.3l0.3-0.2l-55.1-51.3L693.9,214.5z"/>
	</g>
	<g>
		<polygon fill="#FFFFFF" stroke="#030304" stroke-width="3" stroke-miterlimit="10" points="751.4,154.2 808.7,212.1 811.2,209.8 
			753.8,151.8 		"/>
		<path fill="#030304" stroke="#030304" stroke-width="3" stroke-miterlimit="10" d="M808.7,214.2l-59.4-60l4.5-4.5l59.6,60.2
			L808.7,214.2z M753.5,154.2l55.3,55.8l0.3-0.2L753.8,154L753.5,154.2z"/>
	</g>
	<g>
		<path fill="#FFFFFF" stroke="#030304" stroke-width="3" stroke-miterlimit="10" d="M899.6,403.6L753.9,267.9l-2.5,2.3l146.1,136.1
			h2.5v-85.6c-0.3-0.3-0.4-0.7-0.4-1.1V403.6z"/>
		<path fill="#030304" stroke="#030304" stroke-width="3" stroke-miterlimit="10" d="M901.6,407.8h-4.6l-0.4-0.4L749.2,270.2
			l4.7-4.4l144.3,134.4v-80.6h3c0,0,0,0.1,0,0.1l0.4,0.4V407.8z M898.1,404.8h0.4v-0.1L753.9,269.9l-0.3,0.2L898.1,404.8z"/>
	</g>
	<g>
		<path fill="#FFFFFF" stroke="#030304" stroke-width="3" stroke-miterlimit="10" d="M903,407.6C903,407.5,903,407.5,903,407.6
			l0-84.1l-0.4-0.4v83.4C902.9,406.7,903,407.1,903,407.6L903,407.6z"/>
		<path fill="#030304" stroke="#030304" stroke-width="3" stroke-miterlimit="10" d="M904.5,407.9l-1.4-0.3l-1.6,0c0,0,0,0-0.1-0.1
			l-0.4-0.4v-87.5l3.5,3.2L904.5,407.9z"/>
	</g>
	<g>
		<path fill="#FFFFFF" stroke="#030304" stroke-width="3" stroke-miterlimit="10" d="M599.8,82.4v45.8c0,0.4,0.2,0.8,0.4,1.1
			c0,0,0,0,0,0V0.3c0-0.1,0-0.2,0.1-0.3h-0.5c0,0.1,0,0.2,0,0.3V82.4z"/>
		<path fill="#030304" stroke="#030304" stroke-width="3" stroke-miterlimit="10" d="M601.7,133.8l-2.7-3.6
			c-0.5-0.6-0.8-1.3-0.8-2.1V0.3c0-0.2,0-0.4,0.1-0.5l0.3-1.2l1.7-0.1h2l-0.5,1.9l0,0V133.8z M601.3,0.4l0.4,0.1c0,0,0-0.1,0-0.1
			L601.3,0.4L601.3,0.4z M600.6,0.2l0.7,0.2c0,0,0-0.1,0-0.1L600.6,0.2z"/>
	</g>
	<g>
		<polygon fill="#FFFFFF" stroke="#030304" stroke-width="3" stroke-miterlimit="10" points="689.2,212.2 691.6,209.8 603.2,127.5 
			603.2,4.4 749,151.8 751.4,149.4 605.1,1.5 602.7,1.5 602.7,131.7 603.2,132.1 		"/>
		<path fill="#030304" stroke="#030304" stroke-width="3" stroke-miterlimit="10" d="M689.3,214.3l-88-82V0h4.5l0.4,0.4l147.4,148.9
			L749,154L604.7,8.1v118.7l89.1,83L689.3,214.3z M604.2,131l84.9,79.1l0.2-0.2l-85.2-79.4V131z M604.2,3.4L604.2,3.4L749,149.7
			l0.2-0.3L604.4,3.1h-0.2V3.4z"/>
	</g>
	<g>
		<polygon fill="#FFFFFF" stroke="#030304" stroke-width="3" stroke-miterlimit="10" points="811.1,214.5 899.6,304 899.6,299.2 
			813.6,212.2 		"/>
		<path fill="#030304" stroke="#030304" stroke-width="3" stroke-miterlimit="10" d="M901.2,307.7l-92.2-93.2l4.7-4.4l87.5,88.4
			V307.7z M813.3,214.6l84.8,85.7v-0.5l-84.6-85.5L813.3,214.6z"/>
	</g>
	<g>
		<path fill="#FFFFFF" stroke="#030304" stroke-width="3" stroke-miterlimit="10" d="M903,87.5L903,87.5l0,40.7c0,0,0,0,0,0V87.5z"
			/>
		<polygon fill="#030304" stroke="#030304" stroke-width="3" stroke-miterlimit="10" points="904.5,128.4 901.5,128.2 901.5,86.9 
			904.6,83.9 904.6,128.3 		"/>
	</g>
	<g>
		<path fill="#FFFFFF" stroke="#030304" stroke-width="3" stroke-miterlimit="10" d="M902.6,0.3v82.8l0.4-0.4V0.3c0-0.1,0-0.2,0-0.3
			h-0.4L902.6,0.3C902.6,0.3,902.6,0.3,902.6,0.3z"/>
		<path fill="#030304" stroke="#030304" stroke-width="3" stroke-miterlimit="10" d="M901.1,86.8l0-88.3h3.2l0.2,1.2
			c0,0.2,0.1,0.4,0.1,0.6v83L901.1,86.8z"/>
	</g>
	<g>
		<path fill="#FFFFFF" stroke="#030304" stroke-width="3" stroke-miterlimit="10" d="M599.8,323.1v84.4c0-0.4,0.2-0.8,0.4-1.1V302.2
			c0,0,0,0,0,0c-0.3,0.3-0.4,0.7-0.4,1.1V323.1z"/>
		<path fill="#030304" stroke="#030304" stroke-width="3" stroke-miterlimit="10" d="M601.3,407.5h-3V303.3c0-0.8,0.3-1.5,0.8-2.1
			l2.7-3.6l0,4.5V407L601.3,407.5z"/>
	</g>
	<g>
		<path fill="#FFFFFF" stroke="#030304" stroke-width="3" stroke-miterlimit="10" d="M753.9,267.9l57.2-53.3l2.5-2.3l86.1-80.2v-4.6
			l-88.4,82.4l-2.5,2.3l-57.3,53.4l-2.5,2.3L603.2,403.6V304l88.5-89.5l2.4-2.4l57.3-57.9l2.4-2.4L899.6,4.4v82.4
			c0-0.4,0.2-0.8,0.4-1.1V1.5h-2.3L751.4,149.4l-2.4,2.4l-57.4,58l-2.4,2.4l-86.1,87l-0.4,0.4v106.6h2.5l146.1-136.1L753.9,267.9z"
			/>
		<path fill="#030304" stroke="#030304" stroke-width="3" stroke-miterlimit="10" d="M605.9,407.8h-4.6V299L897.1,0h4.5v86.3
			l-0.4,0.4c0,0,0,0.1,0,0.1l-3,0V8.1L604.7,304.6v95.5L901.1,124v8.7L605.9,407.8z M604.2,404.8h0.4l293.4-273.3V131L604.2,404.8
			L604.2,404.8z M604.2,300.3v0.5L898.6,3.4l0-0.3h-0.2L604.2,300.3z"/>
	</g>
	<g>
		<path fill="#FFFFFF" stroke="#030304" stroke-width="3" stroke-miterlimit="10" d="M600.2,129.3V192v110.2v104.2
			c0.2-0.2,0.4-0.4,0.6-0.4c0.6-0.2,1.3-0.1,1.8,0.3h0.1V299.6V191.8v-60.1V1.5h2.3h292.7h2.3V0H600.3c0,0.1-0.1,0.2-0.1,0.3V129.3z
			"/>
		<path fill="#030304" stroke="#030304" stroke-width="3" stroke-miterlimit="10" d="M598.8,410.3l-0.1-3.9V0.3
			c0-0.3,0.1-0.5,0.1-0.7l0.3-1.1l1.2-0.1h301.3v4.6H604.2v404.7H602l-0.4-0.4c0,0-0.1-0.1-0.1-0.1L598.8,410.3z"/>
	</g>
	<g>
		<path fill="#FFFFFF" stroke="#030304" stroke-width="3" stroke-miterlimit="10" d="M902.6,0.3C902.6,0.3,902.6,0.3,902.6,0.3
			l0,82.9l0,0V0.3z"/>
		<polygon fill="#030304" stroke="#030304" stroke-width="3" stroke-miterlimit="10" points="901.1,86.8 901.1,83.2 901.1,0.3 
			902.6,0.3 904,-0.2 904.1,0.1 904.1,0.3 904.1,83.8 		"/>
	</g>
	<g>
		<polygon fill="#FFFFFF" stroke="#030304" stroke-width="3" stroke-miterlimit="10" points="751.4,561.4 788.2,598.6 792.9,598.6 
			753.8,559 		"/>
		<path fill="#030304" stroke="#030304" stroke-width="3" stroke-miterlimit="10" d="M796.5,600.1h-9l-38.3-38.7l4.5-4.5
			L796.5,600.1z M788.8,597.1h0.5l-35.5-35.9l-0.2,0.3L788.8,597.1z"/>
	</g>
	<g>
		<polygon fill="#FFFFFF" stroke="#030304" stroke-width="3" stroke-miterlimit="10" points="603.2,494.4 603.2,411.6 749,559 
			751.4,556.6 605.1,408.8 602.7,408.8 602.7,538.9 603.2,539.3 666.8,598.6 671.7,598.6 603.2,534.7 		"/>
		<path fill="#030304" stroke="#030304" stroke-width="3" stroke-miterlimit="10" d="M675.6,600.1h-9.4l-0.4-0.4l-64.5-60.1V407.3
			h4.5l0.4,0.4l147.4,148.9l-4.5,4.5L604.7,415.3V534L675.6,600.1z M667.4,597.1h0.5l-63.7-59.3v0.5L667.4,597.1z M604.2,410.6
			L604.2,410.6L749,556.9l0.2-0.2L604.4,410.3h-0.2V410.6z"/>
	</g>
	<g>
		<path fill="#FFFFFF" stroke="#030304" stroke-width="3" stroke-miterlimit="10" d="M600.8,406c-0.2,0.1-0.4,0.3-0.6,0.4
			c-0.3,0.3-0.4,0.7-0.4,1.1c0,0,0,0,0,0v82.7v4.8v40.4c0,0.4,0.2,0.8,0.4,1.1v-129c0-0.7,0.6-1.2,1.3-1.2h1.1
			C602.1,405.9,601.4,405.7,600.8,406z"/>
		<path fill="#030304" stroke="#030304" stroke-width="3" stroke-miterlimit="10" d="M601.7,540.4l-2.6-2.9
			c-0.5-0.6-0.8-1.3-0.8-2.1l0-128.1c0-0.7,0.3-1.4,0.8-1.9c0.3-0.4,0.7-0.7,1.2-0.8c1.1-0.4,2.4-0.2,3.3,0.6l3.1,2.7h-4.9V540.4z"
			/>
	</g>
	<g>
		<path fill="#FFFFFF" stroke="#030304" stroke-width="3" stroke-miterlimit="10" d="M903,407.6L903,407.6c0-0.4-0.2-0.8-0.4-1.1
			v1.1V491l0.4-0.4V407.6z"/>
		<path fill="#030304" stroke="#030304" stroke-width="3" stroke-miterlimit="10" d="M901.1,494.7v-92.2l2.6,3
			c0.5,0.6,0.8,1.3,0.8,2.1v83.6L901.1,494.7z"/>
	</g>
	<g>
		<path fill="#FFFFFF" stroke="#030304" stroke-width="3" stroke-miterlimit="10" d="M899.6,494.7c0-0.4,0.2-0.8,0.4-1.1v-84.8h-2.3
			L751.4,556.6L749,559l-39.1,39.5h4.7l36.8-37.1l2.4-2.4l145.9-147.4v123.1l-68.6,63.9h4.9l63.6-59.3V494.7z"/>
		<path fill="#030304" stroke="#030304" stroke-width="3" stroke-miterlimit="10" d="M836.6,600.1h-9.4l70.9-66V415.3L715.3,600.1
			h-9l190.8-192.8h4.5v86.9l-0.4,0.4c0,0,0,0.1,0,0.1V540L836.6,600.1z M834.9,597.1h0.5l62.7-58.4v-0.5L834.9,597.1z M713.5,597.1
			h0.5l184.6-186.5v-0.3h-0.2L713.5,597.1z"/>
	</g>
	<g>
		<path fill="#FFFFFF" stroke="#030304" stroke-width="3" stroke-miterlimit="10" d="M602.7,408.8h2.3h292.7h2.3v84.8c0,0,0,0,0,0
			v-87.3h-2.5H605.3h-2.5h-0.1h-1.1c-0.7,0-1.3,0.6-1.3,1.2v129v60.8v1.2h2.5v-59.7V408.8z"/>
		<path fill="#030304" stroke="#030304" stroke-width="3" stroke-miterlimit="10" d="M604.2,600.1h-5.5V407.5c0-1.5,1.2-2.8,2.8-2.8
			h300.1v89.1l-0.4,0.8l-2.6,1.3v-85.7H604.2V600.1z"/>
	</g>
	<g>
		<path fill="#FFFFFF" stroke="#030304" stroke-width="3" stroke-miterlimit="10" d="M899.6,191.7v107.5v4.8v15.5
			c0,0.4,0.2,0.8,0.4,1.1V192.1c-0.2-0.2-0.3-0.5-0.4-0.8C899.7,191.5,899.6,191.6,899.6,191.7z"/>
		<path fill="#030304" stroke="#030304" stroke-width="3" stroke-miterlimit="10" d="M901.6,324.6l-2.6-2.9
			c-0.5-0.6-0.8-1.3-0.8-2.1V191.7c0-0.2,0-0.4,0.1-0.5l1.5-7.2l1.5,7.1l0.4,0.4l0,0.6V324.6z"/>
	</g>
	<g>
		<path fill="#FFFFFF" stroke="#030304" stroke-width="3" stroke-miterlimit="10" d="M1202.5,493.6v105h0.4V494.7
			C1202.9,494.3,1202.8,493.9,1202.5,493.6z"/>
		<path fill="#030304" stroke="#030304" stroke-width="3" stroke-miterlimit="10" d="M1204.4,600.1h-3.5V489.7l2.6,2.9
			c0.5,0.6,0.8,1.3,0.8,2.1V600.1z"/>
	</g>
	<g>
		<polygon fill="#FFFFFF" stroke="#030304" stroke-width="3" stroke-miterlimit="10" points="989.1,403.6 991.5,401.2 903,318.8 
			903,303.3 903,195.8 1048.9,343.2 1051.3,340.8 904.9,192.9 902.6,192.9 902.6,323 903,323.4 		"/>
		<path fill="#030304" stroke="#030304" stroke-width="3" stroke-miterlimit="10" d="M989.1,405.7l-88-82V191.4h4.5l0.4,0.4
			l147.4,148.9l-4.5,4.5L904.6,199.4v118.7l89.1,83L989.1,405.7z M904.1,322.4l84.9,79.1l0.2-0.2l-85.2-79.4V322.4z M904.1,194.7
			L904.1,194.7L1048.9,341l0.2-0.3L904.3,194.4h-0.2V194.7z"/>
	</g>
	<g>
		<polygon fill="#FFFFFF" stroke="#030304" stroke-width="3" stroke-miterlimit="10" points="1051.3,456.9 993.9,403.5 991.6,405.9 
			1048.8,459.2 		"/>
		<path fill="#030304" stroke="#030304" stroke-width="3" stroke-miterlimit="10" d="M1048.8,461.3l-59.4-55.3l4.5-4.5l59.6,55.5
			L1048.8,461.3z M993.7,405.8l55.1,51.3l0.3-0.2L994,405.6L993.7,405.8z"/>
	</g>
	<g>
		<polygon fill="#FFFFFF" stroke="#030304" stroke-width="3" stroke-miterlimit="10" points="1113.5,403.6 1111,405.9 1199.5,495.3 
			1199.5,595 1053.8,459.2 1051.3,461.5 1197.4,597.6 1200,597.6 1200,491 		"/>
		<path fill="#030304" stroke="#030304" stroke-width="3" stroke-miterlimit="10" d="M1201.5,599.1h-4.6l-0.4-0.4l-147.3-137.2
			l4.7-4.4L1198,591.5V496l-89.2-90.1l4.7-4.4l88,88.9V599.1z M1198,596.1h0.4v-0.1l-144.7-134.8l-0.3,0.2L1198,596.1z
			 M1113.2,405.9l85.3,86.2v-0.5l-85-85.9L1113.2,405.9z"/>
	</g>
	<g>
		<polygon fill="#FFFFFF" stroke="#030304" stroke-width="3" stroke-miterlimit="10" points="1111.1,401.2 1053.7,343.2 
			1051.3,345.6 1108.6,403.5 		"/>
		<path fill="#030304" stroke="#030304" stroke-width="3" stroke-miterlimit="10" d="M1108.6,405.6l-59.4-60l4.5-4.5l59.6,60.2
			L1108.6,405.6z M1053.4,345.6l55.3,55.8l0.3-0.2l-55.3-55.8L1053.4,345.6z"/>
	</g>
	<g>
		<path fill="#FFFFFF" stroke="#030304" stroke-width="3" stroke-miterlimit="10" d="M1202.5,320.7c0.3-0.3,0.4-0.7,0.4-1.1V191.7
			c0-0.1,0-0.2,0-0.3c-0.1,0.3-0.2,0.6-0.4,0.8V320.7z"/>
		<path fill="#030304" stroke="#030304" stroke-width="3" stroke-miterlimit="10" d="M1201,324.6v-133l0.4-0.4l1.4-7.6l1.6,7.6
			c0,0.2,0.1,0.4,0.1,0.6v127.9c0,0.8-0.3,1.5-0.8,2.1L1201,324.6z"/>
	</g>
	<g>
		<path fill="#FFFFFF" stroke="#030304" stroke-width="3" stroke-miterlimit="10" d="M900.1,493.6
			C900.1,493.6,900.1,493.6,900.1,493.6c-0.3,0.3-0.4,0.7-0.4,1.1v44.6v59.3h0.4V493.6z"/>
		<path fill="#030304" stroke="#030304" stroke-width="3" stroke-miterlimit="10" d="M901.6,600.1h-3.5V494.7c0-0.7,0.2-1.4,0.7-1.9
			l2.8-5.5V600.1z"/>
	</g>
	<g>
		<path fill="#FFFFFF" stroke="#030304" stroke-width="3" stroke-miterlimit="10" d="M1053.8,459.2l57.2-53.3l2.5-2.3L1200,323
			V192.9h-2.3l-146.3,147.9l-2.4,2.4l-57.4,58l-2.4,2.4l-86.1,87l-0.4,0.4v106.6h2.5l146.1-136.1L1053.8,459.2z M903,495.3
			l88.5-89.4l2.4-2.4l57.3-57.9l2.4-2.4l145.9-147.4v123.1l-88.4,82.4l-2.5,2.3l-57.3,53.4l-2.5,2.3L903,595V495.3z"/>
		<path fill="#030304" stroke="#030304" stroke-width="3" stroke-miterlimit="10" d="M905.7,599.1h-4.6V490.4l149.1-150.7
			L1197,191.4h4.5v132.3L905.7,599.1z M904.1,596.1h0.4l293.9-273.8v-0.5L904.1,596.1L904.1,596.1z M904.6,496v95.5L1198,318.2
			V199.4L904.6,496z M904.1,491.6v0.5l294.3-297.4v-0.3h-0.2L904.1,491.6L904.1,491.6z"/>
	</g>
	<g>
		<path fill="#FFFFFF" stroke="#030304" stroke-width="3" stroke-miterlimit="10" d="M1202.5,320.7V192.1c-0.2,0.2-0.4,0.3-0.6,0.4
			c-0.2,0.1-0.4,0.1-0.7,0.1c-0.4,0-0.8-0.2-1.1-0.4H902.5c-0.3,0.3-0.7,0.4-1.1,0.4c-0.2,0-0.5,0-0.7-0.1c-0.2-0.1-0.4-0.3-0.6-0.4
			v128.5v85.6v87.3v105h302.4v-105V320.7z M1197.4,597.6H905.1h-2.5V491v-83.5v-1.1V323V192.9h2.3h292.7h2.3V323v168v106.6H1197.4z"
			/>
		<path fill="#030304" stroke="#030304" stroke-width="3" stroke-miterlimit="10" d="M1204,600.1H898.6V188.2l2.6,2.9l0.1,0.1
			c0,0,0.1,0,0.1-0.1l0.4-0.4h298.7l0.4,0.4c0,0,0.1,0.1,0.1,0.1l2.6-3l0.1,3.9V600.1z M904.1,596.1h294.3V194.4H904.1V596.1z"/>
	</g>
	<g>
		<polygon fill="#FFFFFF" stroke="#030304" stroke-width="3" stroke-miterlimit="10" points="1051.3,49.1 998.6,0 993.6,0 
			1048.8,51.4 		"/>
		<path fill="#030304" stroke="#030304" stroke-width="3" stroke-miterlimit="10" d="M1048.8,53.4l-59-55h9.4l54.3,50.6L1048.8,53.4
			z M997.5,1.5l51.3,47.8l0.3-0.2L998,1.5H997.5z"/>
	</g>
	<g>
		<polygon fill="#FFFFFF" stroke="#030304" stroke-width="3" stroke-miterlimit="10" points="1199.5,187.2 1053.8,51.4 1051.3,53.7 
			1197.4,189.8 1200,189.8 1200,83.2 1117.7,0 1112.9,0 1199.5,87.5 		"/>
		<path fill="#030304" stroke="#030304" stroke-width="3" stroke-miterlimit="10" d="M1201.5,191.3h-4.6L1049.1,53.7l4.7-4.4
			L1198,183.7V88.1l-88.7-89.6h9l83.2,84V191.3z M1198,188.3h0.4v-0.1L1053.8,53.4l-0.3,0.2L1198,188.3z M1116.5,1.5l81.9,82.8v-0.5
			L1117,1.5H1116.5z"/>
	</g>
	<g>
		<path fill="#FFFFFF" stroke="#030304" stroke-width="3" stroke-miterlimit="10" d="M1202.5,191c0,0.7-0.6,1.2-1.3,1.2h-1.1
			c0.3,0.3,0.7,0.4,1.1,0.4c0.2,0,0.5,0,0.7-0.1c0.2-0.1,0.4-0.3,0.6-0.4c0.2-0.2,0.3-0.5,0.4-0.8c0-0.1,0-0.2,0-0.3V86.8
			c0-0.4-0.2-0.8-0.4-1.1V191z"/>
		<path fill="#030304" stroke="#030304" stroke-width="3" stroke-miterlimit="10" d="M1201.2,194.2c-0.8,0-1.5-0.3-2.1-0.8l-3-2.6
			h4.9V81.8l2.6,2.9c0.5,0.6,0.8,1.3,0.8,2.1V191c0,0.2,0,0.4-0.1,0.5c-0.1,0.6-0.4,1.1-0.8,1.6c-0.3,0.4-0.7,0.7-1.1,0.8
			C1202.1,194.1,1201.7,194.2,1201.2,194.2z"/>
	</g>
	<g>
		<polygon fill="#FFFFFF" stroke="#030304" stroke-width="3" stroke-miterlimit="10" points="902.6,83.2 902.6,83.2 902.6,189.8 
			905.1,189.8 1051.3,53.7 1053.8,51.4 1108.9,0 1104,0 1051.3,49.1 1048.8,51.4 903,187.2 903,128.2 903,87.5 903,87.5 989.6,0 
			984.9,0 903,82.7 		"/>
		<path fill="#030304" stroke="#030304" stroke-width="3" stroke-miterlimit="10" d="M905.7,191.3h-4.6V82.5l0.9-0.9l82.3-83.2h9
			l-88.7,89.6v95.5L1103.4-1.5h9.4L905.7,191.3z M904.1,188.3h0.4L1105.1,1.5h-0.5L904.1,188.3L904.1,188.3z M904.1,83.8v0.5
			L986,1.5h-0.5L904.1,83.8z"/>
	</g>
	<g>
		<path fill="#FFFFFF" stroke="#030304" stroke-width="3" stroke-miterlimit="10" d="M900.1,191V85.7c-0.3,0.3-0.4,0.7-0.4,1.1
			c0,0,0,0,0,0v40.6v4.6v59c0,0.1,0,0.2,0,0.3c0.1,0.3,0.2,0.6,0.4,0.8c0.2,0.2,0.4,0.3,0.6,0.4c0.2,0.1,0.4,0.1,0.7,0.1
			c0.4,0,0.8-0.2,1.1-0.4h-1.1C900.6,192.3,900.1,191.7,900.1,191z"/>
		<path fill="#030304" stroke="#030304" stroke-width="3" stroke-miterlimit="10" d="M901.3,194.2c-0.4,0-0.9-0.1-1.3-0.3
			c-0.4-0.2-0.8-0.4-1.1-0.8c-0.4-0.4-0.6-0.9-0.8-1.5c0-0.2-0.1-0.4-0.1-0.6l0-104.4c0-0.7,0.3-1.4,0.8-1.9l2.6-2.9v109h4.9l-3,2.6
			C902.9,193.9,902.1,194.2,901.3,194.2z"/>
	</g>
	<g>
		<path fill="#FFFFFF" stroke="#030304" stroke-width="3" stroke-miterlimit="10" d="M900.1,85.7V191c0,0.7,0.6,1.2,1.3,1.2h1.1
			h297.6h1.1c0.7,0,1.3-0.6,1.3-1.2V85.7V0h-2.5v83.2v106.6h-2.5H905.1h-2.5V83.2V0.3V0h-2.5v1.5V85.7z"/>
		<path fill="#030304" stroke="#030304" stroke-width="3" stroke-miterlimit="10" d="M1201.2,193.8H901.3c-1.5,0-2.8-1.2-2.8-2.8
			V-1.5h5.5v189.8h294.3V-1.5h5.5V191C1204,192.6,1202.7,193.8,1201.2,193.8z"/>
	</g>
</g>
</svg>
