<?xml version="1.0" encoding="utf-8"?>
<!-- Generator: Adobe Illustrator 18.1.1, SVG Export Plug-In . SVG Version: 6.00 Build 0)  -->
<svg version="1.1" id="Layer_2" xmlns="http://www.w3.org/2000/svg" xmlns:xlink="http://www.w3.org/1999/xlink" x="0px" y="0px"
	 viewBox="0 0 1200 600" enable-background="new 0 0 1200 600" xml:space="preserve">
<rect opacity="0.8" fill="#37A3D8" width="1200" height="600"/>
<g>
	<g>
		<path fill="#2598C5" stroke="#2799C6" stroke-width="3" stroke-miterlimit="10" d="M474.2,599c0.7,0,1.3-0.4,1.7-0.9h-3.3
			C472.9,598.6,473.5,599,474.2,599z"/>
		<path fill="#2598C5" stroke="#2799C6" stroke-width="3" stroke-miterlimit="10" d="M475.3,572.1c0.5-51.6,1.3-147.7-0.2-158.5
			c-0.8-7.6-5.6-32.2-36.3-32.2c-8-0.1-20.4,2.8-29.1,11.6c-6.8,6.8-10.1,15.8-9.9,26.8c0.6,25.5,9.2,34.8,35.2,37.8
			c-0.4,13.2-0.4,16.9-0.2,29.1l0,1.9c-29.1-3.4-63.4-18.4-66.8-69.6c-0.8-16.6,7-34.9,20.8-48.9c12.7-12.8,28.7-20.2,42.8-19.7
			c0.1,0,0.1,0,0.2,0c17.9-1,42.9,3.5,59.6,19.3c10.3,9.7,15.5,22,15.5,36.5c0,0.8,0,1.4,0,2c0,0.5,0,0.9,0,0.9l0,0
			c0.1,1.2,0.3,1.4,0.9,1.7c0.6,0.3,1.3,0.3,1.9,0c0.6-0.4,0.8-0.5,0.9-1.7l0,0c0-0.1,0-0.5,0-1.3c0-0.6,0-1.4,0-2.3l0-9.7
			c0-8.1,0-19.2,0-30.9c0-17.4,0-48.4,0-60.5c0.2-6.3-2.9-13.2-8.6-18.9c-7.7-7.8-18.8-12-30.4-11.7c-21.8,0.6-33.7,20.1-35.6,34.7
			c-17.7,0.3-23.8,0.1-30.7-0.2c-0.8,0-1.6-0.1-2.5-0.1c15.2-57.6,48-66.7,66.3-66.9c27.1-0.4,44.2,10.1,53.8,18.9
			c11.2,10.3,18.5,24.4,19.5,37.6c0.1,1,1,1.8,2,1.8c1,0,1.9-0.9,1.9-1.9c0.2-11.2,0.9-23.2,1.7-34.8c1.7-27.3,3.3-53-1.8-69.6
			c-7.5-24.6-24.7-28-33.6-28c0,0,0,0-0.1,0V133c34.4,3.6,67.5,35.1,67.5,56.9c0,1.1,0.9,1.9,1.9,1.9s1.9-0.9,1.9-1.9V24.5h16.2
			c1.1,0,1.9-0.9,1.9-1.9s-0.9-1.9-1.9-1.9h-18.2c-1.1,0-1.9,0.9-1.9,1.9v152.2c-3.8-8-10.3-16.2-18.9-23.6
			c-14.9-12.9-33.3-21-50.4-22.2c-0.5,0-1.1,0.1-1.5,0.5s-0.6,0.9-0.6,1.4v36.3c0,0.5,0.2,1.1,0.6,1.4c0.4,0.4,0.9,0.6,1.5,0.5
			c8.8-0.5,24.7,2,31.8,25.2c4.9,15.9,3.3,41.3,1.6,68.2c-0.4,6.7-0.8,13.5-1.2,20.2c-3.5-9.3-9.5-18.3-17.4-25.5
			c-10.1-9.3-28.1-20.4-56.5-20c-34,0.5-59.1,26.1-70.6,72.2c-0.1,0.6,0,1.2,0.3,1.6s0.9,0.8,1.5,0.8c1.8,0.1,3.4,0.1,4.9,0.2
			c7.2,0.3,13.4,0.5,32.6,0.1c1,0,1.8-0.8,1.9-1.8c0.9-10.5,9.9-32.3,32.1-32.9c10.5-0.3,20.5,3.5,27.5,10.5
			c4.9,4.9,7.7,10.9,7.5,16.1c0.1,13.8,0.1,54.6,0,81.1c-2.8-6.9-7.1-13.1-12.9-18.6c-17.6-16.6-43.8-21.4-62.5-20.3
			c-15.2-0.5-32.2,7.3-45.6,20.9c-14.6,14.8-22.7,34.1-21.9,51.9c1.7,26.1,11.5,45.7,28.9,58.3c11.6,8.4,26.2,13.5,43.6,15.2
			c0.6,0.1,1.1-0.1,1.5-0.5c0.4-0.4,0.6-0.9,0.6-1.5l-0.1-4.1c-0.2-12.7-0.2-16.1,0.3-30.7c0-1-0.7-1.9-1.8-2
			c-25.7-2.6-32.9-9.9-33.5-34.2c-0.2-9.8,2.7-17.9,8.7-23.9c7.8-7.9,19-10.5,26.3-10.4c27.4,0,31.8,22,32.5,28.8
			c1.5,10.6,0.6,110.2,0.2,158c-0.1,13.1-0.2,22.6-0.2,26c0,0.4,0.1,0.7,0.3,1h3.3c0.2-0.3,0.3-0.6,0.3-1
			C475.1,594.7,475.2,585.2,475.3,572.1z"/>
	</g>
	<path fill="#2598C5" stroke="#2799C6" stroke-width="3" stroke-miterlimit="10" d="M728.6,572.1c-0.4-47.8-1.3-147.4,0.2-158.1
		c0.7-6.7,5-28.7,32.5-28.7c7.2-0.2,18.4,2.5,26.3,10.4c6,6.1,9,14.1,8.7,23.9c-0.6,24.3-7.8,31.7-33.5,34.2c-1,0.1-1.8,1-1.8,2
		c1,18.2,1.7,24.5,2.5,31.8l0.4,3.2c0.1,1.1,1,1.8,2.1,1.7c29.8-2.9,66.2-18,69.9-73.5c0.9-17.7-7.3-37.1-21.9-51.9
		c-13.4-13.6-30.4-21.4-45.6-20.9c-19.1-1.1-45.6,3.7-62.9,20.1c-5.5,5.2-9.6,11.2-12.4,17.9c0-2.6,0-5.2,0-8
		c-0.1-27.7-0.1-62.2,0-72.3c-0.2-5.1,2.6-11.1,7.5-16c7-7,17-10.9,27.5-10.5c22.2,0.7,31.2,22.5,32.1,32.9c0.1,1,0.9,1.8,1.9,1.8
		c14.2,0,21.6-0.1,27.4-0.2c3.6-0.1,6.5-0.1,10-0.1c0.6,0,1.2-0.3,1.5-0.7c0.4-0.5,0.5-1.1,0.4-1.7c-11.5-46.1-36.6-71.7-70.6-72.2
		c-0.5,0-0.9,0-1.4,0c-27.6,0-45.1,10.8-55.1,20c-7.8,7.2-13.8,16.2-17.4,25.5c-0.3-6.7-0.7-13.5-1.2-20.2
		c-1.7-26.9-3.3-52.3,1.6-68.2c7.1-23.2,22.9-25.8,31.8-25.2c0.5,0,1.1-0.2,1.5-0.5s0.6-0.9,0.6-1.4v-36.3c0-0.5-0.2-1.1-0.6-1.4
		c-0.4-0.4-0.9-0.6-1.5-0.5c-17.1,1.2-35.5,9.3-50.4,22.2c-8.6,7.4-15.1,15.6-18.9,23.6V22.6c0-1.1-0.9-1.9-1.9-1.9h-18.2
		c-1.1,0-1.9,0.9-1.9,1.9s0.9,1.9,1.9,1.9h16.2V190c0,1.1,0.9,1.9,1.9,1.9s1.9-0.9,1.9-1.9c0-21.8,33-53.3,67.5-56.9v32.2
		c-8.9,0-26.1,3.4-33.7,28c-5.1,16.6-3.5,42.3-1.8,69.6c0.7,11.6,1.5,23.6,1.7,34.8c0,1,0.8,1.9,1.9,1.9c1,0,1.9-0.8,2-1.8
		c1-13.3,8.3-27.3,19.5-37.6c9.6-8.8,26.8-19.3,53.8-18.9c18.3,0.2,51.1,9.3,66.3,66.8c-2.5,0-4.8,0.1-7.5,0.1
		c-5.6,0.1-12.6,0.2-25.6,0.2c-2-14.6-13.9-34.1-35.6-34.7c-11.6-0.3-22.6,3.9-30.4,11.7c-5.7,5.7-8.8,12.6-8.6,18.8
		c-0.1,10,0,44.5,0,72.3c0,10.4,0,20,0,26.2c-0.1,1.1-0.1,2.3-0.1,3.5c0,1.3,0,2.3,0,2.9c0,0.2,0,0.4,0,0.7c0,0,0,0.1,0,0.1l0,0
		c0.1,1,0.4,2.1,1.9,2.1c0,0,0,0,0,0c1.4,0,1.8-0.6,1.9-2.1l0,0c0,0,0-0.2,0-0.4c0-0.6,0-1.2,0-2.1c0-1.2,0-2.7,0-4.5
		c0.6-13.2,5.7-24.5,15-33.4c16.4-15.7,41.8-20.1,60.1-19.1c0.1,0,0.1,0,0.2,0c14.1-0.5,30.1,6.9,42.8,19.7
		c13.8,14,21.6,32.3,20.8,48.9c-3.4,51.6-36.5,66.5-64.5,69.7l-0.1-1.3c-0.8-7-1.4-13.1-2.3-29.7c25.9-3,34.5-12.4,35.2-37.8
		c0.3-10.9-3.1-19.9-9.9-26.8c-8.7-8.7-21.1-11.7-29.1-11.6c-30.7,0-35.6,24.7-36.3,32.2c-1.6,10.9-0.7,107-0.2,158.6
		c0.1,11.1,0.2,19.6,0.2,24H474.7c-1.1,0-1.9,0.9-1.9,1.9c0,0.4,0.1,0.7,0.3,1h255.4c0.2-0.3,0.3-0.6,0.3-1
		C728.8,594.6,728.7,585.2,728.6,572.1z"/>
	<g>
		<path fill="#2598C5" stroke="#2799C6" stroke-width="3" stroke-miterlimit="10" d="M508.9,599c0.7,0,1.3-0.4,1.7-0.9h-3.3
			C507.6,598.6,508.2,599,508.9,599z"/>
		<path fill="#2598C5" stroke="#2799C6" stroke-width="3" stroke-miterlimit="10" d="M510.8,406c0-1.1-0.9-1.9-1.9-1.9
			s-1.9,0.9-1.9,1.9v192c0,0.4,0.1,0.7,0.3,1h3.3c0.2-0.3,0.3-0.6,0.3-1V406z"/>
	</g>
	<g>
		<path fill="#2598C5" stroke="#2799C6" stroke-width="3" stroke-miterlimit="10" d="M544.6,599c0.7,0,1.3-0.4,1.7-0.9h-3.3
			C543.2,598.6,543.8,599,544.6,599z"/>
		<path fill="#2598C5" stroke="#2799C6" stroke-width="3" stroke-miterlimit="10" d="M546.5,297.7c0-1.1-0.9-1.9-1.9-1.9
			s-1.9,0.9-1.9,1.9v300.4c0,0.4,0.1,0.7,0.3,1h3.3c0.2-0.3,0.3-0.6,0.3-1V297.7z"/>
	</g>
	<g>
		<path fill="#2598C5" stroke="#2799C6" stroke-width="3" stroke-miterlimit="10" d="M582.2,598c0.7,0,1.3-0.4,1.7-0.9h-3.3
			C580.9,597.6,581.5,598,582.2,598z"/>
		<path fill="#2598C5" stroke="#2799C6" stroke-width="3" stroke-miterlimit="10" d="M584.1,190c0-1.1-0.9-1.9-1.9-1.9
			s-1.9,0.9-1.9,1.9v408.1c0,0.4,0.1,0.7,0.3,1h3.3c0.2-0.3,0.3-0.6,0.3-1V190z"/>
	</g>
	<g>
		<path fill="#2598C5" stroke="#2799C6" stroke-width="3" stroke-miterlimit="10" d="M617.8,598c0.7,0,1.3-0.4,1.7-0.9h-3.3
			C616.5,597.6,617.1,598,617.8,598z"/>
		<path fill="#2598C5" stroke="#2799C6" stroke-width="3" stroke-miterlimit="10" d="M619.8,190c0-1.1-0.9-1.9-1.9-1.9
			s-1.9,0.9-1.9,1.9v408.1c0,0.4,0.1,0.7,0.3,1h3.3c0.2-0.3,0.3-0.6,0.3-1V190z"/>
	</g>
	<g>
		<path fill="#2598C5" stroke="#2799C6" stroke-width="3" stroke-miterlimit="10" d="M655.4,598c0.7,0,1.3-0.4,1.7-0.9h-3.3
			C654.1,597.6,654.7,598,655.4,598z"/>
		<path fill="#2598C5" stroke="#2799C6" stroke-width="3" stroke-miterlimit="10" d="M657.4,297.7c0-1.1-0.9-1.9-1.9-1.9
			s-1.9,0.9-1.9,1.9v300.4c0,0.4,0.1,0.7,0.3,1h3.3c0.2-0.3,0.3-0.6,0.3-1V297.7z"/>
	</g>
	<g>
		<path fill="#2598C5" stroke="#2799C6" stroke-width="3" stroke-miterlimit="10" d="M690.9,598.4c0.4,0,0.7,0.9,1,0.7h-2
			C690.2,599.2,690.5,598.4,690.9,598.4z"/>
		<path fill="#2598C5" stroke="#2799C6" stroke-width="3" stroke-miterlimit="10" d="M692.9,597.4V408.8c0-1.1-0.9-1.9-1.9-1.9
			s-1.9,0.9-1.9,1.9v188.6c0,0.7,0.4,0.3,0.9,0.6h2C692.5,597.7,692.9,598.1,692.9,597.4z"/>
	</g>
</g>
</svg>
