<?xml version="1.0" encoding="utf-8"?>
<!-- Generator: Adobe Illustrator 18.1.1, SVG Export Plug-In . SVG Version: 6.00 Build 0)  -->
<svg version="1.1" id="Layer_2" xmlns="http://www.w3.org/2000/svg" xmlns:xlink="http://www.w3.org/1999/xlink" x="0px" y="0px"
	 viewBox="0 0 1200 600" enable-background="new 0 0 1200 600" xml:space="preserve">
<g opacity="0.8">
	<path fill="#FBE25C" stroke="#FFFFFF" stroke-width="3" stroke-miterlimit="10" d="M1190.1,53.5c-3.8,0-7,3.1-7,7V32
		c0-5.5-4.5-10-10-10h-65.8c-5.5,0-10,4.5-10,10v28.4c0-3.9-3.2-7-7-7s-7,3.1-7,7V32c0-5.5-4.5-10-10-10h-65.8c-5.5,0-10,4.5-10,10
		v28.4c0-3.9-3.2-7-7-7s-7,3.1-7,7V32c0-5.5-4.5-10-10-10h-65.8c-5.5,0-10,4.5-10,10v28.4c0-3.9-3.2-7-7-7s-7,3.1-7,7V32
		c0-5.5-4.5-10-10-10h-65.8c-5.5,0-10,4.5-10,10v28.4c0-3.9-3.2-7-7-7s-7,3.1-7,7V32c0-5.5-4.5-10-10-10h-65.8c-5.5,0-10,4.5-10,10
		v28.4c0-3.9-3.2-7-7-7s-7,3.1-7,7V32c0-5.5-4.5-10-10-10H608c-5.5,0-10,4.5-10,10v28.4c0-3.9-3.2-7-7-7s-7,3.1-7,7V32
		c0-5.5-4.5-10-10-10h-65.8c-5.5,0-10,4.5-10,10v28.4c0-3.9-3.2-7-7-7s-7,3.1-7,7V32c0-5.5-4.5-10-10-10h-65.8c-5.5,0-10,4.5-10,10
		v28.4c0-3.9-3.2-7-7-7s-7,3.1-7,7V32c0-5.5-4.5-10-10-10h-65.8c-5.5,0-10,4.5-10,10v28.4c0-3.9-3.2-7-7-7s-7,3.1-7,7V32
		c0-5.5-4.5-10-10-10h-65.8c-5.5,0-10,4.5-10,10v28.4c0-3.9-3.2-7-7-7s-7,3.1-7,7V32c0-5.5-4.5-10-10-10h-65.8c-5.5,0-10,4.5-10,10
		v28.4c0-3.9-3.2-7-7-7s-7,3.1-7,7V32c0-5.5-4.5-10-10-10H9C3.5,22-1,26.5-1,32v71.4c0,5.5,4.5,10,10,10h65.8c5.5,0,13.2,0,17,0
		s11.5,0,17,0h65.8c5.5,0,13.2,0,17,0s11.5,0,17,0h65.8c5.5,0,13.2,0,17,0s11.5,0,17,0h65.8c5.5,0,13.2,0,17,0s11.5,0,17,0h65.8
		c5.5,0,13.2,0,17,0s11.5,0,17,0H574c5.5,0,13.2,0,17,0s11.5,0,17,0h65.8c5.5,0,13.2,0,17,0s11.5,0,17,0h65.8c5.5,0,13.2,0,17,0
		s11.5,0,17,0h65.8c5.5,0,13.2,0,17,0s11.5,0,17,0h65.8c5.5,0,13.2,0,17,0s11.5,0,17,0h65.8c5.5,0,13.2,0,17,0s11.5,0,17,0h65.8
		c5.5,0,13.2,0,17,0s7-3.2,7-7v-46C1197.1,56.6,1193.9,53.5,1190.1,53.5z"/>
	<path fill="#FBE25C" stroke="#FFFFFF" stroke-width="3" stroke-miterlimit="10" d="M1190.1,107.5c-3.8,0-7,3.1-7,7V86.1
		c0-5.5-4.5-10-10-10h-65.8c-5.5,0-10,4.5-10,10v28.4c0-3.9-3.2-7-7-7s-7,3.1-7,7V86.1c0-5.5-4.5-10-10-10h-65.8
		c-5.5,0-10,4.5-10,10v28.4c0-3.9-3.2-7-7-7s-7,3.1-7,7V86.1c0-5.5-4.5-10-10-10h-65.8c-5.5,0-10,4.5-10,10v28.4c0-3.9-3.2-7-7-7
		s-7,3.1-7,7V86.1c0-5.5-4.5-10-10-10h-65.8c-5.5,0-10,4.5-10,10v28.4c0-3.9-3.2-7-7-7s-7,3.1-7,7V86.1c0-5.5-4.5-10-10-10h-65.8
		c-5.5,0-10,4.5-10,10v28.4c0-3.9-3.2-7-7-7s-7,3.1-7,7V86.1c0-5.5-4.5-10-10-10H608c-5.5,0-10,4.5-10,10v28.4c0-3.9-3.2-7-7-7
		s-7,3.1-7,7V86.1c0-5.5-4.5-10-10-10h-65.8c-5.5,0-10,4.5-10,10v28.4c0-3.9-3.2-7-7-7s-7,3.1-7,7V86.1c0-5.5-4.5-10-10-10h-65.8
		c-5.5,0-10,4.5-10,10v28.4c0-3.9-3.2-7-7-7s-7,3.1-7,7V86.1c0-5.5-4.5-10-10-10h-65.8c-5.5,0-10,4.5-10,10v28.4c0-3.9-3.2-7-7-7
		s-7,3.1-7,7V86.1c0-5.5-4.5-10-10-10h-65.8c-5.5,0-10,4.5-10,10v28.4c0-3.9-3.2-7-7-7s-7,3.1-7,7V86.1c0-5.5-4.5-10-10-10h-65.8
		c-5.5,0-10,4.5-10,10v28.4c0-3.9-3.2-7-7-7s-7,3.1-7,7V86.1c0-5.5-4.5-10-10-10H9c-5.5,0-10,4.5-10,10v71.4c0,5.5,4.5,10,10,10
		h65.8c5.5,0,13.2,0,17,0s11.5,0,17,0h65.8c5.5,0,13.2,0,17,0s11.5,0,17,0h65.8c5.5,0,13.2,0,17,0s11.5,0,17,0h65.8
		c5.5,0,13.2,0,17,0s11.5,0,17,0h65.8c5.5,0,13.2,0,17,0s11.5,0,17,0H574c5.5,0,13.2,0,17,0s11.5,0,17,0h65.8c5.5,0,13.2,0,17,0
		s11.5,0,17,0h65.8c5.5,0,13.2,0,17,0s11.5,0,17,0h65.8c5.5,0,13.2,0,17,0s11.5,0,17,0h65.8c5.5,0,13.2,0,17,0s11.5,0,17,0h65.8
		c5.5,0,13.2,0,17,0s11.5,0,17,0h65.8c5.5,0,13.2,0,17,0s7-3.2,7-7v-46C1197.1,110.7,1193.9,107.5,1190.1,107.5z"/>
	<path fill="#FBE25C" stroke="#FFFFFF" stroke-width="3" stroke-miterlimit="10" d="M1190.1,161.6c-3.8,0-7,3.1-7,7v-28.4
		c0-5.5-4.5-10-10-10h-65.8c-5.5,0-10,4.5-10,10v28.4c0-3.9-3.2-7-7-7s-7,3.1-7,7v-28.4c0-5.5-4.5-10-10-10h-65.8
		c-5.5,0-10,4.5-10,10v28.4c0-3.9-3.2-7-7-7s-7,3.1-7,7v-28.4c0-5.5-4.5-10-10-10h-65.8c-5.5,0-10,4.5-10,10v28.4c0-3.9-3.2-7-7-7
		s-7,3.1-7,7v-28.4c0-5.5-4.5-10-10-10h-65.8c-5.5,0-10,4.5-10,10v28.4c0-3.9-3.2-7-7-7s-7,3.1-7,7v-28.4c0-5.5-4.5-10-10-10h-65.8
		c-5.5,0-10,4.5-10,10v28.4c0-3.9-3.2-7-7-7s-7,3.1-7,7v-28.4c0-5.5-4.5-10-10-10H608c-5.5,0-10,4.5-10,10v28.4c0-3.9-3.2-7-7-7
		s-7,3.1-7,7v-28.4c0-5.5-4.5-10-10-10h-65.8c-5.5,0-10,4.5-10,10v28.4c0-3.9-3.2-7-7-7s-7,3.1-7,7v-28.4c0-5.5-4.5-10-10-10h-65.8
		c-5.5,0-10,4.5-10,10v28.4c0-3.9-3.2-7-7-7s-7,3.1-7,7v-28.4c0-5.5-4.5-10-10-10h-65.8c-5.5,0-10,4.5-10,10v28.4c0-3.9-3.2-7-7-7
		s-7,3.1-7,7v-28.4c0-5.5-4.5-10-10-10h-65.8c-5.5,0-10,4.5-10,10v28.4c0-3.9-3.2-7-7-7s-7,3.1-7,7v-28.4c0-5.5-4.5-10-10-10h-65.8
		c-5.5,0-10,4.5-10,10v28.4c0-3.9-3.2-7-7-7s-7,3.1-7,7v-28.4c0-5.5-4.5-10-10-10H9c-5.5,0-10,4.5-10,10v71.4c0,5.5,4.5,10,10,10
		h65.8c5.5,0,13.2,0,17,0s11.5,0,17,0h65.8c5.5,0,13.2,0,17,0s11.5,0,17,0h65.8c5.5,0,13.2,0,17,0s11.5,0,17,0h65.8
		c5.5,0,13.2,0,17,0s11.5,0,17,0h65.8c5.5,0,13.2,0,17,0s11.5,0,17,0H574c5.5,0,13.2,0,17,0s11.5,0,17,0h65.8c5.5,0,13.2,0,17,0
		s11.5,0,17,0h65.8c5.5,0,13.2,0,17,0s11.5,0,17,0h65.8c5.5,0,13.2,0,17,0s11.5,0,17,0h65.8c5.5,0,13.2,0,17,0s11.5,0,17,0h65.8
		c5.5,0,13.2,0,17,0s11.5,0,17,0h65.8c5.5,0,13.2,0,17,0s7-3.2,7-7v-46C1197.1,164.8,1193.9,161.6,1190.1,161.6z"/>
	<path fill="#FBE25C" stroke="#FFFFFF" stroke-width="3" stroke-miterlimit="10" d="M1190.1,215.7c-3.8,0-7,3.1-7,7v-28.4
		c0-5.5-4.5-10-10-10h-65.8c-5.5,0-10,4.5-10,10v28.4c0-3.9-3.2-7-7-7s-7,3.1-7,7v-28.4c0-5.5-4.5-10-10-10h-65.8
		c-5.5,0-10,4.5-10,10v28.4c0-3.9-3.2-7-7-7s-7,3.1-7,7v-28.4c0-5.5-4.5-10-10-10h-65.8c-5.5,0-10,4.5-10,10v28.4c0-3.9-3.2-7-7-7
		s-7,3.1-7,7v-28.4c0-5.5-4.5-10-10-10h-65.8c-5.5,0-10,4.5-10,10v28.4c0-3.9-3.2-7-7-7s-7,3.1-7,7v-28.4c0-5.5-4.5-10-10-10h-65.8
		c-5.5,0-10,4.5-10,10v28.4c0-3.9-3.2-7-7-7s-7,3.1-7,7v-28.4c0-5.5-4.5-10-10-10H608c-5.5,0-10,4.5-10,10v28.4c0-3.9-3.2-7-7-7
		s-7,3.1-7,7v-28.4c0-5.5-4.5-10-10-10h-65.8c-5.5,0-10,4.5-10,10v28.4c0-3.9-3.2-7-7-7s-7,3.1-7,7v-28.4c0-5.5-4.5-10-10-10h-65.8
		c-5.5,0-10,4.5-10,10v28.4c0-3.9-3.2-7-7-7s-7,3.1-7,7v-28.4c0-5.5-4.5-10-10-10h-65.8c-5.5,0-10,4.5-10,10v28.4c0-3.9-3.2-7-7-7
		s-7,3.1-7,7v-28.4c0-5.5-4.5-10-10-10h-65.8c-5.5,0-10,4.5-10,10v28.4c0-3.9-3.2-7-7-7s-7,3.1-7,7v-28.4c0-5.5-4.5-10-10-10h-65.8
		c-5.5,0-10,4.5-10,10v28.4c0-3.9-3.2-7-7-7s-7,3.1-7,7v-28.4c0-5.5-4.5-10-10-10H9c-5.5,0-10,4.5-10,10v71.4c0,5.5,4.5,10,10,10
		h65.8c5.5,0,13.2,0,17,0s11.5,0,17,0h65.8c5.5,0,13.2,0,17,0s11.5,0,17,0h65.8c5.5,0,13.2,0,17,0s11.5,0,17,0h65.8
		c5.5,0,13.2,0,17,0s11.5,0,17,0h65.8c5.5,0,13.2,0,17,0s11.5,0,17,0H574c5.5,0,13.2,0,17,0s11.5,0,17,0h65.8c5.5,0,13.2,0,17,0
		s11.5,0,17,0h65.8c5.5,0,13.2,0,17,0s11.5,0,17,0h65.8c5.5,0,13.2,0,17,0s11.5,0,17,0h65.8c5.5,0,13.2,0,17,0s11.5,0,17,0h65.8
		c5.5,0,13.2,0,17,0s11.5,0,17,0h65.8c5.5,0,13.2,0,17,0s7-3.2,7-7v-46C1197.1,218.8,1193.9,215.7,1190.1,215.7z"/>
	<path fill="#FBE25C" stroke="#FFFFFF" stroke-width="3" stroke-miterlimit="10" d="M1190.1,269.7c-3.8,0-7,3.1-7,7v-28.4
		c0-5.5-4.5-10-10-10h-65.8c-5.5,0-10,4.5-10,10v28.4c0-3.9-3.2-7-7-7s-7,3.1-7,7v-28.4c0-5.5-4.5-10-10-10h-65.8
		c-5.5,0-10,4.5-10,10v28.4c0-3.9-3.2-7-7-7s-7,3.1-7,7v-28.4c0-5.5-4.5-10-10-10h-65.8c-5.5,0-10,4.5-10,10v28.4c0-3.9-3.2-7-7-7
		s-7,3.1-7,7v-28.4c0-5.5-4.5-10-10-10h-65.8c-5.5,0-10,4.5-10,10v28.4c0-3.9-3.2-7-7-7s-7,3.1-7,7v-28.4c0-5.5-4.5-10-10-10h-65.8
		c-5.5,0-10,4.5-10,10v28.4c0-3.9-3.2-7-7-7s-7,3.1-7,7v-28.4c0-5.5-4.5-10-10-10H608c-5.5,0-10,4.5-10,10v28.4c0-3.9-3.2-7-7-7
		s-7,3.1-7,7v-28.4c0-5.5-4.5-10-10-10h-65.8c-5.5,0-10,4.5-10,10v28.4c0-3.9-3.2-7-7-7s-7,3.1-7,7v-28.4c0-5.5-4.5-10-10-10h-65.8
		c-5.5,0-10,4.5-10,10v28.4c0-3.9-3.2-7-7-7s-7,3.1-7,7v-28.4c0-5.5-4.5-10-10-10h-65.8c-5.5,0-10,4.5-10,10v28.4c0-3.9-3.2-7-7-7
		s-7,3.1-7,7v-28.4c0-5.5-4.5-10-10-10h-65.8c-5.5,0-10,4.5-10,10v28.4c0-3.9-3.2-7-7-7s-7,3.1-7,7v-28.4c0-5.5-4.5-10-10-10h-65.8
		c-5.5,0-10,4.5-10,10v28.4c0-3.9-3.2-7-7-7s-7,3.1-7,7v-28.4c0-5.5-4.5-10-10-10H9c-5.5,0-10,4.5-10,10v71.4c0,5.5,4.5,10,10,10
		h65.8c5.5,0,13.2,0,17,0s11.5,0,17,0h65.8c5.5,0,13.2,0,17,0s11.5,0,17,0h65.8c5.5,0,13.2,0,17,0s11.5,0,17,0h65.8
		c5.5,0,13.2,0,17,0s11.5,0,17,0h65.8c5.5,0,13.2,0,17,0s11.5,0,17,0H574c5.5,0,13.2,0,17,0s11.5,0,17,0h65.8c5.5,0,13.2,0,17,0
		s11.5,0,17,0h65.8c5.5,0,13.2,0,17,0s11.5,0,17,0h65.8c5.5,0,13.2,0,17,0s11.5,0,17,0h65.8c5.5,0,13.2,0,17,0s11.5,0,17,0h65.8
		c5.5,0,13.2,0,17,0s11.5,0,17,0h65.8c5.5,0,13.2,0,17,0s7-3.2,7-7v-46C1197.1,272.9,1193.9,269.7,1190.1,269.7z"/>
	<path fill="#FBE25C" stroke="#FFFFFF" stroke-width="3" stroke-miterlimit="10" d="M1190.1,323.8c-3.8,0-7,3.1-7,7v-28.4
		c0-5.5-4.5-10-10-10h-65.8c-5.5,0-10,4.5-10,10v28.4c0-3.9-3.2-7-7-7s-7,3.1-7,7v-28.4c0-5.5-4.5-10-10-10h-65.8
		c-5.5,0-10,4.5-10,10v28.4c0-3.9-3.2-7-7-7s-7,3.1-7,7v-28.4c0-5.5-4.5-10-10-10h-65.8c-5.5,0-10,4.5-10,10v28.4c0-3.9-3.2-7-7-7
		s-7,3.1-7,7v-28.4c0-5.5-4.5-10-10-10h-65.8c-5.5,0-10,4.5-10,10v28.4c0-3.9-3.2-7-7-7s-7,3.1-7,7v-28.4c0-5.5-4.5-10-10-10h-65.8
		c-5.5,0-10,4.5-10,10v28.4c0-3.9-3.2-7-7-7s-7,3.1-7,7v-28.4c0-5.5-4.5-10-10-10H608c-5.5,0-10,4.5-10,10v28.4c0-3.9-3.2-7-7-7
		s-7,3.1-7,7v-28.4c0-5.5-4.5-10-10-10h-65.8c-5.5,0-10,4.5-10,10v28.4c0-3.9-3.2-7-7-7s-7,3.1-7,7v-28.4c0-5.5-4.5-10-10-10h-65.8
		c-5.5,0-10,4.5-10,10v28.4c0-3.9-3.2-7-7-7s-7,3.1-7,7v-28.4c0-5.5-4.5-10-10-10h-65.8c-5.5,0-10,4.5-10,10v28.4c0-3.9-3.2-7-7-7
		s-7,3.1-7,7v-28.4c0-5.5-4.5-10-10-10h-65.8c-5.5,0-10,4.5-10,10v28.4c0-3.9-3.2-7-7-7s-7,3.1-7,7v-28.4c0-5.5-4.5-10-10-10h-65.8
		c-5.5,0-10,4.5-10,10v28.4c0-3.9-3.2-7-7-7s-7,3.1-7,7v-28.4c0-5.5-4.5-10-10-10H9c-5.5,0-10,4.5-10,10v71.4c0,5.5,4.5,10,10,10
		h65.8c5.5,0,13.2,0,17,0s11.5,0,17,0h65.8c5.5,0,13.2,0,17,0s11.5,0,17,0h65.8c5.5,0,13.2,0,17,0s11.5,0,17,0h65.8
		c5.5,0,13.2,0,17,0s11.5,0,17,0h65.8c5.5,0,13.2,0,17,0s11.5,0,17,0H574c5.5,0,13.2,0,17,0s11.5,0,17,0h65.8c5.5,0,13.2,0,17,0
		s11.5,0,17,0h65.8c5.5,0,13.2,0,17,0s11.5,0,17,0h65.8c5.5,0,13.2,0,17,0s11.5,0,17,0h65.8c5.5,0,13.2,0,17,0s11.5,0,17,0h65.8
		c5.5,0,13.2,0,17,0s11.5,0,17,0h65.8c5.5,0,13.2,0,17,0s7-3.2,7-7v-46C1197.1,326.9,1193.9,323.8,1190.1,323.8z"/>
	<path fill="#FBE25C" stroke="#FFFFFF" stroke-width="3" stroke-miterlimit="10" d="M1190.1,377.8c-3.8,0-7,3.1-7,7v-28.4
		c0-5.5-4.5-10-10-10h-65.8c-5.5,0-10,4.5-10,10v28.4c0-3.9-3.2-7-7-7s-7,3.1-7,7v-28.4c0-5.5-4.5-10-10-10h-65.8
		c-5.5,0-10,4.5-10,10v28.4c0-3.9-3.2-7-7-7s-7,3.1-7,7v-28.4c0-5.5-4.5-10-10-10h-65.8c-5.5,0-10,4.5-10,10v28.4c0-3.9-3.2-7-7-7
		s-7,3.1-7,7v-28.4c0-5.5-4.5-10-10-10h-65.8c-5.5,0-10,4.5-10,10v28.4c0-3.9-3.2-7-7-7s-7,3.1-7,7v-28.4c0-5.5-4.5-10-10-10h-65.8
		c-5.5,0-10,4.5-10,10v28.4c0-3.9-3.2-7-7-7s-7,3.1-7,7v-28.4c0-5.5-4.5-10-10-10H608c-5.5,0-10,4.5-10,10v28.4c0-3.9-3.2-7-7-7
		s-7,3.1-7,7v-28.4c0-5.5-4.5-10-10-10h-65.8c-5.5,0-10,4.5-10,10v28.4c0-3.9-3.2-7-7-7s-7,3.1-7,7v-28.4c0-5.5-4.5-10-10-10h-65.8
		c-5.5,0-10,4.5-10,10v28.4c0-3.9-3.2-7-7-7s-7,3.1-7,7v-28.4c0-5.5-4.5-10-10-10h-65.8c-5.5,0-10,4.5-10,10v28.4c0-3.9-3.2-7-7-7
		s-7,3.1-7,7v-28.4c0-5.5-4.5-10-10-10h-65.8c-5.5,0-10,4.5-10,10v28.4c0-3.9-3.2-7-7-7s-7,3.1-7,7v-28.4c0-5.5-4.5-10-10-10h-65.8
		c-5.5,0-10,4.5-10,10v28.4c0-3.9-3.2-7-7-7s-7,3.1-7,7v-28.4c0-5.5-4.5-10-10-10H9c-5.5,0-10,4.5-10,10v71.4c0,5.5,4.5,10,10,10
		h65.8c5.5,0,13.2,0,17,0s11.5,0,17,0h65.8c5.5,0,13.2,0,17,0s11.5,0,17,0h65.8c5.5,0,13.2,0,17,0s11.5,0,17,0h65.8
		c5.5,0,13.2,0,17,0s11.5,0,17,0h65.8c5.5,0,13.2,0,17,0s11.5,0,17,0H574c5.5,0,13.2,0,17,0s11.5,0,17,0h65.8c5.5,0,13.2,0,17,0
		s11.5,0,17,0h65.8c5.5,0,13.2,0,17,0s11.5,0,17,0h65.8c5.5,0,13.2,0,17,0s11.5,0,17,0h65.8c5.5,0,13.2,0,17,0s11.5,0,17,0h65.8
		c5.5,0,13.2,0,17,0s11.5,0,17,0h65.8c5.5,0,13.2,0,17,0s7-3.2,7-7v-46C1197.1,381,1193.9,377.8,1190.1,377.8z"/>
	<path fill="#FBE25C" stroke="#FFFFFF" stroke-width="3" stroke-miterlimit="10" d="M1190.1,431.9c-3.8,0-7,3.1-7,7v-28.4
		c0-5.5-4.5-10-10-10h-65.8c-5.5,0-10,4.5-10,10v28.4c0-3.9-3.2-7-7-7s-7,3.1-7,7v-28.4c0-5.5-4.5-10-10-10h-65.8
		c-5.5,0-10,4.5-10,10v28.4c0-3.9-3.2-7-7-7s-7,3.1-7,7v-28.4c0-5.5-4.5-10-10-10h-65.8c-5.5,0-10,4.5-10,10v28.4c0-3.9-3.2-7-7-7
		s-7,3.1-7,7v-28.4c0-5.5-4.5-10-10-10h-65.8c-5.5,0-10,4.5-10,10v28.4c0-3.9-3.2-7-7-7s-7,3.1-7,7v-28.4c0-5.5-4.5-10-10-10h-65.8
		c-5.5,0-10,4.5-10,10v28.4c0-3.9-3.2-7-7-7s-7,3.1-7,7v-28.4c0-5.5-4.5-10-10-10H608c-5.5,0-10,4.5-10,10v28.4c0-3.9-3.2-7-7-7
		s-7,3.1-7,7v-28.4c0-5.5-4.5-10-10-10h-65.8c-5.5,0-10,4.5-10,10v28.4c0-3.9-3.2-7-7-7s-7,3.1-7,7v-28.4c0-5.5-4.5-10-10-10h-65.8
		c-5.5,0-10,4.5-10,10v28.4c0-3.9-3.2-7-7-7s-7,3.1-7,7v-28.4c0-5.5-4.5-10-10-10h-65.8c-5.5,0-10,4.5-10,10v28.4c0-3.9-3.2-7-7-7
		s-7,3.1-7,7v-28.4c0-5.5-4.5-10-10-10h-65.8c-5.5,0-10,4.5-10,10v28.4c0-3.9-3.2-7-7-7s-7,3.1-7,7v-28.4c0-5.5-4.5-10-10-10h-65.8
		c-5.5,0-10,4.5-10,10v28.4c0-3.9-3.2-7-7-7s-7,3.1-7,7v-28.4c0-5.5-4.5-10-10-10H9c-5.5,0-10,4.5-10,10v71.4c0,5.5,4.5,10,10,10
		h65.8c5.5,0,13.2,0,17,0s11.5,0,17,0h65.8c5.5,0,13.2,0,17,0s11.5,0,17,0h65.8c5.5,0,13.2,0,17,0s11.5,0,17,0h65.8
		c5.5,0,13.2,0,17,0s11.5,0,17,0h65.8c5.5,0,13.2,0,17,0s11.5,0,17,0H574c5.5,0,13.2,0,17,0s11.5,0,17,0h65.8c5.5,0,13.2,0,17,0
		s11.5,0,17,0h65.8c5.5,0,13.2,0,17,0s11.5,0,17,0h65.8c5.5,0,13.2,0,17,0s11.5,0,17,0h65.8c5.5,0,13.2,0,17,0s11.5,0,17,0h65.8
		c5.5,0,13.2,0,17,0s11.5,0,17,0h65.8c5.5,0,13.2,0,17,0s7-3.2,7-7v-46C1197.1,435,1193.9,431.9,1190.1,431.9z"/>
	<path fill="#FBE25C" stroke="#FFFFFF" stroke-width="3" stroke-miterlimit="10" d="M1190.1,485.9c-3.8,0-7,3.1-7,7v-28.4
		c0-5.5-4.5-10-10-10h-65.8c-5.5,0-10,4.5-10,10v28.4c0-3.9-3.2-7-7-7s-7,3.1-7,7v-28.4c0-5.5-4.5-10-10-10h-65.8
		c-5.5,0-10,4.5-10,10v28.4c0-3.9-3.2-7-7-7s-7,3.1-7,7v-28.4c0-5.5-4.5-10-10-10h-65.8c-5.5,0-10,4.5-10,10v28.4c0-3.9-3.2-7-7-7
		s-7,3.1-7,7v-28.4c0-5.5-4.5-10-10-10h-65.8c-5.5,0-10,4.5-10,10v28.4c0-3.9-3.2-7-7-7s-7,3.1-7,7v-28.4c0-5.5-4.5-10-10-10h-65.8
		c-5.5,0-10,4.5-10,10v28.4c0-3.9-3.2-7-7-7s-7,3.1-7,7v-28.4c0-5.5-4.5-10-10-10H608c-5.5,0-10,4.5-10,10v28.4c0-3.9-3.2-7-7-7
		s-7,3.1-7,7v-28.4c0-5.5-4.5-10-10-10h-65.8c-5.5,0-10,4.5-10,10v28.4c0-3.9-3.2-7-7-7s-7,3.1-7,7v-28.4c0-5.5-4.5-10-10-10h-65.8
		c-5.5,0-10,4.5-10,10v28.4c0-3.9-3.2-7-7-7s-7,3.1-7,7v-28.4c0-5.5-4.5-10-10-10h-65.8c-5.5,0-10,4.5-10,10v28.4c0-3.9-3.2-7-7-7
		s-7,3.1-7,7v-28.4c0-5.5-4.5-10-10-10h-65.8c-5.5,0-10,4.5-10,10v28.4c0-3.9-3.2-7-7-7s-7,3.1-7,7v-28.4c0-5.5-4.5-10-10-10h-65.8
		c-5.5,0-10,4.5-10,10v28.4c0-3.9-3.2-7-7-7s-7,3.1-7,7v-28.4c0-5.5-4.5-10-10-10H9c-5.5,0-10,4.5-10,10v71.4c0,5.5,4.5,10,10,10
		h65.8c5.5,0,13.2,0,17,0s11.5,0,17,0h65.8c5.5,0,13.2,0,17,0s11.5,0,17,0h65.8c5.5,0,13.2,0,17,0s11.5,0,17,0h65.8
		c5.5,0,13.2,0,17,0s11.5,0,17,0h65.8c5.5,0,13.2,0,17,0s11.5,0,17,0H574c5.5,0,13.2,0,17,0s11.5,0,17,0h65.8c5.5,0,13.2,0,17,0
		s11.5,0,17,0h65.8c5.5,0,13.2,0,17,0s11.5,0,17,0h65.8c5.5,0,13.2,0,17,0s11.5,0,17,0h65.8c5.5,0,13.2,0,17,0s11.5,0,17,0h65.8
		c5.5,0,13.2,0,17,0s11.5,0,17,0h65.8c5.5,0,13.2,0,17,0s7-3.2,7-7v-46C1197.1,489.1,1193.9,485.9,1190.1,485.9z"/>
	<path fill="#FBE25C" stroke="#FFFFFF" stroke-width="3" stroke-miterlimit="10" d="M1190.1,540c-3.8,0-7,3.1-7,7v-28.4
		c0-5.5-4.5-10-10-10h-65.8c-5.5,0-10,4.5-10,10V547c0-3.9-3.2-7-7-7s-7,3.1-7,7v-28.4c0-5.5-4.5-10-10-10h-65.8
		c-5.5,0-10,4.5-10,10V547c0-3.9-3.2-7-7-7s-7,3.1-7,7v-28.4c0-5.5-4.5-10-10-10h-65.8c-5.5,0-10,4.5-10,10V547c0-3.9-3.2-7-7-7
		s-7,3.1-7,7v-28.4c0-5.5-4.5-10-10-10h-65.8c-5.5,0-10,4.5-10,10V547c0-3.9-3.2-7-7-7s-7,3.1-7,7v-28.4c0-5.5-4.5-10-10-10h-65.8
		c-5.5,0-10,4.5-10,10V547c0-3.9-3.2-7-7-7s-7,3.1-7,7v-28.4c0-5.5-4.5-10-10-10H608c-5.5,0-10,4.5-10,10V547c0-3.9-3.2-7-7-7
		s-7,3.1-7,7v-28.4c0-5.5-4.5-10-10-10h-65.8c-5.5,0-10,4.5-10,10V547c0-3.9-3.2-7-7-7s-7,3.1-7,7v-28.4c0-5.5-4.5-10-10-10h-65.8
		c-5.5,0-10,4.5-10,10V547c0-3.9-3.2-7-7-7s-7,3.1-7,7v-28.4c0-5.5-4.5-10-10-10h-65.8c-5.5,0-10,4.5-10,10V547c0-3.9-3.2-7-7-7
		s-7,3.1-7,7v-28.4c0-5.5-4.5-10-10-10h-65.8c-5.5,0-10,4.5-10,10V547c0-3.9-3.2-7-7-7s-7,3.1-7,7v-28.4c0-5.5-4.5-10-10-10h-65.8
		c-5.5,0-10,4.5-10,10V547c0-3.9-3.2-7-7-7s-7,3.1-7,7v-28.4c0-5.5-4.5-10-10-10H9c-5.5,0-10,4.5-10,10V590c0,5.5,4.5,10,10,10h65.8
		c5.5,0,13.2,0,17,0s11.5,0,17,0h65.8c5.5,0,13.2,0,17,0s11.5,0,17,0h65.8c5.5,0,13.2,0,17,0s11.5,0,17,0h65.8c5.5,0,13.2,0,17,0
		s11.5,0,17,0h65.8c5.5,0,13.2,0,17,0s11.5,0,17,0H574c5.5,0,13.2,0,17,0s11.5,0,17,0h65.8c5.5,0,13.2,0,17,0s11.5,0,17,0h65.8
		c5.5,0,13.2,0,17,0s11.5,0,17,0h65.8c5.5,0,13.2,0,17,0s11.5,0,17,0h65.8c5.5,0,13.2,0,17,0s11.5,0,17,0h65.8c5.5,0,13.2,0,17,0
		s11.5,0,17,0h65.8c5.5,0,13.2,0,17,0s7-3.2,7-7v-46C1197.1,543.1,1193.9,540,1190.1,540z"/>
</g>
<g opacity="0.5">
	<rect x="2" y="0" fill="#FBE25C" width="1198" height="600"/>
</g>
</svg>
