<?xml version="1.0" encoding="utf-8"?>
<!-- Generator: Adobe Illustrator 18.1.1, SVG Export Plug-In . SVG Version: 6.00 Build 0)  -->
<svg version="1.1" id="Layer_2" xmlns="http://www.w3.org/2000/svg" xmlns:xlink="http://www.w3.org/1999/xlink" x="0px" y="0px"
	 viewBox="0 0 1200 600" enable-background="new 0 0 1200 600" xml:space="preserve">
<rect x="-3.6" opacity="0.8" fill="#009B49" stroke="#009B48" stroke-miterlimit="10" width="1207.2" height="600"/>
<g>
	<g>
		<path fill="#009B49" stroke="#009B48" stroke-width="3" stroke-miterlimit="10" d="M204.3,78.3H36.8c-0.2,0-0.4-0.1-0.6-0.2
			c-9.4-1-18.1-5.3-24.5-12.3C5.2,58.7,1.6,49.4,1.6,39.7s3.6-19,10.2-26.2c6.4-7,15.1-11.3,24.5-12.3C36.4,1.1,36.6,1,36.8,1h167.5
			c0.5,0,0.9,0.4,0.9,0.9s-0.4,0.9-0.9,0.9c-20.3,0-36.9,16.5-36.9,36.9s16.5,36.9,36.9,36.9c0.5,0,0.9,0.4,0.9,0.9
			C205.2,77.9,204.8,78.3,204.3,78.3z M37.3,76.5h155.3c-15.6-5-27-19.6-27-36.9s11.3-31.9,27-36.9H37.3C37.2,2.9,37.1,3,36.9,3
			c-9.1,0.8-17.6,5-23.8,11.8c-6.3,6.8-9.7,15.7-9.7,24.9c0,9.3,3.5,18.1,9.7,24.9c6.2,6.8,14.7,11,23.8,11.8
			C37.1,76.4,37.2,76.4,37.3,76.5z"/>
	</g>
	<g>
		<path fill="#009B49" stroke="#009B48" stroke-width="3" stroke-miterlimit="10" d="M368.2,78.3H200.6c-0.2,0-0.4-0.1-0.6-0.2
			c-9.4-1-18.1-5.3-24.5-12.3c-6.6-7.1-10.2-16.4-10.2-26.2s3.6-19,10.2-26.2c6.4-7,15.1-11.3,24.5-12.3c0.2-0.1,0.4-0.2,0.6-0.2
			h167.5c0.5,0,0.9,0.4,0.9,0.9s-0.4,0.9-0.9,0.9c-20.3,0-36.9,16.5-36.9,36.9s16.5,36.9,36.9,36.9c0.5,0,0.9,0.4,0.9,0.9
			C369.1,77.9,368.7,78.3,368.2,78.3z M201.1,76.5h155.3c-15.6-5-27-19.6-27-36.9s11.3-31.9,27-36.9H201.1C201,2.9,200.9,3,200.7,3
			c-9.1,0.8-17.6,5-23.8,11.8c-6.3,6.8-9.7,15.7-9.7,24.9c0,9.3,3.5,18.1,9.7,24.9c6.2,6.8,14.7,11,23.8,11.8
			C200.9,76.4,201,76.4,201.1,76.5z"/>
	</g>
</g>
<g>
	<g>
		<path fill="#009B49" stroke="#009B48" stroke-width="3" stroke-miterlimit="10" d="M533.3,78.4H365.8c-0.2,0-0.4-0.1-0.6-0.2
			c-9.4-1-18.1-5.3-24.5-12.3c-6.6-7.1-10.2-16.4-10.2-26.2s3.6-19,10.2-26.2c6.4-7,15.1-11.3,24.5-12.3c0.2-0.1,0.4-0.2,0.6-0.2
			h167.5c0.5,0,0.9,0.4,0.9,0.9s-0.4,0.9-0.9,0.9c-20.3,0-36.9,16.5-36.9,36.9s16.5,36.9,36.9,36.9c0.5,0,0.9,0.4,0.9,0.9
			C534.2,78,533.8,78.4,533.3,78.4z M366.3,76.5h155.3c-15.6-5-27-19.6-27-36.9s11.3-31.9,27-36.9H366.3c-0.1,0.1-0.3,0.1-0.4,0.2
			c-9.1,0.8-17.6,5-23.8,11.8c-6.3,6.8-9.7,15.7-9.7,24.9s3.5,18.1,9.7,24.9c6.2,6.8,14.7,11,23.8,11.8
			C366.1,76.4,366.2,76.5,366.3,76.5z"/>
	</g>
	<g>
		<path fill="#009B49" stroke="#009B48" stroke-width="3" stroke-miterlimit="10" d="M697.2,78.4H529.6c-0.2,0-0.4-0.1-0.6-0.2
			c-9.4-1-18.1-5.3-24.5-12.3c-6.6-7.1-10.2-16.4-10.2-26.2s3.6-19,10.2-26.2c6.4-7,15.1-11.3,24.5-12.3c0.2-0.1,0.4-0.2,0.6-0.2
			h167.5c0.5,0,0.9,0.4,0.9,0.9s-0.4,0.9-0.9,0.9c-20.3,0-36.9,16.5-36.9,36.9s16.5,36.9,36.9,36.9c0.5,0,0.9,0.4,0.9,0.9
			C698.1,78,697.7,78.4,697.2,78.4z M530.1,76.5h155.3c-15.6-5-27-19.6-27-36.9s11.3-31.9,27-36.9H530.1C530,2.9,529.9,3,529.7,3
			c-9.1,0.8-17.6,5-23.8,11.8c-6.3,6.8-9.7,15.7-9.7,24.9s3.5,18.1,9.7,24.9c6.2,6.8,14.7,11,23.8,11.8
			C529.9,76.4,530,76.5,530.1,76.5z"/>
	</g>
</g>
<g>
	<g>
		<path fill="#009B49" stroke="#009B48" stroke-width="3" stroke-miterlimit="10" d="M860.6,78.4H693.1c-0.2,0-0.4-0.1-0.6-0.2
			c-9.4-1-18.1-5.3-24.5-12.3c-6.6-7.1-10.2-16.4-10.2-26.2s3.6-19,10.2-26.2c6.4-7,15.1-11.3,24.5-12.3c0.2-0.1,0.4-0.2,0.6-0.2
			h167.5c0.5,0,0.9,0.4,0.9,0.9s-0.4,0.9-0.9,0.9c-20.3,0-36.9,16.5-36.9,36.9s16.5,36.9,36.9,36.9c0.5,0,0.9,0.4,0.9,0.9
			C861.5,78,861.1,78.4,860.6,78.4z M693.6,76.5h155.3c-15.6-5-27-19.6-27-36.9s11.3-31.9,27-36.9H693.6c-0.1,0.1-0.3,0.1-0.4,0.2
			c-9.1,0.8-17.6,5-23.8,11.8c-6.3,6.8-9.7,15.7-9.7,24.9c0,9.3,3.5,18.1,9.7,24.9c6.2,6.8,14.7,11,23.8,11.8
			C693.4,76.4,693.5,76.5,693.6,76.5z"/>
	</g>
	<g>
		<path fill="#009B49" stroke="#009B48" stroke-width="3" stroke-miterlimit="10" d="M1024.5,78.4H856.9c-0.2,0-0.4-0.1-0.6-0.2
			c-9.4-1-18.1-5.3-24.5-12.3c-6.6-7.1-10.2-16.4-10.2-26.2s3.6-19,10.2-26.2c6.4-7,15.1-11.3,24.5-12.3c0.2-0.1,0.4-0.2,0.6-0.2
			h167.5c0.5,0,0.9,0.4,0.9,0.9s-0.4,0.9-0.9,0.9c-20.3,0-36.9,16.5-36.9,36.9s16.5,36.9,36.9,36.9c0.5,0,0.9,0.4,0.9,0.9
			C1025.4,78,1025,78.4,1024.5,78.4z M857.5,76.5h155.3c-15.6-5-27-19.6-27-36.9s11.3-31.9,27-36.9H857.4C857.3,2.9,857.2,3,857,3
			c-9.1,0.8-17.6,5-23.8,11.8c-6.3,6.8-9.7,15.7-9.7,24.9c0,9.3,3.5,18.1,9.7,24.9c6.2,6.8,14.7,11,23.8,11.8
			C857.2,76.4,857.3,76.5,857.5,76.5z"/>
	</g>
</g>
<g>
	<g>
		<path fill="#009B49" stroke="#009B48" stroke-width="3" stroke-miterlimit="10" d="M1189.6,78.4h-167.5c-0.2,0-0.4-0.1-0.6-0.2
			c-9.4-1-18.1-5.3-24.5-12.3c-6.6-7.1-10.2-16.4-10.2-26.2s3.6-19,10.2-26.2c6.4-7,15.1-11.3,24.5-12.3c0.2-0.1,0.4-0.2,0.6-0.2
			h167.5c0.5,0,0.9,0.4,0.9,0.9s-0.4,0.9-0.9,0.9c-20.3,0-36.9,16.5-36.9,36.9s16.5,36.9,36.9,36.9c0.5,0,0.9,0.4,0.9,0.9
			C1190.5,78,1190.1,78.4,1189.6,78.4z M1022.6,76.6h155.3c-15.6-5-27-19.6-27-36.9s11.3-31.9,27-36.9h-155.3
			c-0.1,0.1-0.3,0.1-0.4,0.2c-9.1,0.8-17.6,5-23.8,11.8c-6.3,6.8-9.7,15.7-9.7,24.9s3.5,18.1,9.7,24.9c6.2,6.8,14.7,11,23.8,11.8
			C1022.4,76.4,1022.5,76.5,1022.6,76.6z"/>
	</g>
	<g>
		<path fill="#009B49" stroke="#009B48" stroke-width="3" stroke-miterlimit="10" d="M1353.5,78.4h-167.5c-0.2,0-0.4-0.1-0.6-0.2
			c-9.4-1-18.1-5.3-24.5-12.3c-6.6-7.1-10.2-16.4-10.2-26.2s3.6-19,10.2-26.2c6.4-7,15.1-11.3,24.5-12.3c0.2-0.1,0.4-0.2,0.6-0.2
			h167.5c0.5,0,0.9,0.4,0.9,0.9s-0.4,0.9-0.9,0.9c-20.3,0-36.9,16.5-36.9,36.9s16.5,36.9,36.9,36.9c0.5,0,0.9,0.4,0.9,0.9
			C1354.4,78,1354,78.4,1353.5,78.4z M1186.4,76.6h155.3c-15.6-5-27-19.6-27-36.9s11.3-31.9,27-36.9h-155.3
			c-0.1,0.1-0.3,0.1-0.4,0.2c-9.1,0.8-17.6,5-23.8,11.8c-6.3,6.8-9.7,15.7-9.7,24.9s3.5,18.1,9.7,24.9c6.2,6.8,14.7,11,23.8,11.8
			C1186.2,76.4,1186.3,76.5,1186.4,76.6z"/>
	</g>
</g>
<g>
	<g>
		<path fill="#009B49" stroke="#009B48" stroke-width="3" stroke-miterlimit="10" d="M373.9,153.9H206.4c-0.5,0-0.9-0.4-0.9-0.9
			c0-0.5,0.4-0.9,0.9-0.9c20.3,0,36.9-16.5,36.9-36.9s-16.5-36.9-36.9-36.9c-0.5,0-0.9-0.4-0.9-0.9c0-0.5,0.4-0.9,0.9-0.9h167.5
			c0.2,0,0.4,0.1,0.6,0.2c9.4,1,18.1,5.3,24.5,12.3c6.6,7.1,10.2,16.4,10.2,26.2s-3.6,19-10.2,26.2c-6.4,7-15.1,11.3-24.5,12.3
			C374.3,153.8,374.1,153.9,373.9,153.9z M218.1,152.1h155.3c0.1-0.1,0.3-0.1,0.4-0.2c9.1-0.8,17.6-5,23.8-11.8
			c6.3-6.8,9.7-15.7,9.7-24.9c0-9.3-3.5-18.1-9.7-24.9c-6.2-6.8-14.7-11-23.8-11.8c-0.2,0-0.3-0.1-0.4-0.2H218.1
			c15.6,5,27,19.6,27,36.9S233.7,147.1,218.1,152.1z"/>
	</g>
	<g>
		<path fill="#009B49" stroke="#009B48" stroke-width="3" stroke-miterlimit="10" d="M210.1,153.9H42.5c-0.5,0-0.9-0.4-0.9-0.9
			c0-0.5,0.4-0.9,0.9-0.9c20.3,0,36.9-16.5,36.9-36.9S62.9,78.4,42.5,78.4c-0.5,0-0.9-0.4-0.9-0.9c0-0.5,0.4-0.9,0.9-0.9h167.5
			c0.2,0,0.4,0.1,0.6,0.2c9.4,1,18.1,5.3,24.5,12.3c6.6,7.1,10.2,16.4,10.2,26.2s-3.6,19-10.2,26.2c-6.4,7-15.1,11.3-24.5,12.3
			C210.5,153.8,210.3,153.9,210.1,153.9z M54.2,152.1h155.3c0.1-0.1,0.3-0.1,0.4-0.2c9.1-0.8,17.6-5,23.8-11.8
			c6.3-6.8,9.7-15.7,9.7-24.9c0-9.3-3.5-18.1-9.7-24.9c-6.2-6.8-14.7-11-23.8-11.8c-0.2,0-0.3-0.1-0.4-0.2H54.2
			c15.6,5,27,19.6,27,36.9S69.9,147.1,54.2,152.1z"/>
	</g>
	<g>
		<g>
			<path fill="#009B49" stroke="#009B48" stroke-width="3" stroke-miterlimit="10" d="M702.9,153.9H535.4c-0.5,0-0.9-0.4-0.9-0.9
				s0.4-0.9,0.9-0.9c20.3,0,36.9-16.5,36.9-36.9s-16.5-36.9-36.9-36.9c-0.5,0-0.9-0.4-0.9-0.9c0-0.5,0.4-0.9,0.9-0.9h167.5
				c0.2,0,0.4,0.1,0.6,0.2c9.4,1,18.1,5.3,24.5,12.3c6.6,7.1,10.2,16.4,10.2,26.2s-3.6,19-10.2,26.2c-6.4,7-15.1,11.3-24.5,12.3
				C703.3,153.8,703.1,153.9,702.9,153.9z M547.1,152.1h155.3c0.1-0.1,0.3-0.1,0.4-0.2c9.1-0.8,17.6-5,23.8-11.8
				c6.3-6.8,9.7-15.7,9.7-24.9s-3.5-18.1-9.7-24.9c-6.2-6.8-14.7-11-23.8-11.8c-0.2,0-0.3-0.1-0.4-0.2H547.1c15.6,5,27,19.6,27,36.9
				S562.7,147.2,547.1,152.1z"/>
		</g>
		<g>
			<path fill="#009B49" stroke="#009B48" stroke-width="3" stroke-miterlimit="10" d="M539.1,153.9H371.5c-0.5,0-0.9-0.4-0.9-0.9
				s0.4-0.9,0.9-0.9c20.3,0,36.9-16.5,36.9-36.9s-16.5-36.9-36.9-36.9c-0.5,0-0.9-0.4-0.9-0.9c0-0.5,0.4-0.9,0.9-0.9h167.5
				c0.2,0,0.4,0.1,0.6,0.2c9.4,1,18.1,5.3,24.5,12.3c6.6,7.1,10.2,16.4,10.2,26.2s-3.6,19-10.2,26.2c-6.4,7-15.1,11.3-24.5,12.3
				C539.5,153.8,539.3,153.9,539.1,153.9z M383.2,152.1h155.3c0.1-0.1,0.3-0.1,0.4-0.2c9.1-0.8,17.6-5,23.8-11.8
				c6.3-6.8,9.7-15.7,9.7-24.9s-3.5-18.1-9.7-24.9c-6.2-6.8-14.7-11-23.8-11.8c-0.2,0-0.3-0.1-0.4-0.2H383.2c15.6,5,27,19.6,27,36.9
				S398.9,147.2,383.2,152.1z"/>
		</g>
	</g>
	<g>
		<path fill="#009B49" stroke="#009B48" stroke-width="3" stroke-miterlimit="10" d="M1030.2,153.9H862.7c-0.5,0-0.9-0.4-0.9-0.9
			c0-0.5,0.4-0.9,0.9-0.9c20.3,0,36.9-16.5,36.9-36.9S883,78.4,862.7,78.4c-0.5,0-0.9-0.4-0.9-0.9c0-0.5,0.4-0.9,0.9-0.9h167.5
			c0.2,0,0.4,0.1,0.6,0.2c9.4,1,18.1,5.3,24.5,12.3c6.6,7.1,10.2,16.4,10.2,26.2s-3.6,19-10.2,26.2c-6.4,7-15.1,11.3-24.5,12.3
			C1030.6,153.8,1030.4,153.9,1030.2,153.9z M874.4,152.1h155.3c0.1-0.1,0.3-0.1,0.4-0.2c9.1-0.8,17.6-5,23.8-11.8
			c6.3-6.8,9.7-15.7,9.7-24.9c0-9.3-3.5-18.1-9.7-24.9c-6.2-6.8-14.7-11-23.8-11.8c-0.2,0-0.3-0.1-0.4-0.2H874.4
			c15.6,5,27,19.6,27,36.9S890,147.2,874.4,152.1z"/>
	</g>
	<g>
		<path fill="#009B49" stroke="#009B48" stroke-width="3" stroke-miterlimit="10" d="M866.4,153.9H698.8c-0.5,0-0.9-0.4-0.9-0.9
			c0-0.5,0.4-0.9,0.9-0.9c20.3,0,36.9-16.5,36.9-36.9s-16.5-36.9-36.9-36.9c-0.5,0-0.9-0.4-0.9-0.9c0-0.5,0.4-0.9,0.9-0.9h167.5
			c0.2,0,0.4,0.1,0.6,0.2c9.4,1,18.1,5.3,24.5,12.3c6.6,7.1,10.2,16.4,10.2,26.2s-3.6,19-10.2,26.2c-6.4,7-15.1,11.3-24.5,12.3
			C866.8,153.8,866.6,153.9,866.4,153.9z M710.5,152.1h155.3c0.1-0.1,0.3-0.1,0.4-0.2c9.1-0.8,17.6-5,23.8-11.8
			c6.3-6.8,9.7-15.7,9.7-24.9c0-9.3-3.5-18.1-9.7-24.9c-6.2-6.8-14.7-11-23.8-11.8c-0.2,0-0.3-0.1-0.4-0.2H710.5
			c15.6,5,27,19.6,27,36.9S726.2,147.2,710.5,152.1z"/>
	</g>
	<g>
		<g>
			<path fill="#009B49" stroke="#009B48" stroke-width="3" stroke-miterlimit="10" d="M1359.2,154h-167.5c-0.5,0-0.9-0.4-0.9-0.9
				s0.4-0.9,0.9-0.9c20.3,0,36.9-16.5,36.9-36.9s-16.5-36.9-36.9-36.9c-0.5,0-0.9-0.4-0.9-0.9c0-0.5,0.4-0.9,0.9-0.9h167.5
				c0.2,0,0.4,0.1,0.6,0.2c9.4,1,18.1,5.3,24.5,12.3c6.6,7.1,10.2,16.4,10.2,26.2s-3.6,19-10.2,26.2c-6.4,7-15.1,11.3-24.5,12.3
				C1359.6,153.9,1359.4,154,1359.2,154z M1203.4,152.1h155.3c0.1-0.1,0.3-0.1,0.4-0.2c9.1-0.8,17.6-5,23.8-11.8
				c6.3-6.8,9.7-15.7,9.7-24.9s-3.5-18.1-9.7-24.9c-6.2-6.8-14.7-11-23.8-11.8c-0.2,0-0.3-0.1-0.4-0.2h-155.3
				c15.6,5,27,19.6,27,36.9S1219,147.2,1203.4,152.1z"/>
		</g>
		<g>
			<path fill="#009B49" stroke="#009B48" stroke-width="3" stroke-miterlimit="10" d="M1195.4,154h-167.5c-0.5,0-0.9-0.4-0.9-0.9
				s0.4-0.9,0.9-0.9c20.3,0,36.9-16.5,36.9-36.9s-16.5-36.9-36.9-36.9c-0.5,0-0.9-0.4-0.9-0.9c0-0.5,0.4-0.9,0.9-0.9h167.5
				c0.2,0,0.4,0.1,0.6,0.2c9.4,1,18.1,5.3,24.5,12.3c6.6,7.1,10.2,16.4,10.2,26.2s-3.6,19-10.2,26.2c-6.4,7-15.1,11.3-24.5,12.3
				C1195.8,153.9,1195.6,154,1195.4,154z M1039.5,152.1h155.3c0.1-0.1,0.3-0.1,0.4-0.2c9.1-0.8,17.6-5,23.8-11.8
				c6.3-6.8,9.7-15.7,9.7-24.9s-3.5-18.1-9.7-24.9c-6.2-6.8-14.7-11-23.8-11.8c-0.2,0-0.3-0.1-0.4-0.2h-155.3
				c15.6,5,27,19.6,27,36.9S1055.2,147.2,1039.5,152.1z"/>
		</g>
	</g>
	<g>
		<g>
			<g>
				<g>
					<path fill="#009B49" stroke="#009B48" stroke-width="3" stroke-miterlimit="10" d="M202.8,229.5H35.3c-0.2,0-0.4-0.1-0.6-0.2
						c-9.4-1-18.1-5.3-24.5-12.3C3.6,209.8,0,200.5,0,190.8c0-9.7,3.6-19,10.2-26.2c6.4-7,15.1-11.3,24.5-12.3
						c0.2-0.1,0.4-0.2,0.6-0.2h167.5c0.5,0,0.9,0.4,0.9,0.9s-0.4,0.9-0.9,0.9c-20.3,0-36.9,16.5-36.9,36.9s16.5,36.9,36.9,36.9
						c0.5,0,0.9,0.4,0.9,0.9S203.3,229.5,202.8,229.5z M35.8,227.6h155.3c-15.6-5-27-19.6-27-36.9s11.3-31.9,27-36.9H35.8
						c-0.1,0.1-0.3,0.1-0.4,0.2c-9.1,0.8-17.6,5-23.8,11.8c-6.3,6.8-9.7,15.7-9.7,24.9c0,9.3,3.5,18.1,9.7,24.9
						c6.2,6.8,14.7,11,23.8,11.8C35.5,227.5,35.6,227.6,35.8,227.6z"/>
				</g>
				<g>
					<path fill="#009B49" stroke="#009B48" stroke-width="3" stroke-miterlimit="10" d="M366.6,229.5H199.1c-0.2,0-0.4-0.1-0.6-0.2
						c-9.4-1-18.1-5.3-24.5-12.3c-6.6-7.1-10.2-16.4-10.2-26.2c0-9.7,3.6-19,10.2-26.2c6.4-7,15.1-11.3,24.5-12.3
						c0.2-0.1,0.4-0.2,0.6-0.2h167.5c0.5,0,0.9,0.4,0.9,0.9s-0.4,0.9-0.9,0.9c-20.3,0-36.9,16.5-36.9,36.9s16.5,36.9,36.9,36.9
						c0.5,0,0.9,0.4,0.9,0.9S367.1,229.5,366.6,229.5z M199.6,227.6h155.3c-15.6-5-27-19.6-27-36.9s11.3-31.9,27-36.9H199.6
						c-0.1,0.1-0.3,0.1-0.4,0.2c-9.1,0.8-17.6,5-23.8,11.8c-6.3,6.8-9.7,15.7-9.7,24.9c0,9.3,3.5,18.1,9.7,24.9
						c6.2,6.8,14.7,11,23.8,11.8C199.3,227.5,199.5,227.6,199.6,227.6z"/>
				</g>
			</g>
			<g>
				<g>
					<path fill="#009B49" stroke="#009B48" stroke-width="3" stroke-miterlimit="10" d="M531.8,229.5H364.3c-0.2,0-0.4-0.1-0.6-0.2
						c-9.4-1-18.1-5.3-24.5-12.3c-6.6-7.1-10.2-16.4-10.2-26.2c0-9.7,3.6-19,10.2-26.2c6.4-7,15.1-11.3,24.5-12.3
						c0.2-0.1,0.4-0.2,0.6-0.2h167.5c0.5,0,0.9,0.4,0.9,0.9s-0.4,0.9-0.9,0.9c-20.3,0-36.9,16.5-36.9,36.9s16.5,36.9,36.9,36.9
						c0.5,0,0.9,0.4,0.9,0.9S532.3,229.5,531.8,229.5z M364.8,227.7h155.3c-15.6-5-27-19.6-27-36.9s11.3-31.9,27-36.9H364.8
						c-0.1,0.1-0.3,0.1-0.4,0.2c-9.1,0.8-17.6,5-23.8,11.8c-6.3,6.8-9.7,15.7-9.7,24.9c0,9.3,3.5,18.1,9.7,24.9
						c6.2,6.8,14.7,11,23.8,11.8C364.5,227.5,364.6,227.6,364.8,227.7z"/>
				</g>
				<g>
					<path fill="#009B49" stroke="#009B48" stroke-width="3" stroke-miterlimit="10" d="M695.6,229.5H528.1c-0.2,0-0.4-0.1-0.6-0.2
						c-9.4-1-18.1-5.3-24.5-12.3c-6.6-7.1-10.2-16.4-10.2-26.2c0-9.7,3.6-19,10.2-26.2c6.4-7,15.1-11.3,24.5-12.3
						c0.2-0.1,0.4-0.2,0.6-0.2h167.5c0.5,0,0.9,0.4,0.9,0.9s-0.4,0.9-0.9,0.9c-20.3,0-36.9,16.5-36.9,36.9s16.5,36.9,36.9,36.9
						c0.5,0,0.9,0.4,0.9,0.9S696.1,229.5,695.6,229.5z M528.6,227.7h155.3c-15.6-5-27-19.6-27-36.9s11.3-31.9,27-36.9H528.6
						c-0.1,0.1-0.3,0.1-0.4,0.2c-9.1,0.8-17.6,5-23.8,11.8c-6.3,6.8-9.7,15.7-9.7,24.9c0,9.3,3.5,18.1,9.7,24.9
						c6.2,6.8,14.7,11,23.8,11.8C528.3,227.5,528.5,227.6,528.6,227.7z"/>
				</g>
			</g>
		</g>
		<g>
			<g>
				<g>
					<path fill="#009B49" stroke="#009B48" stroke-width="3" stroke-miterlimit="10" d="M859.1,229.5H691.6c-0.2,0-0.4-0.1-0.6-0.2
						c-9.4-1-18.1-5.3-24.5-12.3c-6.6-7.1-10.2-16.4-10.2-26.2c0-9.7,3.6-19,10.2-26.2c6.4-7,15.1-11.3,24.5-12.3
						c0.2-0.1,0.4-0.2,0.6-0.2h167.5c0.5,0,0.9,0.4,0.9,0.9s-0.4,0.9-0.9,0.9c-20.3,0-36.9,16.5-36.9,36.9s16.5,36.9,36.9,36.9
						c0.5,0,0.9,0.4,0.9,0.9S859.6,229.5,859.1,229.5z M692.1,227.7h155.3c-15.6-5-27-19.6-27-36.9s11.3-31.9,27-36.9H692.1
						c-0.1,0.1-0.3,0.1-0.4,0.2c-9.1,0.8-17.6,5-23.8,11.8c-6.3,6.8-9.7,15.7-9.7,24.9c0,9.3,3.5,18.1,9.7,24.9
						c6.2,6.8,14.7,11,23.8,11.8C691.8,227.5,691.9,227.6,692.1,227.7z"/>
				</g>
				<g>
					<path fill="#009B49" stroke="#009B48" stroke-width="3" stroke-miterlimit="10" d="M1022.9,229.5H855.4c-0.2,0-0.4-0.1-0.6-0.2
						c-9.4-1-18.1-5.3-24.5-12.3c-6.6-7.1-10.2-16.4-10.2-26.2c0-9.7,3.6-19,10.2-26.2c6.4-7,15.1-11.3,24.5-12.3
						c0.2-0.1,0.4-0.2,0.6-0.2h167.5c0.5,0,0.9,0.4,0.9,0.9s-0.4,0.9-0.9,0.9c-20.3,0-36.9,16.5-36.9,36.9s16.5,36.9,36.9,36.9
						c0.5,0,0.9,0.4,0.9,0.9S1023.4,229.5,1022.9,229.5z M855.9,227.7h155.3c-15.6-5-27-19.6-27-36.9s11.3-31.9,27-36.9H855.9
						c-0.1,0.1-0.3,0.1-0.4,0.2c-9.1,0.8-17.6,5-23.8,11.8c-6.3,6.8-9.7,15.7-9.7,24.9c0,9.3,3.5,18.1,9.7,24.9
						c6.2,6.8,14.7,11,23.8,11.8C855.6,227.5,855.8,227.6,855.9,227.7z"/>
				</g>
			</g>
			<g>
				<g>
					<path fill="#009B49" stroke="#009B48" stroke-width="3" stroke-miterlimit="10" d="M1188.1,229.5h-167.5
						c-0.2,0-0.4-0.1-0.6-0.2c-9.4-1-18.1-5.3-24.5-12.3c-6.6-7.1-10.2-16.4-10.2-26.2c0-9.7,3.6-19,10.2-26.2
						c6.4-7,15.1-11.3,24.5-12.3c0.2-0.1,0.4-0.2,0.6-0.2h167.5c0.5,0,0.9,0.4,0.9,0.9s-0.4,0.9-0.9,0.9
						c-20.3,0-36.9,16.5-36.9,36.9s16.5,36.9,36.9,36.9c0.5,0,0.9,0.4,0.9,0.9S1188.6,229.5,1188.1,229.5z M1021.1,227.7h155.3
						c-15.6-5-27-19.6-27-36.9s11.3-31.9,27-36.9h-155.3c-0.1,0.1-0.3,0.1-0.4,0.2c-9.1,0.8-17.6,5-23.8,11.8
						c-6.3,6.8-9.7,15.7-9.7,24.9c0,9.3,3.5,18.1,9.7,24.9c6.2,6.8,14.7,11,23.8,11.8C1020.8,227.6,1020.9,227.6,1021.1,227.7z"/>
				</g>
				<g>
					<path fill="#009B49" stroke="#009B48" stroke-width="3" stroke-miterlimit="10" d="M1351.9,229.5h-167.5
						c-0.2,0-0.4-0.1-0.6-0.2c-9.4-1-18.1-5.3-24.5-12.3c-6.6-7.1-10.2-16.4-10.2-26.2c0-9.7,3.6-19,10.2-26.2
						c6.4-7,15.1-11.3,24.5-12.3c0.2-0.1,0.4-0.2,0.6-0.2h167.5c0.5,0,0.9,0.4,0.9,0.9s-0.4,0.9-0.9,0.9
						c-20.3,0-36.9,16.5-36.9,36.9s16.5,36.9,36.9,36.9c0.5,0,0.9,0.4,0.9,0.9S1352.4,229.5,1351.9,229.5z M1184.9,227.7h155.3
						c-15.6-5-27-19.6-27-36.9s11.3-31.9,27-36.9h-155.3c-0.1,0.1-0.3,0.1-0.4,0.2c-9.1,0.8-17.6,5-23.8,11.8
						c-6.3,6.8-9.7,15.7-9.7,24.9c0,9.3,3.5,18.1,9.7,24.9c6.2,6.8,14.7,11,23.8,11.8C1184.6,227.6,1184.8,227.6,1184.9,227.7z"/>
				</g>
			</g>
		</g>
	</g>
</g>
<g>
	<g>
		<path fill="#009B49" stroke="#009B48" stroke-width="3" stroke-miterlimit="10" d="M375.7,304.8H208.2c-0.5,0-0.9-0.4-0.9-0.9
			c0-0.5,0.4-0.9,0.9-0.9c20.3,0,36.9-16.5,36.9-36.9c0-20.3-16.5-36.9-36.9-36.9c-0.5,0-0.9-0.4-0.9-0.9c0-0.5,0.4-0.9,0.9-0.9
			h167.5c0.2,0,0.4,0.1,0.6,0.2c9.4,1,18.1,5.3,24.5,12.3c6.6,7.1,10.2,16.4,10.2,26.2c0,9.7-3.6,19-10.2,26.2
			c-6.4,7-15.1,11.3-24.5,12.3C376.1,304.8,375.9,304.8,375.7,304.8z M219.9,303h155.3c0.1-0.1,0.3-0.1,0.4-0.2
			c9.1-0.8,17.6-5,23.8-11.8c6.3-6.8,9.7-15.7,9.7-24.9c0-9.3-3.5-18.1-9.7-24.9c-6.2-6.8-14.7-11-23.8-11.8c-0.2,0-0.3-0.1-0.4-0.2
			H219.9c15.6,5,27,19.6,27,36.9C246.9,283.4,235.5,298.1,219.9,303z"/>
	</g>
	<g>
		<path fill="#009B49" stroke="#009B48" stroke-width="3" stroke-miterlimit="10" d="M211.9,304.8H44.4c-0.5,0-0.9-0.4-0.9-0.9
			c0-0.5,0.4-0.9,0.9-0.9c20.3,0,36.9-16.5,36.9-36.9c0-20.3-16.5-36.9-36.9-36.9c-0.5,0-0.9-0.4-0.9-0.9c0-0.5,0.4-0.9,0.9-0.9
			h167.5c0.2,0,0.4,0.1,0.6,0.2c9.4,1,18.1,5.3,24.5,12.3c6.6,7.1,10.2,16.4,10.2,26.2c0,9.7-3.6,19-10.2,26.2
			c-6.4,7-15.1,11.3-24.5,12.3C212.3,304.8,212.1,304.8,211.9,304.8z M56.1,303h155.3c0.1-0.1,0.3-0.1,0.4-0.2
			c9.1-0.8,17.6-5,23.8-11.8c6.3-6.8,9.7-15.7,9.7-24.9c0-9.3-3.5-18.1-9.7-24.9c-6.2-6.8-14.7-11-23.8-11.8c-0.2,0-0.3-0.1-0.4-0.2
			H56.1c15.6,5,27,19.6,27,36.9C83,283.4,71.7,298.1,56.1,303z"/>
	</g>
	<g>
		<g>
			<path fill="#009B49" stroke="#009B48" stroke-width="3" stroke-miterlimit="10" d="M704.7,304.9H537.2c-0.5,0-0.9-0.4-0.9-0.9
				s0.4-0.9,0.9-0.9c20.3,0,36.9-16.5,36.9-36.9c0-20.3-16.5-36.9-36.9-36.9c-0.5,0-0.9-0.4-0.9-0.9c0-0.5,0.4-0.9,0.9-0.9h167.5
				c0.2,0,0.4,0.1,0.6,0.2c9.4,1,18.1,5.3,24.5,12.3c6.6,7.1,10.2,16.4,10.2,26.2c0,9.7-3.6,19-10.2,26.2
				c-6.4,7-15.1,11.3-24.5,12.3C705.1,304.8,704.9,304.9,704.7,304.9z M548.9,303.1h155.3c0.1-0.1,0.3-0.1,0.4-0.2
				c9.1-0.8,17.6-5,23.8-11.8c6.3-6.8,9.7-15.7,9.7-24.9c0-9.3-3.5-18.1-9.7-24.9c-6.2-6.8-14.7-11-23.8-11.8
				c-0.2,0-0.3-0.1-0.4-0.2H548.9c15.6,5,27,19.6,27,36.9S564.5,298.1,548.9,303.1z"/>
		</g>
		<g>
			<path fill="#009B49" stroke="#009B48" stroke-width="3" stroke-miterlimit="10" d="M540.9,304.9H373.4c-0.5,0-0.9-0.4-0.9-0.9
				s0.4-0.9,0.9-0.9c20.3,0,36.9-16.5,36.9-36.9c0-20.3-16.5-36.9-36.9-36.9c-0.5,0-0.9-0.4-0.9-0.9c0-0.5,0.4-0.9,0.9-0.9h167.5
				c0.2,0,0.4,0.1,0.6,0.2c9.4,1,18.1,5.3,24.5,12.3c6.6,7.1,10.2,16.4,10.2,26.2c0,9.7-3.6,19-10.2,26.2
				c-6.4,7-15.1,11.3-24.5,12.3C541.3,304.8,541.1,304.9,540.9,304.9z M385.1,303.1h155.3c0.1-0.1,0.3-0.1,0.4-0.2
				c9.1-0.8,17.6-5,23.8-11.8c6.3-6.8,9.7-15.7,9.7-24.9c0-9.3-3.5-18.1-9.7-24.9c-6.2-6.8-14.7-11-23.8-11.8
				c-0.2,0-0.3-0.1-0.4-0.2H385.1c15.6,5,27,19.6,27,36.9S400.7,298.1,385.1,303.1z"/>
		</g>
	</g>
	<g>
		<path fill="#009B49" stroke="#009B48" stroke-width="3" stroke-miterlimit="10" d="M1032,304.9H864.5c-0.5,0-0.9-0.4-0.9-0.9
			c0-0.5,0.4-0.9,0.9-0.9c20.3,0,36.9-16.5,36.9-36.9c0-20.3-16.5-36.9-36.9-36.9c-0.5,0-0.9-0.4-0.9-0.9c0-0.5,0.4-0.9,0.9-0.9
			H1032c0.2,0,0.4,0.1,0.6,0.2c9.4,1,18.1,5.3,24.5,12.3c6.6,7.1,10.2,16.4,10.2,26.2c0,9.7-3.6,19-10.2,26.2
			c-6.4,7-15.1,11.3-24.5,12.3C1032.4,304.8,1032.2,304.9,1032,304.9z M876.2,303.1h155.3c0.1-0.1,0.3-0.1,0.4-0.2
			c9.1-0.8,17.6-5,23.8-11.8c6.3-6.8,9.7-15.7,9.7-24.9c0-9.3-3.5-18.1-9.7-24.9c-6.2-6.8-14.7-11-23.8-11.8c-0.2,0-0.3-0.1-0.4-0.2
			H876.2c15.6,5,27,19.6,27,36.9S891.8,298.1,876.2,303.1z"/>
	</g>
	<g>
		<path fill="#009B49" stroke="#009B48" stroke-width="3" stroke-miterlimit="10" d="M868.2,304.9H700.7c-0.5,0-0.9-0.4-0.9-0.9
			c0-0.5,0.4-0.9,0.9-0.9c20.3,0,36.9-16.5,36.9-36.9c0-20.3-16.5-36.9-36.9-36.9c-0.5,0-0.9-0.4-0.9-0.9c0-0.5,0.4-0.9,0.9-0.9
			h167.5c0.2,0,0.4,0.1,0.6,0.2c9.4,1,18.1,5.3,24.5,12.3c6.6,7.1,10.2,16.4,10.2,26.2c0,9.7-3.6,19-10.2,26.2
			c-6.4,7-15.1,11.3-24.5,12.3C868.6,304.8,868.4,304.9,868.2,304.9z M712.4,303.1h155.3c0.1-0.1,0.3-0.1,0.4-0.2
			c9.1-0.8,17.6-5,23.8-11.8c6.3-6.8,9.7-15.7,9.7-24.9c0-9.3-3.5-18.1-9.7-24.9c-6.2-6.8-14.7-11-23.8-11.8c-0.2,0-0.3-0.1-0.4-0.2
			H712.4c15.6,5,27,19.6,27,36.9S728,298.1,712.4,303.1z"/>
	</g>
	<g>
		<g>
			<path fill="#009B49" stroke="#009B48" stroke-width="3" stroke-miterlimit="10" d="M1361,304.9h-167.5c-0.5,0-0.9-0.4-0.9-0.9
				s0.4-0.9,0.9-0.9c20.3,0,36.9-16.5,36.9-36.9c0-20.3-16.5-36.9-36.9-36.9c-0.5,0-0.9-0.4-0.9-0.9c0-0.5,0.4-0.9,0.9-0.9H1361
				c0.2,0,0.4,0.1,0.6,0.2c9.4,1,18.1,5.3,24.5,12.3c6.6,7.1,10.2,16.4,10.2,26.2c0,9.7-3.6,19-10.2,26.2
				c-6.4,7-15.1,11.3-24.5,12.3C1361.4,304.8,1361.2,304.9,1361,304.9z M1205.2,303.1h155.3c0.1-0.1,0.3-0.1,0.4-0.2
				c9.1-0.8,17.6-5,23.8-11.8c6.3-6.8,9.7-15.7,9.7-24.9c0-9.3-3.5-18.1-9.7-24.9c-6.2-6.8-14.7-11-23.8-11.8
				c-0.2,0-0.3-0.1-0.4-0.2h-155.3c15.6,5,27,19.6,27,36.9S1220.8,298.1,1205.2,303.1z"/>
		</g>
		<g>
			<path fill="#009B49" stroke="#009B48" stroke-width="3" stroke-miterlimit="10" d="M1197.2,304.9h-167.5c-0.5,0-0.9-0.4-0.9-0.9
				s0.4-0.9,0.9-0.9c20.3,0,36.9-16.5,36.9-36.9c0-20.3-16.5-36.9-36.9-36.9c-0.5,0-0.9-0.4-0.9-0.9c0-0.5,0.4-0.9,0.9-0.9h167.5
				c0.2,0,0.4,0.1,0.6,0.2c9.4,1,18.1,5.3,24.5,12.3c6.6,7.1,10.2,16.4,10.2,26.2c0,9.7-3.6,19-10.2,26.2
				c-6.4,7-15.1,11.3-24.5,12.3C1197.6,304.8,1197.4,304.9,1197.2,304.9z M1041.4,303.1h155.3c0.1-0.1,0.3-0.1,0.4-0.2
				c9.1-0.8,17.6-5,23.8-11.8c6.3-6.8,9.7-15.7,9.7-24.9c0-9.3-3.5-18.1-9.7-24.9c-6.2-6.8-14.7-11-23.8-11.8
				c-0.2,0-0.3-0.1-0.4-0.2h-155.3c15.6,5,27,19.6,27,36.9S1057,298.1,1041.4,303.1z"/>
		</g>
	</g>
	<g>
		<g>
			<g>
				<g>
					<path fill="#009B49" stroke="#009B48" stroke-width="3" stroke-miterlimit="10" d="M204.6,380.4H37.1c-0.2,0-0.4-0.1-0.6-0.2
						c-9.4-1-18.1-5.3-24.5-12.3c-6.6-7.1-10.2-16.4-10.2-26.2c0-9.7,3.6-19,10.2-26.2c6.4-7,15.1-11.3,24.5-12.3
						c0.2-0.1,0.4-0.2,0.6-0.2h167.5c0.5,0,0.9,0.4,0.9,0.9s-0.4,0.9-0.9,0.9c-20.3,0-36.9,16.5-36.9,36.9
						c0,20.3,16.5,36.9,36.9,36.9c0.5,0,0.9,0.4,0.9,0.9S205.1,380.4,204.6,380.4z M37.6,378.6h155.3c-15.6-5-27-19.6-27-36.9
						c0-17.2,11.3-31.9,27-36.9H37.6c-0.1,0.1-0.3,0.1-0.4,0.2c-9.1,0.8-17.6,5-23.8,11.8c-6.3,6.8-9.7,15.7-9.7,24.9
						c0,9.3,3.5,18.1,9.7,24.9c6.2,6.8,14.7,11,23.8,11.8C37.3,378.4,37.5,378.5,37.6,378.6z"/>
				</g>
				<g>
					<path fill="#009B49" stroke="#009B48" stroke-width="3" stroke-miterlimit="10" d="M368.4,380.4H200.9c-0.2,0-0.4-0.1-0.6-0.2
						c-9.4-1-18.1-5.3-24.5-12.3c-6.6-7.1-10.2-16.4-10.2-26.2c0-9.7,3.6-19,10.2-26.2c6.4-7,15.1-11.3,24.5-12.3
						c0.2-0.1,0.4-0.2,0.6-0.2h167.5c0.5,0,0.9,0.4,0.9,0.9s-0.4,0.9-0.9,0.9c-20.3,0-36.9,16.5-36.9,36.9
						c0,20.3,16.5,36.9,36.9,36.9c0.5,0,0.9,0.4,0.9,0.9S368.9,380.4,368.4,380.4z M201.4,378.6h155.3c-15.6-5-27-19.6-27-36.9
						c0-17.2,11.3-31.9,27-36.9H201.4c-0.1,0.1-0.3,0.1-0.4,0.2c-9.1,0.8-17.6,5-23.8,11.8c-6.3,6.8-9.7,15.7-9.7,24.9
						c0,9.3,3.5,18.1,9.7,24.9c6.2,6.8,14.7,11,23.8,11.8C201.2,378.4,201.3,378.5,201.4,378.6z"/>
				</g>
			</g>
			<g>
				<g>
					<path fill="#009B49" stroke="#009B48" stroke-width="3" stroke-miterlimit="10" d="M533.6,380.4H366.1c-0.2,0-0.4-0.1-0.6-0.2
						c-9.4-1-18.1-5.3-24.5-12.3c-6.6-7.1-10.2-16.4-10.2-26.2c0-9.7,3.6-19,10.2-26.2c6.4-7,15.1-11.3,24.5-12.3
						c0.2-0.1,0.4-0.2,0.6-0.2h167.5c0.5,0,0.9,0.4,0.9,0.9s-0.4,0.9-0.9,0.9c-20.3,0-36.9,16.5-36.9,36.9
						c0,20.3,16.5,36.9,36.9,36.9c0.5,0,0.9,0.4,0.9,0.9S534.1,380.4,533.6,380.4z M366.6,378.6h155.3c-15.6-5-27-19.6-27-36.9
						c0-17.2,11.3-31.9,27-36.9H366.6c-0.1,0.1-0.3,0.1-0.4,0.2c-9.1,0.8-17.6,5-23.8,11.8c-6.3,6.8-9.7,15.7-9.7,24.9
						s3.5,18.1,9.7,24.9c6.2,6.8,14.7,11,23.8,11.8C366.3,378.5,366.5,378.5,366.6,378.6z"/>
				</g>
				<g>
					<path fill="#009B49" stroke="#009B48" stroke-width="3" stroke-miterlimit="10" d="M697.4,380.4H529.9c-0.2,0-0.4-0.1-0.6-0.2
						c-9.4-1-18.1-5.3-24.5-12.3c-6.6-7.1-10.2-16.4-10.2-26.2c0-9.7,3.6-19,10.2-26.2c6.4-7,15.1-11.3,24.5-12.3
						c0.2-0.1,0.4-0.2,0.6-0.2h167.5c0.5,0,0.9,0.4,0.9,0.9s-0.4,0.9-0.9,0.9c-20.3,0-36.9,16.5-36.9,36.9
						c0,20.3,16.5,36.9,36.9,36.9c0.5,0,0.9,0.4,0.9,0.9S697.9,380.4,697.4,380.4z M530.4,378.6h155.3c-15.6-5-27-19.6-27-36.9
						c0-17.2,11.3-31.9,27-36.9H530.4c-0.1,0.1-0.3,0.1-0.4,0.2c-9.1,0.8-17.6,5-23.8,11.8c-6.3,6.8-9.7,15.7-9.7,24.9
						s3.5,18.1,9.7,24.9c6.2,6.8,14.7,11,23.8,11.8C530.2,378.5,530.3,378.5,530.4,378.6z"/>
				</g>
			</g>
		</g>
		<g>
			<g>
				<g>
					<path fill="#009B49" stroke="#009B48" stroke-width="3" stroke-miterlimit="10" d="M860.9,380.4H693.4c-0.2,0-0.4-0.1-0.6-0.2
						c-9.4-1-18.1-5.3-24.5-12.3c-6.6-7.1-10.2-16.4-10.2-26.2c0-9.7,3.6-19,10.2-26.2c6.4-7,15.1-11.3,24.5-12.3
						c0.2-0.1,0.4-0.2,0.6-0.2h167.5c0.5,0,0.9,0.4,0.9,0.9s-0.4,0.9-0.9,0.9c-20.3,0-36.9,16.5-36.9,36.9
						c0,20.3,16.5,36.9,36.9,36.9c0.5,0,0.9,0.4,0.9,0.9S861.4,380.4,860.9,380.4z M693.9,378.6h155.3c-15.6-5-27-19.6-27-36.9
						c0-17.2,11.3-31.9,27-36.9H693.9c-0.1,0.1-0.3,0.1-0.4,0.2c-9.1,0.8-17.6,5-23.8,11.8c-6.3,6.8-9.7,15.7-9.7,24.9
						c0,9.3,3.5,18.1,9.7,24.9c6.2,6.8,14.7,11,23.8,11.8C693.6,378.5,693.8,378.5,693.9,378.6z"/>
				</g>
				<g>
					<path fill="#009B49" stroke="#009B48" stroke-width="3" stroke-miterlimit="10" d="M1024.7,380.4H857.2c-0.2,0-0.4-0.1-0.6-0.2
						c-9.4-1-18.1-5.3-24.5-12.3c-6.6-7.1-10.2-16.4-10.2-26.2c0-9.7,3.6-19,10.2-26.2c6.4-7,15.1-11.3,24.5-12.3
						c0.2-0.1,0.4-0.2,0.6-0.2h167.5c0.5,0,0.9,0.4,0.9,0.9s-0.4,0.9-0.9,0.9c-20.3,0-36.9,16.5-36.9,36.9
						c0,20.3,16.5,36.9,36.9,36.9c0.5,0,0.9,0.4,0.9,0.9S1025.2,380.4,1024.7,380.4z M857.7,378.6H1013c-15.6-5-27-19.6-27-36.9
						c0-17.2,11.3-31.9,27-36.9H857.7c-0.1,0.1-0.3,0.1-0.4,0.2c-9.1,0.8-17.6,5-23.8,11.8c-6.3,6.8-9.7,15.7-9.7,24.9
						c0,9.3,3.5,18.1,9.7,24.9c6.2,6.8,14.7,11,23.8,11.8C857.5,378.5,857.6,378.5,857.7,378.6z"/>
				</g>
			</g>
			<g>
				<g>
					<path fill="#009B49" stroke="#009B48" stroke-width="3" stroke-miterlimit="10" d="M1189.9,380.4h-167.5
						c-0.2,0-0.4-0.1-0.6-0.2c-9.4-1-18.1-5.3-24.5-12.3c-6.6-7.1-10.2-16.4-10.2-26.2c0-9.7,3.6-19,10.2-26.2
						c6.4-7,15.1-11.3,24.5-12.3c0.2-0.1,0.4-0.2,0.6-0.2h167.5c0.5,0,0.9,0.4,0.9,0.9s-0.4,0.9-0.9,0.9
						c-20.3,0-36.9,16.5-36.9,36.9c0,20.3,16.5,36.9,36.9,36.9c0.5,0,0.9,0.4,0.9,0.9S1190.4,380.4,1189.9,380.4z M1022.9,378.6
						h155.3c-15.6-5-27-19.6-27-36.9c0-17.2,11.3-31.9,27-36.9h-155.3c-0.1,0.1-0.3,0.1-0.4,0.2c-9.1,0.8-17.6,5-23.8,11.8
						c-6.3,6.8-9.7,15.7-9.7,24.9s3.5,18.1,9.7,24.9c6.2,6.8,14.7,11,23.8,11.8C1022.6,378.5,1022.8,378.5,1022.9,378.6z"/>
				</g>
				<g>
					<path fill="#009B49" stroke="#009B48" stroke-width="3" stroke-miterlimit="10" d="M1353.7,380.4h-167.5
						c-0.2,0-0.4-0.1-0.6-0.2c-9.4-1-18.1-5.3-24.5-12.3c-6.6-7.1-10.2-16.4-10.2-26.2c0-9.7,3.6-19,10.2-26.2
						c6.4-7,15.1-11.3,24.5-12.3c0.2-0.1,0.4-0.2,0.6-0.2h167.5c0.5,0,0.9,0.4,0.9,0.9s-0.4,0.9-0.9,0.9
						c-20.3,0-36.9,16.5-36.9,36.9c0,20.3,16.5,36.9,36.9,36.9c0.5,0,0.9,0.4,0.9,0.9S1354.2,380.4,1353.7,380.4z M1186.7,378.6
						H1342c-15.6-5-27-19.6-27-36.9c0-17.2,11.3-31.9,27-36.9h-155.3c-0.1,0.1-0.3,0.1-0.4,0.2c-9.1,0.8-17.6,5-23.8,11.8
						c-6.3,6.8-9.7,15.7-9.7,24.9s3.5,18.1,9.7,24.9c6.2,6.8,14.7,11,23.8,11.8C1186.5,378.5,1186.6,378.5,1186.7,378.6z"/>
				</g>
			</g>
		</g>
	</g>
</g>
<g>
	<g>
		<path fill="#009B49" stroke="#009B48" stroke-width="3" stroke-miterlimit="10" d="M375.9,455.7H208.4c-0.5,0-0.9-0.4-0.9-0.9
			c0-0.5,0.4-0.9,0.9-0.9c20.3,0,36.9-16.5,36.9-36.9s-16.5-36.9-36.9-36.9c-0.5,0-0.9-0.4-0.9-0.9c0-0.5,0.4-0.9,0.9-0.9h167.5
			c0.2,0,0.4,0.1,0.6,0.2c9.4,1,18.1,5.3,24.5,12.3c6.6,7.1,10.2,16.4,10.2,26.2s-3.6,19-10.2,26.2c-6.4,7-15.1,11.3-24.5,12.3
			C376.3,455.6,376.1,455.7,375.9,455.7z M220.1,453.9h155.3c0.1-0.1,0.3-0.1,0.4-0.2c9.1-0.8,17.6-5,23.8-11.8
			c6.3-6.8,9.7-15.7,9.7-24.9c0-9.3-3.5-18.1-9.7-24.9c-6.2-6.8-14.7-11-23.8-11.8c-0.2,0-0.3-0.1-0.4-0.2H220.1
			c15.6,5,27,19.6,27,36.9S235.7,448.9,220.1,453.9z"/>
	</g>
	<g>
		<path fill="#009B49" stroke="#009B48" stroke-width="3" stroke-miterlimit="10" d="M212.1,455.7H44.5c-0.5,0-0.9-0.4-0.9-0.9
			c0-0.5,0.4-0.9,0.9-0.9c20.3,0,36.9-16.5,36.9-36.9s-16.5-36.9-36.9-36.9c-0.5,0-0.9-0.4-0.9-0.9c0-0.5,0.4-0.9,0.9-0.9h167.5
			c0.2,0,0.4,0.1,0.6,0.2c9.4,1,18.1,5.3,24.5,12.3c6.6,7.1,10.2,16.4,10.2,26.2s-3.6,19-10.2,26.2c-6.4,7-15.1,11.3-24.5,12.3
			C212.5,455.6,212.3,455.7,212.1,455.7z M56.2,453.9h155.3c0.1-0.1,0.3-0.1,0.4-0.2c9.1-0.8,17.6-5,23.8-11.8
			c6.3-6.8,9.7-15.7,9.7-24.9c0-9.3-3.5-18.1-9.7-24.9c-6.2-6.8-14.7-11-23.8-11.8c-0.2,0-0.3-0.1-0.4-0.2H56.2
			c15.6,5,27,19.6,27,36.9S71.9,448.9,56.2,453.9z"/>
	</g>
	<g>
		<g>
			<path fill="#009B49" stroke="#009B48" stroke-width="3" stroke-miterlimit="10" d="M704.9,455.7H537.4c-0.5,0-0.9-0.4-0.9-0.9
				c0-0.5,0.4-0.9,0.9-0.9c20.3,0,36.9-16.5,36.9-36.9s-16.5-36.9-36.9-36.9c-0.5,0-0.9-0.4-0.9-0.9c0-0.5,0.4-0.9,0.9-0.9h167.5
				c0.2,0,0.4,0.1,0.6,0.2c9.4,1,18.1,5.3,24.5,12.3c6.6,7.1,10.2,16.4,10.2,26.2s-3.6,19-10.2,26.2c-6.4,7-15.1,11.3-24.5,12.3
				C705.3,455.7,705.1,455.7,704.9,455.7z M549.1,453.9h155.3c0.1-0.1,0.3-0.1,0.4-0.2c9.1-0.8,17.6-5,23.8-11.8
				c6.3-6.8,9.7-15.7,9.7-24.9s-3.5-18.1-9.7-24.9c-6.2-6.8-14.7-11-23.8-11.8c-0.2,0-0.3-0.1-0.4-0.2H549.1c15.6,5,27,19.6,27,36.9
				S564.7,449,549.1,453.9z"/>
		</g>
		<g>
			<path fill="#009B49" stroke="#009B48" stroke-width="3" stroke-miterlimit="10" d="M541.1,455.7H373.5c-0.5,0-0.9-0.4-0.9-0.9
				c0-0.5,0.4-0.9,0.9-0.9c20.3,0,36.9-16.5,36.9-36.9s-16.5-36.9-36.9-36.9c-0.5,0-0.9-0.4-0.9-0.9c0-0.5,0.4-0.9,0.9-0.9h167.5
				c0.2,0,0.4,0.1,0.6,0.2c9.4,1,18.1,5.3,24.5,12.3c6.6,7.1,10.2,16.4,10.2,26.2s-3.6,19-10.2,26.2c-6.4,7-15.1,11.3-24.5,12.3
				C541.5,455.7,541.3,455.7,541.1,455.7z M385.2,453.9h155.3c0.1-0.1,0.3-0.1,0.4-0.2c9.1-0.8,17.6-5,23.8-11.8
				c6.3-6.8,9.7-15.7,9.7-24.9s-3.5-18.1-9.7-24.9c-6.2-6.8-14.7-11-23.8-11.8c-0.2,0-0.3-0.1-0.4-0.2H385.2c15.6,5,27,19.6,27,36.9
				S400.9,449,385.2,453.9z"/>
		</g>
	</g>
	<g>
		<path fill="#009B49" stroke="#009B48" stroke-width="3" stroke-miterlimit="10" d="M1032.2,455.7H864.7c-0.5,0-0.9-0.4-0.9-0.9
			c0-0.5,0.4-0.9,0.9-0.9c20.3,0,36.9-16.5,36.9-36.9s-16.5-36.9-36.9-36.9c-0.5,0-0.9-0.4-0.9-0.9c0-0.5,0.4-0.9,0.9-0.9h167.5
			c0.2,0,0.4,0.1,0.6,0.2c9.4,1,18.1,5.3,24.5,12.3c6.6,7.1,10.2,16.4,10.2,26.2s-3.6,19-10.2,26.2c-6.4,7-15.1,11.3-24.5,12.3
			C1032.6,455.7,1032.4,455.7,1032.2,455.7z M876.4,453.9h155.3c0.1-0.1,0.3-0.1,0.4-0.2c9.1-0.8,17.6-5,23.8-11.8
			c6.3-6.8,9.7-15.7,9.7-24.9c0-9.3-3.5-18.1-9.7-24.9c-6.2-6.8-14.7-11-23.8-11.8c-0.2,0-0.3-0.1-0.4-0.2H876.4
			c15.6,5,27,19.6,27,36.9S892,449,876.4,453.9z"/>
	</g>
	<g>
		<path fill="#009B49" stroke="#009B48" stroke-width="3" stroke-miterlimit="10" d="M868.4,455.7H700.8c-0.5,0-0.9-0.4-0.9-0.9
			c0-0.5,0.4-0.9,0.9-0.9c20.3,0,36.9-16.5,36.9-36.9s-16.5-36.9-36.9-36.9c-0.5,0-0.9-0.4-0.9-0.9c0-0.5,0.4-0.9,0.9-0.9h167.5
			c0.2,0,0.4,0.1,0.6,0.2c9.4,1,18.1,5.3,24.5,12.3c6.6,7.1,10.2,16.4,10.2,26.2s-3.6,19-10.2,26.2c-6.4,7-15.1,11.3-24.5,12.3
			C868.8,455.7,868.6,455.7,868.4,455.7z M712.5,453.9h155.3c0.1-0.1,0.3-0.1,0.4-0.2c9.1-0.8,17.6-5,23.8-11.8
			c6.3-6.8,9.7-15.7,9.7-24.9c0-9.3-3.5-18.1-9.7-24.9c-6.2-6.8-14.7-11-23.8-11.8c-0.2,0-0.3-0.1-0.4-0.2H712.5
			c15.6,5,27,19.6,27,36.9S728.2,449,712.5,453.9z"/>
	</g>
	<g>
		<g>
			<path fill="#009B49" stroke="#009B48" stroke-width="3" stroke-miterlimit="10" d="M1361.2,455.8h-167.5c-0.5,0-0.9-0.4-0.9-0.9
				c0-0.5,0.4-0.9,0.9-0.9c20.3,0,36.9-16.5,36.9-36.9c0-20.3-16.5-36.9-36.9-36.9c-0.5,0-0.9-0.4-0.9-0.9c0-0.5,0.4-0.9,0.9-0.9
				h167.5c0.2,0,0.4,0.1,0.6,0.2c9.4,1,18.1,5.3,24.5,12.3c6.6,7.1,10.2,16.4,10.2,26.2s-3.6,19-10.2,26.2
				c-6.4,7-15.1,11.3-24.5,12.3C1361.6,455.7,1361.4,455.8,1361.2,455.8z M1205.4,454h155.3c0.1-0.1,0.3-0.1,0.4-0.2
				c9.1-0.8,17.6-5,23.8-11.8c6.3-6.8,9.7-15.7,9.7-24.9s-3.5-18.1-9.7-24.9c-6.2-6.8-14.7-11-23.8-11.8c-0.2,0-0.3-0.1-0.4-0.2
				h-155.3c15.6,5,27,19.6,27,36.9S1221,449,1205.4,454z"/>
		</g>
		<g>
			<path fill="#009B49" stroke="#009B48" stroke-width="3" stroke-miterlimit="10" d="M1197.4,455.8h-167.5c-0.5,0-0.9-0.4-0.9-0.9
				c0-0.5,0.4-0.9,0.9-0.9c20.3,0,36.9-16.5,36.9-36.9c0-20.3-16.5-36.9-36.9-36.9c-0.5,0-0.9-0.4-0.9-0.9c0-0.5,0.4-0.9,0.9-0.9
				h167.5c0.2,0,0.4,0.1,0.6,0.2c9.4,1,18.1,5.3,24.5,12.3c6.6,7.1,10.2,16.4,10.2,26.2s-3.6,19-10.2,26.2
				c-6.4,7-15.1,11.3-24.5,12.3C1197.8,455.7,1197.6,455.8,1197.4,455.8z M1041.5,454h155.3c0.1-0.1,0.3-0.1,0.4-0.2
				c9.1-0.8,17.6-5,23.8-11.8c6.3-6.8,9.7-15.7,9.7-24.9s-3.5-18.1-9.7-24.9c-6.2-6.8-14.7-11-23.8-11.8c-0.2,0-0.3-0.1-0.4-0.2
				h-155.3c15.6,5,27,19.6,27,36.9S1057.2,449,1041.5,454z"/>
		</g>
	</g>
	<g>
		<g>
			<g>
				<g>
					<path fill="#009B49" stroke="#009B48" stroke-width="3" stroke-miterlimit="10" d="M204.8,531.3H37.3c-0.2,0-0.4-0.1-0.6-0.2
						c-9.4-1-18.1-5.3-24.5-12.3C5.6,511.6,2,502.3,2,492.6c0-9.7,3.6-19,10.2-26.2c6.4-7,15.1-11.3,24.5-12.3
						c0.2-0.1,0.4-0.2,0.6-0.2h167.5c0.5,0,0.9,0.4,0.9,0.9c0,0.5-0.4,0.9-0.9,0.9c-20.3,0-36.9,16.5-36.9,36.9
						c0,20.3,16.5,36.9,36.9,36.9c0.5,0,0.9,0.4,0.9,0.9S205.3,531.3,204.8,531.3z M37.8,529.5h155.3c-15.6-5-27-19.6-27-36.9
						s11.3-31.9,27-36.9H37.8c-0.1,0.1-0.3,0.1-0.4,0.2c-9.1,0.8-17.6,5-23.8,11.8c-6.3,6.8-9.7,15.7-9.7,24.9
						c0,9.3,3.5,18.1,9.7,24.9c6.2,6.8,14.7,11,23.8,11.8C37.5,529.3,37.6,529.4,37.8,529.5z"/>
				</g>
				<g>
					<path fill="#009B49" stroke="#009B48" stroke-width="3" stroke-miterlimit="10" d="M368.6,531.3H201.1c-0.2,0-0.4-0.1-0.6-0.2
						c-9.4-1-18.1-5.3-24.5-12.3c-6.6-7.1-10.2-16.4-10.2-26.2c0-9.7,3.6-19,10.2-26.2c6.4-7,15.1-11.3,24.5-12.3
						c0.2-0.1,0.4-0.2,0.6-0.2h167.5c0.5,0,0.9,0.4,0.9,0.9c0,0.5-0.4,0.9-0.9,0.9c-20.3,0-36.9,16.5-36.9,36.9
						c0,20.3,16.5,36.9,36.9,36.9c0.5,0,0.9,0.4,0.9,0.9S369.1,531.3,368.6,531.3z M201.6,529.5h155.3c-15.6-5-27-19.6-27-36.9
						s11.3-31.9,27-36.9H201.6c-0.1,0.1-0.3,0.1-0.4,0.2c-9.1,0.8-17.6,5-23.8,11.8c-6.3,6.8-9.7,15.7-9.7,24.9
						c0,9.3,3.5,18.1,9.7,24.9c6.2,6.8,14.7,11,23.8,11.8C201.3,529.3,201.5,529.4,201.6,529.5z"/>
				</g>
			</g>
			<g>
				<g>
					<path fill="#009B49" stroke="#009B48" stroke-width="3" stroke-miterlimit="10" d="M533.8,531.3H366.3c-0.2,0-0.4-0.1-0.6-0.2
						c-9.4-1-18.1-5.3-24.5-12.3c-6.6-7.1-10.2-16.4-10.2-26.2c0-9.7,3.6-19,10.2-26.2c6.4-7,15.1-11.3,24.5-12.3
						c0.2-0.1,0.4-0.2,0.6-0.2h167.5c0.5,0,0.9,0.4,0.9,0.9c0,0.5-0.4,0.9-0.9,0.9c-20.3,0-36.9,16.5-36.9,36.9
						c0,20.3,16.5,36.9,36.9,36.9c0.5,0,0.9,0.4,0.9,0.9S534.3,531.3,533.8,531.3z M366.8,529.5h155.3c-15.6-5-27-19.6-27-36.9
						s11.3-31.9,27-36.9H366.8c-0.1,0.1-0.3,0.1-0.4,0.2c-9.1,0.8-17.6,5-23.8,11.8c-6.3,6.8-9.7,15.7-9.7,24.9s3.5,18.1,9.7,24.9
						c6.2,6.8,14.7,11,23.8,11.8C366.5,529.3,366.6,529.4,366.8,529.5z"/>
				</g>
				<g>
					<path fill="#009B49" stroke="#009B48" stroke-width="3" stroke-miterlimit="10" d="M697.6,531.3H530.1c-0.2,0-0.4-0.1-0.6-0.2
						c-9.4-1-18.1-5.3-24.5-12.3c-6.6-7.1-10.2-16.4-10.2-26.2c0-9.7,3.6-19,10.2-26.2c6.4-7,15.1-11.3,24.5-12.3
						c0.2-0.1,0.4-0.2,0.6-0.2h167.5c0.5,0,0.9,0.4,0.9,0.9c0,0.5-0.4,0.9-0.9,0.9c-20.3,0-36.9,16.5-36.9,36.9
						c0,20.3,16.5,36.9,36.9,36.9c0.5,0,0.9,0.4,0.9,0.9S698.1,531.3,697.6,531.3z M530.6,529.5h155.3c-15.6-5-27-19.6-27-36.9
						s11.3-31.9,27-36.9H530.6c-0.1,0.1-0.3,0.1-0.4,0.2c-9.1,0.8-17.6,5-23.8,11.8c-6.3,6.8-9.7,15.7-9.7,24.9s3.5,18.1,9.7,24.9
						c6.2,6.8,14.7,11,23.8,11.8C530.3,529.3,530.5,529.4,530.6,529.5z"/>
				</g>
			</g>
		</g>
		<g>
			<g>
				<g>
					<path fill="#009B49" stroke="#009B48" stroke-width="3" stroke-miterlimit="10" d="M861.1,531.3H693.6c-0.2,0-0.4-0.1-0.6-0.2
						c-9.4-1-18.1-5.3-24.5-12.3c-6.6-7.1-10.2-16.4-10.2-26.2c0-9.7,3.6-19,10.2-26.2c6.4-7,15.1-11.3,24.5-12.3
						c0.2-0.1,0.4-0.2,0.6-0.2h167.5c0.5,0,0.9,0.4,0.9,0.9c0,0.5-0.4,0.9-0.9,0.9c-20.3,0-36.9,16.5-36.9,36.9s16.5,36.9,36.9,36.9
						c0.5,0,0.9,0.4,0.9,0.9S861.6,531.3,861.1,531.3z M694.1,529.5h155.3c-15.6-5-27-19.6-27-36.9s11.3-31.9,27-36.9H694.1
						c-0.1,0.1-0.3,0.1-0.4,0.2c-9.1,0.8-17.6,5-23.8,11.8c-6.3,6.8-9.7,15.7-9.7,24.9c0,9.3,3.5,18.1,9.7,24.9
						c6.2,6.8,14.7,11,23.8,11.8C693.8,529.3,693.9,529.4,694.1,529.5z"/>
				</g>
				<g>
					<path fill="#009B49" stroke="#009B48" stroke-width="3" stroke-miterlimit="10" d="M1024.9,531.3H857.4c-0.2,0-0.4-0.1-0.6-0.2
						c-9.4-1-18.1-5.3-24.5-12.3c-6.6-7.1-10.2-16.4-10.2-26.2c0-9.7,3.6-19,10.2-26.2c6.4-7,15.1-11.3,24.5-12.3
						c0.2-0.1,0.4-0.2,0.6-0.2h167.5c0.5,0,0.9,0.4,0.9,0.9c0,0.5-0.4,0.9-0.9,0.9c-20.3,0-36.9,16.5-36.9,36.9s16.5,36.9,36.9,36.9
						c0.5,0,0.9,0.4,0.9,0.9S1025.4,531.3,1024.9,531.3z M857.9,529.5h155.3c-15.6-5-27-19.6-27-36.9s11.3-31.9,27-36.9H857.9
						c-0.1,0.1-0.3,0.1-0.4,0.2c-9.1,0.8-17.6,5-23.8,11.8c-6.3,6.8-9.7,15.7-9.7,24.9c0,9.3,3.5,18.1,9.7,24.9
						c6.2,6.8,14.7,11,23.8,11.8C857.6,529.3,857.8,529.4,857.9,529.5z"/>
				</g>
			</g>
			<g>
				<g>
					<path fill="#009B49" stroke="#009B48" stroke-width="3" stroke-miterlimit="10" d="M1190.1,531.3h-167.5
						c-0.2,0-0.4-0.1-0.6-0.2c-9.4-1-18.1-5.3-24.5-12.3c-6.6-7.1-10.2-16.4-10.2-26.2c0-9.7,3.6-19,10.2-26.2
						c6.4-7,15.1-11.3,24.5-12.3c0.2-0.1,0.4-0.2,0.6-0.2h167.5c0.5,0,0.9,0.4,0.9,0.9c0,0.5-0.4,0.9-0.9,0.9
						c-20.3,0-36.9,16.5-36.9,36.9s16.5,36.9,36.9,36.9c0.5,0,0.9,0.4,0.9,0.9S1190.6,531.3,1190.1,531.3z M1023.1,529.5h155.3
						c-15.6-5-27-19.6-27-36.9c0-17.2,11.3-31.9,27-36.9h-155.3c-0.1,0.1-0.3,0.1-0.4,0.2c-9.1,0.8-17.6,5-23.8,11.8
						c-6.3,6.8-9.7,15.7-9.7,24.9s3.5,18.1,9.7,24.9c6.2,6.8,14.7,11,23.8,11.8C1022.8,529.4,1022.9,529.4,1023.1,529.5z"/>
				</g>
				<g>
					<path fill="#009B49" stroke="#009B48" stroke-width="3" stroke-miterlimit="10" d="M1353.9,531.3h-167.5
						c-0.2,0-0.4-0.1-0.6-0.2c-9.4-1-18.1-5.3-24.5-12.3c-6.6-7.1-10.2-16.4-10.2-26.2c0-9.7,3.6-19,10.2-26.2
						c6.4-7,15.1-11.3,24.5-12.3c0.2-0.1,0.4-0.2,0.6-0.2h167.5c0.5,0,0.9,0.4,0.9,0.9c0,0.5-0.4,0.9-0.9,0.9
						c-20.3,0-36.9,16.5-36.9,36.9s16.5,36.9,36.9,36.9c0.5,0,0.9,0.4,0.9,0.9S1354.4,531.3,1353.9,531.3z M1186.9,529.5h155.3
						c-15.6-5-27-19.6-27-36.9c0-17.2,11.3-31.9,27-36.9h-155.3c-0.1,0.1-0.3,0.1-0.4,0.2c-9.1,0.8-17.6,5-23.8,11.8
						c-6.3,6.8-9.7,15.7-9.7,24.9s3.5,18.1,9.7,24.9c6.2,6.8,14.7,11,23.8,11.8C1186.6,529.4,1186.8,529.4,1186.9,529.5z"/>
				</g>
			</g>
		</g>
	</g>
</g>
<g>
	<g>
		<path fill="#009B49" stroke="#009B48" stroke-width="3" stroke-miterlimit="10" d="M363.4,605.6H195.9c-0.5,0-0.9-0.4-0.9-0.9
			c0-0.5,0.4-0.9,0.9-0.9c20.3,0,36.9-16.5,36.9-36.9c0-20.3-16.5-36.9-36.9-36.9c-0.5,0-0.9-0.4-0.9-0.9s0.4-0.9,0.9-0.9h167.5
			c0.2,0,0.4,0.1,0.6,0.2c9.4,1,18.1,5.3,24.5,12.3c6.6,7.1,10.2,16.4,10.2,26.2c0,9.7-3.6,19-10.2,26.2c-6.4,7-15.1,11.3-24.5,12.3
			C363.8,605.6,363.6,605.6,363.4,605.6z M207.6,603.8h155.3c0.1-0.1,0.3-0.1,0.4-0.2c9.1-0.8,17.6-5,23.8-11.8
			c6.3-6.8,9.7-15.7,9.7-24.9c0-9.3-3.5-18.1-9.7-24.9c-6.2-6.8-14.7-11-23.8-11.8c-0.2,0-0.3-0.1-0.4-0.2H207.6
			c15.6,5,27,19.6,27,36.9C234.5,584.2,223.2,598.9,207.6,603.8z"/>
	</g>
	<g>
		<path fill="#009B49" stroke="#009B48" stroke-width="3" stroke-miterlimit="10" d="M199.6,605.6H32c-0.5,0-0.9-0.4-0.9-0.9
			c0-0.5,0.4-0.9,0.9-0.9c20.3,0,36.9-16.5,36.9-36.9c0-20.3-16.5-36.9-36.9-36.9c-0.5,0-0.9-0.4-0.9-0.9s0.4-0.9,0.9-0.9h167.5
			c0.2,0,0.4,0.1,0.6,0.2c9.4,1,18.1,5.3,24.5,12.3c6.6,7.1,10.2,16.4,10.2,26.2c0,9.7-3.6,19-10.2,26.2c-6.4,7-15.1,11.3-24.5,12.3
			C200,605.6,199.8,605.6,199.6,605.6z M43.7,603.8H199c0.1-0.1,0.3-0.1,0.4-0.2c9.1-0.8,17.6-5,23.8-11.8
			c6.3-6.8,9.7-15.7,9.7-24.9c0-9.3-3.5-18.1-9.7-24.9c-6.2-6.8-14.7-11-23.8-11.8c-0.2,0-0.3-0.1-0.4-0.2H43.7
			c15.6,5,27,19.6,27,36.9C70.7,584.2,59.4,598.9,43.7,603.8z"/>
	</g>
	<g>
		<g>
			<path fill="#009B49" stroke="#009B48" stroke-width="3" stroke-miterlimit="10" d="M692.4,605.7H524.9c-0.5,0-0.9-0.4-0.9-0.9
				s0.4-0.9,0.9-0.9c20.3,0,36.9-16.5,36.9-36.9s-16.5-36.9-36.9-36.9c-0.5,0-0.9-0.4-0.9-0.9c0-0.5,0.4-0.9,0.9-0.9h167.5
				c0.2,0,0.4,0.1,0.6,0.2c9.4,1,18.1,5.3,24.5,12.3c6.6,7.1,10.2,16.4,10.2,26.2s-3.6,19-10.2,26.2c-6.4,7-15.1,11.3-24.5,12.3
				C692.8,605.6,692.6,605.7,692.4,605.7z M536.6,603.9h155.3c0.1-0.1,0.3-0.1,0.4-0.2c9.1-0.8,17.6-5,23.8-11.8
				c6.3-6.8,9.7-15.7,9.7-24.9s-3.5-18.1-9.7-24.9c-6.2-6.8-14.7-11-23.8-11.8c-0.2,0-0.3-0.1-0.4-0.2H536.6c15.6,5,27,19.6,27,36.9
				S552.2,598.9,536.6,603.9z"/>
		</g>
		<g>
			<path fill="#009B49" stroke="#009B48" stroke-width="3" stroke-miterlimit="10" d="M528.6,605.7H361c-0.5,0-0.9-0.4-0.9-0.9
				s0.4-0.9,0.9-0.9c20.3,0,36.9-16.5,36.9-36.9s-16.5-36.9-36.9-36.9c-0.5,0-0.9-0.4-0.9-0.9c0-0.5,0.4-0.9,0.9-0.9h167.5
				c0.2,0,0.4,0.1,0.6,0.2c9.4,1,18.1,5.3,24.5,12.3c6.6,7.1,10.2,16.4,10.2,26.2s-3.6,19-10.2,26.2c-6.4,7-15.1,11.3-24.5,12.3
				C529,605.6,528.8,605.7,528.6,605.7z M372.7,603.9H528c0.1-0.1,0.3-0.1,0.4-0.2c9.1-0.8,17.6-5,23.8-11.8
				c6.3-6.8,9.7-15.7,9.7-24.9s-3.5-18.1-9.7-24.9c-6.2-6.8-14.7-11-23.8-11.8c-0.2,0-0.3-0.1-0.4-0.2H372.7c15.6,5,27,19.6,27,36.9
				S388.4,598.9,372.7,603.9z"/>
		</g>
	</g>
	<g>
		<path fill="#009B49" stroke="#009B48" stroke-width="3" stroke-miterlimit="10" d="M1019.7,605.7H852.2c-0.5,0-0.9-0.4-0.9-0.9
			s0.4-0.9,0.9-0.9c20.3,0,36.9-16.5,36.9-36.9s-16.5-36.9-36.9-36.9c-0.5,0-0.9-0.4-0.9-0.9c0-0.5,0.4-0.9,0.9-0.9h167.5
			c0.2,0,0.4,0.1,0.6,0.2c9.4,1,18.1,5.3,24.5,12.3c6.6,7.1,10.2,16.4,10.2,26.2s-3.6,19-10.2,26.2c-6.4,7-15.1,11.3-24.5,12.3
			C1020.1,605.6,1019.9,605.7,1019.7,605.7z M863.9,603.9h155.3c0.1-0.1,0.3-0.1,0.4-0.2c9.1-0.8,17.6-5,23.8-11.8
			c6.3-6.8,9.7-15.7,9.7-24.9c0-9.3-3.5-18.1-9.7-24.9c-6.2-6.8-14.7-11-23.8-11.8c-0.2,0-0.3-0.1-0.4-0.2H863.9
			c15.6,5,27,19.6,27,36.9S879.5,598.9,863.9,603.9z"/>
	</g>
	<g>
		<path fill="#009B49" stroke="#009B48" stroke-width="3" stroke-miterlimit="10" d="M855.9,605.7H688.3c-0.5,0-0.9-0.4-0.9-0.9
			s0.4-0.9,0.9-0.9c20.3,0,36.9-16.5,36.9-36.9s-16.5-36.9-36.9-36.9c-0.5,0-0.9-0.4-0.9-0.9c0-0.5,0.4-0.9,0.9-0.9h167.5
			c0.2,0,0.4,0.1,0.6,0.2c9.4,1,18.1,5.3,24.5,12.3c6.6,7.1,10.2,16.4,10.2,26.2s-3.6,19-10.2,26.2c-6.4,7-15.1,11.3-24.5,12.3
			C856.3,605.6,856.1,605.7,855.9,605.7z M700,603.9h155.3c0.1-0.1,0.3-0.1,0.4-0.2c9.1-0.8,17.6-5,23.8-11.8
			c6.3-6.8,9.7-15.7,9.7-24.9c0-9.3-3.5-18.1-9.7-24.9c-6.2-6.8-14.7-11-23.8-11.8c-0.2,0-0.3-0.1-0.4-0.2H700
			c15.6,5,27,19.6,27,36.9S715.7,598.9,700,603.9z"/>
	</g>
	<g>
		<g>
			<path fill="#009B49" stroke="#009B48" stroke-width="3" stroke-miterlimit="10" d="M1348.7,605.7h-167.5c-0.5,0-0.9-0.4-0.9-0.9
				s0.4-0.9,0.9-0.9c20.3,0,36.9-16.5,36.9-36.9c0-20.3-16.5-36.9-36.9-36.9c-0.5,0-0.9-0.4-0.9-0.9s0.4-0.9,0.9-0.9h167.5
				c0.2,0,0.4,0.1,0.6,0.2c9.4,1,18.1,5.3,24.5,12.3c6.6,7.1,10.2,16.4,10.2,26.2c0,9.7-3.6,19-10.2,26.2
				c-6.4,7-15.1,11.3-24.5,12.3C1349.1,605.6,1348.9,605.7,1348.7,605.7z M1192.9,603.9h155.3c0.1-0.1,0.3-0.1,0.4-0.2
				c9.1-0.8,17.6-5,23.8-11.8c6.3-6.8,9.7-15.7,9.7-24.9c0-9.3-3.5-18.1-9.7-24.9c-6.2-6.8-14.7-11-23.8-11.8
				c-0.2,0-0.3-0.1-0.4-0.2h-155.3c15.6,5,27,19.6,27,36.9C1219.8,584.3,1208.5,598.9,1192.9,603.9z"/>
		</g>
		<g>
			<path fill="#009B49" stroke="#009B48" stroke-width="3" stroke-miterlimit="10" d="M1184.9,605.7h-167.5c-0.5,0-0.9-0.4-0.9-0.9
				s0.4-0.9,0.9-0.9c20.3,0,36.9-16.5,36.9-36.9c0-20.3-16.5-36.9-36.9-36.9c-0.5,0-0.9-0.4-0.9-0.9s0.4-0.9,0.9-0.9h167.5
				c0.2,0,0.4,0.1,0.6,0.2c9.4,1,18.1,5.3,24.5,12.3c6.6,7.1,10.2,16.4,10.2,26.2c0,9.7-3.6,19-10.2,26.2
				c-6.4,7-15.1,11.3-24.5,12.3C1185.3,605.6,1185.1,605.7,1184.9,605.7z M1029,603.9h155.3c0.1-0.1,0.3-0.1,0.4-0.2
				c9.1-0.8,17.6-5,23.8-11.8c6.3-6.8,9.7-15.7,9.7-24.9c0-9.3-3.5-18.1-9.7-24.9c-6.2-6.8-14.7-11-23.8-11.8
				c-0.2,0-0.3-0.1-0.4-0.2H1029c15.6,5,27,19.6,27,36.9C1056,584.3,1044.7,598.9,1029,603.9z"/>
		</g>
	</g>
</g>
</svg>
