<?xml version="1.0" encoding="utf-8"?>
<!-- Generator: Adobe Illustrator 18.1.1, SVG Export Plug-In . SVG Version: 6.00 Build 0)  -->
<svg version="1.1" id="Layer_2" xmlns="http://www.w3.org/2000/svg" xmlns:xlink="http://www.w3.org/1999/xlink" x="0px" y="0px"
	 viewBox="0 0 1200 600" enable-background="new 0 0 1200 600" xml:space="preserve">
<path fill="#030304" stroke="#000000" stroke-width="3" stroke-miterlimit="10" d="M1.8,128.3l299.3,284c0.3,0.3,0.7,0.5,1.2,0.5
	c0.2,0,0.5,0,0.7-0.1c0.6-0.3,1-0.9,1-1.6v-106c0-0.4-0.2-0.9-0.5-1.2L6.5-1.8H1.2V127C1.2,127.5,1.4,127.9,1.8,128.3z M4.6,1.2
	l295.9,304.6v101.3L4.6,126.3V1.2z"/>
<path fill="#030304" stroke="#000000" stroke-width="3" stroke-miterlimit="10" d="M1.2,305.1v106c0,0.7,0.4,1.3,1,1.6
	c0.2,0.1,0.4,0.1,0.7,0.1c0.4,0,0.8-0.2,1.2-0.5l299.3-284c0.3-0.3,0.5-0.8,0.5-1.2V-1.8h-5.3L1.7,303.9
	C1.4,304.2,1.2,304.6,1.2,305.1z M4.6,305.8L300.5,1.2v125.1L4.6,407.1V305.8z"/>
<path fill="#030304" stroke="#000000" stroke-width="3" stroke-miterlimit="10" d="M2.9,412.3h299.3c0.7,0,1.3-0.6,1.3-1.3V-1.8H301
	v411.5H4.2V-1.8H1.7V411C1.7,411.7,2.3,412.3,2.9,412.3z"/>
<path fill="#030304" stroke="#000000" stroke-width="3" stroke-miterlimit="10" d="M2.3,409.5c-0.6,0.3-1.1,0.9-1.1,1.6v130
	c0,0.5,0.2,0.9,0.5,1.2L62.5,600h4.9L4.6,540.4V415.2L184.1,600h4.7L4.2,409.9C3.7,409.4,2.9,409.2,2.3,409.5z"/>
<path fill="#030304" stroke="#000000" stroke-width="3" stroke-miterlimit="10" d="M303.9,541.1V411c0-0.7-0.4-1.3-1.1-1.6
	c-0.6-0.3-1.4-0.1-1.9,0.4L116.3,600h4.7l179.5-184.8v125.1L237.7,600h4.9l60.8-57.7C303.7,542,303.9,541.6,303.9,541.1z"/>
<path fill="#030304" stroke="#000000" stroke-width="3" stroke-miterlimit="10" d="M302.2,409.8H2.9c-0.7,0-1.3,0.6-1.3,1.3v189h2.5
	V412.3h296.7V600h2.5V411C303.5,410.4,302.9,409.8,302.2,409.8z"/>
<path fill="#030304" stroke="#000000" stroke-width="3" stroke-miterlimit="10" d="M602.7,498.5L303.4,190.4
	c-0.5-0.5-1.2-0.7-1.9-0.4c-0.6,0.3-1.1,0.9-1.1,1.6v130c0,0.5,0.2,0.9,0.5,1.2l292,277.2h4.9L303.9,320.9V195.7l295.9,304.6V600
	h3.4V499.7C603.2,499.2,603,498.8,602.7,498.5z"/>
<path fill="#030304" stroke="#000000" stroke-width="3" stroke-miterlimit="10" d="M603.2,321.6v-130c0-0.7-0.4-1.3-1.1-1.6
	c-0.6-0.3-1.4-0.1-1.9,0.4L301,498.5c-0.3,0.3-0.5,0.7-0.5,1.2V600h3.4v-99.7l295.9-304.6v125.1L305.7,600h4.9l292-277.2
	C603,322.5,603.2,322.1,603.2,321.6z"/>
<path fill="#030304" stroke="#000000" stroke-width="3" stroke-miterlimit="10" d="M601.5,190.3H302.2c-0.7,0-1.3,0.6-1.3,1.3V600
	h2.5V192.8h296.7V600h2.5V191.5C602.7,190.9,602.2,190.3,601.5,190.3z"/>
<path fill="#030304" stroke="#000000" stroke-width="3" stroke-miterlimit="10" d="M601.5,192.6c0.2,0,0.5,0,0.7-0.1
	c0.6-0.3,1-0.9,1-1.6V85c0-0.4-0.2-0.9-0.5-1.2L519.6-1.8h-4.7l84.9,87.4V187L400.9-1.8H396l204.3,193.9
	C600.6,192.5,601,192.6,601.5,192.6z"/>
<path fill="#030304" stroke="#000000" stroke-width="3" stroke-miterlimit="10" d="M300.5,85v106c0,0.7,0.4,1.3,1,1.6
	c0.2,0.1,0.4,0.1,0.7,0.1c0.4,0,0.8-0.2,1.2-0.5L507.7-1.8h-4.9L303.9,187V85.7l84.9-87.4h-4.7L301,83.8
	C300.7,84.1,300.5,84.5,300.5,85z"/>
<path fill="#030304" stroke="#000000" stroke-width="3" stroke-miterlimit="10" d="M302.2,192.2h299.3c0.7,0,1.3-0.6,1.3-1.3V-1.8
	h-2.5v191.4H303.5V-1.8h-2.5v192.7C300.9,191.6,301.5,192.2,302.2,192.2z"/>
<g>
	<path fill="#030304" stroke="#000000" stroke-width="3" stroke-miterlimit="10" d="M602.7-3.9c-0.5-0.5-1.2-0.7-1.9-0.4
		c-0.6,0.3-1.1,0.9-1.1,1.6v0.9h5L602.7-3.9z"/>
	<path fill="#030304" stroke="#000000" stroke-width="3" stroke-miterlimit="10" d="M600.3,128.6l299.3,284c0.3,0.3,0.7,0.5,1.2,0.5
		c0.2,0,0.5,0,0.7-0.1c0.6-0.3,1-0.9,1-1.6v-106c0-0.4-0.2-0.9-0.5-1.2L604.8-1.8h-5v129.1C599.8,127.8,600,128.2,600.3,128.6z
		 M603.2,1.5l295.9,304.6v101.3L603.2,126.6V1.5z"/>
</g>
<g>
	<path fill="#030304" stroke="#000000" stroke-width="3" stroke-miterlimit="10" d="M902.5-2.7c0-0.7-0.4-1.3-1.1-1.6
		c-0.6-0.3-1.4-0.1-1.9,0.4l-2.1,2.1h5V-2.7z"/>
	<path fill="#030304" stroke="#000000" stroke-width="3" stroke-miterlimit="10" d="M599.8,305.4v106c0,0.7,0.4,1.3,1,1.6
		c0.2,0.1,0.4,0.1,0.7,0.1c0.4,0,0.8-0.2,1.2-0.5l299.3-284c0.3-0.3,0.5-0.8,0.5-1.2V-1.8h-5l-297.2,306
		C600,304.5,599.8,305,599.8,305.4z M603.2,306.1L899.1,1.5v125.1L603.2,407.4V306.1z"/>
</g>
<path fill="#030304" stroke="#000000" stroke-width="3" stroke-miterlimit="10" d="M601.5,412.6h299.3c0.7,0,1.3-0.6,1.3-1.3V-1.8
	H600.2v413.1C600.2,412.1,600.8,412.6,601.5,412.6z M602.7-1.4h296.7v411.5H602.7V-1.4z"/>
<path fill="#030304" stroke="#000000" stroke-width="3" stroke-miterlimit="10" d="M600.8,409.8c-0.6,0.3-1.1,0.9-1.1,1.6v130
	c0,0.5,0.2,0.9,0.5,1.2l60.4,57.4h4.9l-62.5-59.3V415.5L782.3,600h4.7L602.7,410.2C602.2,409.7,601.5,409.5,600.8,409.8z"/>
<path fill="#030304" stroke="#000000" stroke-width="3" stroke-miterlimit="10" d="M902.4,541.4v-130c0-0.7-0.4-1.3-1.1-1.6
	c-0.6-0.3-1.4-0.1-1.9,0.4L715.2,600h4.7L899,415.5v125.1L836.5,600h4.9l60.4-57.4C902.3,542.3,902.4,541.9,902.4,541.4z"/>
<path fill="#030304" stroke="#000000" stroke-width="3" stroke-miterlimit="10" d="M900.7,410.1H601.5c-0.7,0-1.3,0.6-1.3,1.3V600
	h2.5V412.6h296.7V600h2.5V411.4C902,410.7,901.4,410.1,900.7,410.1z"/>
<path fill="#030304" stroke="#000000" stroke-width="3" stroke-miterlimit="10" d="M902.5,321.2V196l295.9,304.6V600h1.7V497.5
	L902,190.7c-0.5-0.5-1.2-0.6-1.9-0.4c-0.6,0.3-1.1,0.9-1.1,1.6v130c0,0.5,0.2,0.9,0.5,1.2L1191.3,600h4.9L902.5,321.2z"/>
<path fill="#030304" stroke="#000000" stroke-width="3" stroke-miterlimit="10" d="M1198.8,190.7L899.5,498.8
	c-0.3,0.3-0.5,0.7-0.5,1.2v100h3.4v-99.3L1198.3,196v125.1L904.5,600h4.9L1200,324.3V190.2C1199.6,190.2,1199.1,190.3,1198.8,190.7z
	"/>
<path fill="#030304" stroke="#000000" stroke-width="3" stroke-miterlimit="10" d="M902,193.1h296.7V600h1.2V190.6H900.8
	c-0.7,0-1.3,0.6-1.3,1.3V600h2.5V193.1z"/>
<path fill="#030304" stroke="#000000" stroke-width="3" stroke-miterlimit="10" d="M1117.8-1.8h-4.7l85.2,87.7v101.3L999.1-1.8h-4.9
	l204.6,194.2c0.3,0.3,0.7,0.5,1.2,0.5V82.8L1117.8-1.8z"/>
<path fill="#030304" stroke="#000000" stroke-width="3" stroke-miterlimit="10" d="M902.4,187.3V86l85.2-87.7h-4.7l-83.4,85.8
	c-0.3,0.3-0.5,0.7-0.5,1.2v106c0,0.7,0.4,1.3,1,1.6c0.2,0.1,0.4,0.1,0.7,0.1c0.4,0,0.8-0.2,1.2-0.5L1106.6-1.8h-4.9L902.4,187.3z"/>
<path fill="#030304" stroke="#000000" stroke-width="3" stroke-miterlimit="10" d="M1198.8-1.8V190H902V-1.8h-2.5v193
	c0,0.7,0.6,1.3,1.3,1.3H1200V-1.8H1198.8z"/>
<g opacity="0.8">
	<rect fill="#030304" stroke="#000000" stroke-width="3" stroke-miterlimit="10" width="1200" height="600"/>
</g>
</svg>
