<?xml version="1.0" encoding="utf-8"?>
<!-- Generator: Adobe Illustrator 18.1.1, SVG Export Plug-In . SVG Version: 6.00 Build 0)  -->
<svg version="1.1" xmlns="http://www.w3.org/2000/svg" xmlns:xlink="http://www.w3.org/1999/xlink" x="0px" y="0px"
	 viewBox="0 0 1200 600" enable-background="new 0 0 1200 600" xml:space="preserve">
<g id="Layer_1" display="none">
</g>
<g id="Layer_2">
	
		<path fill="#FBE25C" stroke="#FFFFFF" stroke-width="6" stroke-linecap="round" stroke-linejoin="round" stroke-miterlimit="10" d="
		M71.8,113.5c5.5,0,13.2,0,17,0s11.5,0,17,0h65.8c5.5,0,13.2,0,17,0s11.5,0,17,0h65.8c5.5,0,13.2,0,17,0s11.5,0,17,0h65.8
		c5.5,0,13.2,0,17,0s11.5,0,17,0h65.8c5.5,0,13.2,0,17,0s11.5,0,17,0H571c5.5,0,13.2,0,17,0s11.5,0,17,0h65.8c5.5,0,13.2,0,17,0
		s11.5,0,17,0h65.8c5.5,0,13.2,0,17,0s11.5,0,17,0h65.8c5.5,0,13.2,0,17,0s11.5,0,17,0h65.8c5.5,0,13.2,0,17,0s11.5,0,17,0h65.8
		c5.5,0,13.2,0,17,0s11.5,0,17,0h65.8c5.5,0,13.2,0,17,0s7-3.2,7-7v-46c0-3.9-3.2-7-7-7s-7,3.1-7,7V32c0-5.5-4.5-10-10-10h-65.8
		c-5.5,0-10,4.5-10,10v28.4c0-3.9-3.2-7-7-7s-7,3.1-7,7V32c0-5.5-4.5-10-10-10h-65.8c-5.5,0-10,4.5-10,10v28.4c0-3.9-3.2-7-7-7
		s-7,3.1-7,7V32c0-5.5-4.5-10-10-10h-65.8c-5.5,0-10,4.5-10,10v28.4c0-3.9-3.2-7-7-7s-7,3.1-7,7V32c0-5.5-4.5-10-10-10h-65.8
		c-5.5,0-10,4.5-10,10v28.4c0-3.9-3.2-7-7-7s-7,3.1-7,7V32c0-5.5-4.5-10-10-10h-65.8c-5.5,0-10,4.5-10,10v28.4c0-3.9-3.2-7-7-7
		s-7,3.1-7,7V32c0-5.5-4.5-10-10-10H605c-5.5,0-10,4.5-10,10v28.4c0-3.9-3.2-7-7-7s-7,3.1-7,7V32c0-5.5-4.5-10-10-10h-65.8
		c-5.5,0-10,4.5-10,10v28.4c0-3.9-3.2-7-7-7s-7,3.1-7,7V32c0-5.5-4.5-10-10-10h-65.8c-5.5,0-10,4.5-10,10v28.4c0-3.9-3.2-7-7-7
		s-7,3.1-7,7V32c0-5.5-4.5-10-10-10h-65.8c-5.5,0-10,4.5-10,10v28.4c0-3.9-3.2-7-7-7s-7,3.1-7,7V32c0-5.5-4.5-10-10-10h-65.8
		c-5.5,0-10,4.5-10,10v28.4c0-3.9-3.2-7-7-7s-7,3.1-7,7V32c0-5.5-4.5-10-10-10h-65.8c-5.5,0-10,4.5-10,10v28.4c0-3.9-3.2-7-7-7
		s-7,3.1-7,7V32c0-5.5-4.5-10-10-10H6c-1,0-2.1,0.2-3,0.5V113c0.9,0.3,2,0.5,3,0.5H71.8z"/>
	
		<path fill="#FBE25C" stroke="#FFFFFF" stroke-width="6" stroke-linecap="round" stroke-linejoin="round" stroke-miterlimit="10" d="
		M71.8,167.5c5.5,0,13.2,0,17,0s11.5,0,17,0h65.8c5.5,0,13.2,0,17,0s11.5,0,17,0h65.8c5.5,0,13.2,0,17,0s11.5,0,17,0h65.8
		c5.5,0,13.2,0,17,0s11.5,0,17,0h65.8c5.5,0,13.2,0,17,0s11.5,0,17,0H571c5.5,0,13.2,0,17,0s11.5,0,17,0h65.8c5.5,0,13.2,0,17,0
		s11.5,0,17,0h65.8c5.5,0,13.2,0,17,0s11.5,0,17,0h65.8c5.5,0,13.2,0,17,0s11.5,0,17,0h65.8c5.5,0,13.2,0,17,0s11.5,0,17,0h65.8
		c5.5,0,13.2,0,17,0s11.5,0,17,0h65.8c5.5,0,13.2,0,17,0s7-3.2,7-7v-46c0-3.9-3.2-7-7-7s-7,3.1-7,7V86.1c0-5.5-4.5-10-10-10h-65.8
		c-5.5,0-10,4.5-10,10v28.4c0-3.9-3.2-7-7-7s-7,3.1-7,7V86.1c0-5.5-4.5-10-10-10h-65.8c-5.5,0-10,4.5-10,10v28.4c0-3.9-3.2-7-7-7
		s-7,3.1-7,7V86.1c0-5.5-4.5-10-10-10h-65.8c-5.5,0-10,4.5-10,10v28.4c0-3.9-3.2-7-7-7s-7,3.1-7,7V86.1c0-5.5-4.5-10-10-10h-65.8
		c-5.5,0-10,4.5-10,10v28.4c0-3.9-3.2-7-7-7s-7,3.1-7,7V86.1c0-5.5-4.5-10-10-10h-65.8c-5.5,0-10,4.5-10,10v28.4c0-3.9-3.2-7-7-7
		s-7,3.1-7,7V86.1c0-5.5-4.5-10-10-10H605c-5.5,0-10,4.5-10,10v28.4c0-3.9-3.2-7-7-7s-7,3.1-7,7V86.1c0-5.5-4.5-10-10-10h-65.8
		c-5.5,0-10,4.5-10,10v28.4c0-3.9-3.2-7-7-7s-7,3.1-7,7V86.1c0-5.5-4.5-10-10-10h-65.8c-5.5,0-10,4.5-10,10v28.4c0-3.9-3.2-7-7-7
		s-7,3.1-7,7V86.1c0-5.5-4.5-10-10-10h-65.8c-5.5,0-10,4.5-10,10v28.4c0-3.9-3.2-7-7-7s-7,3.1-7,7V86.1c0-5.5-4.5-10-10-10h-65.8
		c-5.5,0-10,4.5-10,10v28.4c0-3.9-3.2-7-7-7s-7,3.1-7,7V86.1c0-5.5-4.5-10-10-10h-65.8c-5.5,0-10,4.5-10,10v28.4c0-3.9-3.2-7-7-7
		s-7,3.1-7,7V86.1c0-5.5-4.5-10-10-10H6c-1,0-2.1,0.2-3,0.5v90.5c0.9,0.3,2,0.5,3,0.5H71.8z"/>
	
		<path fill="#FBE25C" stroke="#FFFFFF" stroke-width="6" stroke-linecap="round" stroke-linejoin="round" stroke-miterlimit="10" d="
		M71.8,221.6c5.5,0,13.2,0,17,0s11.5,0,17,0h65.8c5.5,0,13.2,0,17,0s11.5,0,17,0h65.8c5.5,0,13.2,0,17,0s11.5,0,17,0h65.8
		c5.5,0,13.2,0,17,0s11.5,0,17,0h65.8c5.5,0,13.2,0,17,0s11.5,0,17,0H571c5.5,0,13.2,0,17,0s11.5,0,17,0h65.8c5.5,0,13.2,0,17,0
		s11.5,0,17,0h65.8c5.5,0,13.2,0,17,0s11.5,0,17,0h65.8c5.5,0,13.2,0,17,0s11.5,0,17,0h65.8c5.5,0,13.2,0,17,0s11.5,0,17,0h65.8
		c5.5,0,13.2,0,17,0s11.5,0,17,0h65.8c5.5,0,13.2,0,17,0s7-3.2,7-7v-46c0-3.9-3.2-7-7-7s-7,3.1-7,7v-28.4c0-5.5-4.5-10-10-10h-65.8
		c-5.5,0-10,4.5-10,10v28.4c0-3.9-3.2-7-7-7s-7,3.1-7,7v-28.4c0-5.5-4.5-10-10-10h-65.8c-5.5,0-10,4.5-10,10v28.4c0-3.9-3.2-7-7-7
		s-7,3.1-7,7v-28.4c0-5.5-4.5-10-10-10h-65.8c-5.5,0-10,4.5-10,10v28.4c0-3.9-3.2-7-7-7s-7,3.1-7,7v-28.4c0-5.5-4.5-10-10-10h-65.8
		c-5.5,0-10,4.5-10,10v28.4c0-3.9-3.2-7-7-7s-7,3.1-7,7v-28.4c0-5.5-4.5-10-10-10h-65.8c-5.5,0-10,4.5-10,10v28.4c0-3.9-3.2-7-7-7
		s-7,3.1-7,7v-28.4c0-5.5-4.5-10-10-10H605c-5.5,0-10,4.5-10,10v28.4c0-3.9-3.2-7-7-7s-7,3.1-7,7v-28.4c0-5.5-4.5-10-10-10h-65.8
		c-5.5,0-10,4.5-10,10v28.4c0-3.9-3.2-7-7-7s-7,3.1-7,7v-28.4c0-5.5-4.5-10-10-10h-65.8c-5.5,0-10,4.5-10,10v28.4c0-3.9-3.2-7-7-7
		s-7,3.1-7,7v-28.4c0-5.5-4.5-10-10-10h-65.8c-5.5,0-10,4.5-10,10v28.4c0-3.9-3.2-7-7-7s-7,3.1-7,7v-28.4c0-5.5-4.5-10-10-10h-65.8
		c-5.5,0-10,4.5-10,10v28.4c0-3.9-3.2-7-7-7s-7,3.1-7,7v-28.4c0-5.5-4.5-10-10-10h-65.8c-5.5,0-10,4.5-10,10v28.4c0-3.9-3.2-7-7-7
		s-7,3.1-7,7v-28.4c0-5.5-4.5-10-10-10H6c-1,0-2.1,0.2-3,0.5v90.5c0.9,0.3,2,0.5,3,0.5H71.8z"/>
	
		<path fill="#FBE25C" stroke="#FFFFFF" stroke-width="6" stroke-linecap="round" stroke-linejoin="round" stroke-miterlimit="10" d="
		M71.8,275.7c5.5,0,13.2,0,17,0s11.5,0,17,0h65.8c5.5,0,13.2,0,17,0s11.5,0,17,0h65.8c5.5,0,13.2,0,17,0s11.5,0,17,0h65.8
		c5.5,0,13.2,0,17,0s11.5,0,17,0h65.8c5.5,0,13.2,0,17,0s11.5,0,17,0H571c5.5,0,13.2,0,17,0s11.5,0,17,0h65.8c5.5,0,13.2,0,17,0
		s11.5,0,17,0h65.8c5.5,0,13.2,0,17,0s11.5,0,17,0h65.8c5.5,0,13.2,0,17,0s11.5,0,17,0h65.8c5.5,0,13.2,0,17,0s11.5,0,17,0h65.8
		c5.5,0,13.2,0,17,0s11.5,0,17,0h65.8c5.5,0,13.2,0,17,0s7-3.2,7-7v-46c0-3.9-3.2-7-7-7s-7,3.1-7,7v-28.4c0-5.5-4.5-10-10-10h-65.8
		c-5.5,0-10,4.5-10,10v28.4c0-3.9-3.2-7-7-7s-7,3.1-7,7v-28.4c0-5.5-4.5-10-10-10h-65.8c-5.5,0-10,4.5-10,10v28.4c0-3.9-3.2-7-7-7
		s-7,3.1-7,7v-28.4c0-5.5-4.5-10-10-10h-65.8c-5.5,0-10,4.5-10,10v28.4c0-3.9-3.2-7-7-7s-7,3.1-7,7v-28.4c0-5.5-4.5-10-10-10h-65.8
		c-5.5,0-10,4.5-10,10v28.4c0-3.9-3.2-7-7-7s-7,3.1-7,7v-28.4c0-5.5-4.5-10-10-10h-65.8c-5.5,0-10,4.5-10,10v28.4c0-3.9-3.2-7-7-7
		s-7,3.1-7,7v-28.4c0-5.5-4.5-10-10-10H605c-5.5,0-10,4.5-10,10v28.4c0-3.9-3.2-7-7-7s-7,3.1-7,7v-28.4c0-5.5-4.5-10-10-10h-65.8
		c-5.5,0-10,4.5-10,10v28.4c0-3.9-3.2-7-7-7s-7,3.1-7,7v-28.4c0-5.5-4.5-10-10-10h-65.8c-5.5,0-10,4.5-10,10v28.4c0-3.9-3.2-7-7-7
		s-7,3.1-7,7v-28.4c0-5.5-4.5-10-10-10h-65.8c-5.5,0-10,4.5-10,10v28.4c0-3.9-3.2-7-7-7s-7,3.1-7,7v-28.4c0-5.5-4.5-10-10-10h-65.8
		c-5.5,0-10,4.5-10,10v28.4c0-3.9-3.2-7-7-7s-7,3.1-7,7v-28.4c0-5.5-4.5-10-10-10h-65.8c-5.5,0-10,4.5-10,10v28.4c0-3.9-3.2-7-7-7
		s-7,3.1-7,7v-28.4c0-5.5-4.5-10-10-10H6c-1,0-2.1,0.2-3,0.5v90.5c0.9,0.3,2,0.5,3,0.5H71.8z"/>
	
		<path fill="#FBE25C" stroke="#FFFFFF" stroke-width="6" stroke-linecap="round" stroke-linejoin="round" stroke-miterlimit="10" d="
		M71.8,329.7c5.5,0,13.2,0,17,0s11.5,0,17,0h65.8c5.5,0,13.2,0,17,0s11.5,0,17,0h65.8c5.5,0,13.2,0,17,0s11.5,0,17,0h65.8
		c5.5,0,13.2,0,17,0s11.5,0,17,0h65.8c5.5,0,13.2,0,17,0s11.5,0,17,0H571c5.5,0,13.2,0,17,0s11.5,0,17,0h65.8c5.5,0,13.2,0,17,0
		s11.5,0,17,0h65.8c5.5,0,13.2,0,17,0s11.5,0,17,0h65.8c5.5,0,13.2,0,17,0s11.5,0,17,0h65.8c5.5,0,13.2,0,17,0s11.5,0,17,0h65.8
		c5.5,0,13.2,0,17,0s11.5,0,17,0h65.8c5.5,0,13.2,0,17,0s7-3.2,7-7v-46c0-3.9-3.2-7-7-7s-7,3.1-7,7v-28.4c0-5.5-4.5-10-10-10h-65.8
		c-5.5,0-10,4.5-10,10v28.4c0-3.9-3.2-7-7-7s-7,3.1-7,7v-28.4c0-5.5-4.5-10-10-10h-65.8c-5.5,0-10,4.5-10,10v28.4c0-3.9-3.2-7-7-7
		s-7,3.1-7,7v-28.4c0-5.5-4.5-10-10-10h-65.8c-5.5,0-10,4.5-10,10v28.4c0-3.9-3.2-7-7-7s-7,3.1-7,7v-28.4c0-5.5-4.5-10-10-10h-65.8
		c-5.5,0-10,4.5-10,10v28.4c0-3.9-3.2-7-7-7s-7,3.1-7,7v-28.4c0-5.5-4.5-10-10-10h-65.8c-5.5,0-10,4.5-10,10v28.4c0-3.9-3.2-7-7-7
		s-7,3.1-7,7v-28.4c0-5.5-4.5-10-10-10H605c-5.5,0-10,4.5-10,10v28.4c0-3.9-3.2-7-7-7s-7,3.1-7,7v-28.4c0-5.5-4.5-10-10-10h-65.8
		c-5.5,0-10,4.5-10,10v28.4c0-3.9-3.2-7-7-7s-7,3.1-7,7v-28.4c0-5.5-4.5-10-10-10h-65.8c-5.5,0-10,4.5-10,10v28.4c0-3.9-3.2-7-7-7
		s-7,3.1-7,7v-28.4c0-5.5-4.5-10-10-10h-65.8c-5.5,0-10,4.5-10,10v28.4c0-3.9-3.2-7-7-7s-7,3.1-7,7v-28.4c0-5.5-4.5-10-10-10h-65.8
		c-5.5,0-10,4.5-10,10v28.4c0-3.9-3.2-7-7-7s-7,3.1-7,7v-28.4c0-5.5-4.5-10-10-10h-65.8c-5.5,0-10,4.5-10,10v28.4c0-3.9-3.2-7-7-7
		s-7,3.1-7,7v-28.4c0-5.5-4.5-10-10-10H6c-1,0-2.1,0.2-3,0.5v90.5c0.9,0.3,2,0.5,3,0.5H71.8z"/>
	
		<path fill="#FBE25C" stroke="#FFFFFF" stroke-width="6" stroke-linecap="round" stroke-linejoin="round" stroke-miterlimit="10" d="
		M71.8,383.8c5.5,0,13.2,0,17,0s11.5,0,17,0h65.8c5.5,0,13.2,0,17,0s11.5,0,17,0h65.8c5.5,0,13.2,0,17,0s11.5,0,17,0h65.8
		c5.5,0,13.2,0,17,0s11.5,0,17,0h65.8c5.5,0,13.2,0,17,0s11.5,0,17,0H571c5.5,0,13.2,0,17,0s11.5,0,17,0h65.8c5.5,0,13.2,0,17,0
		s11.5,0,17,0h65.8c5.5,0,13.2,0,17,0s11.5,0,17,0h65.8c5.5,0,13.2,0,17,0s11.5,0,17,0h65.8c5.5,0,13.2,0,17,0s11.5,0,17,0h65.8
		c5.5,0,13.2,0,17,0s11.5,0,17,0h65.8c5.5,0,13.2,0,17,0s7-3.2,7-7v-46c0-3.9-3.2-7-7-7s-7,3.1-7,7v-28.4c0-5.5-4.5-10-10-10h-65.8
		c-5.5,0-10,4.5-10,10v28.4c0-3.9-3.2-7-7-7s-7,3.1-7,7v-28.4c0-5.5-4.5-10-10-10h-65.8c-5.5,0-10,4.5-10,10v28.4c0-3.9-3.2-7-7-7
		s-7,3.1-7,7v-28.4c0-5.5-4.5-10-10-10h-65.8c-5.5,0-10,4.5-10,10v28.4c0-3.9-3.2-7-7-7s-7,3.1-7,7v-28.4c0-5.5-4.5-10-10-10h-65.8
		c-5.5,0-10,4.5-10,10v28.4c0-3.9-3.2-7-7-7s-7,3.1-7,7v-28.4c0-5.5-4.5-10-10-10h-65.8c-5.5,0-10,4.5-10,10v28.4c0-3.9-3.2-7-7-7
		s-7,3.1-7,7v-28.4c0-5.5-4.5-10-10-10H605c-5.5,0-10,4.5-10,10v28.4c0-3.9-3.2-7-7-7s-7,3.1-7,7v-28.4c0-5.5-4.5-10-10-10h-65.8
		c-5.5,0-10,4.5-10,10v28.4c0-3.9-3.2-7-7-7s-7,3.1-7,7v-28.4c0-5.5-4.5-10-10-10h-65.8c-5.5,0-10,4.5-10,10v28.4c0-3.9-3.2-7-7-7
		s-7,3.1-7,7v-28.4c0-5.5-4.5-10-10-10h-65.8c-5.5,0-10,4.5-10,10v28.4c0-3.9-3.2-7-7-7s-7,3.1-7,7v-28.4c0-5.5-4.5-10-10-10h-65.8
		c-5.5,0-10,4.5-10,10v28.4c0-3.9-3.2-7-7-7s-7,3.1-7,7v-28.4c0-5.5-4.5-10-10-10h-65.8c-5.5,0-10,4.5-10,10v28.4c0-3.9-3.2-7-7-7
		s-7,3.1-7,7v-28.4c0-5.5-4.5-10-10-10H6c-1,0-2.1,0.2-3,0.5v90.5c0.9,0.3,2,0.5,3,0.5H71.8z"/>
	
		<path fill="#FBE25C" stroke="#FFFFFF" stroke-width="6" stroke-linecap="round" stroke-linejoin="round" stroke-miterlimit="10" d="
		M71.8,437.8c5.5,0,13.2,0,17,0s11.5,0,17,0h65.8c5.5,0,13.2,0,17,0s11.5,0,17,0h65.8c5.5,0,13.2,0,17,0s11.5,0,17,0h65.8
		c5.5,0,13.2,0,17,0s11.5,0,17,0h65.8c5.5,0,13.2,0,17,0s11.5,0,17,0H571c5.5,0,13.2,0,17,0s11.5,0,17,0h65.8c5.5,0,13.2,0,17,0
		s11.5,0,17,0h65.8c5.5,0,13.2,0,17,0s11.5,0,17,0h65.8c5.5,0,13.2,0,17,0s11.5,0,17,0h65.8c5.5,0,13.2,0,17,0s11.5,0,17,0h65.8
		c5.5,0,13.2,0,17,0s11.5,0,17,0h65.8c5.5,0,13.2,0,17,0s7-3.2,7-7v-46c0-3.9-3.2-7-7-7s-7,3.1-7,7v-28.4c0-5.5-4.5-10-10-10h-65.8
		c-5.5,0-10,4.5-10,10v28.4c0-3.9-3.2-7-7-7s-7,3.1-7,7v-28.4c0-5.5-4.5-10-10-10h-65.8c-5.5,0-10,4.5-10,10v28.4c0-3.9-3.2-7-7-7
		s-7,3.1-7,7v-28.4c0-5.5-4.5-10-10-10h-65.8c-5.5,0-10,4.5-10,10v28.4c0-3.9-3.2-7-7-7s-7,3.1-7,7v-28.4c0-5.5-4.5-10-10-10h-65.8
		c-5.5,0-10,4.5-10,10v28.4c0-3.9-3.2-7-7-7s-7,3.1-7,7v-28.4c0-5.5-4.5-10-10-10h-65.8c-5.5,0-10,4.5-10,10v28.4c0-3.9-3.2-7-7-7
		s-7,3.1-7,7v-28.4c0-5.5-4.5-10-10-10H605c-5.5,0-10,4.5-10,10v28.4c0-3.9-3.2-7-7-7s-7,3.1-7,7v-28.4c0-5.5-4.5-10-10-10h-65.8
		c-5.5,0-10,4.5-10,10v28.4c0-3.9-3.2-7-7-7s-7,3.1-7,7v-28.4c0-5.5-4.5-10-10-10h-65.8c-5.5,0-10,4.5-10,10v28.4c0-3.9-3.2-7-7-7
		s-7,3.1-7,7v-28.4c0-5.5-4.5-10-10-10h-65.8c-5.5,0-10,4.5-10,10v28.4c0-3.9-3.2-7-7-7s-7,3.1-7,7v-28.4c0-5.5-4.5-10-10-10h-65.8
		c-5.5,0-10,4.5-10,10v28.4c0-3.9-3.2-7-7-7s-7,3.1-7,7v-28.4c0-5.5-4.5-10-10-10h-65.8c-5.5,0-10,4.5-10,10v28.4c0-3.9-3.2-7-7-7
		s-7,3.1-7,7v-28.4c0-5.5-4.5-10-10-10H6c-1,0-2.1,0.2-3,0.5v90.5c0.9,0.3,2,0.5,3,0.5H71.8z"/>
	
		<path fill="#FBE25C" stroke="#FFFFFF" stroke-width="6" stroke-linecap="round" stroke-linejoin="round" stroke-miterlimit="10" d="
		M71.8,491.9c5.5,0,13.2,0,17,0s11.5,0,17,0h65.8c5.5,0,13.2,0,17,0s11.5,0,17,0h65.8c5.5,0,13.2,0,17,0s11.5,0,17,0h65.8
		c5.5,0,13.2,0,17,0s11.5,0,17,0h65.8c5.5,0,13.2,0,17,0s11.5,0,17,0H571c5.5,0,13.2,0,17,0s11.5,0,17,0h65.8c5.5,0,13.2,0,17,0
		s11.5,0,17,0h65.8c5.5,0,13.2,0,17,0s11.5,0,17,0h65.8c5.5,0,13.2,0,17,0s11.5,0,17,0h65.8c5.5,0,13.2,0,17,0s11.5,0,17,0h65.8
		c5.5,0,13.2,0,17,0s11.5,0,17,0h65.8c5.5,0,13.2,0,17,0s7-3.2,7-7v-46c0-3.9-3.2-7-7-7s-7,3.1-7,7v-28.4c0-5.5-4.5-10-10-10h-65.8
		c-5.5,0-10,4.5-10,10v28.4c0-3.9-3.2-7-7-7s-7,3.1-7,7v-28.4c0-5.5-4.5-10-10-10h-65.8c-5.5,0-10,4.5-10,10v28.4c0-3.9-3.2-7-7-7
		s-7,3.1-7,7v-28.4c0-5.5-4.5-10-10-10h-65.8c-5.5,0-10,4.5-10,10v28.4c0-3.9-3.2-7-7-7s-7,3.1-7,7v-28.4c0-5.5-4.5-10-10-10h-65.8
		c-5.5,0-10,4.5-10,10v28.4c0-3.9-3.2-7-7-7s-7,3.1-7,7v-28.4c0-5.5-4.5-10-10-10h-65.8c-5.5,0-10,4.5-10,10v28.4c0-3.9-3.2-7-7-7
		s-7,3.1-7,7v-28.4c0-5.5-4.5-10-10-10H605c-5.5,0-10,4.5-10,10v28.4c0-3.9-3.2-7-7-7s-7,3.1-7,7v-28.4c0-5.5-4.5-10-10-10h-65.8
		c-5.5,0-10,4.5-10,10v28.4c0-3.9-3.2-7-7-7s-7,3.1-7,7v-28.4c0-5.5-4.5-10-10-10h-65.8c-5.5,0-10,4.5-10,10v28.4c0-3.9-3.2-7-7-7
		s-7,3.1-7,7v-28.4c0-5.5-4.5-10-10-10h-65.8c-5.5,0-10,4.5-10,10v28.4c0-3.9-3.2-7-7-7s-7,3.1-7,7v-28.4c0-5.5-4.5-10-10-10h-65.8
		c-5.5,0-10,4.5-10,10v28.4c0-3.9-3.2-7-7-7s-7,3.1-7,7v-28.4c0-5.5-4.5-10-10-10h-65.8c-5.5,0-10,4.5-10,10v28.4c0-3.9-3.2-7-7-7
		s-7,3.1-7,7v-28.4c0-5.5-4.5-10-10-10H6c-1,0-2.1,0.2-3,0.5v90.5c0.9,0.3,2,0.5,3,0.5H71.8z"/>
	
		<path fill="#FBE25C" stroke="#FFFFFF" stroke-width="6" stroke-linecap="round" stroke-linejoin="round" stroke-miterlimit="10" d="
		M71.8,545.9c5.5,0,13.2,0,17,0s11.5,0,17,0h65.8c5.5,0,13.2,0,17,0s11.5,0,17,0h65.8c5.5,0,13.2,0,17,0s11.5,0,17,0h65.8
		c5.5,0,13.2,0,17,0s11.5,0,17,0h65.8c5.5,0,13.2,0,17,0s11.5,0,17,0H571c5.5,0,13.2,0,17,0s11.5,0,17,0h65.8c5.5,0,13.2,0,17,0
		s11.5,0,17,0h65.8c5.5,0,13.2,0,17,0s11.5,0,17,0h65.8c5.5,0,13.2,0,17,0s11.5,0,17,0h65.8c5.5,0,13.2,0,17,0s11.5,0,17,0h65.8
		c5.5,0,13.2,0,17,0s11.5,0,17,0h65.8c5.5,0,13.2,0,17,0s7-3.2,7-7v-46c0-3.9-3.2-7-7-7s-7,3.1-7,7v-28.4c0-5.5-4.5-10-10-10h-65.8
		c-5.5,0-10,4.5-10,10v28.4c0-3.9-3.2-7-7-7s-7,3.1-7,7v-28.4c0-5.5-4.5-10-10-10h-65.8c-5.5,0-10,4.5-10,10v28.4c0-3.9-3.2-7-7-7
		s-7,3.1-7,7v-28.4c0-5.5-4.5-10-10-10h-65.8c-5.5,0-10,4.5-10,10v28.4c0-3.9-3.2-7-7-7s-7,3.1-7,7v-28.4c0-5.5-4.5-10-10-10h-65.8
		c-5.5,0-10,4.5-10,10v28.4c0-3.9-3.2-7-7-7s-7,3.1-7,7v-28.4c0-5.5-4.5-10-10-10h-65.8c-5.5,0-10,4.5-10,10v28.4c0-3.9-3.2-7-7-7
		s-7,3.1-7,7v-28.4c0-5.5-4.5-10-10-10H605c-5.5,0-10,4.5-10,10v28.4c0-3.9-3.2-7-7-7s-7,3.1-7,7v-28.4c0-5.5-4.5-10-10-10h-65.8
		c-5.5,0-10,4.5-10,10v28.4c0-3.9-3.2-7-7-7s-7,3.1-7,7v-28.4c0-5.5-4.5-10-10-10h-65.8c-5.5,0-10,4.5-10,10v28.4c0-3.9-3.2-7-7-7
		s-7,3.1-7,7v-28.4c0-5.5-4.5-10-10-10h-65.8c-5.5,0-10,4.5-10,10v28.4c0-3.9-3.2-7-7-7s-7,3.1-7,7v-28.4c0-5.5-4.5-10-10-10h-65.8
		c-5.5,0-10,4.5-10,10v28.4c0-3.9-3.2-7-7-7s-7,3.1-7,7v-28.4c0-5.5-4.5-10-10-10h-65.8c-5.5,0-10,4.5-10,10v28.4c0-3.9-3.2-7-7-7
		s-7,3.1-7,7v-28.4c0-5.5-4.5-10-10-10H6c-1,0-2.1,0.2-3,0.5v90.5c0.9,0.3,2,0.5,3,0.5H71.8z"/>
	
		<path fill="#FBE25C" stroke="#FFFFFF" stroke-width="6" stroke-linecap="round" stroke-linejoin="round" stroke-miterlimit="10" d="
		M1194.1,547c0-3.9-3.2-7-7-7s-7,3.1-7,7v-28.4c0-5.5-4.5-10-10-10h-65.8c-5.5,0-10,4.5-10,10V547c0-3.9-3.2-7-7-7s-7,3.1-7,7v-28.4
		c0-5.5-4.5-10-10-10h-65.8c-5.5,0-10,4.5-10,10V547c0-3.9-3.2-7-7-7s-7,3.1-7,7v-28.4c0-5.5-4.5-10-10-10h-65.8
		c-5.5,0-10,4.5-10,10V547c0-3.9-3.2-7-7-7s-7,3.1-7,7v-28.4c0-5.5-4.5-10-10-10h-65.8c-5.5,0-10,4.5-10,10V547c0-3.9-3.2-7-7-7
		s-7,3.1-7,7v-28.4c0-5.5-4.5-10-10-10h-65.8c-5.5,0-10,4.5-10,10V547c0-3.9-3.2-7-7-7s-7,3.1-7,7v-28.4c0-5.5-4.5-10-10-10H605
		c-5.5,0-10,4.5-10,10V547c0-3.9-3.2-7-7-7s-7,3.1-7,7v-28.4c0-5.5-4.5-10-10-10h-65.8c-5.5,0-10,4.5-10,10V547c0-3.9-3.2-7-7-7
		s-7,3.1-7,7v-28.4c0-5.5-4.5-10-10-10h-65.8c-5.5,0-10,4.5-10,10V547c0-3.9-3.2-7-7-7s-7,3.1-7,7v-28.4c0-5.5-4.5-10-10-10h-65.8
		c-5.5,0-10,4.5-10,10V547c0-3.9-3.2-7-7-7s-7,3.1-7,7v-28.4c0-5.5-4.5-10-10-10h-65.8c-5.5,0-10,4.5-10,10V547c0-3.9-3.2-7-7-7
		s-7,3.1-7,7v-28.4c0-5.5-4.5-10-10-10h-65.8c-5.5,0-10,4.5-10,10V547c0-3.9-3.2-7-7-7s-7,3.1-7,7v-28.4c0-5.5-4.5-10-10-10H6
		c-1,0-2.1,0.2-3,0.5v88h1189.8c0.8-1.1,1.3-2.5,1.3-4V547z"/>
	<rect opacity="0.45" fill="#FBE25C" width="1200" height="600"/>
</g>
</svg>
